<?xml version="1.0" standalone="no"?>
<!DOCTYPE svg PUBLIC "-//W3C//DTD SVG 20010904//EN"
 "http://www.w3.org/TR/2001/REC-SVG-20010904/DTD/svg10.dtd">
<svg version="1.0" xmlns="http://www.w3.org/2000/svg"
 width="1280.000000pt" height="1232.000000pt" viewBox="0 0 1280.000000 1232.000000"
 preserveAspectRatio="xMidYMid meet">
<path d="M3875 12300 c-131 -27 -188 -47 -302 -105 -383 -193 -774 -653 -1098
-1292 -45 -89 -106 -217 -135 -285 -68 -161 -70 -164 -120 -172 -93 -15 -203
-101 -250 -196 -91 -181 -55 -400 87 -530 174 -159 432 -99 537 125 39 80 53
179 38 265 -16 95 -37 143 -93 212 -47 59 -47 60 -34 96 25 70 93 218 163 358
305 608 683 1059 1027 1225 153 74 313 97 451 64 535 -126 1014 -993 1389
-2513 26 -106 46 -194 44 -196 -2 -1 -60 -30 -129 -63 -416 -202 -668 -492
-729 -837 -23 -130 -7 -314 37 -435 l18 -46 374 -5 375 -5 -367 -3 c-289 -2
-368 -5 -368 -15 0 -19 72 -138 123 -204 55 -71 183 -195 255 -247 58 -42 58
-44 21 -118 -40 -80 -114 -270 -170 -438 -31 -96 -62 -176 -67 -178 -5 -1 -37
30 -73 70 -107 123 -446 463 -589 592 -349 315 -704 582 -1060 796 -183 110
-543 287 -721 354 -432 164 -837 227 -1169 181 -291 -39 -499 -136 -688 -319
-359 -347 -468 -925 -312 -1651 94 -434 296 -972 527 -1400 855 -1585 2450
-2956 3778 -3248 154 -34 291 -48 462 -48 l173 0 38 -52 c21 -29 66 -93 99
-143 169 -251 360 -438 555 -544 68 -36 76 -44 110 -107 128 -237 209 -525
259 -918 11 -93 22 -171 23 -172 2 -2 10 70 20 160 36 339 112 623 231 862
l65 130 95 53 c215 120 372 281 594 609 45 68 86 125 90 127 4 3 59 1 123 -3
558 -39 1261 204 1978 682 1152 768 2169 1997 2645 3198 290 729 385 1337 285
1815 -80 384 -298 687 -608 843 -292 147 -649 179 -1072 96 -290 -57 -554
-151 -885 -315 -491 -243 -937 -554 -1415 -986 -156 -141 -476 -463 -604 -609
-49 -55 -95 -100 -103 -100 -10 0 -29 44 -58 140 -49 159 -123 356 -184 493
-22 51 -41 96 -41 101 0 4 38 38 84 74 201 160 339 360 398 577 30 109 29 314
-1 425 -60 224 -210 433 -426 594 -112 84 -193 132 -315 186 -78 35 -96 47
-98 66 -2 14 22 123 52 244 371 1479 838 2313 1371 2450 138 35 292 12 460
-70 133 -65 215 -126 359 -265 228 -221 456 -547 650 -930 73 -142 176 -375
212 -476 l18 -51 -47 -59 c-58 -75 -84 -133 -96 -220 -40 -278 160 -511 406
-472 141 22 256 139 293 297 21 89 9 216 -28 295 -55 116 -141 190 -258 219
l-47 12 -63 155 c-221 542 -537 1051 -849 1365 -246 249 -450 371 -718 431
-134 29 -166 30 -292 3 -284 -59 -512 -220 -732 -514 -354 -471 -624 -1151
-896 -2255 l-23 -95 -35 1 c-19 0 -88 11 -154 23 -239 43 -545 39 -817 -11
-65 -12 -120 -19 -123 -17 -2 3 -36 129 -74 279 -400 1576 -907 2431 -1526
2575 -39 9 -86 20 -106 26 -51 13 -131 9 -224 -11z m-2190 -4070 c469 -45
1033 -276 1604 -659 367 -246 678 -506 1046 -875 270 -270 475 -504 475 -541
0 -13 -7 -75 -15 -137 -74 -572 -80 -655 -80 -1183 1 -467 8 -600 51 -935 52
-413 144 -829 254 -1155 24 -72 36 -123 31 -128 -13 -13 -179 8 -319 39 -1277
286 -2865 1695 -3643 3232 -297 587 -444 1129 -426 1567 10 239 61 390 174
515 187 206 476 295 848 260z m9720 0 c242 -28 421 -111 554 -256 96 -105 140
-205 166 -379 66 -438 -84 -1055 -414 -1707 -464 -916 -1237 -1824 -2101
-2465 -527 -392 -1071 -662 -1542 -767 -196 -44 -388 -60 -388 -33 0 7 14 53
30 103 125 368 226 840 274 1289 33 310 40 450 40 835 0 421 -11 602 -59 985
-37 297 -45 261 86 416 429 506 953 980 1460 1320 702 471 1404 715 1894 659z"/>
</svg>
