<?xml version="1.0" encoding="UTF-8"?>
<svg xmlns="http://www.w3.org/2000/svg" xmlns:xlink="http://www.w3.org/1999/xlink" viewBox="0 0 173.33 282.33">
  <defs>
    <style>
      .cls-1 {
        fill: url(#_ÂÁ_Ï_ÌÌ_È_ËÂÌÚ_7);
      }

      .cls-1, .cls-2, .cls-3, .cls-4, .cls-5, .cls-6, .cls-7, .cls-8, .cls-9, .cls-10, .cls-11, .cls-12, .cls-13, .cls-14, .cls-15, .cls-16, .cls-17, .cls-18, .cls-19, .cls-20, .cls-21, .cls-22, .cls-23, .cls-24, .cls-25, .cls-26, .cls-27, .cls-28, .cls-29, .cls-30, .cls-31, .cls-32, .cls-33, .cls-34, .cls-35, .cls-36, .cls-37, .cls-38, .cls-39 {
        fill-rule: evenodd;
        stroke-width: 0px;
      }

      .cls-2 {
        fill: url(#_ÂÁ_Ï_ÌÌ_È_ËÂÌÚ_16-7);
      }

      .cls-2, .cls-4, .cls-6, .cls-8, .cls-9, .cls-10, .cls-14, .cls-16, .cls-17, .cls-20, .cls-40, .cls-21, .cls-22, .cls-24, .cls-26, .cls-28, .cls-30, .cls-32, .cls-34, .cls-35, .cls-41, .cls-37, .cls-39 {
        mix-blend-mode: multiply;
      }

      .cls-2, .cls-4, .cls-6, .cls-8, .cls-9, .cls-10, .cls-14, .cls-17, .cls-20, .cls-21, .cls-22, .cls-24, .cls-26, .cls-28, .cls-30, .cls-32, .cls-34, .cls-35, .cls-37 {
        opacity: .71;
      }

      .cls-3 {
        fill: url(#_ÂÁ_Ï_ÌÌ_È_ËÂÌÚ_42);
      }

      .cls-4 {
        fill: url(#_ÂÁ_Ï_ÌÌ_È_ËÂÌÚ_141-3);
      }

      .cls-5 {
        fill: url(#_ÂÁ_Ï_ÌÌ_È_ËÂÌÚ_2-2);
      }

      .cls-6 {
        fill: url(#_ÂÁ_Ï_ÌÌ_È_ËÂÌÚ_141-4);
      }

      .cls-7 {
        fill: url(#_ÂÁ_Ï_ÌÌ_È_ËÂÌÚ_2-3);
      }

      .cls-42 {
        isolation: isolate;
      }

      .cls-8 {
        fill: url(#_ÂÁ_Ï_ÌÌ_È_ËÂÌÚ_16-5);
      }

      .cls-9 {
        fill: url(#_ÂÁ_Ï_ÌÌ_È_ËÂÌÚ_16);
      }

      .cls-10 {
        fill: url(#_ÂÁ_Ï_ÌÌ_È_ËÂÌÚ_49);
      }

      .cls-11 {
        fill: url(#_ÂÁ_Ï_ÌÌ_È_ËÂÌÚ_43);
      }

      .cls-12 {
        fill: url(#_ÂÁ_Ï_ÌÌ_È_ËÂÌÚ_100-2);
      }

      .cls-13 {
        fill: #fffff8;
      }

      .cls-14 {
        fill: url(#_ÂÁ_Ï_ÌÌ_È_ËÂÌÚ_65);
      }

      .cls-15 {
        fill: url(#_ÂÁ_Ï_ÌÌ_È_ËÂÌÚ_2);
      }

      .cls-16 {
        fill: url(#_ÂÁ_Ï_ÌÌ_È_ËÂÌÚ_34);
      }

      .cls-17 {
        fill: url(#_ÂÁ_Ï_ÌÌ_È_ËÂÌÚ_16-2);
      }

      .cls-18 {
        fill: #b9bfe2;
      }

      .cls-19 {
        fill: url(#_ÂÁ_Ï_ÌÌ_È_ËÂÌÚ_3-2);
      }

      .cls-20 {
        fill: #ccc9e0;
      }

      .cls-40, .cls-38 {
        opacity: .5;
      }

      .cls-21 {
        fill: url(#_ÂÁ_Ï_ÌÌ_È_ËÂÌÚ_92-2);
      }

      .cls-22 {
        fill: url(#_ÂÁ_Ï_ÌÌ_È_ËÂÌÚ_16-3);
      }

      .cls-23 {
        fill: url(#_ÂÁ_Ï_ÌÌ_È_ËÂÌÚ_3);
      }

      .cls-24 {
        fill: url(#_ÂÁ_Ï_ÌÌ_È_ËÂÌÚ_16-4);
      }

      .cls-25 {
        fill: url(#_ÂÁ_Ï_ÌÌ_È_ËÂÌÚ_38-2);
      }

      .cls-26 {
        fill: url(#_ÂÁ_Ï_ÌÌ_È_ËÂÌÚ_14-2);
      }

      .cls-27 {
        fill: #b8bdfa;
      }

      .cls-28 {
        fill: url(#_ÂÁ_Ï_ÌÌ_È_ËÂÌÚ_14);
      }

      .cls-29 {
        fill: url(#_ÂÁ_Ï_ÌÌ_È_ËÂÌÚ_24-2);
      }

      .cls-30 {
        fill: url(#_ÂÁ_Ï_ÌÌ_È_ËÂÌÚ_141-2);
      }

      .cls-31 {
        fill: url(#_ÂÁ_Ï_ÌÌ_È_ËÂÌÚ_38);
      }

      .cls-32 {
        fill: #acc9e0;
      }

      .cls-33 {
        fill: url(#_ÂÁ_Ï_ÌÌ_È_ËÂÌÚ_24);
      }

      .cls-34 {
        fill: url(#_ÂÁ_Ï_ÌÌ_È_ËÂÌÚ_92);
      }

      .cls-35 {
        fill: url(#_ÂÁ_Ï_ÌÌ_È_ËÂÌÚ_141);
      }

      .cls-36 {
        fill: url(#_ÂÁ_Ï_ÌÌ_È_ËÂÌÚ_100);
      }

      .cls-37 {
        fill: url(#_ÂÁ_Ï_ÌÌ_È_ËÂÌÚ_16-6);
      }

      .cls-38 {
        fill: url(#_ÂÁ_Ï_ÌÌ_È_ËÂÌÚ_78);
        mix-blend-mode: screen;
      }

      .cls-39 {
        fill: url(#_ÂÁ_Ï_ÌÌ_È_ËÂÌÚ_79);
        opacity: .4;
      }
    </style>
    <linearGradient id="_ÂÁ_Ï_ÌÌ_È_ËÂÌÚ_43" data-name="¡ÂÁ˚ÏˇÌÌ˚È „‡‰ËÂÌÚ 43" x1="71" y1="162.16" x2="89.17" y2="139.89" gradientUnits="userSpaceOnUse">
      <stop offset="0" stop-color="#7438a1"/>
      <stop offset=".34" stop-color="#6d30a7"/>
      <stop offset=".82" stop-color="#5b1db9"/>
      <stop offset=".99" stop-color="#5315c2"/>
    </linearGradient>
    <linearGradient id="_ÂÁ_Ï_ÌÌ_È_ËÂÌÚ_38" data-name="¡ÂÁ˚ÏˇÌÌ˚È „‡‰ËÂÌÚ 38" x1="76.95" y1="280.8" x2="76.95" y2="128.67" gradientUnits="userSpaceOnUse">
      <stop offset="0" stop-color="#de5e3a"/>
      <stop offset=".26" stop-color="#db5a3a"/>
      <stop offset=".45" stop-color="#d1513d"/>
      <stop offset=".63" stop-color="#c24043"/>
      <stop offset=".79" stop-color="#ac294a"/>
      <stop offset=".95" stop-color="#900b53"/>
      <stop offset="1" stop-color="#860057"/>
    </linearGradient>
    <linearGradient id="_ÂÁ_Ï_ÌÌ_È_ËÂÌÚ_141" data-name="¡ÂÁ˚ÏˇÌÌ˚È „‡‰ËÂÌÚ 141" x1="39.43" y1="238.39" x2="87.16" y2="238.39" gradientUnits="userSpaceOnUse">
      <stop offset="0" stop-color="#ca528d"/>
      <stop offset="1" stop-color="#8e7090"/>
    </linearGradient>
    <linearGradient id="_ÂÁ_Ï_ÌÌ_È_ËÂÌÚ_141-2" data-name="¡ÂÁ˚ÏˇÌÌ˚È „‡‰ËÂÌÚ 141" x1="64.01" y1="164.67" x2="106.41" y2="164.67" xlink:href="#_ÂÁ_Ï_ÌÌ_È_ËÂÌÚ_141"/>
    <linearGradient id="_ÂÁ_Ï_ÌÌ_È_ËÂÌÚ_7" data-name="¡ÂÁ˚ÏˇÌÌ˚È „‡‰ËÂÌÚ 7" x1="86.66" y1="155.72" x2="86.66" y2="110.15" gradientUnits="userSpaceOnUse">
      <stop offset="0" stop-color="#8931b3"/>
      <stop offset="1" stop-color="#9c8eff"/>
    </linearGradient>
    <radialGradient id="_ÂÁ_Ï_ÌÌ_È_ËÂÌÚ_3" data-name="¡ÂÁ˚ÏˇÌÌ˚È „‡‰ËÂÌÚ 3" cx="57.92" cy="46" fx="57.92" fy="46" r="118.65" gradientUnits="userSpaceOnUse">
      <stop offset="0" stop-color="#ffb8e2"/>
      <stop offset=".22" stop-color="#fcb7e2"/>
      <stop offset=".33" stop-color="#f5b4e5"/>
      <stop offset=".42" stop-color="#e7b0e9"/>
      <stop offset=".49" stop-color="#d5aaef"/>
      <stop offset=".55" stop-color="#bda2f7"/>
      <stop offset=".58" stop-color="#ae9dfc"/>
      <stop offset=".66" stop-color="#a79cfc"/>
      <stop offset=".77" stop-color="#939cfc"/>
      <stop offset=".91" stop-color="#749afe"/>
      <stop offset=".99" stop-color="#5e9aff"/>
    </radialGradient>
    <linearGradient id="_ÂÁ_Ï_ÌÌ_È_ËÂÌÚ_79" data-name="¡ÂÁ˚ÏˇÌÌ˚È „‡‰ËÂÌÚ 79" x1="64.69" y1="106.04" x2="170.98" y2="106.04" gradientUnits="userSpaceOnUse">
      <stop offset="0" stop-color="#fff"/>
      <stop offset="1" stop-color="#1372b3"/>
    </linearGradient>
    <linearGradient id="_ÂÁ_Ï_ÌÌ_È_ËÂÌÚ_14" data-name="¡ÂÁ˚ÏˇÌÌ˚È „‡‰ËÂÌÚ 14" x1="28.71" y1="145.61" x2="28.71" y2="119.23" gradientUnits="userSpaceOnUse">
      <stop offset="0" stop-color="#7c52b3"/>
      <stop offset="1" stop-color="#e5d6ff"/>
    </linearGradient>
    <linearGradient id="_ÂÁ_Ï_ÌÌ_È_ËÂÌÚ_14-2" data-name="¡ÂÁ˚ÏˇÌÌ˚È „‡‰ËÂÌÚ 14" x1="44.55" y1="138.62" x2="44.55" y2="126.15" xlink:href="#_ÂÁ_Ï_ÌÌ_È_ËÂÌÚ_14"/>
    <linearGradient id="_ÂÁ_Ï_ÌÌ_È_ËÂÌÚ_24" data-name="¡ÂÁ˚ÏˇÌÌ˚È „‡‰ËÂÌÚ 24" x1="62.14" y1="257.35" x2="62.14" y2="214.54" gradientUnits="userSpaceOnUse">
      <stop offset="0" stop-color="#860057"/>
      <stop offset=".44" stop-color="#b2355d"/>
      <stop offset=".8" stop-color="#d25961"/>
      <stop offset=".99" stop-color="#de6863"/>
    </linearGradient>
    <linearGradient id="_ÂÁ_Ï_ÌÌ_È_ËÂÌÚ_42" data-name="¡ÂÁ˚ÏˇÌÌ˚È „‡‰ËÂÌÚ 42" x1="82.49" y1="265.87" x2="82.49" y2="229.58" gradientUnits="userSpaceOnUse">
      <stop offset="0" stop-color="#9d463b"/>
      <stop offset=".22" stop-color="#913b3f"/>
      <stop offset=".61" stop-color="#712049"/>
      <stop offset="1" stop-color="#4c0057"/>
    </linearGradient>
    <linearGradient id="_ÂÁ_Ï_ÌÌ_È_ËÂÌÚ_34" data-name="¡ÂÁ˚ÏˇÌÌ˚È „‡‰ËÂÌÚ 34" x1="80.01" y1="265.87" x2="80.01" y2="234.69" gradientUnits="userSpaceOnUse">
      <stop offset="0" stop-color="#7c52b3"/>
      <stop offset="1" stop-color="#c49fa4"/>
    </linearGradient>
    <linearGradient id="_ÂÁ_Ï_ÌÌ_È_ËÂÌÚ_16" data-name="¡ÂÁ˚ÏˇÌÌ˚È „‡‰ËÂÌÚ 16" x1="0" y1="143.48" x2="164.94" y2="143.48" gradientUnits="userSpaceOnUse">
      <stop offset="0" stop-color="#7c52b3"/>
      <stop offset="1" stop-color="#fff"/>
    </linearGradient>
    <linearGradient id="_ÂÁ_Ï_ÌÌ_È_ËÂÌÚ_16-2" data-name="¡ÂÁ˚ÏˇÌÌ˚È „‡‰ËÂÌÚ 16" x1="131.31" y1="104.57" x2="131.31" y2="46.65" xlink:href="#_ÂÁ_Ï_ÌÌ_È_ËÂÌÚ_16"/>
    <linearGradient id="_ÂÁ_Ï_ÌÌ_È_ËÂÌÚ_65" data-name="¡ÂÁ˚ÏˇÌÌ˚È „‡‰ËÂÌÚ 65" x1="33.35" y1="121.04" x2="33.35" y2="95.24" gradientUnits="userSpaceOnUse">
      <stop offset="0" stop-color="#7c52b3"/>
      <stop offset="1" stop-color="#d6ceff"/>
    </linearGradient>
    <linearGradient id="_ÂÁ_Ï_ÌÌ_È_ËÂÌÚ_49" data-name="¡ÂÁ˚ÏˇÌÌ˚È „‡‰ËÂÌÚ 49" x1="61.4" y1="90.54" x2="61.4" y2="43.1" gradientUnits="userSpaceOnUse">
      <stop offset="0" stop-color="#7c52b3"/>
      <stop offset="1" stop-color="#ffd6e0"/>
    </linearGradient>
    <linearGradient id="_ÂÁ_Ï_ÌÌ_È_ËÂÌÚ_16-3" data-name="¡ÂÁ˚ÏˇÌÌ˚È „‡‰ËÂÌÚ 16" x1="110.95" y1="71.9" x2="152.84" y2="71.9" xlink:href="#_ÂÁ_Ï_ÌÌ_È_ËÂÌÚ_16"/>
    <linearGradient id="_ÂÁ_Ï_ÌÌ_È_ËÂÌÚ_16-4" data-name="¡ÂÁ˚ÏˇÌÌ˚È „‡‰ËÂÌÚ 16" x1="150.29" y1="103.67" x2="160.59" y2="103.67" xlink:href="#_ÂÁ_Ï_ÌÌ_È_ËÂÌÚ_16"/>
    <linearGradient id="_ÂÁ_Ï_ÌÌ_È_ËÂÌÚ_16-5" data-name="¡ÂÁ˚ÏˇÌÌ˚È „‡‰ËÂÌÚ 16" x1="56.64" y1="89.05" x2="56.64" y2="39.67" xlink:href="#_ÂÁ_Ï_ÌÌ_È_ËÂÌÚ_16"/>
    <linearGradient id="_ÂÁ_Ï_ÌÌ_È_ËÂÌÚ_16-6" data-name="¡ÂÁ˚ÏˇÌÌ˚È „‡‰ËÂÌÚ 16" x1="33.06" y1="120.24" x2="33.06" y2="93.37" xlink:href="#_ÂÁ_Ï_ÌÌ_È_ËÂÌÚ_16"/>
    <linearGradient id="_ÂÁ_Ï_ÌÌ_È_ËÂÌÚ_16-7" data-name="¡ÂÁ˚ÏˇÌÌ˚È „‡‰ËÂÌÚ 16" x1="70.94" y1="32.73" x2="70.94" y2="21.11" xlink:href="#_ÂÁ_Ï_ÌÌ_È_ËÂÌÚ_16"/>
    <linearGradient id="_ÂÁ_Ï_ÌÌ_È_ËÂÌÚ_78" data-name="¡ÂÁ˚ÏˇÌÌ˚È „‡‰ËÂÌÚ 78" x1="34.77" y1="56.64" x2="107.1" y2="56.64" gradientUnits="userSpaceOnUse">
      <stop offset="0" stop-color="#bdffe8"/>
      <stop offset=".11" stop-color="#a9dcd1"/>
      <stop offset=".35" stop-color="#839ba7"/>
      <stop offset=".57" stop-color="#646685"/>
      <stop offset=".76" stop-color="#4f416d"/>
      <stop offset=".91" stop-color="#412a5e"/>
      <stop offset="1" stop-color="#3d2259"/>
    </linearGradient>
    <linearGradient id="_ÂÁ_Ï_ÌÌ_È_ËÂÌÚ_141-3" data-name="¡ÂÁ˚ÏˇÌÌ˚È „‡‰ËÂÌÚ 141" x1="58.26" y1="201.62" x2="78.62" y2="201.62" xlink:href="#_ÂÁ_Ï_ÌÌ_È_ËÂÌÚ_141"/>
    <linearGradient id="_ÂÁ_Ï_ÌÌ_È_ËÂÌÚ_24-2" data-name="¡ÂÁ˚ÏˇÌÌ˚È „‡‰ËÂÌÚ 24" x1="68.28" y1="207.87" x2="68.28" y2="190.24" xlink:href="#_ÂÁ_Ï_ÌÌ_È_ËÂÌÚ_24"/>
    <linearGradient id="_ÂÁ_Ï_ÌÌ_È_ËÂÌÚ_100" data-name="¡ÂÁ˚ÏˇÌÌ˚È „‡‰ËÂÌÚ 100" x1="44" y1="228.06" x2="84.89" y2="228.06" gradientUnits="userSpaceOnUse">
      <stop offset="0" stop-color="#f49f57"/>
      <stop offset=".1" stop-color="#f69656"/>
      <stop offset=".35" stop-color="#fb8555"/>
      <stop offset=".63" stop-color="#fe7c54"/>
      <stop offset=".99" stop-color="#ff7954"/>
    </linearGradient>
    <linearGradient id="_ÂÁ_Ï_ÌÌ_È_ËÂÌÚ_100-2" data-name="¡ÂÁ˚ÏˇÌÌ˚È „‡‰ËÂÌÚ 100" x1="58.26" y1="195.92" x2="78.62" y2="195.92" xlink:href="#_ÂÁ_Ï_ÌÌ_È_ËÂÌÚ_100"/>
    <linearGradient id="_ÂÁ_Ï_ÌÌ_È_ËÂÌÚ_92" data-name="¡ÂÁ˚ÏˇÌÌ˚È „‡‰ËÂÌÚ 92" x1="73.64" y1="280.8" x2="73.64" y2="235.91" gradientUnits="userSpaceOnUse">
      <stop offset="0" stop-color="#c28bc5"/>
      <stop offset="1" stop-color="#ea9cbd"/>
    </linearGradient>
    <linearGradient id="_ÂÁ_Ï_ÌÌ_È_ËÂÌÚ_92-2" data-name="¡ÂÁ˚ÏˇÌÌ˚È „‡‰ËÂÌÚ 92" x1="50.93" y1="243.76" x2="50.93" y2="198.29" xlink:href="#_ÂÁ_Ï_ÌÌ_È_ËÂÌÚ_92"/>
    <radialGradient id="_ÂÁ_Ï_ÌÌ_È_ËÂÌÚ_3-2" data-name="¡ÂÁ˚ÏˇÌÌ˚È „‡‰ËÂÌÚ 3" cx="25.8" cy="223.56" fx="25.8" fy="223.56" r="35.8" xlink:href="#_ÂÁ_Ï_ÌÌ_È_ËÂÌÚ_3"/>
    <linearGradient id="_ÂÁ_Ï_ÌÌ_È_ËÂÌÚ_2" data-name="¡ÂÁ˚ÏˇÌÌ˚È „‡‰ËÂÌÚ 2" x1="34.77" y1="259.18" x2="34.77" y2="235.68" gradientUnits="userSpaceOnUse">
      <stop offset="0" stop-color="#8931b3"/>
      <stop offset="1" stop-color="#9c77e0"/>
    </linearGradient>
    <linearGradient id="_ÂÁ_Ï_ÌÌ_È_ËÂÌÚ_38-2" data-name="¡ÂÁ˚ÏˇÌÌ˚È „‡‰ËÂÌÚ 38" x1="42.75" y1="282.33" x2="42.75" y2="246.86" xlink:href="#_ÂÁ_Ï_ÌÌ_È_ËÂÌÚ_38"/>
    <linearGradient id="_ÂÁ_Ï_ÌÌ_È_ËÂÌÚ_141-4" data-name="¡ÂÁ˚ÏˇÌÌ˚È „‡‰ËÂÌÚ 141" x1="27.54" y1="258.73" x2="46.65" y2="258.73" xlink:href="#_ÂÁ_Ï_ÌÌ_È_ËÂÌÚ_141"/>
    <linearGradient id="_ÂÁ_Ï_ÌÌ_È_ËÂÌÚ_2-2" data-name="¡ÂÁ˚ÏˇÌÌ˚È „‡‰ËÂÌÚ 2" x1="33.49" y1="187.62" x2="33.49" y2="132.16" xlink:href="#_ÂÁ_Ï_ÌÌ_È_ËÂÌÚ_2"/>
    <linearGradient id="_ÂÁ_Ï_ÌÌ_È_ËÂÌÚ_2-3" data-name="¡ÂÁ˚ÏˇÌÌ˚È „‡‰ËÂÌÚ 2" x1="104.8" y1="162.78" x2="104.8" y2="131.54" xlink:href="#_ÂÁ_Ï_ÌÌ_È_ËÂÌÚ_2"/>
  </defs>
  <g class="cls-42">
    <g id="Calque_2" data-name="Calque 2">
      <g id="champignon">
        <g>
          <path class="cls-11" d="M64.53,155.72s18.52,1.46,36.43-2.48l2.85-4.11-24.93-6.76-17.87,4.23,3.53,9.11Z"/>
          <path class="cls-31" d="M80.25,189.58c-12.28,31.58,29.11,55.15,29.11,72.37,0,1.89-.59,3.66-1.52,5.28-3.73,6.48-13.02,10.59-13.02,10.59-25.36,6.53-45.71.26-45.71.26,0,0-7.4-1.1-8.99-12.99-.51-3.78-.79-7.37-.64-11.16t0-.01c.44-11.57,4.88-24.79,18.79-50.54,5.69-10.53,7.99-21.72,8.46-32.17h0c.47-10.77-1.01-20.72-2.71-28.29-1.97-8.7-4.26-14.25-4.26-14.25h4.95s.44,6,2.17,13.3c1.91,8.1,5.39,17.79,11.6,22.53,8.28,6.33,19.31-10.99,25.12-21.81,2.44-4.56,3.96-7.96,3.96-7.96h6.92s-3.23,2.86-8.05,8.77c-6.83,8.36-16.8,22.81-25.29,43.86-.29.73-.59,1.47-.88,2.22Z"/>
          <path class="cls-35" d="M39.43,254.06s5.51-13.55,17.11-20.65c11.61-7.1,30.61-6.6,30.61-6.6l-1.95-4.1h-12.57s-19.97,6.41-29.29,20.43l-3.92,10.91Z"/>
          <path class="cls-30" d="M106.41,143.5c-6.83,8.36-16.8,22.81-25.29,43.86-8.8-4.98-14.08-15.49-14.41-16.15h0c.47-10.77-1.01-20.72-2.71-28.29l2.85-.96c1.91,8.1,5.39,17.79,11.6,22.53,8.28,6.33,19.31-10.99,25.12-21.81l2.84.81Z"/>
          <path class="cls-1" d="M173.33,121.23s-2.82,4.54-8.39,10.01c-5.96,5.87-15.09,12.79-27.28,16.27-23.55,6.73-36.71,5.74-36.71,5.74-1.15-2.56-3.92-.84-3.92-.84l-26.51.25c-5.93-2.36-6,3.06-6,3.06,0,0-73.84-5.5-63.54-16.42,41.35-52.48,172.34-18.06,172.34-18.06Z"/>
          <path class="cls-23" d="M173.33,121.23s-15.05,28.66-70.3,17.01c-12.06-2.54-22.34-4.25-31.62-5.29h-.03c-1.22-.15-2.41-.27-3.6-.38-.11-.03-.22-.03-.32-.03-.27-.04-.53-.07-.81-.08-.03,0-.04-.01-.07-.01-2.28-.22-4.51-.38-6.69-.52-.79-.04-1.59-.08-2.37-.12-3.06-.15-6.02-.22-8.95-.23l-1.73-6.32-4.58,6.32c-2.33.04-4.58.12-6.73.25l3.89-14.49c-5.65,6.58-17.52,13.61-21.45,16.58-9.28,1.45-12.32,3.02-16.98,5.37.62-.67,20.41-22.19,35.58-50.74C54.81,54.26,52.88,11.68,66.87,2.08c6.04-4.15,15.3-1.91,26.03,5.1,9.11,5.95,19.31,15.35,29.5,27.17,19.44,22.52,38.87,53.84,50.93,86.88Z"/>
          <path class="cls-39" d="M64.69,128.67s35.99,4.37,59.02,8.35c23.03,3.98,45.71-10.98,47.27-15.79,0,0-2.83-17.89-20.03-46.84,0,0,11.28,22.49,4.27,39.09-5.6,13.26-19.73,19.46-40.76,18.06-25.4-1.69-35.03-3.07-49.77-2.86Z"/>
          <g class="cls-40">
            <path class="cls-18" d="M80.37,91.81c-2.55,3.69-4.91,7.47-7.46,11.16-1.58,2.29-2.46,4.5-3.19,7.19-1.17,4.32,1.84,9.76,5.24,12.48,4.21,3.39,10.2,4.41,15.43,4.9,4.73.45,9.95,1.96,14.11-1.17,4.79-3.62,7.73-9.67,9.02-15.52,1.55-7.09.92-14.81-4.82-19.99-3.95-3.56-10.1-6.84-15.49-7.08-2.5-.11-4.8.42-7.11,1.37-1.66.68-3.32,1.66-4.5,3.02-1.45,1.67-2.17,3.89-1.22,3.64Z"/>
            <path class="cls-18" d="M92.9,69.85c-1,.94-1.28,1.93-.85,2.98,2.21-.54,6.41.46,6.42-2.98,0-1.57-.7-1.93-2.09-2.09-1.67-.2-2.2.45-3.48,1.4v.69Z"/>
            <path class="cls-18" d="M122.39,34.35c-.04.07-.08.14-.12.21-1.82,2.73-5.45,2.8-8.33,2.15-2.36-.53-4.92-.75-7.22-1.47-.92-.27-1.71-.77-2.66-.97-.99-.22-1.7-.49-2.58-1.01-2.54-1.49-4.87-2.63-6.78-4.93-1.69-2.04-3.04-4.56-3.56-7.15-.51-2.58-.45-5.26-.05-7.85.16-1.14.33-2.29.53-3.43.25-1.44.36-1.7,1.29-2.7,9.11,5.95,19.31,15.35,29.5,27.17Z"/>
            <path class="cls-18" d="M57.23,125.59c.47-1.62,1.44-3.31,3.01-4.09.8-.4,1.62-.27,2.45-.4.84-.13,1.57-.34,2.43-.36,3.07-.09,5.52,1.55,6.99,4.15.79,1.41,1.4,2.44,1.38,4.09,0,.86.04,1.8-.34,2.51-.2.37-.71,1.09-1.12,1.31-.64.34-1.98.06-2.7.07-.58,0-.85-.13-1.38-.27-.47-.12-.91-.04-1.39-.16-.78-.19-1.57-.49-2.35-.69-.39-.1-.58-.28-1.11-.27-.57,0-1.19-.07-1.76,0-.91.11-1.84.78-2.76.72-.78-.05-1.2-.45-1.72-.98-.31-.32-.46-.4-.69-.77-.23-.37-.18-.69-.34-1.05-.34-.79-.47-1.42-.28-2.34.05-.26.25-.78.34-1.12.11-.43.44-1.09,1.32-.35Z"/>
          </g>
          <path class="cls-28" d="M37.67,144.79s-14.27-5.35-19.68-10.89c0,0,15.08-9.61,21.45-16.58l-8.69,16.93s2.45,7.29,6.93,10.54Z"/>
          <polygon class="cls-26" points="45.54 138.23 42.27 131.56 46.84 125.25 45.8 131.74 45.54 138.23"/>
          <path class="cls-33" d="M87.16,226.82s0-13.1-8.8-12.23c-7.39.73-38.26,28.91-40.51,32.55-2.25,3.64,1.59,10.21,1.59,10.21v-3.29s3.84-9.87,11.91-18.18c8.08-8.31,34.45-11.08,34.45-11.08l1.36,2.02Z"/>
          <path class="cls-3" d="M100.46,263.21c-.92.78-2.3,1.37-4.03,1.8-10.09,2.51-31.44-.78-32.62-6.1-.95-4.26-.55-14.41,2.63-21.57,1.48-3.32,3.55-6,6.36-7.17,12.99-5.37,33.94,27.7,27.66,33.05Z"/>
          <path class="cls-16" d="M96.44,265.01c-10.09,2.51-31.44-.78-32.62-6.1-.95-4.26-.55-14.41,2.63-21.57,8.88-5.65,15.36-1.97,23.68,8.42,8.31,10.39,6.3,19.26,6.3,19.26Z"/>
          <path class="cls-27" d="M48.57,131.56s31.82.42,61.25,7.94c29.43,7.52,58.76-4.28,63.51-18.27,0,0-13.78,23.56-56.37,17-37.95-5.85-45.88-6.59-68.39-6.67Z"/>
          <path class="cls-27" d="M.98,139.3s4.41-5.54,17-8.24l19.15-11.34-19.15,14.18s-12.3,1.78-17,5.39Z"/>
          <path class="cls-9" d="M164.94,131.24c-5.96,5.87-15.09,12.79-27.28,16.27-23.55,6.73-36.71,5.74-36.71,5.74-1.15-2.56-3.92-.84-3.92-.84l-26.51.25c-5.93-2.36-6,3.06-6,3.06,0,0-73.84-5.5-63.54-16.42,0,0,11.38,6.78,36.15,9.89,24.78,3.11,85.02-2.17,92.82-7.34l34.99-10.61Z"/>
          <path class="cls-17" d="M152.8,94.08c-.53,2.55-3.85,5.52-8.4,7.25-7.22,2.74-17.56,2.33-24.84-7.96-9.43-13.34-13.75-49.77-5.1-50.88.21-.03.42-.04.66-.01,11.28.41,39.04,45.15,37.68,51.6Z"/>
          <path class="cls-14" d="M40.61,110.16c-3.99,5.67-11.23,9.48-15.17,10.02-1.19.16-2.08.03-2.48-.45-1.74-2.07,8.92-25.55,16.47-26.33,1.86-.19,3.21.99,3.92,2.93,1.26,3.39.56,9.11-2.74,13.83Z"/>
          <path class="cls-10" d="M74.89,63.76c.41,14.28-12.28,25.91-20.61,25.29-2.4-.18-4.44-1.37-5.7-3.8-2.93-5.63,4.5-35.1,10.21-43,1.9-2.63,4.26-3.17,6.59-2.01,4.66,2.26,9.17,11.25,9.51,23.52Z"/>
          <path class="cls-20" d="M76.94,27.96c-.05,4.88-4.61,6.1-8.14,4.77-.33-.12-.64-.27-.95-.44-2.78-1.51-1.33-8.13,1.89-10.42,2-1.41,4.32-.77,5.76,1.19.89,1.19,1.45,2.88,1.44,4.89Z"/>
          <path class="cls-32" d="M157.26,109.39h0c-.9.47-1.9.75-2.92.84-3.15.25-5.52-6.11-4.06-9.77,1.47-3.67,6.5-3.3,9.35,1.21,2.15,3.39.38,6.35-2.37,7.73Z"/>
          <path class="cls-22" d="M152.8,94.08c-.53,2.55-3.85,5.52-8.4,7.25,2.19-2.48,4.13-5.41,3.99-7.96-.3-5.73-10.65-23.96-20.26-37.2-9.61-13.24-17.17-9.81-17.17-9.81.73-1.96,2.22-3.22,4.17-3.88,11.28.41,39.04,45.15,37.68,51.6Z"/>
          <path class="cls-24" d="M157.26,109.39c2.38-2.69,1.59-5.78-1.34-8.06-2.95-2.28-5.63-.88-5.63-.88,1.47-3.67,6.5-3.3,9.35,1.21,2.15,3.39.38,6.35-2.37,7.73Z"/>
          <path class="cls-8" d="M65.38,40.24s-4.33-.34-9.53,14.89c-5.19,15.24-5.04,30.26-1.58,33.92-2.4-.18-4.44-1.37-5.7-3.8-2.93-5.63,4.5-35.1,10.21-43,1.9-2.63,4.26-3.17,6.59-2.01Z"/>
          <path class="cls-37" d="M43.35,96.33c-1.63-.42-6.33-1.08-9.99,3.99-4.13,5.69-7.95,15.64-7.92,19.86-1.19.16-2.08.03-2.48-.45-1.74-2.07,8.92-25.55,16.47-26.33,1.86-.19,3.21.99,3.92,2.93Z"/>
          <path class="cls-2" d="M75.51,23.07c-2.22-.49-5.18.55-6.5,2.81-1.49,2.59-.64,5.66-.21,6.85-.33-.12-.64-.27-.95-.44-2.78-1.51-1.33-8.13,1.89-10.42,2-1.41,4.32-.77,5.76,1.19Z"/>
          <path class="cls-38" d="M69.05,2.25c-13.11,4.32-17.01,45.71-22.2,62.11-5.11,16.13-11.87,27.17-12.08,27.49.3-.25,3.79-2.78,8.09-.8,5.05,2.32,1.55,19.34,5.71,20.43,6.93,1.82,21.47-21.98,17.81-24.33-2.47-1.58-15.13,10.63-19.54-1.04-2.21-5.84,5.54-39.01,9-43.65,3.45-4.65,7.32-6.79,12.64-2.8,6.41,4.82,8.74,25.34,10.13,26.89,1.38,1.56,14.45-7.79,18.78-19.92,4.33-12.12,4.33-20.08,9.7-24.23,0,0-24.2-24.71-38.05-20.16ZM80.34,30.19c-1.3,3.65-11.69,7.28-14.97,4.17-3.28-3.12-.18-13.64,1-15.84,1.71-3.17,4.62-3.12,8.53-2.34,3.91.78,6.74,10.39,5.44,14.02Z"/>
          <path class="cls-4" d="M58.26,203.39l2.74-4.25s13.24-.86,17.62,8.74v-4.49l-8.14-6.97-7.79-1.04-1.68,2.31-2.74,5.71Z"/>
          <path class="cls-29" d="M56.54,206.6s1.72-7.97,1.72-14.35,20.44,4.67,21.47,9.18c1.04,4.5-1.12,6.45-1.12,6.45l-.96-2.98s-5.97-8.62-16.66-6.6l-4.45,8.31Z"/>
          <path class="cls-36" d="M44,240.69s8.11-7.79,15.18-12.63c15.15-10.4,18.83-8.15,21.68-8.67,2.86-.52,4.03-1.51,4.03-1.51,0,0-2.77-4.2-7.94-1.61-5.17,2.6-22.67,12.61-32.94,24.42Z"/>
          <path class="cls-12" d="M58.26,191.54s.73,3.07,5.03,3.34c7.7.49,12.82,2.74,15.32,6.74,0,0-.87-3.4-7.36-7.1-6.06-3.45-10.79-5.97-12.99-2.99Z"/>
          <path class="cls-13" d="M57.72,29.78c-2.55-.84,3.66-21.52,7.75-22.45,4.09-.93,2.32,7.89.9,13.3-1.42,5.41-7.04,9.68-8.64,9.15Z"/>
          <path class="cls-13" d="M44.67,80.59c-4.19-1.22-6.5,7.81-5.29,8.67,1.21.85,4.18-.87,5.26-3.19,1.18-2.56,1.96-4.91.03-5.47Z"/>
          <path class="cls-34" d="M107.84,267.23c-3.73,6.48-13.02,10.59-13.02,10.59-25.99,6.53-45.71.26-45.71.26,0,0-7.4-1.1-8.99-12.99-.51-3.78-.79-7.37-.64-11.16t0-.01c.51-1.21,4.55-10.72,11.84-18.01-.47.71-8.69,13.03-7.31,23.63,1.41,10.9,25.55,11.38,43.15,11.49,11.75.07,17.89-2.25,20.68-3.8Z"/>
          <path class="cls-21" d="M61,198.29s-13.03,27.59-12.42,31.29c.61,3.7,12.42-3.83,12.42-3.83,0,0-14.95,11.34-20.13,18.01,0,0,3.12-12.29,9.03-24.02,5.9-11.73,11.11-21.46,11.11-21.46Z"/>
          <g>
            <path class="cls-19" d="M61.21,237.05c-.84-.24-12.62-3.62-26.42,1.73-14.29,5.56-18.89,9.47-26.44,12.73.4-.69,6.76-11.67,10.27-26.15,4.22-17.49,11.4-15.71,16.18-14.8.33.07.64.16.98.31,3.44,1.42,7.44,6.84,13.53,13.84,3.27,3.76,7.16,8,11.91,12.33Z"/>
            <path class="cls-15" d="M8.31,251.54c-.58,7.44,9.93,8.72,24.18,6.9,14.24-1.82,28.77-21.36,28.77-21.36,0,0-6.79-3-23.13-.2-16.34,2.8-29.56,11.43-29.81,14.66Z"/>
            <path class="cls-25" d="M57.96,279.91s-12.77,5.54-27.39-.15c0,0-.58-4.38-1.16-9.16-.47-3.78-1.11-8.89-1.87-14.98,0,0,2.51-7.64,8.69-8.64,6.18-1,7.18,4.56,7.18,4.56,0,0,1.22,2.96,3.24,7.09,2.84,5.76,6.35,15.68,11.31,21.28Z"/>
            <g class="cls-41">
              <path class="cls-18" d="M49.3,224.72c-.44,1.62-1,2.71-2.6,3.51-4,2-8.53-1.6-11.04-4.58-3.42-4.02-2.02-8.53.11-12.78,3.44,1.42,7.44,6.84,13.53,13.84Z"/>
              <path class="cls-18" d="M20.52,231.25c-.36.76-.6,1.44-1.02,2.17-.53.94-.85,1.98-1.21,2.99-.16.44-.5,1.1-.27,1.58.22.46.75.39,1.17.46,1.23.2,2.22.12,3.43-.16,1.01-.23,1.38-.3,1.79-1.28.64-1.55,1.05-4.19-.33-5.46-.59-.55-1.27-1.06-2.1-1.17-.58-.07-1.9.37-1.88,1.06l.42-.21Z"/>
              <path class="cls-18" d="M27.68,235.67c.26-.92.77-1.94,1.68-1.06.69.67.87,1.27.84,2.22-.01.37-.01.56-.42.69-.28.09-.77.1-1.06.05-.76-.12-1.27-.79-1.26-1.48l.21-.42Z"/>
            </g>
            <path class="cls-6" d="M46.65,258.63l-17.24,11.98c-.47-3.78-1.11-8.89-1.87-14.98,0,0,2.51-7.64,8.69-8.64,6.18-1,7.18,4.56,7.18,4.56,0,0,1.22,2.96,3.24,7.09Z"/>
          </g>
          <path class="cls-5" d="M1.38,138.87s15.7,43.83,28.71,48.5c13.01,4.67,35.52-54.87,35.52-54.87l-4.42-.33s-13.25,51.42-28.13,53.37c-14,1.84-28.82-47.84-28.82-47.84l-2.86,1.18Z"/>
          <path class="cls-7" d="M52.66,131.54s23.85,30.36,57.12,31.22c33.27.87,47.15-26.67,47.15-26.67l-3.95,1.6s-12.53,22.47-44.41,22.9c-31.88.43-53.09-28.84-53.09-28.84l-2.83-.22Z"/>
          <path class="cls-13" d="M25,214.54c-2.62.77-5.22,8.5-4.41,10.12.81,1.63,3.77-1.99,4.41-5.06.63-3.07,0-5.06,0-5.06Z"/>
        </g>
      </g>
    </g>
  </g>
</svg>