<?xml version="1.0" encoding="UTF-8"?>
<svg id="Layer_2" data-name="Layer 2" xmlns="http://www.w3.org/2000/svg" viewBox="0 0 225.54 211.5">
  <defs>
    <style>
      .cls-1 {
        fill: #f7941d;
        stroke-width: 0px;
      }
    </style>
  </defs>
  <g id="etoie_02">
    <path class="cls-1" d="M182.88,211.5l-6.01-3.84c-2.72-1.74-9.98-6.91-19.17-13.45-14.81-10.54-39.16-27.88-44.51-30.5-5.78,2.55-32.78,21.26-47.56,31.51-8.35,5.79-14.95,10.36-17.47,11.94l-6.86,4.28,1.57-7.93c.93-4.7,6.21-19.67,11.79-35.51,4.68-13.27,10.97-31.13,11.93-35.68-3.31-3.75-19.88-16.78-32.17-26.44-14-11.01-26.09-20.51-29.19-24.04l-5.23-5.97,7.94.17c16.15.34,68.08.76,76.45-.21,2.41-4.35,8.69-23.54,13.35-37.78,5.85-17.87,9.54-28.97,11.48-32.43l3.15-5.62,3,5.71c1.84,3.5,5.93,15,10.66,28.33,5.36,15.08,13.34,37.54,16.12,41.84,3.49.64,18.17,1.36,73.51.2l9.88-.2-5.2,5.96c-3.14,3.61-15.51,13.37-29.83,24.68-12.42,9.81-29.19,23.04-32.55,26.84.9,3.85,5.86,17.16,9.9,28.01,8.11,21.79,13.9,37.63,14.38,43.04l.64,7.1ZM113.34,156.55c.07,0,.13,0,.2,0,2.74.18,10.1,4.83,48.21,31.96,4.17,2.97,8.06,5.74,11.28,8.01-2.77-8.63-7.6-21.6-11.73-32.71-9.36-25.14-10.82-29.62-10.4-31.92.51-2.82,4.04-6.22,35.28-30.88,8.17-6.45,16.52-13.04,22.22-17.79-55.99,1.07-66.51.08-69.28-.92-3.08-1.12-5.42-5.78-19.69-45.93-2.62-7.38-5.16-14.53-7.13-19.77-2.19,6.15-5.08,14.98-7.91,23.62-12.14,37.08-13.89,40.83-16.75,42.02-3.92,1.63-50.24,1.2-70.48.93,5.57,4.62,13.66,10.98,21.59,17.21,30.93,24.32,34.42,27.68,34.9,30.51.41,2.45-1.55,8.72-12.38,39.44-3.26,9.24-6.58,18.67-8.84,25.52,2.71-1.87,5.87-4.06,9.22-6.38,40.41-28.01,48.5-32.93,51.7-32.93Z"/>
  </g>
</svg>