<?xml version="1.0" encoding="UTF-8"?>
<svg id="Layer_2" data-name="Layer 2" xmlns="http://www.w3.org/2000/svg" xmlns:xlink="http://www.w3.org/1999/xlink" viewBox="0 0 1932.65 1074.65">
  <defs>
    <style>
      .cls-1 {
        fill: #7c5667;
      }

      .cls-1, .cls-2, .cls-3, .cls-4, .cls-5, .cls-6, .cls-7, .cls-8, .cls-9, .cls-10, .cls-11, .cls-12, .cls-13, .cls-14, .cls-15, .cls-16, .cls-17, .cls-18, .cls-19, .cls-20, .cls-21, .cls-22, .cls-23, .cls-24, .cls-25, .cls-26, .cls-27, .cls-28, .cls-29, .cls-30, .cls-31, .cls-32, .cls-33, .cls-34, .cls-35, .cls-36, .cls-37, .cls-38, .cls-39, .cls-40, .cls-41, .cls-42, .cls-43, .cls-44, .cls-45, .cls-46, .cls-47, .cls-48, .cls-49, .cls-50, .cls-51, .cls-52, .cls-53, .cls-54, .cls-55, .cls-56, .cls-57, .cls-58, .cls-59, .cls-60, .cls-61, .cls-62, .cls-63, .cls-64, .cls-65, .cls-66, .cls-67, .cls-68, .cls-69, .cls-70, .cls-71, .cls-72, .cls-73, .cls-74, .cls-75, .cls-76, .cls-77, .cls-78, .cls-79, .cls-80, .cls-81, .cls-82, .cls-83, .cls-84, .cls-85, .cls-86, .cls-87, .cls-88, .cls-89, .cls-90, .cls-91, .cls-92, .cls-93, .cls-94, .cls-95, .cls-96, .cls-97, .cls-98, .cls-99 {
        stroke-width: 0px;
      }

      .cls-2 {
        fill: #e0d2da;
      }

      .cls-3 {
        fill: #87b4b2;
      }

      .cls-4 {
        fill: #cfdbe1;
      }

      .cls-5 {
        fill: #968587;
      }

      .cls-6 {
        fill: url(#linear-gradient);
      }

      .cls-7 {
        fill: #cd9474;
      }

      .cls-8 {
        fill: #f7b175;
      }

      .cls-9 {
        fill: #4a5a64;
      }

      .cls-10 {
        fill: #5faead;
      }

      .cls-11 {
        fill: #b8d4dc;
      }

      .cls-12 {
        fill: #7895a4;
      }

      .cls-13 {
        fill: url(#linear-gradient-6);
      }

      .cls-14 {
        fill: #a5d2d5;
      }

      .cls-15 {
        fill: #d8c4a7;
      }

      .cls-16 {
        fill: #93b2b8;
      }

      .cls-17 {
        fill: #9c6d70;
      }

      .cls-18 {
        fill: #b2beb7;
      }

      .cls-19 {
        fill: #797b82;
      }

      .cls-20 {
        fill: #4f818a;
      }

      .cls-21 {
        fill: #aec8bc;
      }

      .cls-22 {
        fill: #aeb0a7;
      }

      .cls-23 {
        fill: #95d2bc;
      }

      .cls-24 {
        fill: #dfdedf;
      }

      .cls-25 {
        fill: #bdcb9b;
      }

      .cls-26 {
        fill: #ac8284;
      }

      .cls-27 {
        fill: #c2b7c0;
      }

      .cls-28 {
        fill: #6c6173;
      }

      .cls-29 {
        fill: #87c1cb;
      }

      .cls-30 {
        fill: #7f97b3;
      }

      .cls-31 {
        fill: #a9afc2;
      }

      .cls-32 {
        fill: #c8c8d1;
      }

      .cls-33 {
        fill: #f9dfc6;
      }

      .cls-34 {
        fill: #b2b6a1;
      }

      .cls-35 {
        fill: #96b6a4;
      }

      .cls-36 {
        fill: url(#linear-gradient-5);
      }

      .cls-37 {
        fill: #3e647d;
      }

      .cls-38 {
        fill: #2d7886;
      }

      .cls-39 {
        fill: #dec081;
      }

      .cls-40 {
        fill: #cf846e;
      }

      .cls-41 {
        fill: #95c8bf;
      }

      .cls-42 {
        fill: #5c81a1;
      }

      .cls-43 {
        fill: #836d7f;
      }

      .cls-44 {
        fill: #f4e0c0;
      }

      .cls-45 {
        fill: #72c8c0;
      }

      .cls-46 {
        fill: #514a65;
      }

      .cls-47 {
        fill: #b26a6c;
      }

      .cls-48 {
        fill: #cbc19f;
      }

      .cls-49 {
        fill: #dfd6b1;
      }

      .cls-50 {
        fill: #5c586e;
      }

      .cls-51 {
        fill: #f2f4e7;
      }

      .cls-52 {
        fill: #416870;
      }

      .cls-53 {
        fill: #e0785d;
      }

      .cls-54 {
        fill: #185672;
      }

      .cls-55 {
        fill: #727283;
      }

      .cls-56 {
        fill: #e3b895;
      }

      .cls-57 {
        fill: #aa978c;
      }

      .cls-58 {
        fill: #5199ac;
      }

      .cls-59 {
        fill: #faf0c9;
      }

      .cls-60 {
        fill: #f8cb8b;
      }

      .cls-61 {
        fill: #e89f6f;
      }

      .cls-62 {
        fill: #a4b6c6;
      }

      .cls-63 {
        fill: #c38e84;
      }

      .cls-64 {
        fill: url(#linear-gradient-2);
      }

      .cls-65 {
        fill: #878085;
      }

      .cls-66 {
        fill: #975f6a;
      }

      .cls-67 {
        fill: url(#linear-gradient-7);
      }

      .cls-68 {
        fill: #779789;
      }

      .cls-69 {
        fill: #dfeee3;
      }

      .cls-70 {
        fill: url(#linear-gradient-3);
      }

      .cls-71 {
        fill: #c1dbd7;
      }

      .cls-72 {
        fill: #425874;
      }

      .cls-73 {
        fill: #d0d8d0;
      }

      .cls-74 {
        fill: #5d7387;
      }

      .cls-75 {
        fill: #b7c2d8;
      }

      .cls-76 {
        fill: #598598;
      }

      .cls-77 {
        fill: #a59da2;
      }

      .cls-78 {
        fill: #75a59c;
      }

      .cls-79 {
        fill: #7cb7a1;
      }

      .cls-80 {
        fill: #f3f5f5;
      }

      .cls-81 {
        fill: url(#linear-gradient-8);
      }

      .cls-82 {
        fill: #2d6e87;
      }

      .cls-83 {
        fill: #41929b;
      }

      .cls-84 {
        fill: #868f93;
      }

      .cls-85 {
        fill: #e7b7a3;
      }

      .cls-86 {
        fill: #a0b699;
      }

      .cls-87 {
        fill: #dee9d1;
      }

      .cls-88 {
        fill: #ba9688;
      }

      .cls-89 {
        fill: #f0d0aa;
      }

      .cls-90 {
        fill: #9a9b9e;
      }

      .cls-91 {
        fill: #636c6c;
      }

      .cls-92 {
        fill: #becbb6;
      }

      .cls-93 {
        fill: #c7e6d8;
      }

      .cls-94 {
        fill: #c87167;
      }

      .cls-95 {
        fill: url(#linear-gradient-4);
      }

      .cls-96 {
        fill: #6eabb7;
      }

      .cls-97 {
        fill: #9aaea5;
      }

      .cls-98 {
        fill: #b48272;
      }

      .cls-99 {
        fill: #faf1db;
      }
    </style>
    <linearGradient id="linear-gradient" x1="579.56" y1="142.21" x2="559.08" y2="527.84" gradientTransform="translate(27.96 -444.66) scale(1.65 2.74)" gradientUnits="userSpaceOnUse">
      <stop offset="0" stop-color="#12365b"/>
      <stop offset="1" stop-color="#3a9296"/>
    </linearGradient>
    <linearGradient id="linear-gradient-2" x1="1351.42" y1="-20.55" x2="1331.52" y2="354.1" gradientTransform="matrix(1,0,0,1,0,0)" xlink:href="#linear-gradient"/>
    <linearGradient id="linear-gradient-3" x1="395.57" y1="-170.84" x2="746.24" y2="575.4" gradientUnits="userSpaceOnUse">
      <stop offset="0" stop-color="#60788b"/>
      <stop offset=".28" stop-color="#86a4a5"/>
      <stop offset=".63" stop-color="#ccc9a4"/>
      <stop offset=".69" stop-color="#d7cca5"/>
      <stop offset="1" stop-color="#d0d9b4"/>
    </linearGradient>
    <linearGradient id="linear-gradient-4" x1="1933.89" y1="193.69" x2="1611.03" y2="266.09" gradientUnits="userSpaceOnUse">
      <stop offset="0" stop-color="#88b4be"/>
      <stop offset="1" stop-color="#c1ac98"/>
    </linearGradient>
    <linearGradient id="linear-gradient-5" x1="1502.81" y1="360.22" x2="1182.66" y2="480.03" gradientUnits="userSpaceOnUse">
      <stop offset="0" stop-color="#b6c0af"/>
      <stop offset="1" stop-color="#eec08e"/>
    </linearGradient>
    <linearGradient id="linear-gradient-6" x1="1532.25" y1="94.05" x2="1470.95" y2="129.33" gradientUnits="userSpaceOnUse">
      <stop offset="0" stop-color="#a78f92"/>
      <stop offset="1" stop-color="#c49f93"/>
    </linearGradient>
    <linearGradient id="linear-gradient-7" x1="1616.04" y1="369.03" x2="1644.7" y2="403.08" gradientUnits="userSpaceOnUse">
      <stop offset="0" stop-color="#857e8a"/>
      <stop offset="1" stop-color="#567180"/>
    </linearGradient>
    <linearGradient id="linear-gradient-8" x1="1353.95" y1="799.1" x2="1371.12" y2="921.74" gradientUnits="userSpaceOnUse">
      <stop offset="0" stop-color="#71b0af"/>
      <stop offset="1" stop-color="#4990a2"/>
    </linearGradient>
  </defs>
  <g id="landscape">
    <g id="Background">
      <rect class="cls-6" y="0" width="1932.65" height="1074.65"/>
      <path class="cls-64" d="M1875.94,1.29c.05,6.33.81,4.4,3.77,0,17.6.16,35.23-.12,52.84,0,.15,34.24-.2,68.48,0,102.72-31.02-.04-59.44,1.59-88.7,7.34-52.68,10.34-52.82,23.1-65.11,29.35-6.43,3.27-71.07,14.89-51.9,52.41-21.89-3.67-64.34-.11-86.81,4.19-65.2,12.48-132.44,64.89-62.28,95.38-69.87-6.14-87.91,24.12-93.41,24.11-6.12-.02-3.94-10.08-38.69-1.05-19.73,5.13-30.03,11.88-33.97,24.11-54.07,4.6-79.09,20.04-71.71,51.36-8.74,1.86-16.98-4.27-20.76-8.39-4.52-4.91-21.22-39.57-28.31-49.79-27.58-39.77-58.96-77.65-100.02-113.72-48.58-42.68-108.32-80.11-175.51-114.25-77.66-39.46-164.12-72.59-252.88-103.77,370.9-.11,742.61-2.85,1113.43,0Z"/>
      <path class="cls-83" d="M577.57,218.26c37.05,9.74,87.88,23.45,122.67,34.59,40.54,12.98,78.03,27.19,115.12,42.97-37.61,9.97-58.14,3.12-61.33,3.14-13.43.11-34.89,2.38-43.4,2.1-5.89-.2-58.82-6.79-61.33-7.86-.6-.26.59-3.28,0-3.67-2.39-1.57-5.4-1.97-7.55,0-19.24.37-103.49-10.78-103.79-6.81,6.19,5.06,19.41,4.32,29.25,6.81,8.87,2.25,38.59,10.99,45.29,13.63,9.44,3.72,54.59,27.18,55.67,32.49-15.8,3.27-24.6,13.16-32.08,20.96-9.94,5.33-13.03,2.62-16.98,2.1-9.03-1.19,1.97-3.82-28.31-1.05-2.87.26-9.57,3.07-10.38,3.14-6.11.56-12-2.5-18.87-2.1-3.72.22-14.25,4.76-20.76,5.24-15.49,1.14-126.91-3.31-162.3-3.14v2.1c89.36,4.72,179.17,6.75,268.92,7.34-29.64,10.24-7.57,7.11,10.38,2.1,2.81,12.01-39.65,10.27-27.36,40.88-33-2.26-77.81-5.16-11.32,1.05-26.32,16.63-34.72,12.08-36.8,12.58-9.52,2.28,2.14,7.86-7.55,11.53-3.63,1.38-67.95,15.57-81.15,18.87l19.82,2.62-24.53,6.81c-10.49-14.17-39.18-22.44-66.05-23.06-41.64-.96-73.89,15.54-81.15,37.73-18.78,1.16-38.49-5.68-56.61-5.24-9.37-1.67-24.13-5.51-33.03-3.14-25.53-9.02-55.18-5.81-81.15-13.63-31.51-2.79-64.69-5.96-96.25-13.63-26.65,1.81-48.3-7.61-74.54-8.39.03-37.73-.05-75.47,0-113.2,21.78-6.84,56.5-21.41,75.49-27.25,19.4-5.96,82-22.11,100.96-25.16,22.19-3.57,39.83-2.66,60.39-6.29,10.32-1.82,50.86-14.77,68.88-18.87,42.7-9.7,89.61-20.36,134.93-26.2,41.53-5.36,71.24-4.91,92.47-7.34,2.18-.25,9.88-1.16,8.49-3.14,11.82,2.93,24.04,5.28,35.86,8.39Z"/>
      <path class="cls-68" d="M402.06,670.01c151.59.26,303.2,2.01,454.81,1.05.63,0,1.26.02,1.89,0,156.64.84,313.27-.94,469.9-1.05,13.4.97,50.08,5.06,52.84,0,3.15,0,6.29,0,9.44,0h86.81c42.04.16,84.45-.79,126.44,0,7.16.13,13.74.84,20.76,1.05,16.79.5,34.16,2.67,50.95,0,76.31-.88,152.1.23,228.35,0q14.15.52,28.31,1.05c-.01,10.13.01,20.26,0,30.4-95.38.85-231.38,6.22-321.76,4.19-1.82-.04,1.99-2.8-33.97-4.19-31.57-1.22-54.06,2.4-92.47-4.19-14.84.01,26.09,7.2,28.31,7.34,3.76.24,86.01-3.04,69.82,2.1l-44.35,1.05c-22.39-.07-44.66.04-66.99,0-5.56-.01-14.29-3.14-15.1-3.14-135.6-.23-271.09.11-406.68,0,.72-2.79-.4-4.73-4.72-6.29-10.16-3.67-149.72-10.31-171.73-10.48-36.52-.29-232.17,5.19-254.77,10.48-4.8,1.12-11.94,2.94-10.38,6.29-177.43-.09-354.75-.39-532.18-1.05,36.49-4.35,73.32-4.73,110.4-6.29q-92.94.52-185.89,1.05c0-9.78,0-19.57,0-29.35,133.98.47,267.99-.23,401.97,0Z"/>
      <path class="cls-70" d="M81.25,1.29c92.37,20.35,188.38,37.24,281.19,57.65,63.69,13.06,122.62,31.46,182.11,49.26,6.45,1.93,7.22-.1,7.55,0,15.46,4.66,30.62,10.81,46.24,15.72,43.28,13.61,86.37,28.14,128.33,42.97,46.33,16.38,76.42,27.12,120.78,46.12,108.21,46.35,240.89,121.28,305.72,188.14,4.34,4.48,32.05,37.15,32.08,39.31.04,2.89-12.51,8.18-3.77,13.63-6.81,4.87-2.43,4.96-1.89,8.39-5.34,2.5-12.13,4.57-16.98,7.34-7.15-15.34-18.56-29.63-32.08-43.5-41.89-30.49-83.27-62.83-130.21-91.71-63.31-38.96-160.1-85.5-241.56-112.15-29.65-10.09-57.01-21.4-86.81-31.44-10.68-3.6-21.34-6.97-32.08-10.48-65.52-21.43-107.61-32.53-175.51-50.31-59.69-15.63-126.84-34.76-189.66-45.07-45.39-7.45-92.01-11.26-138.71-15.72-11.16-1.07-23.81-3.52-31.14-4.19-5.98-.55-7.23,3.33-20.76,2.1C59.06,65.04,26.74,57.86.1,56.84.35,38.33-.09,19.81.1,1.29c27.05-.09,54.1.12,81.15,0Z"/>
      <path class="cls-61" d="M624.75,588.25c1.03,0,18.04,3.15,19.82,3.14,33.25-.01,54.07-2.08,64.16-2.1,46.63-.08,93.27,5.55,139.65,0,75.41-4.39,163.6,12.65,230.23,9.43,5.01-.24,37.72-5.44,57.56-6.29,7.99-.34,134.52-.25,100.96,9.43l-117.95,5.76c27.82.79,42.1,7.46,44.35,7.86,5.94,1.07,18.29-1.06,28.31,2.1,3.99,1.26,21.29,14.15,33.03,16.77-25.42,4.06-53.86.01-80.2,0-49.03-.03-97.98,2.25-147.2,1.05-.51-.01-8.93-2.08-9.44-2.1-22.91-.6-44.9,1.97-66.99-2.1-.8-2.35-13.47-13.85-16.98-15.72,26.56-4.49,109.9-1.27,91.53-8.39q-52.37,1.57-104.74,3.14c-35.89-9.62-92.33-.19-98.13,24.11-14.78-2.6-29.65-.4-44.35,0-1.37.04-.52-2.14-1.89-2.1-4.54.15-2.6,2.09-2.83,2.1-26.88,1.08-52.65,2.93-79.26,5.24-14.18,1.23-40.44,1.72-42.46,2.1-1.92.35.06,2.64-1.89,3.14-2.01.52-9.46-.52-11.32,0-2.06.58-2.62,4.91-3.77,5.24-4.28,1.24-82.13,1.51-96.25,3.14q.94,2.1,1.89,4.19c49.32-2.96,90.92,1.32,11.32,5.24-1.47.07-.42,2.03-1.89,2.1-1.88.09-14.69-2.33-20.76-2.1-13.15.51-91.87,3.06-96.25,4.19-1.71.44-.76,2.22-.94,3.14-133.97-.23-267.99.47-401.97,0,0-8.39,0-16.77,0-25.16,20.88-6.8,54.59,2.43,46.24,5.24,30.14-3.63,55.49-.74,58.5-1.05,1.25-.13,3.72-2.71,22.65-6.29,10.72-2.03,37.78.12,19.82-8.91,33.03-9.63,102.43-.35,127.38-.52,22.73-.16,64.38-6.2,83.98-7.34,30.15-1.75,84.79,5.3,146.26-9.43,10.29-9.52-10.97,3.04-14.15-.52,23.98-15.78-38.13.9-43.4-12.58,7.1-5.67,15.07-1.94,13.21-6.81,54.86-2.93,108.93-8.35,164.18-8.39Z"/>
      <path class="cls-95" d="M1932.55,104.01c.26,45.42-.09,90.84,0,136.26-40.42,3.37-82.3,19.6-98.13,40.88-54.53,3.88-63.11-38.77-84.92,18.34,11.94,5.03,31.16,15.41,43.4,18.34-22.28,1.21-28.8,12.89-40.57,17.82-13.88,5.81-62.79,15.04-80.2,14.67-1.88-.04-3.78.03-5.66,0-2.96-.05-17.91-6.44-50.01,0-11.88,2.38-20.4,8.13-31.14,11.53q-5.66-6.29-11.32-12.58c.26-.04,3.59-1.61,3.77-2.1,6.21-1.14,8.41,4.76,28.31-10.48,26.28-20.13,8.37-20.19,7.55-23.06-.1-.34.12-.71,0-1.05-.47-1.34,3.15-6.33-9.44-25.68,46.25-30.01,20.18-30.34,11.32-40.35-2.95-3.33-15.12-17.84-15.1-19.91.1-8.63,27.61-23.72,39.63-29.35,22.47-4.3,64.92-7.86,86.81-4.19,1.61.27,9.13,3.46,15.1,5.24.9.27,8.47,6.46,16.98,2.1,11.82,7.18,18.13-3.74,22.65-9.43.21-.26,6.37-2.3,5.66-4.72-.53-1.82-27.26-12.85-.94-33.02,8.81,2.47,14.01,6.14,23.59,4.19,4.38,2.78,11.78,4.39,16.04,7.34,12.92.19,1.01-.27.94-12.58-.13-23.92,33.41-45.83-21.7-15.72q-1.42-2.1-2.83-4.19c13.11-7.57,24.84-15.55,41.52-20.96,29.25-5.74,57.68-7.38,88.7-7.34Z"/>
      <path class="cls-65" d="M662.49,1.29c59.62,23.04,120.17,45.3,177.39,70.23,15.36,6.69,30.27,14.02,45.29,20.96,1.02,1.4,6.96,9.53,7.55,9.96,6.05,4.36,125.11,62.8,145.31,74.94,15.6,13.44,39.85,23.4,58.5,35.11,7.09,4.45,29.53,23.42,37.74,26.73,2.14,3.95,17.86,17.23,16.98,9.43,11.12,8.65,21.55,17.34,32.08,26.2,1.04,11.88,28.38,24.58-.94,32.49-20.13-12.01-105.21-75.36-130.21-73.37-1.3.1-14.92,5.18-23.59,6.29-29.03-15.76-62.56-29.16-87.75-47.17q-8.02-.52-16.04-1.05c-31.68-16.55-67.41-30.46-101.91-45.07-40.27-17.05-64.44-27.2-107.57-42.97,3.22-5.08-10.08-12.03-9.44-15.2,1.08-5.33,17.88-10.57,28.31-7.34-17.77-4.29-30.52-12.24-46.24-18.34-29.4-11.41-60.64-20.44-91.53-30.4-1.58-.51-3.68-.83-3.77-2.1,14.68,3.81,41.96,5.82,61.33,15.72,15.98.3-2.23-4.55-10.38-12.05,46.08-17.26,2.92-16.7-16.98-33.02,11.95,0,23.9,0,35.86,0Z"/>
      <path class="cls-58" d="M356.77,171.09c39.02,7.04,78.72,13.81,117,22.01,23.25,4.98,45.24,11.14,67.94,16.77,1.39,1.98-6.31,2.9-8.49,3.14-21.23,2.43-50.94,1.98-92.47,7.34-45.33,5.85-92.23,16.51-134.93,26.2,1.77-2.74-4.31-.87-12.27-2.1-55.71-8.59-69.19-30.08-75.49-31.44-12.73-2.76-27.2,8.2-30.19,9.43-36.44,14.98-54.81,31.15-89.64,46.64,3.44,6.39-30.63,16.95-30.19,19.91.13.93,11.85,4.37,7.55,7.86-18.99,5.84-53.7,20.41-75.49,27.25.05-34.24-.08-68.48,0-102.72,69.94-28.52,181.35-46.44,267.03-49.26,17.13-.56,78.69,4.31,82.09-2.1,2.29.41,5.26.64,7.55,1.05Z"/>
      <path class="cls-60" d="M1109.75,741.28c-21.24,2.56-73.86,6.9-86.81,16.77-1.5,1.15-11.74,2.93-1.89,13.63-55.62-.16-108.56,3.78-162.3,8.91v-3.67c42.63-.9,88.87-26.11,59.45-49.26q-67.47.79-134.93,1.57c-11.95,26.97,23.95,47.13,71.71,47.69,7.63,6.6-56.79,5.77-82.09,5.24-32.37-.68-64.94-5.8-97.19-3.14-5.02-19.64-81.81-15.58-109.46-13.63-2.45.17-5.13-.21-7.55,0-47.08-14.18-105.98-12.57-158.52-15.72-133.19-8-266.58-15.71-400.08-22.01,0-2.1,0-4.19,0-6.29,46.98,5.47,92.74-.88,114.17-1.05,54.5-.42,109.56,2.86,164.18,1.05,66.7.78,133.34,5.92,200.04,6.29.78,0,14.32-2.1,15.1-2.1,47.84.08,224.26.42,249.11-1.05,4.2-.25,35.54-6.13,39.63-6.29,14.13-.53,29.22,3.23,43.4,3.14,2-.01,23.92-3.31,39.63-3.14,16.13.17,48.91,3.5,66.05,4.19,22.77.92,43.42-1.58,50.95-1.05,5,.35,25.21,6.74,32.08,7.34,18.53,1.6,55.5-5,95.3,12.58Z"/>
      <path class="cls-18" d="M285.06,476.1c-4.14.1-8.59-.27-11.32,2.1-17-1.98-30.16-6.45-30.19-1.57q25,13.89,50.01,27.78c28.88-23.32,51.93,2.63,50.01-17.82,22.97,2.67,93.33,9.59,103.79,11.53,4.25.79,6.78,2.52,9.44,3.14.52.12,1.58,2.01,8.49,4.19,1.38.43,7.31-.43,8.49,0,14.35,5.2,25.26,14.94,38.69,20.96,5.02,2.25,20.97-.18,27.36,13.1-34.92,21.48-98.65-10.53-117,18.87,21.97.08,44.15,1.23,66.05,1.57q-20.76,1.05-41.52,2.1c-125.24-.31-250.32-2.27-375.55-2.1-16.5.36-35.9,1.26-35.86-9.96,27.43-18.79,96.89-7.38,100.02-14.67-19.76-10.27-15.03-25.31-3.77-37.21,11.15-11.78,42.16-26.02,66.99-27.25q.94-1.57,1.89-3.14Q100.59,453.56.1,439.41c0-.7,0-1.4,0-2.1,26.25.77,47.9,10.19,74.54,8.39,31.55,7.67,64.73,10.83,96.25,13.63,25.97,7.81,55.62,4.6,81.15,13.63,8.9-2.37,23.66,1.48,33.03,3.14Z"/>
      <path class="cls-29" d="M235.99,108.2c57.14,12.41,116.29,22.12,173.62,34.59-34.7,5.73-.6,13.19-52.84,28.3-2.29-.41-5.26-.64-7.55-1.05C234.93,149.66,119.8,129.35.1,121.83c.06-14.32-.1-28.65,0-42.97,24.72,4.68,51.19,3.89,76.43,6.29,25.51,2.42,72.14,10.02,90.58,11.53,1.15.09-.64-2.64,5.66-2.1,1.8.15.09,3,1.89,3.14,1.29.1.59-2.19,1.89-2.1,41.65,3.03,24.71,5.94,30.19,7.34,6.99,1.78,20.98,3.44,29.25,5.24Z"/>
      <path class="cls-58" d="M349.22,170.04c-3.4,6.4-64.96,1.53-82.09,2.1C181.45,174.96,70.04,192.88.1,221.4.17,188.21-.04,155.02.1,121.83c119.7,7.52,234.83,27.84,349.12,48.21Z"/>
      <path class="cls-12" d="M132.2,498.11c-11.26,11.9-15.98,26.94,3.77,37.21-3.13,7.3-72.59-4.11-100.02,14.67-.04,11.22,19.36,10.32,35.86,9.96-1.65,3.16,13.01,2.05,21.7,3.14,2.64.33,9.87,3.01,11.32,3.14,11.79,1.11,86.98,2.47,89.64,5.76.55.69-4.54,7.15.94,8.91,3.92,1.26,86.2-.42,90.58-1.05.84-.12,12.38-6.15,13.21-6.29,23.48-4.05,289.51.59,341.58-1.05l.94,2.1c-35.13.22-70.55.64-105.68,1.05-17.52.2-117.76-.06-123.61,1.05-.62.12-7.85,4.97-6.61,6.29-1.89-.02-3.77.01-5.66,0-2.55-4.65,13.09-3.27,4.72-7.34-9.74-2.07-86.03,4.75-102.85,5.24-40.9,1.19-82.61-.05-123.61,1.05-4.05.11-44.91,4.72-80.2,5.24-32.42.48-65.67-1.82-98.13-2.1-.02-31.09-.02-62.19,0-93.28,18.81-.11,33.32-7.85,46.24-9.43,29.64-3.64,64.92,3.71,85.87,15.72Z"/>
      <path class="cls-60" d="M1081.44,714.03c3.08,8.44,57.73,4.95,83.98,6.29,36.54,1.86,73.29,6.39,110.4,7.34-55.65,3.33-111.36,7.04-166.07,13.63-39.8-17.58-76.77-10.98-95.3-12.58-6.87-.59-27.08-6.99-32.08-7.34-7.54-.53-28.19,1.97-50.95,1.05-17.14-.7-49.92-4.02-66.05-4.19-15.71-.17-37.63,3.13-39.63,3.14-14.19.09-29.28-3.68-43.4-3.14-4.09.15-35.43,6.04-39.63,6.29-24.85,1.47-201.27,1.13-249.11,1.05-.78,0-14.32,2.1-15.1,2.1-66.69-.37-133.34-5.5-200.04-6.29-54.62,1.81-109.68-1.46-164.18-1.05-21.43.16-67.2,6.52-114.17,1.05,0-2.1,0-4.19,0-6.29,360.25-3.61,720.92-.86,1081.34-1.05Z"/>
      <path class="cls-76" d="M1524.92,412.16c6.95-.19,18.16,1.07,24.53,3.14,19.64,6.39,20.24,23.73,32.08,31.97.79.55,10.15-.27,18.87,8.39,7.86,7.8,4,15.19,11.32,18.34-12.77,1.45-20.81,1.28-33.97,5.24-17.6,5.3-31.97,16.01-26.42,26.73,1.9,1.37,3.2-.38,7.55-.52,5.09-.17,72.29-10.96,80.2-12.58,5.59-1.14,22.03-13.14,49.07-9.43,15.4,2.11,4.36,10.16,62.28,2.1.46-.06.27-2.05,7.55-3.14,17.28-2.59,17.96-.9,18.87-1.05.65-.11,9.81-3.94,11.32-4.19,48.79-8.15,96.84-16.17,144.37-27.25,0,.7,0,1.4,0,2.1-23.65,7.43-89.65,19.31-71.71,20.96-24.75,5.06-49.49,10.14-75.49,12.58-47.21,4.98-91.8,11.56-138.71,22.01-27.46,2.23-54.06,4.55-81.15,9.43-62.37.79-126.73,8.71-192.49,16.77-21.97-3.06-21.34,3.02-22.65,3.14-1.91.18-15.67-.87-38.69,1.05q-8.49-3.67-16.98-7.34c16.62-1.9,34.69-3.77,50.95-6.29,14.91-2.31,15.48-3.92,16.98-4.19,70.45-12.68,151.07-35.98,209.47-61.32,1.28-3.75-30.6-14.08-46.24-21.49-4.62-2.19-30.98-18.2-33.03-18.87,8.17-.96,14.47-4.22,22.65-5.24,1.46-.18,1.89-.84,9.44-1.05Z"/>
      <path class="cls-46" d="M1932.55,538.99c0,6.99,0,13.98,0,20.96-15.51-6.83-57.61,4.8-65.11,5.24-14.1.83-33.5-3.23-35.86-3.14-13.53.48-59.22,22.1-99.08,25.16-88.89,6.81-56.92-21.99-158.52-31.44-41.46-3.86-57.3-.55-97.19,3.14-1.13.1-3.72,2.69-19.82,4.19-10.86,1.02-77.41,6.62-79.26.52l9.44-7.86c19.63-.63,39.9-.25,59.45-1.05,26.15-1.07,68.09-6.15,71.71-6.29,22.29-.84,44.7-1.2,66.99-2.1,115.69-4.66,231.43-3.99,347.24-7.34Z"/>
      <path class="cls-12" d="M1932.55,325.17c-43.39,7.91-46.4,41.23-49.07,43.5-5.09,4.33-57.03,11-49.07,29.87-18.08-5.39-41.36-34.92-49.07-38.78l1.89-1.05c.46.82,5.19,5.47,5.66,5.76,22.53,13.89-3.85-9.15,22.65-30.4,3.8-3.05,10.89-5.13,15.1-7.86.13-.08,2.31,2.74,3.77.52,3.35-5.05-20.58-58.3,98.13-82.28.05,26.9-.04,53.8,0,80.71Z"/>
      <path class="cls-66" d="M1732.51,587.2c14.87,11.95,72.86-1.91,91.53-3.14,28.69-1.89,77.79-2.39,108.51-3.14,0,7.69,0,15.37,0,23.06-28.95,2.35-58.58,5.22-87.75,6.29-12.48.46-36.29-2.32-43.4-2.1-19.84.61-39.79,5.56-59.45,7.34-18.51,1.67-35.75,4.12-54.73,5.24-30.28,1.78-60.17,3.06-90.58,1.05-22.97-1.52-44.89-6.47-67.94-7.86,42.47-6.45,87.28-7.47,131.16-9.96,14.76-.84,20.45,3.33,31.14-3.67-1.23-8.49-11.56-5.74-21.7-8.91-8.5-2.65-6.63-7.43-21.7-5.24-.55-5.22-68.76-13.24-84.92-14.67-24.45-2.17-57.01.1-58.5-5.24,19.35-5.66,56.75-2.49,69.82-10.48,101.6,9.45,69.63,38.26,158.52,31.44Z"/>
      <path class="cls-55" d="M394.51,1.29c6.16,2.76,13.85,4.25,20.76,6.29-27.45,9.56-3.46,12.65-7.55,19.39-.36.59-11.48,4.23-15.1,7.34-4.47,3.84-7.44,9.73-11.32,12.58-11.38,8.33-25.39,7.91-18.87,12.05C269.63,38.53,173.62,21.64,81.25,1.29c104.4-.45,208.86.07,313.27,0Z"/>
      <path class="cls-82" d="M1932.55,325.17c.05,34.94-.03,69.88,0,104.81-38.15,6.91-74.37,19.38-114.17,23.06-4.98.46-16.24-2.06-28.31-1.05-7.18.6-32.97,7.47-41.52,8.39-20.6,2.2-20.63-.08-21.7,0,11.73-13.53,79.84-18.58,84.92-23.06,2.21-1.95-1.41-12.86,37.74-22.54,3.47-5.93-5.34-5.42-5.66-5.76-2.23-2.35-8.69-8.73-9.44-10.48-7.97-18.87,43.97-25.54,49.07-29.87,2.67-2.27,5.67-35.59,49.07-43.5Z"/>
      <path class="cls-41" d="M75.58,704.59c177.43.66,354.75.96,532.18,1.05,133.36.06,266.72-.12,400.08,0-3.89,1.83,4.03,6.17,4.72,6.29,12.6,2.21,228.54-1.08,264.2-1.05,62.93.05,126.78,2.61,189.66,2.1-128.3,1.05-256.67.98-384.98,1.05-360.42.19-721.1-2.56-1081.34,1.05,0-3.14,0-6.29,0-9.43,24.96-1.76,50.41-1.14,75.49-1.05Z"/>
      <path class="cls-40" d="M358.66,625.98c-19.6,1.13-61.25,7.18-83.98,7.34-24.96.17-94.35-9.11-127.38.52,17.96,9.03-9.09,6.88-19.82,8.91-18.92,3.58-21.4,6.16-22.65,6.29-3.01.3-28.36-2.58-58.5,1.05,8.35-2.81-25.36-12.04-46.24-5.24,0-10.13,0-20.26,0-30.4,38.13-3.41,101.64-2.11,138.71,3.14,15.94-2.18,145.54,1.49,144.37-7.86l-7.55-5.76c24.68,1.09,49.71,3.16,74.54,2.1,13.39,6.8-16.1,4.4.94,11.01-16.24,10.39-35.7,5.11-56.61,6.29,21,3.28,42.75,3.69,64.16,2.62Z"/>
      <path class="cls-58" d="M1932.55,429.98c0,6.64,0,13.28,0,19.91-47.53,11.08-95.58,19.1-144.37,27.25-1.51.25-10.67,4.09-11.32,4.19-.91.15-1.6-1.54-18.87,1.05-7.28,1.09-7.09,3.08-7.55,3.14-57.91,8.06-46.88.02-62.28-2.1-27.04-3.71-43.48,8.29-49.07,9.43-7.92,1.62-75.11,12.41-80.2,12.58v-2.1c9.66-7.99,52.33-14.78,18.87-20.96.43-.6-.25-2.09,0-3.14,13.16-3.96,21.2-3.79,33.97-5.24,4.4-.5,7.1-1.82,11.32-2.1.58.57,15.39,6.34,17.93,8.39,2.52-.77,12.38-11.23,16.04-13.63,10.15,1.78,18.63-3.82,33.03-5.24,11.78-1.16,24.72-.15,36.8-1.05,1.08-.08,1.1,2.2,21.7,0,8.55-.91,34.33-7.78,41.52-8.39,12.06-1.01,23.33,1.51,28.31,1.05,39.8-3.68,76.02-16.15,114.17-23.06Z"/>
      <path class="cls-82" d="M1932.55,456.18c.01,17.82-.01,35.64,0,53.46-27.67,1.82-55.33,3.61-83.04,5.24-50.03,2.94-100.22,4.4-150.03,8.39q-1.42-5.24-2.83-10.48c77.77-7.83,154.11-20.19,229.29-33.54-12.33-2.95-94.11,15.24-97.19,12.05,7.2-4.64,22.95-4.3,34.91-7.86-17.51-.57-36.77,7.1-49.07,0,3.01,8.12-7.83,5.62-16.98,6.29-1.18.09-1.73,6.58-12.27-4.19,26-2.43,50.73-7.52,75.49-12.58,24.39-4.98,47.82-11.14,71.71-16.77Z"/>
      <path class="cls-83" d="M132.2,498.11c-20.95-12.01-56.23-19.36-85.87-15.72-12.92,1.59-27.43,9.32-46.24,9.43.01-17.47-.02-34.94,0-52.41q100.49,14.15,200.98,28.3-.94,1.57-1.89,3.14c-24.84,1.23-55.85,15.47-66.99,27.25Z"/>
      <path class="cls-98" d="M98.23,587.2c.22,1.97,16.5,6.92,18.87,7.34h7.55c11.4,1.45,22.49,2.11,33.97,3.14,43.65,3.93,74.85,4.42,117,6.29l7.55,5.76c1.17,9.35-128.43,5.68-144.37,7.86-37.06-5.26-100.58-6.55-138.71-3.14,0-9.78,0-19.57,0-29.35,32.47.28,65.71,2.58,98.13,2.1Z"/>
      <path class="cls-47" d="M1932.55,603.97c-.01,15.02.01,30.05,0,45.07l-12.27-1.05c-19.46,3.1-44.8,4.84-66.05,5.24-.83.02-.11,3.02-14.15,1.05-11.56-1.62-16.4-8.44-6.61-10.48,3.72-.78,30.47,2.74,55.67-5.76-.52-1.43-32.01,4.84-33.97-1.57,82.55-8.06,75.8-10.94-.94-1.05q-36.33,2.1-72.66,4.19l13.21-14.15c-5.05-12.57-49.92.29-52.84-9.96,19.65-1.77,39.61-6.73,59.45-7.34,7.11-.22,30.93,2.55,43.4,2.1,29.17-1.07,58.8-3.94,87.75-6.29Z"/>
      <path class="cls-94" d="M1840.08,654.28c-11.99,3.65-51.82,1.26-46.24,7.34,45.53-3.09,93.28-5.31,138.71-11.53,0,6.64,0,13.28,0,19.91-8.12,1.83-19.23,1.02-28.31,1.05-76.25.23-152.03-.88-228.35,0-5.03.06-10.07-.04-15.1,0q14.15-5.5,28.31-11.01c-5.84-8.58-25.12-1.29-22.65-7.86,63.19-3.96,126-9.6,188.72-15.72,1.96,6.41,33.45.14,33.97,1.57-25.21,8.5-51.95,4.99-55.67,5.76-9.79,2.04-4.96,8.86,6.61,10.48Z"/>
      <path class="cls-58" d="M762.51,1.29c88.76,31.17,175.22,64.31,252.88,103.77-10.35-2.75-31.52,1.59-50.95,1.05-10.26-5.23-67.38-33.31-72.66-35.64-.13-.06-1.91,1.45-2.83,1.05-24.18-9.66-53.71-24.41-76.43-33.54-5.24-2.11-19.48-3.23-24.53-5.24-3.83-1.53-29.05-19.09-74.54-31.44,16.36,0,32.71,0,49.07,0Z"/>
      <path class="cls-40" d="M1932.55,704.59c0,4.89,0,9.78,0,14.67-149.06.72-298.22-1.42-447.26,1.05-1.45-3.91,20.46-1.43,38.69-2.1l-10.38-6.29c20.61-.56,41.67-2.2,62.28-3.14,118.73.17,237.93-3.33,356.67-4.19Z"/>
      <path class="cls-96" d="M135.97,69.42c-13.05,3.36,34.65,9.41,61.33,15.72,1.41.33-.33,2.12,22.65,8.39,22.05-.97,22.9,1.99,44.35,11.01-9.44,2.91-21.5-1.83-28.31,3.67-8.27-1.8-22.26-3.46-29.25-5.24-5.48-1.39,11.45-4.31-30.19-7.34-1.29-.09-.6,2.2-1.89,2.1-1.8-.15-.09-2.99-1.89-3.14-6.3-.54-4.51,2.19-5.66,2.1-18.45-1.51-65.08-9.11-90.58-11.53-25.24-2.4-51.71-1.61-76.43-6.29.05-7.34-.1-14.67,0-22.01,26.64,1.02,58.96,8.2,83.98,10.48,13.53,1.24,14.78-2.64,20.76-2.1,7.33.67,19.98,3.13,31.14,4.19Z"/>
      <path class="cls-37" d="M1889.15,524.31c4.37,9.04,29.08.27,43.4,1.05,0,4.54,0,9.08,0,13.63-115.81,3.35-231.55,2.68-347.24,7.34q-3.77-2.1-7.55-4.19c4.47-.26,8.96-.78,13.21-1.05q33.97-1.57,67.94-3.14c.16-1.25-.27-2.99,0-3.14,5.6-3.26,5.53-3.63,15.1-3.14,44.65,2.04,90.32-3.44,134.93-4.19,3.04-.05,3.11,2.28,22.65,2.1,56.24-.52-3.87-2.19,25.48-4.19,9.54-.65,18.56.25,32.08-1.05Z"/>
      <path class="cls-37" d="M713.44,1.29c45.49,12.36,70.71,29.92,74.54,31.44,5.05,2.01,19.29,3.14,24.53,5.24,22.72,9.13,52.25,23.88,76.43,33.54q.47,1.05.94,2.1c-23.33-2.88-24.51-10.43-50.01-2.1-57.23-24.92-117.77-47.18-177.39-70.23,16.98,0,33.97,0,50.95,0Z"/>
      <path class="cls-74" d="M626.64,1.29c19.91,16.32,63.06,15.76,16.98,33.02,8.15,7.5,26.36,12.36,10.38,12.05-19.37-9.91-46.65-11.91-61.33-15.72-17.07-4.43-34.8-9.35-50.95-14.67-13.41-4.42-26.26-10.12-39.63-14.67,41.52-.02,83.04.01,124.55,0Z"/>
      <path class="cls-1" d="M1932.55,559.95c0,6.99,0,13.98,0,20.96-30.73.76-79.83,1.25-108.51,3.14-18.66,1.23-76.66,15.1-91.53,3.14,39.86-3.06,85.55-24.68,99.08-25.16,2.35-.08,21.75,3.97,35.86,3.14,7.5-.44,49.6-12.07,65.11-5.24Z"/>
      <path class="cls-50" d="M502.08,1.29c13.37,4.55,26.22,10.25,39.63,14.67q-15.1,9.43-30.19,18.87c-31.21-9.65-64.6-17.92-96.25-27.25-6.91-2.04-14.6-3.53-20.76-6.29,35.86-.03,71.71.02,107.57,0Z"/>
      <path class="cls-51" d="M1932.55,240.27c0,1.4,0,2.8,0,4.19-118.71,23.97-94.78,77.23-98.13,82.28-1.47,2.22-3.65-.61-3.77-.52-11.36-11.59-5.29-32.89,3.77-45.07,15.83-21.28,57.71-37.51,98.13-40.88Z"/>
      <path class="cls-78" d="M1932.55,702.5c0,.7,0,1.4,0,2.1-118.74.86-237.95,4.36-356.67,4.19-12.58-.02-25.16.04-37.74,0l44.35-1.05c16.19-5.13-66.07-1.86-69.82-2.1-2.21-.14-43.15-7.33-28.31-7.34,38.41,6.6,60.9,2.97,92.47,4.19,35.96,1.39,32.14,4.15,33.97,4.19,90.39,2.03,226.38-3.35,321.76-4.19Z"/>
      <path class="cls-83" d="M1932.55,509.64c0,2.8,0,5.59,0,8.39-14.27,2.08-28.87,4.89-43.4,6.29-13.52,1.3-22.54.4-32.08,1.05,5.08-3.96-5.69-6.75-7.55-10.48,27.71-1.63,55.37-3.42,83.04-5.24Z"/>
      <path class="cls-86" d="M75.58,704.59c-25.07-.09-50.53-.71-75.49,1.05,0-2.1,0-4.19,0-6.29q92.94-.52,185.89-1.05c-37.08,1.56-73.91,1.94-110.4,6.29Z"/>
      <path class="cls-40" d="M1932.55,649.04c0,.35,0,.7,0,1.05-45.42,6.22-93.17,8.44-138.71,11.53-5.58-6.08,34.25-3.69,46.24-7.34,14.05,1.97,13.32-1.03,14.15-1.05,21.25-.4,46.59-2.14,66.05-5.24l12.27,1.05Z"/>
      <path class="cls-11" d="M1932.55,451.99c0,1.4,0,2.8,0,4.19-23.89,5.63-47.32,11.79-71.71,16.77-17.93-1.65,48.06-13.53,71.71-20.96Z"/>
      <path class="cls-82" d="M1932.55,525.36c-14.33-.78-39.04,7.99-43.4-1.05,14.54-1.39,29.13-4.2,43.4-6.29,0,2.45,0,4.89,0,7.34Z"/>
      <path class="cls-37" d="M1932.55,672.1q-14.15-.52-28.31-1.05c9.08-.03,20.19.79,28.31-1.05,0,.7,0,1.4,0,2.1Z"/>
      <path class="cls-2" d="M1879.71,1.29c-2.96,4.4-3.72,6.33-3.77,0,1.26,0,2.52-.01,3.77,0Z"/>
      <path class="cls-36" d="M1445.66,315.73c18.05,5.11,7.48,11.15,14.15,13.63,4.04,1.49,40.41.43,68.88,34.59-17.09,11.04-28.28,20.29-24.53,35.64-6.21.3-7.62,4.93-22.65,6.29-7.19.65-39.6-2.06-78.32,8.39-33.89,9.15-62.67,47.69-63.22,50.83-1.43,8.16,16.24,11.01,18.87,18.34-.59.09-1.3-.09-1.89,0-7.48,1.17-59.35.65-52.84,27.25-6.99,0-12.97,2.77-17.93,2.1-5.9-.8-7.31-10.55-40.57-6.29-32.03-15.24-68.7-11.17-96.25,5.24-16.93-9.79,17.13-14.18,18.87-19.39,1.12-3.36-21.3-7.95,15.1-18.34.38.31,11.34,3.23,13.21,1.57-26.71-13.6,31.73-32.38,32.08-34.59.15-.95-13.31-2.89-11.32-16.77,2.28-15.89,21.37-14.65,22.65-16.77,2.02-3.35-13.11-9.72,1.89-25.68,15.48-4.51,19.57-7.17,39.63-6.29,1.24.05,2.56-.1,3.77,0,5.69.48,23.86,6.16,33.97,7.34,3.78,4.11,12.02,10.24,20.76,8.39.1.44,4.3,5.89,5.66,8.39-9.44-.55-16.85,5.55-18.87,6.29-13.53,4.97-25.8,7.32-30.19,11.01-5.56,4.66-10,22.67-11.32,24.11-4.18,4.58-24.78,4.17-19.82,18.34,21.53-19.6,46.18-23.13,48.12-24.63,1.29-.99,4.29-14.09,19.82-21.49,22.3-10.62,41.46-3.5,44.35-5.76.74-.58-1.46-7.47,1.89-14.15,6.11-12.2,33.23-26.72,29.25-29.35-1.5-.99-13.88-.32-25.48-8.39,21.18-16.81,42.09-9.77,28.31-15.72,3.94-12.22,14.23-18.98,33.97-24.11Z"/>
      <path class="cls-35" d="M1190.9,219.3c41.06,36.07,72.44,73.95,100.02,113.72,7.08,10.22,23.79,44.87,28.31,49.79-10.11-1.18-28.28-6.85-33.97-7.34-17.25-31.24-42.66-60.35-69.82-89.09-42.63-45.11-75.54-71.88-133.99-111.1,2.95-3.51,34.13,14.06,35.86,15.2,29.13,19.16,37.83,51.75,73.6,28.82Z"/>
      <path class="cls-78" d="M1015.39,105.06c67.18,34.14,126.93,71.57,175.51,114.25-35.77,22.93-44.47-9.67-73.6-28.82-1.72-1.13-32.91-18.71-35.86-15.2-36.37-24.41-74.96-47.73-117-69.18,19.43.54,40.6-3.8,50.95-1.05Z"/>
      <path class="cls-13" d="M1575.88,112.39v12.58c-45.27.28-90.6-.04-135.88,0v-29.87c19.03-4.22,23.08-16.78,35.86-24.63,25.65-.8,57.78,8.68,71.71,20.44,10.57,8.92,4.87,17.02,28.31,21.49Z"/>
      <path class="cls-77" d="M1577.77,292.67c7.1.62,7.15,2.02,7.55,2.1,4.26,2.34-5.54,4.51-11.32,9.96-17.25,16.26-17.45,26.47,0,42.45-13.35,2.44-16.37,2.51-28.31,7.34-4.75,1.92-12.76,6.71-16.98,9.43-28.47-34.16-64.85-33.09-68.88-34.59-6.67-2.47,3.89-8.52-14.15-13.63,34.75-9.03,32.57,1.03,38.69,1.05,5.51.01,23.54-30.25,93.41-24.11Z"/>
      <path class="cls-59" d="M1411.69,339.84c13.78,5.96-7.13-1.09-28.31,15.72-22.81,18.11-12.23,47.4-8.49,46.12,3.27-1.12-2.71-9.27,4.72-8.39-3.34,6.68-1.15,13.57-1.89,14.15-2.89,2.26-22.04-4.85-44.35,5.76-15.53,7.39-18.53,20.49-19.82,21.49-1.94,1.5-26.59,5.03-48.12,24.63-4.96-14.17,15.63-13.77,19.82-18.34,1.32-1.44,5.77-19.45,11.32-24.11,4.4-3.68,16.66-6.03,30.19-11.01,9.16-2.27,18.9-1.86,19.82-2.1,5.52-1.41-.8-3.93-.94-4.19-1.36-2.5-5.56-7.94-5.66-8.39-7.37-31.32,17.64-46.75,71.71-51.36Z"/>
      <path class="cls-59" d="M1640.04,197.29c-12.02,5.62-39.53,20.72-39.63,29.35-12.43,2.81-18.41,16.72-16.98,23.06.83,3.69,9.81,13.25,16.98,11.53-11.65,19.76,3.98,26.16-9.44,33.54-.24-.09.79,1.29-5.66,0-.4-.08-.44-1.47-7.55-2.1-70.17-30.49-2.92-82.9,62.28-95.38Z"/>
      <path class="cls-85" d="M1440,124.97c-37.73.03-75.5.18-113.23,0-9.12-4.84-3.23-3.92-3.77-10.48,28.56-1.58,32.84.12,34.91,0,9.64-.56,14.57-5.59,43.4-5.24.51,0,5.39,2.21,5.66,2.1,4.38-1.89,1.02-38.76,68.88-40.88-12.78,7.86-16.82,20.41-35.86,24.63v29.87Z"/>
      <path class="cls-44" d="M1323,114.49c.55,6.56-5.34,5.64,3.77,10.48-64.84-.31-129.63-.24-194.38-2.62,28.04-3.16,68.39-.91,95.3-3.67,4-.41,9.7-4.99,11.32-5.24,8.74-1.33,27.19,1.38,30.19,1.05,4.78-.53,16.71-14.79,44.35-2.62,3.81,1.68-7.87,3.58,9.44,2.62Z"/>
      <path class="cls-51" d="M1843.85,111.35c-16.68,5.41-28.4,13.39-41.52,20.96-10.55,6.09-49.6,28.81-50.95,35.64-18.8,3.8,6.98,35.36-9.44,30.4-5.97-1.78-13.48-4.97-15.1-5.24-19.17-37.51,45.47-49.14,51.9-52.41,12.29-6.25,12.43-19,65.11-29.35Z"/>
      <path class="cls-43" d="M1575.88,124.97v-12.58c3.37.64,15.66.21,19.82,1.05,10.62,2.14,21.51,7.42,32.08,8.39,14.97,1.37,58.15-.18,78.32,1.57-43.37.05-86.88,1.3-130.21,1.57Z"/>
      <path class="cls-96" d="M1677.78,78.85c-34,9.58-21.99-9.65-5.66-12.58l5.66,12.58Z"/>
      <path class="cls-71" d="M1299.41,246.56c131.76,1.76,38.71,2.89-24.53,3.14l24.53-3.14Z"/>
      <path class="cls-80" d="M1683.45,68.37v8.39c-4.48,2.44-3.49,1.49-5.66,2.1l-5.66-12.58c2.19-2.49,9.29-.89,11.32,2.1Z"/>
      <path class="cls-38" d="M1683.45,76.76v-8.39c18.88,3.63.88,7.91,0,8.39Z"/>
      <path class="cls-80" d="M1599.47,73.61l6.61.52c-.83,7.47-11.57,1.29-6.61-.52Z"/>
      <path class="cls-24" d="M1554.18,72.56l4.72,1.57c1.34,3.57-13.94,3.96-4.72-1.57Z"/>
      <path class="cls-24" d="M1010.67,17.01l4.72.52c.39,6.17-12.31,3.26-4.72-.52Z"/>
      <path class="cls-24" d="M1348.47,15.97q2.36,1.31,4.72,2.62c-1.3,3.37-16.59.6-4.72-2.62Z"/>
      <path class="cls-4" d="M1369.23,44.27l2.83,3.67c-9.26,1.74-9.78-.6-2.83-3.67Z"/>
      <path class="cls-80" d="M1701.37,140.69l6.61,1.57c-4.69,3.37-12.54.71-6.61-1.57Z"/>
      <path class="cls-80" d="M1746.67,57.89c9.26-.32,4.46,6.07-2.83,1.57l2.83-1.57Z"/>
      <path class="cls-96" d="M1610.79,93.53q2.36.79,4.72,1.57c-7.32,5.54-9.62-1.11-4.72-1.57Z"/>
      <path class="cls-32" d="M1820.27,19.11c6.51-.51,6.39,6.33-2.83,1.57l2.83-1.57Z"/>
      <path class="cls-80" d="M1169.19,47.41l4.72,1.57c-5.2,3.28-11.16,1.32-4.72-1.57Z"/>
      <path class="cls-2" d="M1378.67,33.78l4.72,2.62c-5.88,4.5-8.92-2.62-4.72-2.62Z"/>
      <path class="cls-80" d="M993.69,22.25c8.41.78,2.22,5.23-2.83,1.57q1.42-.79,2.83-1.57Z"/>
      <path class="cls-24" d="M1518.32,154.32c8.41.78,2.22,5.23-2.83,1.57l2.83-1.57Z"/>
      <path class="cls-24" d="M1431.51,18.06l4.72.52c1.88,2.34-12.07,3.5-4.72-.52Z"/>
      <path class="cls-80" d="M1750.44,31.69c8.11,4.36-6.62,5.5-.94.52l.94-.52Z"/>
      <path class="cls-32" d="M1607.02,12.82c5.85.18,2.82,5.66-2.83,1.57,1.12-.48,2.43-1.58,2.83-1.57Z"/>
      <path class="cls-30" d="M1072.95,50.55c5.85.18,2.82,5.66-2.83,1.57,1.12-.48,2.43-1.58,2.83-1.57Z"/>
      <path class="cls-32" d="M993.69,51.6h1.89c-.67,8.02-8.26,1.22-1.89,0Z"/>
      <path class="cls-80" d="M937.07,18.06c5.28,2.27,2.82,4.24-2.83,2.62l2.83-2.62Z"/>
      <path class="cls-2" d="M1635.32,30.64l4.72.52c-1.67,5.05-8.19.32-4.72-.52Z"/>
      <path class="cls-27" d="M1839.14,3.39c4.82-1.22,6.56,1.71,1.89,3.14-1-1.58-3.55-2.72-1.89-3.14Z"/>
      <path class="cls-62" d="M1729.68,112.39c3.6-.17,2.14,4.13-1.89,3.14-2.62-.64.72-3.09,1.89-3.14Z"/>
      <path class="cls-32" d="M1048.42,22.25c5.91,3.61-4.27,6.19-.94.52l.94-.52Z"/>
      <path class="cls-2" d="M1476.8,19.11c3.96-.75,6.69,1.08,3.77,2.1-1.68.58-5.99-1.68-3.77-2.1Z"/>
      <path class="cls-32" d="M1412.64,27.49c3.39-.71,3.93,2.65,1.89,3.14-2.1-1.06-4.35-1.98-1.89-3.14Z"/>
      <path class="cls-12" d="M1086.16,20.16c.26-.05,2.96,1.42,4.72,1.57-3.68,3.26-7.55-.98-4.72-1.57Z"/>
      <path class="cls-30" d="M1659.86,40.07c.65-.25,4.15-.17,4.72.52-3.78,3.11-8.1.75-4.72-.52Z"/>
      <path class="cls-82" d="M1684.39,129.16l.94.52c4.14.28-4.35,7.65-.94-.52Z"/>
      <path class="cls-2" d="M976.7,39.02c4.96-.39,3.76,3.57-2.83,1.57,1.13-.46,2.27-1.53,2.83-1.57Z"/>
      <path class="cls-62" d="M1671.18,14.92c.68,0,4.15,1.51.94,2.62-3.59,1.25-4.2-2.62-.94-2.62Z"/>
      <path class="cls-12" d="M938.96,26.45c2.82-.63,4.15,1.59,1.89,2.1-2.82.63-4.15-1.59-1.89-2.1Z"/>
      <path class="cls-2" d="M1837.25,13.87c4.86-1.43,5.45,1.87,1.89,2.1-.21.01-3.81-1.53-1.89-2.1Z"/>
      <path class="cls-24" d="M1329.6,10.72c4.86-1.43,5.45,1.87,1.89,2.1-.21.01-3.81-1.53-1.89-2.1Z"/>
      <path class="cls-2" d="M1031.43,42.17c.21-.01,3.81,1.53,1.89,2.1-4.86,1.43-5.45-1.87-1.89-2.1Z"/>
      <path class="cls-74" d="M1142.77,54.75c.96-.23,4.19-.17,4.72.52-6.26,2.57-7.87.24-4.72-.52Z"/>
      <path class="cls-62" d="M1335.26,54.75c2.82-.63,4.15,1.59,1.89,2.1-2.82.63-4.15-1.59-1.89-2.1Z"/>
      <path class="cls-2" d="M1129.56,61.04c2.82-.63,4.15,1.59,1.89,2.1-2.82.63-4.15-1.59-1.89-2.1Z"/>
      <path class="cls-24" d="M1742.89,79.9c2.41.94,1.02,4.61-1.89,2.1-1.2-1.03,1.67-2.18,1.89-2.1Z"/>
      <path class="cls-75" d="M1627.77,145.93c2.82-.63,4.15,1.59,1.89,2.1-2.82.63-4.15-1.59-1.89-2.1Z"/>
      <path class="cls-80" d="M1703.26,145.93c2.41.94,1.02,4.61-1.89,2.1-1.2-1.03,1.67-2.18,1.89-2.1Z"/>
      <path class="cls-62" d="M1718.36,53.7h1.89l.94.52v1.05l-.94.52-.94-.52-.94-.52-.94-.52.94-.52Z"/>
      <path class="cls-12" d="M1091.82,59.99h1.89l.94.52v1.05l-.94.52-.94-.52-.94-.52-.94-.52.94-.52Z"/>
      <path class="cls-42" d="M1169.19,23.3c1.44,0,1.44,3.14,0,3.14s-1.44-3.14,0-3.14Z"/>
      <path class="cls-12" d="M1091.82,48.46h1.89l.94.52-.94.52-.94.52-.94.52-.94-.52v-1.05l.94-.52Z"/>
      <path class="cls-62" d="M1046.53,43.22c1.11-.3,4.72-.04,4.72.52,0,1.2-8.08.38-4.72-.52Z"/>
      <path class="cls-24" d="M1505.11,14.92c1.11-.3,4.72-.04,4.72.52,0,1.2-8.08.38-4.72-.52Z"/>
      <path class="cls-2" d="M1288.09,74.66c1.11-.3,4.72-.04,4.72.52,0,1.2-8.08.38-4.72-.52Z"/>
      <path class="cls-75" d="M1010.67,41.12l.94.52.94.52.94.52-.94.52h-1.89l-.94-.52v-1.05l.94-.52Z"/>
      <path class="cls-31" d="M1469.25,36.93l.94.52.94.52.94.52-.94.52h-1.89l-.94-.52v-1.05l.94-.52Z"/>
      <path class="cls-32" d="M1252.23,5.48l.94.52v1.05l-.94.52h-1.89l-.94-.52.94-.52.94-.52.94-.52Z"/>
      <path class="cls-62" d="M1086.16,40.07c1.11-.3,4.72-.04,4.72.52,0,1.2-8.08.38-4.72-.52Z"/>
      <path class="cls-12" d="M1022,28.54h1.89l.94.52v1.05l-.94.52-.94-.52-.94-.52-.94-.52.94-.52Z"/>
      <path class="cls-10" d="M641.73,289.53c2.51-.05,5.04.03,7.55,0,.59.39-.6,3.41,0,3.67,2.51,1.07,55.45,7.66,61.33,7.86,8.51.29,29.97-1.98,43.4-2.1,3.19-.03,23.72,6.82,61.33-3.14,21.22,9.03,42.4,18.36,62.28,28.3,41.29,20.64,69.69,38.81,103.79,62.89-4.73,5.23-26.08,2.77-7.55,8.91l-4.72.52c-28.66-10.67-40.38-7.8-50.95-9.43-26.04-4.03-56.1-12.9-101.91-6.29-6.37,4.18,11.61,8.05,12.27,12.58-20.44-7-41.56-12.97-58.5-23.06,17.28-3.14-4.9-16.1-30.19-10.48-9.89-18.15-36.21-31.45-71.71-24.11-1.08-5.31-46.23-28.77-55.67-32.49-6.7-2.64-36.42-11.38-45.29-13.63-9.84-2.5-23.06-1.75-29.25-6.81.31-3.97,84.56,7.18,103.79,6.81Z"/>
      <path class="cls-78" d="M670.04,418.45c45.84,4.14,91.81,9,137.76,12.58,3.54,15.66-58.1,26.81-80.2,28.3-5.42.37-31.2-1.39-49.07,0-13.52,1.05-52.21,10.28-94.36,11.53l.94,3.14c-20.81-1.57-64.41-4.09-30.19,0,.67,11.39-36.54,7.91-64.16,15.72,1.03-2.35,3.74-6.88,3.77-7.34.29-3.69-1.93-8.93-3.77-12.58-.64-1.26-.99-1.93-1.89-3.14l24.53-6.81-19.82-2.62c13.2-3.29,77.52-17.49,81.15-18.87,9.69-3.67-1.97-9.25,7.55-11.53,2.08-.5,10.48,4.05,36.8-12.58,16.85,1.57,34.06,2.67,50.95,4.19Z"/>
      <path class="cls-78" d="M770.06,370.24c16.95,10.09,38.06,16.05,58.5,23.06,17.57,6.02,35.96,12.24,54.73,17.82,7.02,12.38-19.82,4.33-25.48,5.24-.72.11-5.05,4.37-11.32,5.24-13.92,1.93-47.18-6.31-42.46,7.34-43.51-4.28-86.43-9.03-130.21-12.58-14.54-1.18-28.83-2.15-43.4-3.14-12.28-30.61,30.17-28.87,27.36-40.88-17.95,5.01-40.02,8.14-10.38-2.1,40.84.26,81.82.38,122.67,0Z"/>
      <path class="cls-58" d="M305.82,246.56c-18.02,4.09-58.57,17.05-68.88,18.87-20.56,3.63-38.2,2.72-60.39,6.29-18.97,3.05-81.56,19.19-100.96,25.16,4.3-3.49-7.41-6.93-7.55-7.86-.43-2.96,33.63-13.52,30.19-19.91,34.83-15.49,53.2-31.67,89.64-46.64,2.99-1.23,17.46-12.2,30.19-9.43,6.3,1.37,19.78,22.86,75.49,31.44,7.96,1.23,14.04-.64,12.27,2.1Z"/>
      <path class="cls-87" d="M911.6,300.01c-16.24,8.2-23.4,13.34-33.97,24.11-19.88-9.94-41.05-19.27-62.28-28.3-37.09-15.78-74.58-29.99-115.12-42.97-2.29-4.98,8.03-2.34,14.15-4.19,1.92-.58,28.15-12.16,34.91-14.67,54.31,18.76,114.08,42.75,162.3,66.03Z"/>
      <path class="cls-71" d="M668.15,207.78c24.56,7.36,49.81,14.98,73.6,23.06.4.14.78.81,7.55,3.14-6.76,2.51-32.99,14.09-34.91,14.67-6.12,1.85-16.45-.78-14.15,4.19-34.79-11.14-85.62-24.84-122.67-34.59-15.89-8.88,17.34-.89,56.61-18.87,10.76,3.06,23.35,5.2,33.97,8.39Z"/>
      <path class="cls-71" d="M602.1,188.91c10.23,2.78,23.21,7.96,32.08,10.48-39.27,17.97-72.5,9.99-56.61,18.87-11.81-3.11-24.03-5.45-35.86-8.39-22.69-5.63-44.69-11.79-67.94-16.77,8.89-11.3,32.86-18.64,54.73-22.01,24.29,6.09,49.62,11.29,73.6,17.82Z"/>
      <path class="cls-87" d="M488.87,466.67c.9,1.21,1.25,1.89,1.89,3.14-19.09-6.3-41.82-10.22-57.56-18.87q3.3,17.03,6.61,34.06c19.28-.09,33.91-4.33,54.73-2.62-.04.46-2.75,4.99-3.77,7.34-.26.6.3,1.57,0,2.1-.86,1.49-5.49,2.94-5.66,3.14-17.66-.52-17.45-.7-28.31,6.29-2.65-.63-5.18-2.35-9.44-3.14,1.66-13.35-16.37-7.84-31.14-10.48-14.17-2.54-27.94-6.76-42.46-8.91,12.79-15.57,58.6-22.54,49.07-35.11,26.87.62,55.56,8.89,66.05,23.06Z"/>
      <path class="cls-44" d="M739.87,359.76c25.3-5.62,47.47,7.34,30.19,10.48-40.84.38-81.83.26-122.67,0-89.75-.58-179.56-2.61-268.92-7.34v-2.1c35.38-.16,146.81,4.28,162.3,3.14,6.51-.48,17.04-5.02,20.76-5.24,6.87-.4,12.76,2.66,18.87,2.1.81-.07,7.51-2.88,10.38-3.14,10.72,7.56,2.44,15.95,28.31,1.05,3.95.52,7.05,3.24,16.98-2.1,6.16,19.84,15.89,4.11,53.78,9.43,20.41-17.86,37.14-1.39,39.63-1.05,5.62.77,9.73-5.1,10.38-5.24Z"/>
      <path class="cls-60" d="M739.87,359.76c-.65.14-4.76,6.01-10.38,5.24-2.49-.34-19.22-16.82-39.63,1.05-37.89-5.32-47.63,10.4-53.78-9.43,7.48-7.81,16.28-17.7,32.08-20.96,35.51-7.34,61.83,5.96,71.71,24.11Z"/>
      <path class="cls-71" d="M422.82,443.61c9.54,12.57-36.28,19.54-49.07,35.11,14.52,2.15,28.29,6.37,42.46,8.91,14.76,2.64,32.8-2.87,31.14,10.48-10.46-1.94-80.83-8.86-103.79-11.53-1.73-.2-2.04-.85-3.77-1.05.13-1.55,1.37-2.61,1.89-4.19,7.26-22.19,39.51-38.7,81.15-37.73Z"/>
      <path class="cls-97" d="M285.06,476.1c18.13-.44,37.83,6.4,56.61,5.24-.52,1.58-1.76,2.64-1.89,4.19-21.96-2.55-44.06-4.77-66.05-7.34,2.74-2.36,7.19-2,11.32-2.1Z"/>
      <path class="cls-60" d="M619.09,358.71c-25.87,14.91-17.59,6.51-28.31-1.05,30.28-2.77,19.28-.14,28.31,1.05Z"/>
      <path class="cls-15" d="M630.41,413.21c14.57,1,28.86,1.97,43.4,3.14l-3.77,2.1c-16.9-1.52-34.1-2.62-50.95-4.19-66.48-6.21-21.67-3.31,11.32-1.05Z"/>
      <path class="cls-22" d="M80.3,369.19c8.8-.32,97.18,10.38,92.47,11.53-7.17-.64-97.18-10.38-92.47-11.53Z"/>
      <path class="cls-29" d="M202.02,304.2c-20.24-3.44-40.59-6.83-60.39-11.01,17.46-1.94,45.64,6.69,60.39,11.01Z"/>
      <path class="cls-69" d="M423.77,281.14q56.14.26,112.29.52c-36.45.86-75.22,1.33-112.29-.52Z"/>
      <path class="cls-3" d="M314.31,357.66c1.44.03.44,2.06,1.89,2.1,64.58,1.72,8.49,1.5-22.65,0,2.94-.72,19.7-2.12,20.76-2.1Z"/>
      <path class="cls-4" d="M474.72,295.82c12.28.03,5.65,8.55-2.83,3.67q1.42-1.83,2.83-3.67Z"/>
      <path class="cls-11" d="M504.91,267.52q2.36,1.31,4.72,2.62c-1.96,8.1-13.15,3.41-4.72-2.62Z"/>
      <path class="cls-80" d="M608.71,252.85c9.08.95,2.78,6.57-2.83,2.62q1.42-1.31,2.83-2.62Z"/>
      <path class="cls-51" d="M452.07,259.13c9.08.95,2.78,6.57-2.83,2.62q1.42-1.31,2.83-2.62Z"/>
      <path class="cls-24" d="M514.35,231.88c2.87,4.76-1.39,6.75-6.61,2.62l6.61-2.62Z"/>
      <path class="cls-11" d="M552.09,229.79c6.55-.97,4.02,7.22-2.83,2.62q1.42-1.31,2.83-2.62Z"/>
      <path class="cls-96" d="M429.43,248.65c8.11,4.36-6.62,5.5-.94.52l.94-.52Z"/>
      <path class="cls-29" d="M202.02,304.2c2.63.45,8.26.44,11.32,1.57-6.32,1.94-10.81-1.42-11.32-1.57Z"/>
      <path class="cls-24" d="M378.47,262.28h1.89c3.64,4.38-5.53,4.38-1.89,0Z"/>
      <path class="cls-11" d="M323.75,251.8c.68,0,4.15,1.51.94,2.62-3.59,1.25-4.2-2.62-.94-2.62Z"/>
      <path class="cls-10" d="M649.28,289.53c-2.51.03-5.04-.05-7.55,0,2.15-1.97,5.16-1.57,7.55,0Z"/>
      <path class="cls-24" d="M455.85,268.57c.68,0,4.15,1.51.94,2.62-3.59,1.25-4.2-2.62-.94-2.62Z"/>
      <path class="cls-4" d="M491.7,223.5c.21-.01,3.81,1.53,1.89,2.1-4.86,1.43-5.45-1.87-1.89-2.1Z"/>
      <path class="cls-80" d="M720.05,281.14c2.41.94,1.02,4.61-1.89,2.1-1.2-1.03,1.67-2.18,1.89-2.1Z"/>
      <path class="cls-71" d="M701.18,272.76c.21-.01,3.81,1.53,1.89,2.1-4.86,1.43-5.45-1.87-1.89-2.1Z"/>
      <path class="cls-8" d="M1358.85,651.14c42.89,1.13,85.44.91,128.33,1.05,20.39,1.3,65.17,2.73,71.71-1.05,27.52-.11,67.13-.17,92.47,2.1-20.13,1.22-130.75,4.48-136.82,6.29-1.34.4.85,4.31-.94,5.24-14.84.35-29.8,1.83-44.35,2.1-29.1.54-76.39-2.16-13.21,0l2.83,3.14c-22.64-.07-45.29,0-67.94,0-3.15,0-6.29,0-9.44,0-17.61,0-35.23-.01-52.84,0-156.63.11-313.26,1.89-469.9,1.05,28.87-.89,59.67-13.83,62.28-30.4,46.33-1.48,92.7,3.51,138.71,4.19,36.92.55,75.71-5.35,111.34,1.05,62.46-3.54,124.91,3.59,187.77,5.24Z"/>
      <path class="cls-8" d="M792.71,634.37c-5.11,21.4,26.99,36.93,64.16,36.68-151.61.96-303.22-.79-454.81-1.05.18-.93-.76-2.7.94-3.14,4.38-1.13,83.1-3.68,96.25-4.19,6.07-.24,18.88,2.18,20.76,2.1,1.47-.07.41-2.02,1.89-2.1,79.6-3.92,37.99-8.2-11.32-5.24q-.94-2.1-1.89-4.19c14.11-1.63,91.97-1.91,96.25-3.14,1.15-.33,1.72-4.66,3.77-5.24,1.86-.52,9.32.52,11.32,0,1.95-.51-.03-2.79,1.89-3.14,2.02-.37,28.28-.87,42.46-2.1-2.46,2.38,22.44,2.24,27.36,2.1,20.33-.6,68.22-2.76,51.9-7.34.24,0-1.71-1.95,2.83-2.1,1.36-.04.52,2.13,1.89,2.1,14.7-.4,29.57-2.6,44.35,0Z"/>
      <path class="cls-39" d="M1049.36,705.64c-13.84-.01-27.68.01-41.52,0-133.36-.12-266.72.06-400.08,0-1.56-3.35,5.58-5.16,10.38-6.29,22.6-5.3,218.25-10.77,254.77-10.48,22.01.17,161.57,6.81,171.73,10.48,4.32,1.56,5.44,3.5,4.72,6.29Z"/>
      <path class="cls-41" d="M1538.13,708.79c12.58.04,25.16-.02,37.74,0-20.61.95-41.66,2.58-62.28,3.14-15.75.43-31.4.92-47.18,1.05-62.88.51-126.73-2.05-189.66-2.1-35.66-.03-251.61,3.26-264.2,1.05-.69-.12-8.6-4.46-4.72-6.29,13.84.01,27.68-.01,41.52,0,135.6.11,271.08-.23,406.68,0,.81,0,9.53,3.13,15.1,3.14,22.33.04,44.61-.07,66.99,0Z"/>
      <path class="cls-40" d="M1666.46,652.19c-2.47,6.57,16.81-.72,22.65,7.86q-14.15,5.5-28.31,11.01h-35.86c-7.01-.21-13.6-.91-20.76-1.05-14.49-14.78-18.05-6.56-33.03-6.29-19.27.35-38.26.59-57.56,1.05,1.8-.93-.4-4.84.94-5.24,6.07-1.81,116.69-5.07,136.82-6.29,4.99-.3,10.04-.73,15.1-1.05Z"/>
      <path class="cls-61" d="M1604.19,670.01c-41.99-.79-84.4.16-126.44,0-6.29-.02-12.58.02-18.87,0l-2.83-3.14c-63.18-2.16-15.89.54,13.21,0,14.55-.27,29.51-1.74,44.35-2.1,19.3-.46,38.28-.7,57.56-1.05,14.98-.27,18.54-8.49,33.03,6.29Z"/>
      <path class="cls-52" d="M1381.5,670.01c-2.76,5.06-39.44.97-52.84,0,17.61-.01,35.23,0,52.84,0Z"/>
      <path class="cls-9" d="M1458.87,670.01c6.29.02,12.58-.02,18.87,0h-86.81c22.64,0,45.29-.07,67.94,0Z"/>
      <path class="cls-54" d="M1660.8,671.05c5.03-.04,10.07.06,15.1,0-16.79,2.67-34.16.5-50.95,0h35.86Z"/>
      <path class="cls-61" d="M822.9,146.98c34.5,14.61,70.23,28.52,101.91,45.07,18.02,9.42,45.93,26.39,64.16,37.21,1.72,1.02,5.62,8.16,9.44,10.48,20.09,12.25,50.99,24.7,69.82,37.73,11.95,8.27,24.06,22.64,26.42,24.11,6.3,3.91,14.08,4,18.87,7.34,14.92,10.39,29.89,20.99,43.4,31.97,6.46,5.24,14.84,9.73,20.76,15.2,7.95,7.34,22.24,32.06,35.86,36.16-23.4,13.81-23,31.11-16.98,48.21h-11.32c-.03-2.16-27.74-34.83-32.08-39.31-64.83-66.86-197.51-141.79-305.72-188.14,51.91-32.58-34.14-33.87-32.08-65.51l7.55-.52Z"/>
      <path class="cls-5" d="M511.52,34.83c22.44,6.94,47.05,15.66,69.82,23.06,15.2,4.94,30.19,10.62,45.29,15.72-30.54,9.19,13.95,17.23,11.32,28.82-.98,4.35-31,18.96-39.63,21.49-15.62-4.91-30.78-11.06-46.24-15.72-.33-.1-1.1,1.93-7.55,0-59.49-17.8-118.42-36.2-182.11-49.26-6.52-4.15,7.5-3.72,18.87-12.05,3.88-2.84,6.85-8.74,11.32-12.58,3.62-3.11,14.74-6.74,15.1-7.34,4.09-6.74-19.9-9.83,7.55-19.39,31.64,9.33,65.04,17.6,96.25,27.25Z"/>
      <path class="cls-59" d="M966.32,329.36c28.96,19.1,54.65,39.91,83.04,59.22,1.55,1.06,4.11,0,5.66,1.05,6.44,4.39,36.53,23.52,37.74,25.16,3.57,4.79-.88,7.3,0,8.39,17.43,21.51,37.58,42.14,49.07,64.98,12.2-1.57-.33-6.31,20.76-18.34,4.85-2.77,11.64-4.84,16.98-7.34.22,1.41,3.18,11.04,3.77,11.53-36.4,10.39-13.98,14.98-15.1,18.34-1.74,5.21-35.8,9.6-18.87,19.39-14.78,8.81-14.15,12.53-15.1,13.1-4.43,2.69-3.87-.19-7.55.52-1.47-2.54-3.58-2.99-3.77-3.14-3.86-3.04-6.57-6.09-9.44-9.43-5.92-6.9-11.1-14-16.98-20.96-22.48-26.58-36.63-43.06-66.05-68.13-15.15-12.91-31.95-24.6-49.07-36.68-34.1-24.08-62.5-42.25-103.79-62.89,10.57-10.77,17.73-15.91,33.97-24.11,16.86,8.14,36.6,23.89,54.73,29.35Z"/>
      <path class="cls-29" d="M464.34,130.21c5.43,17.9-16.8,8.4-32.08,16.77-7.33-1.63-15.51-2.64-22.65-4.19-57.33-12.47-116.48-22.18-173.62-34.59,6.8-5.5,18.87-.76,28.31-3.67-21.45-9.01-22.3-11.98-44.35-11.01-22.98-6.26-21.24-8.05-22.65-8.39-26.68-6.32-74.38-12.36-61.33-15.72,46.69,4.47,93.32,8.28,138.71,15.72,62.82,10.31,129.97,29.44,189.66,45.07Z"/>
      <path class="cls-88" d="M709.67,101.91c-12.4,25.62,65.13,21.9,41.52,48.74-5.98,6.8-25.76,12.92-24.53,16.25-41.96-14.83-85.05-29.36-128.33-42.97,8.63-2.52,38.65-17.14,39.63-21.49,2.63-11.59-41.86-19.64-11.32-28.82,27.73,9.37,55.86,18.44,83.04,28.3Z"/>
      <path class="cls-7" d="M715.33,104.01c43.12,15.77,67.3,25.92,107.57,42.97l-7.55.52c-2.06,31.64,83.99,32.93,32.08,65.51-44.35-19-74.44-29.74-120.78-46.12-1.22-3.33,18.55-9.45,24.53-16.25,23.61-26.84-53.92-23.11-41.52-48.74,1.91.69,3.76,1.4,5.66,2.1Z"/>
      <path class="cls-59" d="M1000.29,334.6c46.95,28.89,88.33,61.23,130.21,91.71,13.52,13.87,24.93,28.16,32.08,43.5-21.08,12.03-8.55,16.77-20.76,18.34-11.49-22.85-31.64-43.47-49.07-64.98-.88-1.09,3.57-3.6,0-8.39-1.21-1.63-31.31-20.77-37.74-25.16-1.55-1.06-4.11,0-5.66-1.05-28.39-19.31-54.07-40.12-83.04-59.22,6.96,2.1,26.47,6.21,33.97,5.24Z"/>
      <path class="cls-41" d="M639.85,180.52c-3.47,3.45-14.73-2.09-16.04-2.1-1.6,0-29.22,8.79-21.7,10.48-23.98-6.53-49.31-11.73-73.6-17.82-32.02-8.03-63.62-16.84-96.25-24.11,15.28-8.38,37.51,1.13,32.08-16.77,67.9,17.78,109.99,28.88,175.51,50.31Z"/>
      <path class="cls-49" d="M1000.29,334.6c-7.5.97-27.01-3.14-33.97-5.24-18.12-5.46-37.87-21.2-54.73-29.35-48.21-23.29-107.99-47.28-162.3-66.03-6.77-2.34-7.15-3.01-7.55-3.14,7.97-3.15,6.88-7.01,16.98-8.39,81.46,26.65,178.25,73.2,241.56,112.15Z"/>
      <path class="cls-59" d="M1241.85,381.77c-15,15.96.13,22.33-1.89,25.68-1.28,2.12-20.37.88-22.65,16.77-1.99,13.88,11.47,15.82,11.32,16.77-.35,2.21-58.79,20.99-32.08,34.59-1.87,1.66-12.83-1.26-13.21-1.57-.59-.49-3.55-10.11-3.77-11.53-.54-3.42-4.92-3.51,1.89-8.39.92-.66,19.7-5.83,18.87-12.05-.11-.79-3.73-1.44-3.77-1.57-6.01-17.1-6.41-34.4,16.98-48.21,4.86-2.87,20.95-8.34,28.31-10.48Z"/>
      <path class="cls-92" d="M758.74,222.45c-10.11,1.38-9.01,5.23-16.98,8.39-23.79-8.08-49.04-15.7-73.6-23.06-5.76-4.14,3.92-2.68,13.21-5.76-2.71-4.56-18.97-7.8-9.44-11.01,29.8,10.05,57.16,21.35,86.81,31.44Z"/>
      <path class="cls-21" d="M639.85,180.52c10.74,3.51,21.41,6.88,32.08,10.48-9.54,3.2,6.73,6.45,9.44,11.01-9.29,3.08-18.97,1.62-13.21,5.76-10.62-3.18-23.2-5.32-33.97-8.39-8.87-2.53-21.85-7.7-32.08-10.48-7.51-1.69,20.1-10.49,21.7-10.48,1.31,0,12.57,5.55,16.04,2.1Z"/>
      <path class="cls-25" d="M1196.56,440.46c.05.13,3.67.78,3.77,1.57.83,6.22-17.96,11.4-18.87,12.05-8.74-5.45,3.82-10.74,3.77-13.63h11.32Z"/>
      <path class="cls-40" d="M1494.73,617.6c17.6,3.83,71.31,9.84,85.87,9.43,2.68-.07,16.29-3.23,16.04-5.24,30.41,2.01,60.3.73,90.58-1.05-4.18,9.83,49.67-.13,37.74,9.96-31.88,7.86-34.69,9.4,1.89,9.96-12.44,3.99-47.29,5.84-65.11,5.24-1.45.04-.44,2.06-1.89,2.1-34.29.87-103.25-1.61-149.09-1.05-24.36.3-23.19,3.12-24.53,3.14-30.87.47-89.02.25-121.72,0l-.94-2.1c-30.56.78-57.85,0-89.64-2.1.56-9.79,62.84-5.59,80.2-8.39,58.45-9.43-114.77-1.3-121.72-2.1-2.13-.24-5.72-.64-7.55-1.05-11.74-2.62-29.03-15.51-33.03-16.77-10.02-3.15-22.36-1.03-28.31-2.1-2.25-.4-16.52-7.07-44.35-7.86l117.95-5.76c33.55-9.69-92.97-9.78-100.96-9.43,4.9-1.86,9-5.43,13.21-7.34,29.84-13.51,52.98.19,83.98,4.19,11.55,1.49,31.53-.09,41.52,2.1,16.86,3.7,2.63,6.74,6.61,11.01,11.47,12.3,81.34,11.08,104.74,11.01,20.72-.06,42.23-4.79,62.28-1.05,7.06-3.34,31.87,5.4,46.24,5.24Z"/>
      <path class="cls-26" d="M302.04,580.91c31.5,3.79,65.6,1.89,98.13,2.1,1.89.01,3.78-.02,5.66,0,74.32.65,148.31,2.03,222.69,2.1,4.83,0,13.65-1.05,28.31-1.05,32.08,0,64.17.14,96.25,0,8.84,6.05-51.03,4.82-76.43,4.19-1.44-.04-.44-2.06-1.89-2.1-11.72-.33-45.03-.94-50.01,2.1-55.25.03-109.32,5.45-164.18,8.39-16.28.87-74.17,5.09-82.09,4.19-4.18-.47-.15-8.43-81.15-7.34-.99.01-16.08,3.14-16.98,3.14-29.03.25-26.84-2.12-28.31-2.1-28.94.37-67.69-.04-93.41,3.14-11.48-1.03-22.57-1.69-33.97-3.14-8.73-1.11-7.19.06-7.55,0-2.37-.42-18.66-5.37-18.87-7.34,35.29-.52,76.15-5.13,80.2-5.24,41-1.1,82.7.14,123.61-1.05Z"/>
      <path class="cls-7" d="M460.57,596.64c1.86,4.88-6.11,1.14-13.21,6.81,5.28,13.48,67.38-3.21,43.4,12.58,3.18,3.56,24.44-8.99,14.15.52-61.46,14.73-116.11,7.69-146.26,9.43-21.41,1.07-43.16.66-64.16-2.62,20.92-1.18,40.38,4.11,56.61-6.29-17.05-6.6,12.44-4.21-.94-11.01-24.83,1.07-49.86-1-74.54-2.1-42.15-1.87-73.36-2.36-117-6.29,25.72-3.18,64.48-2.77,93.41-3.14,1.47-.02-.72,2.35,28.31,2.1.91,0,16-3.13,16.98-3.14,80.99-1.09,76.96,6.86,81.15,7.34,7.92.9,65.81-3.32,82.09-4.19Z"/>
      <path class="cls-98" d="M975.76,576.72c-2,6.85,20.86,6.07,20.76,0,15.72-.14,31.46.17,47.18,0,5.68-.06,11.44-.95,20.76-1.05-5.08,8.42,14.44.32,18.87,5.76-1.31,1.17-17.66.26-22.65.52-1.67-5.43-6.1-.04-6.61,0-5.88.51-75.65,1.18-30.19,2.1,6.15.12,18.8-.74,27.36-1.05,1.5,5.06-15.53,2.76-.94,7.34,61.1,3.24,54.82-4.83,58.5-5.24,2.02-.23,10.7,3.88,40.57,0-4.21,1.91-8.31,5.48-13.21,7.34-19.83.85-52.55,6.05-57.56,6.29-66.63,3.22-154.83-13.82-230.23-9.43-46.38,5.55-93.02-.08-139.65,0-10.09.02-30.91,2.08-64.16,2.1-1.77,0-18.78-3.14-19.82-3.14,4.98-3.04,38.29-2.43,50.01-2.1,1.45.04.44,2.06,1.89,2.1,25.4.63,85.27,1.86,76.43-4.19,41.12-.17,140.98,1.37,163.24,0,3.72-.23,21.1-1.68,9.44-3.14-20.09,2.1-38.63-1.61-58.5-2.1-70.18-1.72-141.11,1.29-211.36,0l.94,5.24c-14.66,0-23.48,1.05-28.31,1.05-1.83-9.47,3.54-5.31,15.1-6.29,19.4-1.65,70.24-1.91,101.91-3.14,75.61,4.36,153.77,1.64,230.23,1.05Z"/>
      <path class="cls-8" d="M1224.87,634.37c1.83.41,5.42.8,7.55,1.05-12.12,11.74,24.75,7.36,36.8,8.39,1.69.14-1.31,1.7,4.72,2.1,31.79,2.09,59.08,2.88,89.64,2.1l.94,2.1c-4.81-.04-5.88-2.38-5.66,1.05-62.86-1.65-125.31-8.78-187.77-5.24-35.63-6.4-74.42-.5-111.34-1.05-46.01-.69-92.38-5.67-138.71-4.19.35-2.19.58-7.73,0-9.43,22.1,4.07,44.08,1.5,66.99,2.1.51.01,8.93,2.08,9.44,2.1,49.22,1.2,98.17-1.07,147.2-1.05,26.34.01,54.78,4.06,80.2,0Z"/>
      <path class="cls-8" d="M578.51,630.18c3.32-.03,26.05,2.29,16.98,4.19-22.67-.77-44.28,3.66-66.05,6.29-.47.06-9.01-1.17-9.44-1.05-6.68,1.92,7.8,2.67-7.55,4.19-9.94.99-142.13,8.36-105.68,1.05,42.38-.24,144.63-14.44,171.73-14.67Z"/>
      <path class="cls-8" d="M904.05,615.5c-.59-.31-12.48-5.04-13.21-5.24q52.37-1.57,104.74-3.14c18.37,7.12-64.97,3.89-91.53,8.39Z"/>
      <path class="cls-7" d="M14.25,653.23c33.96-1.32,32.17,1.98,33.97,2.1,87.47,5.77-20.78,7.26-33.97,5.24-10.74-1.65-6.37-4.63,0-7.34Z"/>
      <path class="cls-8" d="M743.64,634.37c16.32,4.58-31.57,6.74-51.9,7.34-4.92.14-29.82.29-27.36-2.1,26.61-2.31,52.38-4.16,79.26-5.24Z"/>
      <path class="cls-8" d="M612.48,633.32c12.17-.61,11.99,2.73,0,2.1v-2.1Z"/>
      <path class="cls-67" d="M1666.46,350.32c1.88.03,3.78-.04,5.66,0,37.77,7.18,18.04,15.17,43.4,11.53-65.01,26.43-45.85,47.88-47.18,50.83-.71,1.58-28.61,8.67-39.63,23.06-6.78,8.85-16.54,40.31-7.55,31.97,3.63.09,1.02,3.34,1.89,4.19-4.23.28-6.92,1.6-11.32,2.1-7.32-3.15-3.46-10.54-11.32-18.34-8.72-8.65-18.08-7.83-18.87-8.39-11.84-8.24-12.44-25.57-32.08-31.97,13.31-7.49,16.76-21.54,18.87-23.58,8.8-8.52,78.57-32.87,98.13-41.4Z"/>
      <path class="cls-22" d="M1834.42,281.14c-9.06,12.18-15.14,33.48-3.77,45.07-4.2,2.73-11.29,4.81-15.1,7.86-26.5,21.24-.12,44.28-22.65,30.4-.47-.29-5.2-4.95-5.66-5.76-9.24-16.38,26.82-38.13,21.7-39.83-.69-.23-11.2.11-16.04-1.05-12.24-2.93-31.47-13.31-43.4-18.34,21.81-57.11,30.39-14.46,84.92-18.34Z"/>
      <path class="cls-5" d="M1666.46,350.32c-19.56,8.54-89.33,32.88-98.13,41.4-2.11,2.04-5.57,16.1-18.87,23.58-6.37-2.07-17.59-3.33-24.53-3.14.32-6.13-.51-21.97,1.89-25.68.6-.93,5.23.2,7.55-2.1,1.06-1.05-2-2-1.89-2.1,14.25-12.1,34.02-14.47,52.84-20.44,10.74-3.4,19.26-9.15,31.14-11.53,32.1-6.44,47.05-.05,50.01,0Z"/>
      <path class="cls-90" d="M1787.24,358.71l-1.89,1.05c-3.52-1.76-6.79-2.46-11.32-3.14-26.98-4.05-45.56,3.38-58.5,5.24-25.37,3.64-5.63-4.35-43.4-11.53,17.42.36,66.33-8.87,80.2-14.67,11.78-4.93,18.3-16.6,40.57-17.82,4.84,1.16,15.35.82,16.04,1.05,5.12,1.7-30.94,23.45-21.7,39.83Z"/>
      <path class="cls-59" d="M1573.99,349.27q5.66,6.29,11.32,12.58c-18.82,5.96-38.59,8.34-52.84,20.44-.12.1,2.94,1.05,1.89,2.1-2.32,2.3-6.95,1.16-7.55,2.1-2.4,3.71-1.57,19.55-1.89,25.68-7.55.2-7.97.87-9.44,1.05-7.52-2.72-10.16-8.86-11.32-13.63-3.74-15.34,7.44-24.59,24.53-35.64,4.22-2.73,12.24-7.51,16.98-9.43,9.27-2.74,18.43-3.7,28.31-5.24Z"/>
      <path class="cls-44" d="M1590.98,294.77c13.72,5.09,9.03,12.93,22.65,17.82.12.34-.1.71,0,1.05-20.15,9.2-17.52,11.63-7.55,23.06-19.89,15.24-22.1,9.34-28.31,10.48-.96.18-2.81-.18-3.77,0-17.45-15.98-17.25-26.19,0-42.45,5.79-5.45,15.58-7.62,11.32-9.96,6.45,1.29,5.43-.09,5.66,0Z"/>
      <path class="cls-87" d="M1826.87,152.22q-10.85-6.81-21.7-13.63c-11.36,5.41-3.22,13.83,4.72,18.87-9.58,1.94-14.78-1.72-23.59-4.19-26.31,20.16.41,31.19.94,33.02.71,2.42-5.46,4.46-5.66,4.72-5.42-6.68.72,3.33-16.98-3.14,4.71-10.97-14.97-11.03-13.21-19.91,1.35-6.83,40.4-29.54,50.95-35.64q1.42,2.1,2.83,4.19c55.12-30.11,21.57-8.2,21.7,15.72Z"/>
      <path class="cls-59" d="M1717.41,251.8c-.71,1.03-10.94,5.33-9.44,11.01.24.9,15.94,14.69,20.76,13.1-8.87,16.57,17.25,9.11,8.49,16.77-76.36-21.26-59.34-58.56,14.15-70.75-21.95,10.55-24.62,16.29-33.97,29.87Z"/>
      <path class="cls-15" d="M1613.62,312.59c-13.62-4.89-8.93-12.73-22.65-17.82,13.41-7.38-2.22-13.78,9.44-33.54,1.08-1.82,3.14-5.59,3.77-6.29,1.86-2.06,8.47-6.02,11.32-8.39,8.86,10.01,34.93,10.35-11.32,40.35,12.59,19.35,8.97,24.34,9.44,25.68Z"/>
      <path class="cls-89" d="M1600.41,226.64c-.02,2.08,12.15,16.58,15.1,19.91-2.85,2.37-9.46,6.33-11.32,8.39.07-2.34-14.65-5.42-20.76-5.24-1.43-6.34,4.56-20.25,16.98-23.06Z"/>
      <path class="cls-59" d="M1764.59,187.86c-1.56,3.65-19.25,4.32-5.66,12.58-8.51,4.36-16.08-1.83-16.98-2.1,16.41,4.97-9.37-26.6,9.44-30.4-1.76,8.89,17.92,8.95,13.21,19.91Z"/>
      <path class="cls-44" d="M1728.74,275.9c-4.81,1.59-20.52-12.2-20.76-13.1-1.5-5.67,8.73-9.98,9.44-11.01-1.39,4.38,20.16,10.81,20.76,12.05.8,1.67-7.66,8.73-9.44,12.05Z"/>
      <path class="cls-99" d="M1826.87,152.22c.07,12.3,11.98,12.77-.94,12.58-4.26-2.95-11.66-4.56-16.04-7.34-7.94-5.04-16.08-13.46-4.72-18.87q10.85,6.81,21.7,13.63Z"/>
      <path class="cls-89" d="M1606.07,336.7c-9.97-11.43-12.61-13.86,7.55-23.06.83,2.87,18.73,2.93-7.55,23.06Z"/>
      <path class="cls-49" d="M1781.58,191c-4.52,5.69-10.82,16.62-22.65,9.43-13.59-8.26,4.1-8.93,5.66-12.58,17.7,6.48,11.57-3.54,16.98,3.14Z"/>
      <path class="cls-91" d="M1573.99,347.18c.96-.18,2.81.18,3.77,0-.19.49-3.52,2.06-3.77,2.1-9.88,1.55-19.03,2.5-28.31,5.24,11.93-4.82,14.95-4.9,28.31-7.34Z"/>
      <path class="cls-61" d="M1513.6,711.93l10.38,6.29c-18.22.66-40.13-1.81-38.69,2.1-75.03,1.24-134.4,2.84-209.47,7.34-37.11-.94-73.86-5.47-110.4-7.34-26.25-1.34-80.89,2.16-83.98-6.29,128.31-.07,256.68,0,384.98-1.05,15.78-.13,31.43-.62,47.18-1.05Z"/>
      <path class="cls-57" d="M1183.35,274.86c7.81,6.57,17.21,13.24,24.53,19.91,28.38,25.85,54.67,52.17,73.6,80.71-20.06-.89-24.15,1.77-39.63,6.29-7.36,2.15-23.45,7.61-28.31,10.48-13.61-4.1-27.91-28.82-35.86-36.16-5.92-5.47-14.3-9.95-20.76-15.2q4.25,1.05,8.49,2.1c23.41-6.21-8.01-18.94-16.04-25.68-6.23-5.23-18.12-17.64-24.53-22.01-7.56-5.16-80.02-46.22-96.25-55.03,8.67-1.11,22.29-6.19,23.59-6.29,25.01-1.99,110.09,61.36,130.21,73.37,29.33-7.91,1.99-20.61.94-32.49Z"/>
      <path class="cls-74" d="M888.95,71.52c.92.4,2.7-1.11,2.83-1.05,5.27,2.33,62.4,30.4,72.66,35.64,42.04,21.45,80.64,44.77,117,69.18,58.45,39.22,91.36,65.99,133.99,111.1-9.84-.97-2.8,3.59-7.55,8.39-7.33-6.68-16.73-13.34-24.53-19.91-10.53-8.86-20.96-17.55-32.08-26.2-3.77-2.93-7.56-5.54-11.32-8.39-38.49-29.07-54.81-39.25-98.13-64.98-52.13-30.96-98.03-55.7-156.63-82.8-15.02-6.95-29.94-14.28-45.29-20.96,25.5-8.33,26.68-.79,50.01,2.1q-.47-1.05-.94-2.1Z"/>
      <path class="cls-43" d="M715.33,104.01c-1.91-.7-3.75-1.4-5.66-2.1-27.17-9.86-55.31-18.93-83.04-28.3-15.11-5.1-30.09-10.78-45.29-15.72,5.3-5.47,26.2-15.16,26.42-16.25.69-3.33-13.62-4-11.32-8.91,30.88,9.96,62.13,18.98,91.53,30.4,15.71,6.1,28.47,14.06,46.24,18.34-10.43-3.23-27.23,2-28.31,7.34-.64,3.17,12.66,10.11,9.44,15.2Z"/>
      <path class="cls-88" d="M1028.6,240.27c16.23,8.81,88.68,49.87,96.25,55.03,6.41,4.37,18.31,16.78,24.53,22.01,8.03,6.74,39.45,19.47,16.04,25.68q-4.25-1.05-8.49-2.1c-13.51-10.97-28.49-21.58-43.4-31.97-4.8-3.34-12.57-3.42-18.87-7.34-2.36-1.46-14.47-15.84-26.42-24.11-18.84-13.04-49.74-25.48-69.82-37.73-3.81-2.32-7.71-9.46-9.44-10.48-18.23-10.82-46.14-27.79-64.16-37.21q8.02.52,16.04,1.05c25.19,18,58.73,31.41,87.75,47.17Z"/>
      <path class="cls-28" d="M592.67,30.64c.1,1.27,2.2,1.59,3.77,2.1-2.29,4.91,12.01,5.58,11.32,8.91-.22,1.09-21.12,10.77-26.42,16.25-22.78-7.4-47.38-16.12-69.82-23.06q15.1-9.43,30.19-18.87c16.15,5.33,33.88,10.25,50.95,14.67Z"/>
      <path class="cls-84" d="M1041.81,175.28l-3.77,2.1c-20.21-12.14-139.26-70.58-145.31-74.94-.59-.43-6.53-8.56-7.55-9.96,58.6,27.1,104.51,51.84,156.63,82.8Z"/>
      <path class="cls-86" d="M1041.81,175.28c43.33,25.73,59.64,35.92,98.13,64.98-2.84-1.2-5.42-.95-5.66-1.05-8.21-3.3-30.65-22.28-37.74-26.73-18.65-11.71-42.91-21.67-58.5-35.11l3.77-2.1Z"/>
      <path class="cls-57" d="M1139.94,240.27c3.77,2.84,7.55,5.45,11.32,8.39.88,7.79-14.85-5.49-16.98-9.43.24.1,2.82-.15,5.66,1.05Z"/>
      <path class="cls-14" d="M432.26,146.98c32.62,7.27,64.23,16.08,96.25,24.11-21.86,3.37-45.84,10.72-54.73,22.01-38.28-8.2-77.98-14.97-117-22.01,52.24-15.11,18.14-22.57,52.84-28.3,7.13,1.55,15.32,2.56,22.65,4.19Z"/>
      <path class="cls-51" d="M858.76,776.92c-1.25.03-2.52.01-3.77,0-47.76-.56-83.66-20.72-71.71-47.69q67.47-.79,134.93-1.57c29.42,23.15-16.82,48.36-59.45,49.26Z"/>
      <path class="cls-60" d="M1021.05,771.67c2.84,3.08,9.87,5.57,15.1,7.34-3.81,4.42,4.22,3.65,3.77,7.86-2.64,3.47-82.1.28-117.95.52-.69,0-12.52,2.09-13.21,2.1-77.76.17-155.3-3.04-233.06-2.1v-2.1c-.35-2.04.51-4.29,0-6.29,32.25-2.66,64.81,2.46,97.19,3.14,25.3.53,89.72,1.36,82.09-5.24,1.25.01,2.52.03,3.77,0v3.67c53.73-5.13,106.68-9.07,162.3-8.91Z"/>
      <path class="cls-58" d="M1022.94,555.76c-41.37,1.66-2.38,1.48,16.98,3.14-42.41.62-84.95.87-127.38,1.05,14.95,3.53,51.36,2.2,74.54,2.1q-5.66,1.83-11.32,3.67c21.34,10.93,58.48,4.56,66.05,7.86-92.46.48-184.96.5-277.41,1.05-40.88.24-81.79-.26-122.67,0l-.94-2.1c-52.07,1.64-318.09-3-341.58,1.05-.83.14-12.37,6.17-13.21,6.29-4.39.63-86.66,2.31-90.58,1.05-5.49-1.76-.39-8.22-.94-8.91-2.66-3.29-77.85-4.66-89.64-5.76-1.45-.14-8.68-2.81-11.32-3.14-8.69-1.09-23.35.02-21.7-3.14,125.23-.17,250.31,1.78,375.55,2.1,122.39.31,244.67-.08,367.05,0,1.03-.44,5.32-2.09,5.66-2.1,67.64-1.24,135.23-3.03,202.87-4.19Z"/>
      <path class="cls-92" d="M1126.73,525.36c-4.76.93-19.54-.71-24.53,10.48-4.33.21-11.24-2-17.93-1.05-1.7.24-28.53,11.14-19.82,13.63-3.85.5-8.13-1.1-11.32,1.57,16.11,8.13-22.76-.06-24.53,5.76-1.87.07-3.79-.08-5.66,0-67.64,1.17-135.23,2.95-202.87,4.19-.34,0-4.63,1.65-5.66,2.1-122.38-.08-244.66.31-367.05,0q20.76-1.05,41.52-2.1c20.06.31,40.31.02,60.39,0,45.28-.04,116.98-.49,160.41-2.1,64.9-2.4,78.99-7.35,93.41-8.39,15.2-1.09,30.42-.3,45.29-1.05,9.24-.47,30.77-4.16,35.86-4.19,10.47-.06,25.07,3.15,26.42,3.14,47.38-.16,95.75-3.45,142.48-8.39,1.63-.17,2.3,1.48,4.72,1.05.98-.18,12.77-7.43,14.15-8.39q25.48-4.72,50.95-9.43c.2.15,2.31.61,3.77,3.14Z"/>
      <path class="cls-22" d="M577.57,526.41c-1.09.76-10.06,14.61-17.93,16.77-5.53,1.52-40.85,1.64-35.86,15.72q12.74.52,25.48,1.05c-20.08.02-40.33.31-60.39,0-21.9-.34-44.08-1.49-66.05-1.57,18.36-29.39,82.08,2.61,117-18.87-6.4-13.28-22.34-10.85-27.36-13.1-13.43-6.02-24.34-15.76-38.69-20.96,16.76-9.73,10.79-9.88,11.32-10.48.18-.2,4.8-1.65,5.66-3.14,41.93,4.99,68.57,12.01,86.81,34.59Z"/>
      <path class="cls-78" d="M273.74,478.2c21.99,2.56,44.09,4.79,66.05,7.34,1.73.2,2.04.85,3.77,1.05,1.92,20.44-21.13-5.5-50.01,17.82q-25-13.89-50.01-27.78c.04-4.87,13.2-.41,30.19,1.57Z"/>
      <path class="cls-92" d="M485.1,494.97c-.53.6,5.44.75-11.32,10.48-1.18-.43-7.12.43-8.49,0-6.91-2.19-7.97-4.07-8.49-4.19,10.86-6.99,10.65-6.81,28.31-6.29Z"/>
      <path class="cls-10" d="M688.91,867.06h9.44c33.67-.66,33.08,3.09,34.91,3.14,22.45.68,34.4-2.24,41.52-2.1,11.61.24,46.52,4.06,56.61,4.19,72.28.92,145.58-1.86,217.97-1.05-33.24,21.17-92.41,53.08-132.1,70.23-40.91,17.67-39.54,19.06-97.19,16.77-.49-.02-.9-3.39-7.55-2.1-2.02.39,3.16,4.16-11.32,3.14-1.49-.1-.42-2.04-1.89-2.1-17.5-.7-31.01,1.38-41.52,1.05-1.45-.05-.44-2.05-1.89-2.1-9.79-.28-38.47,1.05-43.4-2.1-13.89-.03-87.14-2.65-40.57,1.05q-2.83,3.14-5.66,6.29c-61.38.1-161.08-10.74-209.47-10.48-6.85.04-18.78,3.14-19.82,3.14-30.22.11-68.69-3.78-98.13-1.05-4.05.38-24.31,7.22-46.24,8.91-.16,1.48,22.72,4.96,26.42,5.76,7.1,1.55,8.75.68,5.66,3.14-73.52-13.59-146.55-28.62-218.91-44.02,97.64-26.21,201.02-45.94,301.95-68.13,18.99,9.65,37.32,6.01,40.57,6.29,80.29,6.95,72.34,4.46,137.76,4.19,32.9-.13,65.29.58,98.13,0,1.57-.03-1.15-1.95,4.72-2.1Z"/>
      <path class="cls-23" d="M1077.67,825.13c5.11,2.04,12.56,3.47,15.1,8.39,4.02,7.78-8.99,13.1-13.21,16.77-40.77-1.92-82.97.39-123.61,3.14q-256.18-1.05-512.36-2.1c13.13-2.88,26.5-5.48,39.63-8.39l40.57,1.05c8.48-4.91-17.38-.29-21.7-5.24,7.24-1.61,15.33-2.53,22.65-4.19,89.3-2,178.68-.28,267.98-1.05,2.77-.02,9.15,1.16,22.65,1.05,81.12-.69,161.62-6.05,242.5-5.24q9.91-2.1,19.82-4.19Z"/>
      <path class="cls-45" d="M1079.55,850.29c-7.52,6.55-15.58,12.92-24.53,18.87-.47.31-5.13,1.76-5.66,2.1-72.39-.81-145.69,1.97-217.97,1.05-10.1-.13-45-3.95-56.61-4.19-7.12-.15-19.07,2.77-41.52,2.1-1.84-.06-1.24-3.81-34.91-3.14-2.97.06-5.91-.09-9.44,0-5.87.15-3.14,2.07-4.72,2.1-32.85.58-65.23-.13-98.13,0-65.42.27-57.47,2.75-137.76-4.19-3.25-.28-21.59,3.36-40.57-6.29,11.82-2.6,24.02-4.74,35.86-7.34q256.18,1.05,512.36,2.1c40.64-2.75,82.84-5.07,123.61-3.14Z"/>
      <path class="cls-49" d="M1060.68,784.25c-1.79,8.22.03,25.39-9.44,25.68,3.88,4.37,24.52-10.88,30.19,8.39-5.25.29-10.43,1.51-13.21,1.57-14.06.3-21.76-5.4-31.14-6.29-10.2-.96-30.88.79-43.4,0-2.85-.18-14.73-4-20.76-4.19-18.73-.6-58.18,1.13-88.7,1.05-17.39-.05-34.04-3.16-35.86-3.14-.63,0-1.68,3.01-11.32,3.14-25.7.37-51.72-.17-77.37,1.05-5.47.26-10.65,4.16-11.32,4.19-19.63.96-42.52-.9-62.28,0-1.37.06-24.5,4.1-26.42,4.19-24.49,1.2-6.13-7.64-36.8,3.67-1.69.62,3.12,2.03.94,2.62-3.33.9-77.39,5.62-70.77,1.05,43.31-10.26,94.36-17.28,122.67-39.83,77.76-.95,155.31,2.27,233.06,2.1.69,0,12.52-2.09,13.21-2.1,35.85-.25,115.31,2.95,117.95-.52.45-4.21-7.59-3.44-3.77-7.86,7.72,2.61,16.05,3.74,24.53,5.24Z"/>
      <path class="cls-92" d="M1068.23,819.89c-.4,2.73,5.56,3.69,9.44,5.24q-9.91,2.1-19.82,4.19c-80.88-.81-161.38,4.55-242.5,5.24,10.19-7.44,24.79-5.28,33.03-6.29,30.69-3.78-63.39-5.27-63.22.52q3.77,2.36,7.55,4.72c-89.3.77-178.68-.95-267.98,1.05,8.62-1.96,19.08-5.15,28.31-7.34-6.62,4.58,67.44-.15,70.77-1.05,2.17-.59-2.64-2-.94-2.62,30.67-11.31,12.31-2.47,36.8-3.67,1.92-.09,25.05-4.13,26.42-4.19,19.76-.9,42.64.96,62.28,0,.68-.03,5.86-3.93,11.32-4.19,25.66-1.21,51.67-.68,77.37-1.05,9.65-.14,10.69-3.14,11.32-3.14,1.81-.02,18.46,3.1,35.86,3.14,30.52.08,69.97-1.65,88.7-1.05,6.03.19,17.91,4.01,20.76,4.19,12.53.79,33.21-.96,43.4,0,9.38.89,17.08,6.58,31.14,6.29Z"/>
      <path class="cls-93" d="M483.21,842.95c6.3-1.39,12.58-2.79,18.87-4.19,4.32,4.95,30.18.33,21.7,5.24l-40.57-1.05Z"/>
      <path class="cls-88" d="M536.05,575.67c33.64,3.63,76.47-2.2,107.57,3.14-11.55.98-16.93-3.19-15.1,6.29-74.38-.06-148.37-1.45-222.69-2.1-1.24-1.31,5.98-6.17,6.61-6.29,5.85-1.1,106.09-.85,123.61-1.05Z"/>
      <path class="cls-90" d="M400.18,583.01c-32.53-.21-66.63,1.69-98.13-2.1,16.82-.49,93.11-7.31,102.85-5.24,8.37,4.06-7.26,2.69-4.72,7.34Z"/>
      <path class="cls-22" d="M641.73,574.62c40.88-.26,81.79.24,122.67,0-.24,1.98-9.31.68-18.87,1.05-31.67,1.24-82.51,1.5-101.91,3.14-31.1-5.35-73.93.49-107.57-3.14,35.13-.41,70.56-.83,105.68-1.05Z"/>
      <path class="cls-58" d="M1696.66,512.78c-8.79.89-17.73,2.35-26.42,3.14-32.15,2.92-65.7,4.2-98.13,6.29-14.4-2.53-46.61,2.41-13.21,1.05-.71,13.1,14.57,5.28,16.04,5.24,20.5-.54,34.66,1.1,41.52,1.05,1.42-.01.47-2.09,1.89-2.1,15.73-.07,33.1,2.22,48.12,2.1l-2.83,1.05,10.38,1.05c-9.57-.49-9.5-.12-15.1,3.14q-17.46-1.57-34.91-3.14c-46.75,4.06-181.79,6.63-211.36,10.48-25.12,3.28-9.38,4.17,5.66,5.24,53.19-1.54,106.45-2.11,159.47-5.24q3.77,2.1,7.55,4.19c-22.29.9-44.7,1.26-66.99,2.1-3.62.14-45.56,5.22-71.71,6.29-19.55.8-39.82.42-59.45,1.05-23.2.75-46.63.54-69.82,1.05.21-1.54-3.46-1.02-7.55-1.05,2.42-5.33,34.45.22,55.67-1.05,1.34-.08-2.85-2.26,24.53-3.14,8.89-3.71-21.86,1.77-28.31-3.14-111.15,1-222.25,3.15-333.08,7.34,1.77-5.82,40.64,2.37,24.53-5.76,3.19-2.67,7.47-1.08,11.32-1.57,2.14-.28,5.15.16,7.55,0q-.47,1.05-.94,2.1c34.25-.54,63.83-.72,96.25-2.1,1.47-.06.42-2.03,1.89-2.1,11.86-.52,38.07.55,47.18,0,1.06-.06-2.5-3.56,18.87-1.05,11.35-3.92,41.97-2.57,49.07-3.14,1.45-.12-3.84-1.59,27.36-4.19,23.01-1.92,36.78-.87,38.69-1.05,1.31-.12.68-6.21,22.65-3.14,65.76-8.06,130.12-15.98,192.49-16.77,27.09-4.88,53.69-7.2,81.15-9.43,46.9-10.45,91.5-17.03,138.71-22.01,10.53,10.77,11.08,4.28,12.27,4.19,9.16-.67,20,1.83,16.98-6.29,12.3,7.1,31.56-.57,49.07,0-11.96,3.56-27.72,3.22-34.91,7.86,3.08,3.19,84.86-15,97.19-12.05-75.18,13.35-151.52,25.71-229.29,33.54Z"/>
      <path class="cls-58" d="M1472.08,414.26c1.1.08,19.45,3.77,20.76,4.19,2.04.66,28.4,16.68,33.03,18.87,15.64,7.41,47.51,17.73,46.24,21.49-58.41,25.33-139.03,48.64-209.47,61.32-3.14-19.65,63.55-20.24,66.05-24.63.59-1.03-14.71-10.96-16.98-19.39q19.82-8.12,39.63-16.25c-6.01-3.03-13.53-3.05-20.76-1.57-6.4-12.13,30.77-18.67,12.27-37.73h-6.61c-36.77,4.92-41.81,19.68-39.63,38.78-18.88-35.14,36.65-47.8,75.49-45.07Z"/>
      <path class="cls-96" d="M1430.57,458.28c-14.75,3.01-20.97,10.03-18.87,17.82,2.27,8.43,17.57,18.36,16.98,19.39-2.5,4.4-69.19,4.98-66.05,24.63-1.5.27-2.07,1.88-16.98,4.19-5.17-5.26-10.72-4.01-11.32-4.19-13.84-14.83-10.8-33.28,22.65-36.68.58-.09,1.3.09,1.89,0,5.68-.85,4.24-1.56,5.66-2.1,18.06-6.79,8.59-17.39,37.74-13.63,11.08,1.43,2.35-14.75,11.32-27.78,2.66-3.87,20.32-13.53,22.65-19.39h6.61c18.5,19.06-18.67,25.6-12.27,37.73Z"/>
      <path class="cls-29" d="M1304.13,510.69c18.26,0,13.32,4.38,30.19,9.43.6.18,6.15-1.07,11.32,4.19-16.26,2.52-34.34,4.39-50.95,6.29-21.41,2.44-49.23,5.34-70.77,7.34-11.69,1.08-15.24-1.12-16.04-1.05,10.2-12.39-17.78-5.47-18.87-14.15,18.33,1.38,26.44-9.14,41.52-13.1.73-.19,14.31-3.04,15.1-3.14,33.27-4.26,34.68,5.49,40.57,6.29,4.96.67,10.93-2.1,17.93-2.1Z"/>
      <path class="cls-96" d="M1294.69,530.6q8.49,3.67,16.98,7.34c-31.2,2.61-25.91,4.07-27.36,4.19-7.1.58-37.72-.77-49.07,3.14-21.37-2.51-17.81.98-18.87,1.05-9.11.55-35.32-.52-47.18,0-1.47.06-.42,2.03-1.89,2.1-32.42,1.38-61.99,1.55-96.25,2.1q.47-1.05.94-2.1c27.13-1.85,55.12-2.08,82.09-4.19,17.77-1.4,36.27-5.78,53.78-7.34.8-.07,4.35,2.13,16.04,1.05,21.54-1.99,49.35-4.89,70.77-7.34Z"/>
      <path class="cls-97" d="M1504.17,399.58c1.16,4.76,3.8,10.9,11.32,13.63-8.17,1.02-14.47,4.28-22.65,5.24-1.31-.43-19.66-4.12-20.76-4.19q4.72-4.19,9.44-8.39c15.02-1.36,16.44-5.99,22.65-6.29Z"/>
      <path class="cls-11" d="M1577.77,482.39c-4.84,6.76-19.38,12.74-18.87,20.96v2.1c-4.35.14-5.64,1.89-7.55.52-5.55-10.72,8.82-21.43,26.42-26.73-.25,1.05.43,2.55,0,3.14Z"/>
      <path class="cls-71" d="M1822.15,477.15l.94.52v1.05l-.94.52h-1.89l-.94-.52.94-.52.94-.52.94-.52Z"/>
      <path class="cls-50" d="M1387.16,555.76l-9.44,7.86c1.85,6.1,68.4.49,79.26-.52,1.7,3.12-6.52,4.21-11.32,5.24-9.36,2.01-22.22,3.55-32.08,4.19-36.25,2.37-112.75-1.25-158.52-1.05,11.37-4.65-6.3-4.03-3.77-6.81.41-.45,12-.92,11.32-6.81,18.26-.36,36.46-.65,54.73-1.05,23.19-.51,46.62-.3,69.82-1.05Z"/>
      <path class="cls-1" d="M1573.99,555.76c-13.07,7.99-50.47,4.83-69.82,10.48q-29.25,1.05-58.5,2.1c4.8-1.03,13.02-2.13,11.32-5.24,16.09-1.51,18.69-4.09,19.82-4.19,39.89-3.69,55.73-7,97.19-3.14Z"/>
      <path class="cls-3" d="M1785.35,359.76c7.7,3.86,30.99,33.39,49.07,38.78.74,1.76,7.2,8.13,9.44,10.48-5.54-2.47-34.52,13.08-35.86,14.67-18.9.07-52.81,12.97-74.54,19.91-3.52,1.12-10.68,6.77-13.21,7.34-19.31,4.3-32.67-4.29-63.22,15.72-3.66,2.4-13.52,12.85-16.04,13.63-2.54-2.05-17.35-7.82-17.93-8.39-.87-.85,1.74-4.1-1.89-4.19,17.51-49.97,154.26-21.23,67.94-55.03,57.64-13.54,29.95-13.59,60.39-39.31,11.9,5.76-.43,17.92,11.32,16.25,3-12.02,10.91-28.28,1.89-25.68,6.45-3.95,11.77-6.17,11.32-7.34,4.54.68,7.81,1.38,11.32,3.14Z"/>
      <path class="cls-29" d="M1304.13,848.19c-2.28,10.79,19.1,22.27,18.87,23.58-.49,2.75-54.44,17.55,59.45,15.2-2.14,4.15-1.75,11.89.94,13.63-11.66,1.04-13.39,11.58-13.21,17.29,13.14,7.1,32.89.82,47.18,5.76-1.43.27,5.72,1.67-26.42,6.29-.35-4.44-15.18-2.69-16.98,5.24-5.3-1.36-25.3-.57-37.74-15.2-6.63-7.79,2.29-3.71,1.89-5.24-.26-.99-16.41,1.79-4.72-16.25-46.47,1.24-49.91-11.24-52.84-11.53-5.62-.56-15.61,11.25-16.98,11.53-13.5,2.7-7.17-5.09-49.07,13.63-2.61,1.16-10.88,1.87-11.32,2.1-9.28,4.62-21.23,21.24-49.07,33.54-2.63,1.16-18.43-3.73-44.35,25.16-105.56,14.42-208.9,31.64-313.27,48.21-17.43,2.77-81.4,14.08-90.58,13.63-.55-.03-7.8-2.97-9.44-3.14,36.33-12.71,71.41-26.53,105.68-40.88,2.99-1.25,3.56-2.01,3.77-2.1,52.33-22.22,60.47-17.7-7.55-18.87-.28-4.59,14.03-.13,18.87-3.14,10.68.2,22.73-.53,33.03,0,1.34.07-2.04,7.34,14.15-2.62q-1.42-1.31-2.83-2.62c-62.71.83-127.48-1.35-189.66-6.29-46.56-3.7,26.69-1.07,40.57-1.05,4.93,3.14,33.62,1.82,43.4,2.1,1.45.04.44,2.05,1.89,2.1,10.51.34,24.02-1.74,41.52-1.05,1.47.06.4,1.99,1.89,2.1,14.48,1.01,9.3-2.75,11.32-3.14,6.65-1.29,7.06,2.08,7.55,2.1,57.65,2.29,56.28.9,97.19-16.77,16.41,9.55,17.6.75,23.59,0,5.92-.74,34.65-.89,41.52-2.1,16.89-2.97,61.53-26.06,67.94-26.2,6.54-.14,5.21,3.09,7.55,3.14,34.52.86,32.04-8.29,35.86-9.43,1.59-.47,8.01.47,9.44,0,3.35-1.11,7.98-5.18,11.32-6.29,8.46-2.8,38.57-8.82,55.67-18.34,25.09-13.97,11.52-13.58,7.55-27.78,11.88,1.51,17.96-5.05,39.63,14.67-3.41,1.22-57.43,29.23-49.07,34.06,6.93.32,11.71-10.44,17.93-13.1,46.5-9.03,40.71-16.36,43.4-17.82,11.24-6.1,24.89-.73,27.36-3.67,1.63-1.94-3.78-1.44-3.77-1.57,1.29-17.37,26.33-14.21,50.95-18.87Z"/>
      <path class="cls-98" d="M1255.06,571.48c45.77-.2,122.27,3.42,158.52,1.05-5.32,13.55,12.02,3.61,27.36,3.14,18.28-.55,34.94,3.27,50.95,3.14,4.53-.04,62-4.59,70.77-7.34,16.17,1.43,84.37,9.45,84.92,14.67-.19.03.68,1.86-.94,2.1-63.26,9.24-144.95,9.61-156.63,11.53-1.9.31.04,2.7-1.89,3.14-3.24.75-2.93-2.31-3.77-2.1-.73.18-.73,3.67-11.32,6.29-4.31,1.07-12.34-3.83-12.27,2.62,22.46.51,23.65,5.61,33.97,7.86-14.37.16-39.18-8.58-46.24-5.24-20.05-3.75-41.56.98-62.28,1.05-23.4.07-93.27,1.29-104.74-11.01-3.98-4.27,10.25-7.31-6.61-11.01-9.99-2.19-29.97-.61-41.52-2.1-31-4-54.13-17.71-83.98-4.19-29.88,3.88-38.55-.23-40.57,0-3.68.41,2.6,8.48-58.5,5.24-14.59-4.58,2.44-2.28.94-7.34,11.87-.42,8.96-1.02,9.44-1.05,4.98-.26,21.33.64,22.65-.52-4.43-5.44-23.95,2.66-18.87-5.76,45.41-.47,90.93,1.44,135.88-3.14,18.22-.09,36.68-.97,54.73-1.05Z"/>
      <path class="cls-47" d="M1596.64,621.79c.25,2.01-13.36,5.17-16.04,5.24-14.55.41-68.27-5.6-85.87-9.43-10.32-2.25-11.5-7.35-33.97-7.86-.07-6.45,7.95-1.55,12.27-2.62,10.6-2.62,10.59-6.11,11.32-6.29.85-.21.53,2.84,3.77,2.1,1.93-.44-.01-2.83,1.89-3.14,11.69-1.92,93.38-2.28,156.63-11.53,1.63-.24.76-2.07.94-2.1,15.08-2.19,13.2,2.59,21.7,5.24,10.14,3.16,20.47.42,21.7,8.91-10.69,7-16.38,2.83-31.14,3.67-43.88,2.49-88.69,3.5-131.16,9.96,23.05,1.39,44.97,6.34,67.94,7.86Z"/>
      <path class="cls-94" d="M1781.58,639.61c-20.26,6.36-17.09.08-19.82,0-9.63-.29-24.58,1.21-34.91,1.05-36.58-.56-33.76-2.1-1.89-9.96,11.92-10.08-41.92-.13-37.74-9.96,18.98-1.12,36.22-3.57,54.73-5.24,2.92,10.25,47.79-2.61,52.84,9.96l-13.21,14.15Z"/>
      <path class="cls-17" d="M1504.17,566.24c1.49,5.34,34.05,3.07,58.5,5.24-8.77,2.75-66.24,7.3-70.77,7.34-16.02.13-32.68-3.7-50.95-3.14-15.34.46-32.69,10.4-27.36-3.14,9.86-.65,22.72-2.18,32.08-4.19q29.25-1.05,58.5-2.1Z"/>
      <path class="cls-3" d="M1808,423.69c-2.21,2.63-8.7,17.52,3.77,13.63-5.08,4.48-73.2,9.53-84.92,23.06-12.08.89-25.02-.11-36.8,1.05-14.4,1.42-22.88,7.02-33.03,5.24,30.55-20.01,43.91-11.42,63.22-15.72,2.53-.56,9.69-6.21,13.21-7.34,21.73-6.95,55.65-19.84,74.54-19.91Z"/>
      <path class="cls-96" d="M1843.85,409.02c.32.34,9.14-.16,5.66,5.76-39.15,9.67-35.53,20.58-37.74,22.54-12.47,3.89-5.98-10.99-3.77-13.63,1.34-1.59,30.32-17.14,35.86-14.67Z"/>
      <path class="cls-38" d="M798.37,969.77c68.02,1.17,59.88-3.35,7.55,18.87-40.45-1.47-178.19-13.24-202.87-10.48-1.02.11-8.5,2-8.49,2.62,55.98,3.16,114.17,7.43,170.79,8.91,17.56.46,33.11-2.31,36.8,1.05-34.27,14.35-69.35,28.17-105.68,40.88-66.67-7.29-247.53-38.19-320.82-51.36-16.99-3.05-34-6.3-50.95-9.43,3.09-2.46,1.44-1.59-5.66-3.14q26.89-2.62,53.78-5.24c27.99.46,95.02,2.24,106.62-7.34,86.29,8.8,228.9,13.12,318.93,14.67Z"/>
      <path class="cls-96" d="M1558.89,503.35c-.5-8.23,14.03-14.21,18.87-20.96,33.46,6.18-9.22,12.97-18.87,20.96Z"/>
      <path class="cls-76" d="M1696.66,512.78q1.42,5.24,2.83,10.48c49.81-3.98,100-5.44,150.03-8.39,1.86,3.73,12.62,6.53,7.55,10.48-29.35,2.01,30.76,3.67-25.48,4.19-19.54.18-19.61-2.15-22.65-2.1-44.61.76-90.28,6.23-134.93,4.19l-10.38-1.05,2.83-1.05c4.1-.03,31.23-1.8,32.08-2.62-8.13-7.58-21.77,2.97-28.31-11.01,8.7-.79,17.63-2.26,26.42-3.14Z"/>
      <path class="cls-63" d="M124.65,594.54h-7.55c.36.06-1.18-1.11,7.55,0Z"/>
      <path class="cls-61" d="M1855.18,636.46c-62.72,6.12-125.53,11.76-188.72,15.72-5.06.32-10.1.74-15.1,1.05-25.34-2.27-64.95-2.2-92.47-2.1-23.82.09-47.73,1.12-71.71,1.05-42.89-.13-85.44.08-128.33-1.05-.22-3.43.86-1.08,5.66-1.05,32.7.25,90.85.47,121.72,0,1.35-.02.17-2.85,24.53-3.14,45.84-.56,114.8,1.92,149.09,1.05,1.45-.04.44-2.06,1.89-2.1,17.82.6,52.67-1.26,65.11-5.24,10.33.16,25.28-1.34,34.91-1.05,2.73.08-.45,6.36,19.82,0q36.33-2.1,72.66-4.19c76.74-9.89,83.49-7.01.94,1.05Z"/>
      <path class="cls-74" d="M1658.91,534.8c-.27.16.16,1.9,0,3.14-23.24-1.84-45.44,1.74-67.94,3.14-4.25.27-8.74.78-13.21,1.05-53.02,3.13-106.28,3.7-159.47,5.24-15.04-1.07-30.78-1.97-5.66-5.24,29.57-3.86,164.61-6.42,211.36-10.48q17.46,1.57,34.91,3.14Z"/>
      <path class="cls-72" d="M1658.91,537.94q-33.97,1.57-67.94,3.14c22.49-1.41,44.7-4.98,67.94-3.14Z"/>
      <path class="cls-34" d="M1481.52,405.87q-4.72,4.19-9.44,8.39c-38.84-2.73-94.37,9.93-75.49,45.07.59,1.09,1.23,3.39,1.89,4.19-20.89,1.68-24.55,8.99-33.97,17.82-1.42.53.02,1.25-5.66,2.1-2.64-7.33-20.3-10.18-18.87-18.34.55-3.15,29.33-41.69,63.22-50.83,38.71-10.45,71.13-7.74,78.32-8.39Z"/>
      <path class="cls-41" d="M1245.62,506.5c-.79.1-14.37,2.95-15.1,3.14-16.78-3.19-55.21-.23-66.05,7.86-14.43,10.78,6.66,15.02-62.28,18.34,5-11.2,19.78-9.55,24.53-10.48,3.68-.72,3.12,2.16,7.55-.52.95-.57.31-4.3,15.1-13.1,27.55-16.41,64.22-20.48,96.25-5.24Z"/>
      <path class="cls-20" d="M1215.43,286.39c27.16,28.74,52.57,57.85,69.82,89.09-1.21-.1-2.54.05-3.77,0-18.93-28.53-45.22-54.85-73.6-80.71,4.75-4.8-2.29-9.36,7.55-8.39Z"/>
      <path class="cls-44" d="M1379.61,393.3c-7.43-.88-1.45,7.26-4.72,8.39-3.74,1.28-14.32-28.01,8.49-46.12,11.6,8.06,23.98,7.4,25.48,8.39,3.98,2.63-23.15,17.15-29.25,29.35Z"/>
      <path class="cls-51" d="M1356.97,483.44c-33.44,3.4-36.49,21.85-22.65,36.68-16.88-5.06-11.94-9.43-30.19-9.43-6.51-26.61,45.36-26.08,52.84-27.25Z"/>
      <path class="cls-86" d="M1345.64,399.58c.15.27,6.47,2.79.94,4.19-.92.23-10.66-.17-19.82,2.1,2.02-.74,9.43-6.84,18.87-6.29Z"/>
      <path class="cls-44" d="M1604.19,254.94c-.63.7-2.7,4.47-3.77,6.29-7.17,1.72-16.15-7.84-16.98-11.53,6.11-.18,20.83,2.91,20.76,5.24Z"/>
      <path class="cls-41" d="M981.42,387.01c17.11,12.08,33.92,23.78,49.07,36.68-8.36,1.48,9.39,10.51-8.49,13.63-49.22-4.6-93.3-15.19-138.71-26.2-18.77-5.58-37.16-11.8-54.73-17.82-.66-4.53-18.64-8.4-12.27-12.58,45.81-6.61,75.86,2.26,101.91,6.29,10.58,1.64,22.3-1.23,50.95,9.43l4.72-.52c-18.54-6.13,2.81-3.68,7.55-8.91Z"/>
      <path class="cls-79" d="M1030.49,423.69c29.42,25.07,43.58,41.55,66.05,68.13-21.83-.53-31.89,7.79-38.69,7.34-6.76-.45-39.9-23.98-86.81-13.63-14.87,3.28-6.48,6.23-25.48,6.29-5.3.02-7.94-1.75-26.42,0-34.75,3.29-42.74,20.37-46.24,20.96-2.92.5-33.11-6.24-60.39-1.05-21.59,4.11-31.26,16.95-33.03,17.82-1.43.7-3.55,2.02-3.77,2.1-.58.21-3.12-.21-3.77,0-1.13-6.14-17.01-6.27-21.7-8.39-9.62-4.33,3.41-3.68-12.27-7.34-30.99-7.22-85.9,5.54-77.37,27.78-29.59,7.03-9.82-7.14-35.86-22.54-7.12-4.21-4.32-6.4-16.98-5.24-6.61.61-25.91,7.49-30.19,10.48-18.24-22.58-44.88-29.59-86.81-34.59.3-.52-.26-1.49,0-2.1,27.63-7.81,64.83-4.33,64.16-15.72,78.27,9.36,234.7,17.84,323.65,26.2-95.69-10.68-195.72-18.83-293.45-26.2l-.94-3.14c42.15-1.25,80.84-10.48,94.36-11.53,17.87-1.39,43.65.37,49.07,0,22.1-1.49,83.75-12.64,80.2-28.3,70.48,5.49,52.07,3.4-3.77-2.1-4.72-13.65,28.54-5.41,42.46-7.34,6.27-.87,10.61-5.13,11.32-5.24,5.66-.91,32.49,7.14,25.48-5.24,45.41,11.01,89.49,21.6,138.71,26.2,17.88-3.11.14-12.14,8.49-13.63Z"/>
      <path class="cls-33" d="M490.76,469.81c1.84,3.65,4.06,8.89,3.77,12.58-20.82-1.71-35.45,2.53-54.73,2.62q-3.3-17.03-6.61-34.06c15.74,8.64,38.47,12.57,57.56,18.87Z"/>
      <path class="cls-15" d="M585.12,474c97.73,7.37,197.77,15.52,293.45,26.2-88.94-8.37-245.38-16.84-323.65-26.2-34.22-4.09,9.38-1.57,30.19,0Z"/>
      <path class="cls-48" d="M804.03,428.93c55.84,5.49,74.26,7.58,3.77,2.1-45.95-3.58-91.93-8.44-137.76-12.58l3.77-2.1c43.78,3.54,86.71,8.3,130.21,12.58Z"/>
      <path class="cls-53" d="M1558.89,651.14c-6.55,3.78-51.32,2.35-71.71,1.05,23.98.08,47.89-.96,71.71-1.05Z"/>
      <path class="cls-89" d="M1096.54,491.82c5.89,6.96,11.07,14.06,16.98,20.96-10.43-1.27-10.71-.59-18.87,2.1-17.26-6.21-45.62,12.18-41.52,24.11-46.73,4.94-95.1,8.23-142.48,8.39-1.35,0-15.95-3.2-26.42-3.14-5.08.03-26.62,3.73-35.86,4.19-14.88.75-30.09-.04-45.29,1.05-14.42,1.03-28.51,5.98-93.41,8.39.63-1.89,3.79-6.16,5.66-7.34,15.45-9.73,47.69-15.95,56.61-18.87.65-.21,3.2.21,3.77,0,9.98,28.61,26.43-8.41,56.61-6.81-31.53-7.96-41.03,7.78-52.84,4.72,1.77-.87,11.44-13.71,33.03-17.82,27.28-5.19,57.46,1.54,60.39,1.05,3.5-.59,11.49-17.67,46.24-20.96-4.93,5.55-31.37,10.38-17.93,12.58,11.66-6.25,38.37-5.05,44.35-12.58,19-.06,10.61-3.01,25.48-6.29,46.91-10.35,80.05,13.18,86.81,13.63,6.8.45,16.85-7.86,38.69-7.34Z"/>
      <path class="cls-15" d="M1113.52,512.78c2.87,3.35,5.58,6.39,9.44,9.43q-25.48,4.72-50.95,9.43c8.2-5.67,7.8-11.89,22.65-16.77,8.16-2.68,8.44-3.37,18.87-2.1Z"/>
      <path class="cls-61" d="M1273.93,645.9c-6.03-.4-3.03-1.95-4.72-2.1-12.05-1.03-48.92,3.36-36.8-8.39,6.95.79,180.18-7.33,121.72,2.1-17.36,2.8-79.65-1.41-80.2,8.39Z"/>
      <path class="cls-56" d="M753.08,584.06c-32.07.14-64.17,0-96.25,0l-.94-5.24c70.26,1.29,141.18-1.72,211.36,0,19.88.49,38.41,4.2,58.5,2.1,11.66,1.46-5.71,2.92-9.44,3.14-22.26,1.37-122.12-.17-163.24,0Z"/>
      <path class="cls-60" d="M1041.81,573.58c.48.21,2.35,2.11,1.89,3.14-15.72.17-31.46-.14-47.18,0-6.92.06-13.84-.05-20.76,0-76.46.59-154.62,3.31-230.23-1.05,9.56-.37,18.64.94,18.87-1.05,92.45-.55,184.96-.57,277.41-1.05Z"/>
      <path class="cls-15" d="M1200.33,572.53c-44.95,4.59-90.46,2.67-135.88,3.14-9.32.1-15.08.99-20.76,1.05.46-1.03-1.41-2.93-1.89-3.14,21.3-.11,42.75-.93,64.16-1.05,31.48-.18,62.9.16,94.36,0Z"/>
      <path class="cls-98" d="M996.52,576.72c.1,6.07-22.76,6.85-20.76,0,6.92-.05,13.84.06,20.76,0Z"/>
      <path class="cls-61" d="M1060.68,581.96c-.48.03,2.44.63-9.44,1.05-8.56.3-21.21,1.17-27.36,1.05-45.45-.92,24.32-1.59,30.19-2.1.51-.04,4.94-5.43,6.61,0Z"/>
      <path class="cls-87" d="M1774.03,356.61c.44,1.16-4.87,3.38-11.32,7.34-6.18,3.79-8.13,5.14-13.21,9.43-30.44,25.72-2.75,25.76-60.39,39.31,86.32,33.8-50.43,5.06-67.94,55.03-9,8.34.77-23.12,7.55-31.97,11.02-14.39,38.92-21.47,39.63-23.06,1.33-2.96-17.83-24.41,47.18-50.83,12.94-1.86,31.52-9.29,58.5-5.24Z"/>
      <path class="cls-81" d="M1370.18,812.55q-.47,1.05-.94,2.1c21.27,6.27,44.56,7.29,66.99,11.53,20.6,3.89,40.39,8.92,60.39,13.63,34.35,14.72,60.82,28.54,83.04,49.26-23.03,4.17-66.79,5.38-93.41,7.34-15.11,5.02,52.8,2.95,53.78,4.72-22.69,17.81-74.05,20.85-84.92,23.58-2.97-2.05-10.54-3.06-15.1-3.14-6.84-14.01-54.26-19.45-56.61-20.96-2.69-1.73-3.08-9.48-.94-13.63-113.88,2.35-59.93-12.45-59.45-15.2.23-1.31-21.16-12.79-18.87-23.58l5.66-3.67c-15.06-15.85-25.43-9.58-35.86-14.15-1.37-.6-8.72-11.08-23.59-13.63-10.29-1.76-23.56-.53-26.42-1.05-6.71-1.21-13.5-5.68-19.82-4.19-18.57-6.88-61.1-13.18-64.16-18.87,34.62,3.12,70.21,4.14,104.74,7.34,41.86,3.87,83.64,8.58,125.5,12.58Z"/>
      <path class="cls-37" d="M1779.69,883.83c-16.23,3.56-30.47,6.55-47.18,9.43-22.25,3.85-45.41,7.09-67.94,10.48q7.55-2.36,15.1-4.72c-50.51-49.65-204.76-65.18-243.44-75.99-4.21-1.18-10.67-.26-5.66-4.19,116.98,11.89,259.12,17.3,349.12,64.98Z"/>
      <path class="cls-49" d="M1139.94,792.64c3.06,5.69,45.59,11.99,64.16,18.87-12.51,5.54-18.81-3.87-43.4,12.05-.68.44,2.03,4.26-13.21,7.86-27.58-1.63-21.41,1.04-22.65,1.05-5.02.05-10.09-.14-15.1,0,34.98-6.57-9.44-15.27-3.77-27.78.76-1.67,16.21-6.53,18.87-13.1,4.97.47,10.22.61,15.1,1.05Z"/>
      <path class="cls-44" d="M1124.85,791.59c-2.66,6.58-18.11,11.43-18.87,13.1-5.66,12.5,38.76,21.2,3.77,27.78-13.02.36-9.82-4.81-16.98,1.05-2.54-4.92-9.99-6.35-15.1-8.39-3.88-1.55-9.84-2.52-9.44-5.24,2.78-.06,7.96-1.29,13.21-1.57-5.67-19.26-26.31-4.01-30.19-8.39,9.47-.29,7.65-17.46,9.44-25.68,21,3.71,42.56,5.31,64.16,7.34Z"/>
      <path class="cls-83" d="M1430.57,818.84c-5.01,3.93,1.46,3.02,5.66,4.19v3.14c-22.43-4.24-45.73-5.26-66.99-11.53q.47-1.05.94-2.1c20.15,1.92,40.27,4.24,60.39,6.29Z"/>
      <path class="cls-76" d="M1309.79,555.76c-22.5-.14-145.63-2.63-153.8-1.05-1.45.28-.95,1.37-.94,2.1-38.35.27-76.74,1.54-115.12,2.1-19.36-1.67-58.35-1.48-16.98-3.14,1.87-.08,3.79.07,5.66,0,110.84-4.19,221.94-6.34,333.08-7.34,6.45,4.91,37.2-.56,28.31,3.14-27.38.89-23.19,3.06-24.53,3.14-21.22,1.27-53.25-4.28-55.67,1.05Z"/>
      <path class="cls-12" d="M1107.86,559.95c-3.69,7.49-29.29,10.68-1.89,12.58-21.41.12-42.86.94-64.16,1.05-7.57-3.3-44.71,3.07-66.05-7.86q5.66-1.83,11.32-3.67c40.22-.18,80.55-1.61,120.78-2.1Z"/>
      <path class="cls-73" d="M1155.04,556.81c19.63-.14,47.28-1.12,45.29,2.1-30.77.47-61.68.67-92.47,1.05-40.23.49-80.56,1.92-120.78,2.1-23.19.1-59.6,1.43-74.54-2.1,42.43-.18,84.97-.43,127.38-1.05,38.37-.56,76.76-1.83,115.12-2.1Z"/>
      <path class="cls-15" d="M737.98,515.93c-36.26.7-62.67,5.51-68.88,27.25,20.56-3.9,29.83,2.28,46.24,7.34-1.87,1.18-5.03,5.45-5.66,7.34-43.43,1.61-115.13,2.05-160.41,2.1q-12.74-.52-25.48-1.05c-4.99-14.08,30.32-14.2,35.86-15.72,7.86-2.16,16.83-16.01,17.93-16.77,4.28-2.99,23.59-9.87,30.19-10.48,2.72,2.17,14.35,8.35,16.98,5.24,26.04,15.4,6.26,29.56,35.86,22.54-8.53-22.23,46.39-35,77.37-27.78Z"/>
      <path class="cls-71" d="M1230.53,509.64c-15.07,3.96-23.19,14.48-41.52,13.1,1.09,8.68,29.07,1.76,18.87,14.15-17.51,1.56-36.01,5.94-53.78,7.34-26.97,2.12-54.96,2.34-82.09,4.19-2.39.16-5.41-.28-7.55,0-8.71-2.48,18.12-13.38,19.82-13.63,6.69-.95,13.6,1.26,17.93,1.05,68.93-3.32,47.84-7.57,62.28-18.34,10.84-8.09,49.27-11.05,66.05-7.86Z"/>
      <path class="cls-59" d="M1094.65,514.88c-14.85,4.88-14.45,11.1-22.65,16.77-1.38.96-13.17,8.21-14.15,8.39-2.42.44-3.08-1.22-4.72-1.05-4.1-11.93,24.26-30.32,41.52-24.11Z"/>
      <path class="cls-41" d="M1177.69,854.48c3.97,14.19,17.54,13.81-7.55,27.78-17.1,9.52-47.21,15.54-55.67,18.34-3.34,1.11-7.98,5.18-11.32,6.29-1.42.47-7.85-.47-9.44,0-3.82,1.14-1.34,10.29-35.86,9.43-2.34-.06-1.01-3.29-7.55-3.14-6.41.14-51.05,23.23-67.94,26.2-6.87,1.21-35.6,1.35-41.52,2.1-5.98.75-7.18,9.55-23.59,0,39.69-17.15,98.86-49.05,132.1-70.23.53-.34,5.2-1.79,5.66-2.1,9.27,6.15,24.63-.68,42.46-3.14,4.91-.68,21.44.76,39.63-5.24,4.94-1.63,12.71-8.53,18.87-9.43,7.76-1.13,16.01,2.42,21.7,3.14Z"/>
      <path class="cls-83" d="M479.44,955.1c-11.61,9.58-78.64,7.8-106.62,7.34q-26.89,2.62-53.78,5.24c-3.7-.81-26.58-4.29-26.42-5.76,21.93-1.69,42.18-8.53,46.24-8.91,29.45-2.73,67.91,1.16,98.13,1.05,1.03,0,12.96-3.11,19.82-3.14,5.61,2.55,15.62,3.48,22.65,4.19Z"/>
      <path class="cls-58" d="M666.27,961.39c50.21,2.82,100.55,4.27,150.97,5.24-4.84,3.02-19.15-1.44-18.87,3.14-90.03-1.55-232.64-5.88-318.93-14.67-7.03-.72-17.04-1.64-22.65-4.19,48.4-.26,148.1,10.59,209.47,10.48Z"/>
      <path class="cls-38" d="M817.24,966.63c-50.42-.97-100.76-2.42-150.97-5.24q2.83-3.14,5.66-6.29c62.18,4.94,126.95,7.12,189.66,6.29q1.42,1.31,2.83,2.62c-16.2,9.96-12.81,2.69-14.15,2.62-10.3-.53-22.34.2-33.03,0Z"/>
      <path class="cls-29" d="M548.32,940.43c144.64,2.03,139.77,2.46,0,4.19v-4.19Z"/>
      <path class="cls-29" d="M714.39,914.22c157.55.25,152.72,2.91-1.89,3.14l1.89-3.14Z"/>
      <path class="cls-29" d="M878.57,901.64h26.42c17.23,5.79-42.89,2.96-26.42,0Z"/>
      <path class="cls-23" d="M698.35,867.06h-9.44c3.52-.09,6.46.06,9.44,0Z"/>
      <path class="cls-92" d="M1273.93,830.37c-1.23,21.19-11.09,3.42-49.07,23.58.96,2.9,3.01,9.53,7.55,11.01-7.55,6.31-13.66,3.68-15.1,4.19-21.67-19.73-27.75-13.16-39.63-14.67-5.69-.72-13.95-4.28-21.7-3.14-6.16.9-13.93,7.8-18.87,9.43-18.19,6-34.72,4.56-39.63,5.24-17.83,2.47-33.19,9.29-42.46,3.14,8.95-5.95,17.01-12.32,24.53-18.87,4.22-3.67,17.23-8.99,13.21-16.77,7.17-5.86,3.97-.69,16.98-1.05,5-.14,10.08.05,15.1,0,35.03,7.25,41.93,24.45,60.39,13.1,7.41-10.98-21.62-13.2-37.74-14.15,15.24-3.6,12.53-7.42,13.21-7.86,24.59-15.92,30.9-6.51,43.4-12.05,6.32-1.48,13.11,2.98,19.82,4.19,2.86.52,16.14-.71,26.42,1.05,14.87,2.54,22.22,13.03,23.59,13.63Z"/>
      <path class="cls-49" d="M815.35,834.56c-13.5.12-19.88-1.07-22.65-1.05q-3.77-2.36-7.55-4.72c-.17-5.8,93.91-4.3,63.22-.52-8.23,1.01-22.84-1.16-33.03,6.29Z"/>
      <path class="cls-10" d="M1373.95,935.18c2.64.68,2.73-1.09,5.66,4.19-89.81,11.42-180.36,21.31-269.86,33.54,25.92-28.89,41.72-23.99,44.35-25.16,27.84-12.31,39.79-28.92,49.07-33.54.44-.22,8.72-.93,11.32-2.1,41.9-18.72,35.57-10.92,49.07-13.63,1.38-.28,11.37-12.09,16.98-11.53,2.93.29,6.37,12.77,52.84,11.53-11.69,18.04,4.46,15.26,4.72,16.25.4,1.53-8.52-2.55-1.89,5.24,12.45,14.63,32.44,13.84,37.74,15.2Z"/>
      <path class="cls-82" d="M1664.57,903.74c-50.01,7.52-101.41,14.55-151.92,20.96-20.35,2.58-47.14,4.02-65.11,6.29-5.47-.82,5.18-5.69,7.55-6.29,10.87-2.74,62.23-5.77,84.92-23.58-.98-1.77-68.89.3-53.78-4.72,26.62-1.96,70.38-3.16,93.41-7.34,6.28-1.14,17.63,1.42,24.53-13.1-21.81-12.22-69.66-29.42-97.19-36.16-7.12-1.74-9.9.11-10.38,0-20-4.71-39.79-9.73-60.39-13.63v-3.14c38.68,10.81,192.93,26.34,243.44,75.99q-7.55,2.36-15.1,4.72Z"/>
      <path class="cls-76" d="M1440,921.56c4.55.08,12.13,1.09,15.1,3.14-2.37.6-13.02,5.47-7.55,6.29-18.83,2.37-37.76,4.94-56.61,7.34,7.54-4.28-8.27-6.11-5.66-8.91,1.14-1.22,2,1.05,5.66.52,32.14-4.62,24.99-6.02,26.42-6.29,8.26-1.54,13.72-2.25,22.65-2.1Z"/>
      <path class="cls-96" d="M1390.94,929.94c-3.66.53-4.52-1.74-5.66-.52-2.6,2.79,13.2,4.63,5.66,8.91-3.54.45-7.78.6-11.32,1.05-2.93-5.29-3.02-3.52-5.66-4.19,1.8-7.94,16.63-9.68,16.98-5.24Z"/>
      <path class="cls-76" d="M1670.24,515.93c6.54,13.97,20.18,3.43,28.31,11.01-.85.82-27.99,2.59-32.08,2.62-15.03.12-32.39-2.17-48.12-2.1-1.42,0-.47,2.09-1.89,2.1-6.86.05-21.02-1.59-41.52-1.05-1.48.04-16.75,7.86-16.04-5.24,6.06-.25,9.29-.8,13.21-1.05,32.43-2.09,65.99-3.37,98.13-6.29Z"/>
      <path class="cls-16" d="M1309.79,555.76c4.09.03,7.76-.49,7.55,1.05-18.27.4-36.47.68-54.73,1.05-20.8.41-41.47.73-62.28,1.05,1.99-3.21-25.66-2.23-45.29-2.1,0-.73-.5-1.82.94-2.1,8.17-1.58,131.31.91,153.8,1.05Z"/>
      <path class="cls-11" d="M1572.1,522.22c-3.92.25-7.15.8-13.21,1.05-33.4,1.36-1.19-3.58,13.21-1.05Z"/>
      <path class="cls-72" d="M1518.32,546.32c12.62-.53,9.78,2.23-.94.52l.94-.52Z"/>
      <path class="cls-71" d="M1436.23,420.55c-2.32,5.86-19.98,15.52-22.65,19.39-8.97,13.03-.24,29.21-11.32,27.78.62-2.02-2.46-2.59-3.77-4.19-.66-.8-1.3-3.1-1.89-4.19-2.18-19.1,2.86-33.87,39.63-38.78Z"/>
      <path class="cls-71" d="M1411.69,476.1c-2.1-7.79,4.12-14.81,18.87-17.82,7.23-1.48,14.74-1.45,20.76,1.57q-19.82,8.12-39.63,16.25Z"/>
      <path class="cls-20" d="M1398.48,463.52c1.31,1.6,4.4,2.18,3.77,4.19-29.15-3.76-19.68,6.84-37.74,13.63,9.42-8.83,13.08-16.14,33.97-17.82Z"/>
      <path class="cls-19" d="M1262.61,557.85c.67,5.89-10.91,6.36-11.32,6.81-2.53,2.78,15.15,2.16,3.77,6.81-18.05.08-36.5.95-54.73,1.05-31.46.16-62.88-.18-94.36,0-27.4-1.9-1.81-5.09,1.89-12.58,30.8-.37,61.71-.58,92.47-1.05,20.8-.32,41.48-.63,62.28-1.05Z"/>
      <path class="cls-18" d="M1749.5,373.38c5.08-4.3,7.03-5.65,13.21-9.43,9.02-2.6,1.11,13.66-1.89,25.68-11.75,1.68.57-10.49-11.32-16.25Z"/>
      <path class="cls-41" d="M1304.13,848.19c-24.63,4.66-49.66,1.5-50.95,18.87-6.66-2.29-13.81.17-20.76-2.1-4.54-1.48-6.59-8.11-7.55-11.01,37.98-20.16,47.83-2.39,49.07-23.58,10.43,4.57,20.8-1.7,35.86,14.15l-5.66,3.67Z"/>
      <path class="cls-58" d="M1440,921.56c-8.93-.16-14.39.56-22.65,2.1-14.29-4.94-34.04,1.33-47.18-5.76-.18-5.71,1.55-16.25,13.21-17.29,2.36,1.52,49.77,6.95,56.61,20.96Z"/>
      <path class="cls-83" d="M805.92,988.64c-.21.09-.78.84-3.77,2.1-3.69-3.35-19.24-.59-36.8-1.05-56.62-1.48-114.81-5.75-170.79-8.91-.01-.62,7.47-2.51,8.49-2.62,24.68-2.76,162.42,9.01,202.87,10.48Z"/>
      <path class="cls-29" d="M1253.17,867.06c0,.13,5.41-.37,3.77,1.57-2.47,2.94-16.12-2.43-27.36,3.67-2.69,1.46,3.09,8.79-43.4,17.82-6.21,2.67-11,13.42-17.93,13.1-8.36-4.84,45.66-32.84,49.07-34.06,1.44-.52,7.55,2.11,15.1-4.19,6.95,2.26,14.1-.2,20.76,2.1Z"/>
      <path class="cls-66" d="M1269.21,578.82c29.58-3.52,68.32,3.64,7.55,4.19-11.44-1.09-21.84-2.49-7.55-4.19Z"/>
      <path class="cls-86" d="M771.95,531.65c-8.93,2.92-41.17,9.13-56.61,18.87-16.4-5.05-25.68-11.23-46.24-7.34,6.21-21.74,32.62-26.55,68.88-27.25,15.67,3.65,2.65,3.01,12.27,7.34,4.69,2.11,20.57,2.24,21.7,8.39Z"/>
      <path class="cls-89" d="M775.72,531.65c.22-.08,2.35-1.4,3.77-2.1,11.81,3.06,21.31-12.68,52.84-4.72-30.19-1.59-46.64,35.42-56.61,6.81Z"/>
      <path class="cls-89" d="M945.57,491.82c-5.98,7.53-32.69,6.33-44.35,12.58-13.44-2.2,12.99-7.03,17.93-12.58,18.48-1.75,21.12.02,26.42,0Z"/>
      <path class="cls-49" d="M624.75,521.17c-2.64,3.11-14.27-3.07-16.98-5.24,12.67-1.16,9.87,1.03,16.98,5.24Z"/>
      <path class="cls-38" d="M1579.65,889.07c-22.22-20.72-48.68-34.55-83.04-49.26.48.11,3.26-1.74,10.38,0,27.53,6.74,75.38,23.94,97.19,36.16-6.9,14.52-18.25,11.96-24.53,13.1Z"/>
      <path class="cls-58" d="M1391.88,868.1c18.89-.57-6.06,6.57,23.59,7.86,5.37,4.39-41.24,1.78-41.52,0q8.96-3.93,17.93-7.86Z"/>
      <path class="cls-49" d="M1147.49,831.42c16.13.95,45.15,3.17,37.74,14.15-18.46,11.35-25.35-5.85-60.39-13.1,1.23-.01-4.93-2.68,22.65-1.05Z"/>
    </g>
  </g>
</svg>