<?xml version="1.0" encoding="UTF-8"?>
<svg id="Layer_2" data-name="Layer 2" xmlns="http://www.w3.org/2000/svg" viewBox="0 0 148.7 139.36">
  <defs>
    <style>
      .cls-1 {
        fill: #f7941d;
        stroke-width: 0px;
      }
    </style>
  </defs>
  <g id="etoile_03">
    <path class="cls-1" d="M27.22,139.36l1.57-7.93c.57-2.86,3.22-10.48,7.52-22.68,2.76-7.83,6.43-18.24,7.36-21.81-2.79-2.78-12.5-10.42-19.77-16.13-10.35-8.13-16.77-13.23-18.67-15.4l-5.23-5.97,7.94.17c9.74.2,40.74.46,47.6-.06,1.67-3.58,5.47-15.18,8.07-23.12,3.72-11.37,6.07-18.45,7.38-20.79l3.15-5.62,3,5.71c1.15,2.19,3.34,8.31,6.83,18.11,3,8.45,7.88,22.18,9.82,25.79,2.85.35,12.9.7,45.73.01l9.18-.19-5.19,5.96c-1.93,2.22-8.5,7.45-19.08,15.81-7.35,5.8-17.16,13.54-20,16.37.85,2.97,3.7,10.63,6.05,16.94,5.34,14.34,8.87,24.02,9.19,27.61l.64,7.1-6.01-3.84c-1.75-1.12-6.37-4.4-12.21-8.56-8.32-5.92-23.26-16.55-27.49-18.93-4.49,2.33-20.5,13.42-29.39,19.58-5.31,3.68-9.5,6.59-11.12,7.6l-6.86,4.28ZM74.6,100.62c.11,0,.22,0,.33.01,1.98.13,5.02,1.84,31.22,20.49,1.38.98,2.7,1.92,3.95,2.81-1.79-5.18-4.19-11.62-6.18-16.97-6.17-16.57-6.98-19.11-6.65-20.91.41-2.27,2.28-4.13,22.83-20.34,3.81-3.01,7.88-6.22,11.21-8.92-32.18.57-38.69,0-40.68-.73-2.39-.87-3.42-2.24-13.25-29.89-1.12-3.16-2.26-6.36-3.27-9.15-1.19,3.5-2.55,7.66-3.83,11.57-8.31,25.38-9.08,26.47-11.33,27.41-2.55,1.06-27.41.92-41.5.74,3.23,2.61,7.14,5.68,10.81,8.56,20.49,16.11,22.2,17.81,22.59,20.13.3,1.79-.35,4.2-7.91,25.64-1.48,4.2-3.06,8.67-4.36,12.49.86-.59,1.75-1.21,2.67-1.85,28.01-19.42,31.3-21.1,33.38-21.1Z"/>
  </g>
</svg>