<?xml version="1.0" encoding="UTF-8"?>
<svg id="Layer_2" data-name="Layer 2" xmlns="http://www.w3.org/2000/svg" xmlns:xlink="http://www.w3.org/1999/xlink" viewBox="0 0 2037.67 798.07">
  <defs>
    <style>
      .cls-1 {
        fill: #468497;
      }

      .cls-1, .cls-2, .cls-3, .cls-4, .cls-5, .cls-6, .cls-7, .cls-8, .cls-9, .cls-10, .cls-11, .cls-12, .cls-13, .cls-14, .cls-15, .cls-16, .cls-17, .cls-18, .cls-19 {
        stroke-width: 0px;
      }

      .cls-2 {
        fill: url(#linear-gradient);
      }

      .cls-3 {
        fill: #8db7c3;
      }

      .cls-4 {
        fill: #998e87;
      }

      .cls-5 {
        fill: #89898d;
      }

      .cls-6 {
        fill: #f7fafd;
      }

      .cls-7 {
        fill: #d7d3b1;
      }

      .cls-8 {
        fill: #dfe1bb;
      }

      .cls-9 {
        fill: #5391af;
      }

      .cls-10 {
        fill: #8d979e;
      }

      .cls-11 {
        fill: url(#linear-gradient-2);
      }

      .cls-12 {
        fill: #f3eccd;
      }

      .cls-13 {
        fill: #df6e26;
      }

      .cls-14 {
        fill: #3b607b;
      }

      .cls-15 {
        fill: #183249;
      }

      .cls-16 {
        fill: #4a6a8f;
      }

      .cls-17 {
        fill: #101c31;
      }

      .cls-18 {
        fill: #13283f;
      }

      .cls-19 {
        fill: #326385;
      }
    </style>
    <linearGradient id="linear-gradient" x1="1443.25" y1="84.22" x2="1218.45" y2="219.99" gradientUnits="userSpaceOnUse">
      <stop offset="0" stop-color="#a3cdd1"/>
      <stop offset="1" stop-color="#fbfcfd"/>
    </linearGradient>
    <linearGradient id="linear-gradient-2" x1="1438.12" y1="520.37" x2="1744.82" y2="641.91" gradientUnits="userSpaceOnUse">
      <stop offset="0" stop-color="#407c9b"/>
      <stop offset="1" stop-color="#274f7a"/>
    </linearGradient>
  </defs>
  <g id="nuages">
    <path class="cls-6" d="M388.89,300.61c-2.12,3.56-5.8,21.31-7.44,22.4-5.82,3.86-88.84-1.3-130.77,53.6-3.78,4.95-20.91,40.15-21.26,42.4-21.87,2.7-33.16,8.92-46.78,21.6,1.85,3,33.36-8.52,48.91-10.4,13.22-1.59,41.76-2.78,54.22-1.6,1.69.16,2.93,3.16,3.19,3.2-17.22,4.27-35.56,6.95-52.1,12.8-8.58,3.04-16.04,10.76-17.01,11.2-2.96,1.34-15.94-.67-39.34,18.4-20.08,16.36-39.01,50.7-36.15,72.8-51.93-2.44-108.84,34.54-119.07,72-4.47-29.9,22.51-58.54,55.28-74.4-86.88-21.3-111.98-100.36-32.96-138.4,36.15-17.4,72.54-13.41,74.42-16,6.01-8.27-10.96-110.57,167.98-104,22.97,6.49,97.9,3.5,98.87,14.4Z"/>
    <path class="cls-1" d="M1724.22,281.4q11.69-17.6,23.39-35.2c30.85,22.1,29.86,45.1,32.96,46.4,3.95,1.67,34.61-7.41,63.79,6.4,18.94,8.96,26.73,29.11,31.89,30.4,12.33,3.09,100.57-20.5,113.76,12,169.82,418.47-164.54,282.35-220.08,2.4-.88-4.42-6.46-33.8-45.72-62.4Z"/>
    <g>
      <path class="cls-1" d="M786.51,73.4c3.93-.13,13.68-.24,17.01,0,52.6,3.74,132.08,37.98,165.85,68.8,25.57,23.34,46.86,63.27,55.28,92.8-11.99-.06-31.17.28-42.53,1.6-25.34-31.1-67.78-34.14-83.99-40-9.44-3.41-25.55-26.59-91.43-20.8-61.25,5.38-113.83,41.36-132.9,84.8-18.42-22.64-12.12,27.12-15.95,27.2-6.06-16.38-49.12-18.32-71.23-17.6,4.12-21.34.46-42.69,6.38-64,10.58-38.11,49.98-79.35,91.43-102.4,29.03-16.14,67.3-29.21,102.06-30.4Z"/>
      <path class="cls-9" d="M144.36,547.01c1.36,10.51,18.83,33.53,30.83,40,19.07,10.28,44.8,6.71,54.22,14.4-3.42,29.65,19.93,65.23,61.66,72-.22,1.45,2.23,1.69,2.13,3.2-1.7,24.73,40.39,48.17,70.17,52.8-63.22.13-213.21,8.45-262.6-6.4-54.21-16.3-87.27-60.85-75.48-104,10.23-37.46,67.15-74.44,119.07-72Z"/>
      <path class="cls-1" d="M1517.97,190.2c78.73,2.17,84.97,38.98,90.37,40,7.28,1.38,74.11-30.68,139.27,16q-11.69,17.6-23.39,35.2c-70.84-51.62-197.11-32.19-280.68-9.6-8.19-13.49-19.06-24.25-31.89-35.2,13.83-29.18,66.09-47.51,106.32-46.4Z"/>
      <path class="cls-19" d="M535.6,683.01c11.14,0,26.73,1.28,36.15-1.6,6.94,8.22,28.71,24.6,40.4,28.8,22.33,16.75,53.13,19.4,82.93,20.8-52.91.56-300.26,3.29-331.71-1.6-29.78-4.63-71.87-28.07-70.17-52.8,53.66,12.34,168.28,6.44,242.4,6.4Z"/>
      <g>
        <path class="cls-3" d="M792.89,68.6c-4.61,2.11-7.33,1.37-6.38,4.8-34.76,1.19-73.04,14.26-102.06,30.4-46.36-18.55-79.47-26.77-129.71-9.6-16.66-8.21-62.75-17.94-80.8-19.2,28.86-71.7,126.38-96.63,209.44-54.4,8.94,4.55,15.76,14.2,17.01,14.4,4.57.75,60.16-26.97,83.99,5.6,9.99,13.65,2.32,30.54,8.51,28Z"/>
        <g>
          <path class="cls-1" d="M522.85,110.2c-153.96,33.34-205.95,120.87-32.35,98.85,62.94-7.98-101.88,28.73-140.9,45.65-36.72,15.92-86.03-23.66-99.98-24.5-7.29-.44-28.26,4.5-43.59.8,22.96-35.93,95.18-35.59,102.06-41.6,1.95-1.7,2.25-25.72,14.88-43.2,1.72-2.38,37-32.97,39.34-34.4,1.77-1.09,4.06,1.71,4.25,1.6,24.95-22.52,200.64-12.8,156.29-3.2Z"/>
          <path class="cls-1" d="M473.94,75c18.05,1.26,64.14,10.99,80.8,19.2-8.72,2.98-24.7,11.13-31.89,16-29.03-34.88-131.34-19.32-156.29,3.2-.19.11-2.48-2.69-4.25-1.6-2.34,1.43-37.61,32.02-39.34,34.4-12.63,17.48-12.93,41.5-14.88,43.2-6.88,6.01-79.1,5.67-102.06,41.6,15.33,3.7,36.3-1.24,43.59-.8,13.95.83,51.3,11.86,90.37,3.2-1.78,6.21-2.25,15.18-3.19,16C77.03,476.44,67.19,418.04,22.91,240.43c-11.41-45.76,146.94-5.72,158.67-8.63,6.15-1.52,22.49-45.52,108.44-41.6,4.44-72.51,89.56-121.8,183.93-115.2Z"/>
        </g>
      </g>
      <g>
        <path class="cls-17" d="M1830.54,623.81c5.06,30.65-9.88,64.78-42.53,84.8-16.04,9.84-52.91,20.69-73.36,22.4-66.32,5.54-455.9-4.97-480.55,0-1.22.25-8.59,6.47-11.69,8-28.17-23.97-46.85,6.34-103.13,20.8-96.61,24.82-176.95,5.01-274.3-1.6l-1.06,4.8c-20.35-9.42-39.05-18.52-55.28-32,.27,0,1.62-3.17,3.19-3.2,32.89-.69,66.02.98,98.87,0,54.12-1.61,105.58-2.26,142.46-38.4,19.39-19,12.43-33.17,36.15-25.6,14.38,32.93,44.6,46.36,88.24,52.8,85.48-5.73,358.35,1.96,410.38-3.2,14.19-1.41,38.12-9.17,47.84-17.6,64.38,2.27,162.89,13.2,165.85-56,1.92-44.91-52.13-82.89-110.57-83.2q-2.13-7.2-4.25-14.4c73.5-7.81,153.91,22.12,163.73,81.6Z"/>
        <path class="cls-18" d="M1222.41,739.02c-21.03,10.4-29.61,21.79-82.93,38.4-85.88,26.75-175.7,28.32-261.54,0-12.32-4.06-22.64-9.13-34.02-14.4l1.06-4.8c97.34,6.61,177.69,26.42,274.3,1.6,56.28-14.46,74.96-44.77,103.13-20.8Z"/>
      </g>
      <g>
        <path class="cls-2" d="M1418.03,54.2c33.25,12.89,9.93,6.69,19.14,15.2,34.4,31.77,77.7,52.84,80.8,120.8-40.23-1.11-92.48,17.23-106.32,46.4-47.56-40.58-122.29-66.92-194.56-57.6-9.83,1.27-42.4,8.69-45.72,16-2.66-1.29-17.16-37.8-21.26-44.8-2.62-4.47-5.46-10.26-8.51-14.4,7.81,1.39,17.65-22.9,31.89-36,49.08-45.12,127.33-58.44,200.94-50.4,18.48,2.02,37.45,12.81,43.59,4.8Z"/>
        <path class="cls-6" d="M1418.03,54.2c-6.14,8.01-25.11-2.78-43.59-4.8-73.61-8.04-151.86,5.28-200.94,50.4-14.25,13.1-24.08,37.39-31.89,36-2.35-3.19-5.79-6.51-8.51-9.6,18.52-14.67,31.85-32.81,52.1-46.4,61.72-41.44,158.89-54.26,232.83-25.6Z"/>
      </g>
      <g>
        <g>
          <path class="cls-8" d="M1928.35,523.01c27.01,46.78,18.86,92.26-21.26,132.8-14.09-9.65-60.11-34.47-76.55-32-9.82-59.48-90.22-89.42-163.73-81.6-.7.07-1.44-.08-2.13,0-17.67-38.25-67.39-71.37-119.07-81.6,5.15-8.53-23.97-27.07-42.53-44.8,76.75-14.81,220.16,19.34,223.26,71.2,1.49,24.9-17.34,6.66-36.15,14.4,39.56,8.75,60.72,2.67,96.75,18.4,55.69,24.32,78.92,67.72,85.05,68.8,22.04-2.15,46.62-37.89,52.1-53.6,2.39-6.86-2.4-13.54,4.25-12Z"/>
          <path class="cls-13" d="M1907.09,655.81c-28.48,28.79-70.17,50.26-119.07,52.8,32.64-20.03,47.59-54.15,42.53-84.8,16.44-2.47,62.46,22.35,76.55,32Z"/>
        </g>
        <g>
          <path class="cls-7" d="M1411.65,236.6c12.83,10.95,23.71,21.71,31.89,35.2,14.43,23.77,22.18,50.89,24.45,76.8,94.66-81,276.89-34.87,317.89,61.6,4.57,10.74,5.35,32.09,6.38,33.6,4.11,6,92.89,4.4,136.09,79.2-6.65-1.54-1.86,5.14-4.25,12-5.48,15.71-30.06,51.45-52.1,53.6-6.13-1.09-29.37-44.49-85.05-68.8-36.03-15.73-57.19-9.65-96.75-18.4,18.81-7.74,37.64,10.5,36.15-14.4-3.11-51.86-146.52-86.01-223.26-71.2-.41-.39-4.74.84-6.38-.8-.81-.81-3.03-13.32-8.51-19.2-13.01-13.98-24.03-3.23-29.77-23.2-4.66-16.24-.87-41.28-8.51-67.2-24.98-84.84-157.28-150.53-267.92-108.8-6.61-1.49-10.18-1.38-10.63-1.6,3.32-7.31,35.89-14.73,45.72-16,72.27-9.32,147,17.02,194.56,57.6Z"/>
          <path class="cls-12" d="M1449.93,305.41c-4.81-5.14-3.85-2.34-10.63-1.6-28.22-76.48-133.85-130.53-238.15-105.6-4.65-1.06-15.15-.7-19.14-1.6,110.64-41.73,242.93,23.96,267.92,108.8Z"/>
          <path class="cls-4" d="M1606.21,321.41q2.66,1.2,5.32,2.4c-43.05,10.3-83.81,17.77-119.07,41.6-14.33-9.27,75.52-47.74,111.63-40.8l2.13-3.2Z"/>
        </g>
      </g>
      <path class="cls-1" d="M673.82,260.6c-4.32,9.85-5.77,30.97-7.44,32-82.67-19.93-166.7,11.85-182.86,76.8-16.5,2.4-13.41-7.54-13.82-16-2.12-43.95,60.91-81.37,116.95-83.2,22.11-.72,65.17,1.22,71.23,17.6,3.83-.08-2.47-49.84,15.95-27.2Z"/>
      <path class="cls-11" d="M1626.41,551.81c-12.9,20.06,19.88,4.67,44.65,4.8,58.44.31,112.49,38.29,110.57,83.2-44.04-.87-71.62-2.11-104.19,23.2-12.94,41.72-5.93-14.78-57.41-16.8-8.66-10.09-29.53-13.42-30.83-14.4-4.12-3.11-2.6-8.66-3.19-9.6-2-3.19-3.15-9.86-6.38-13.6-18.33-21.22-71.49-17.66-75.48-18.4-5.8-1.08-16.89-18.83-58.47-6.4-7.05-19.11-44.45-60.75-27.64-67.2,77.62-34.12,158.78-21.63,208.38,35.2Z"/>
      <path class="cls-19" d="M1781.63,639.81c-2.96,69.2-101.47,58.27-165.85,56,15.4-13.35,16.73-35.07,4.25-49.6,51.48,2.02,44.47,58.52,57.41,16.8,32.57-25.31,60.15-24.07,104.19-23.2Z"/>
      <path class="cls-19" d="M1671.07,556.61c-24.77-.13-57.55,15.26-44.65-4.8,8.76-.3,18.14-6.15,19.14-6.4.93-.24,17.39-2.99,19.14-3.2.69-.08,1.43.07,2.13,0q2.13,7.2,4.25,14.4Z"/>
      <path class="cls-17" d="M1545.61,460.61c51.69,10.23,101.4,43.35,119.07,81.6-1.75.21-18.21,2.96-19.14,3.2-30.96-44.6-101.68-71.84-167.98-62.4-4.69-5.86-3.95-12.99-6.38-19.2-1.04-2.66-1.69-5.44-2.13-6.4,25.73-3.89,51.65-1.73,76.55,3.2Z"/>
      <g>
        <path class="cls-7" d="M229.41,419.01c-.09.56,3.52,3.5,2.13,11.2-15.55,1.88-47.05,13.41-48.91,10.4,13.62-12.68,24.91-18.9,46.78-21.6Z"/>
        <g>
          <path class="cls-7" d="M593.02,206.2c-5.92,21.31-2.26,42.66-6.38,64-56.04,1.83-119.07,39.26-116.95,83.2-79.91-8.15-154.54,15.18-161.6,80.8-2.85,1.81-14.75-1.79-19.14-2.4-.26-.04-1.5-3.04-3.19-3.2-12.46-1.18-41.01,0-54.22,1.6,1.39-7.7-2.22-10.64-2.13-11.2.36-2.25,17.48-37.45,21.26-42.4,41.93-54.9,124.95-49.75,130.77-53.6,1.65-1.09,5.32-18.84,7.44-22.4,15.96-26.82,46.63-57.55,79.74-73.6,30.52-14.8,92.66-30.47,124.39-20.8Z"/>
          <path class="cls-4" d="M540.92,225.4c34.63,2.99,2.12,2.81-27.64,16-42.4,18.8-80.41,54.57-98.87,88.8l-5.32.8c10.16-35,39.12-69.44,80.8-88,16.58-7.39,34.58-10.45,51.03-17.6Z"/>
        </g>
      </g>
      <g>
        <path class="cls-13" d="M1443.55,315.01c10.25,40.11-3.83,79.74,14.88,57.6,5.73,19.97,16.76,9.22,29.77,23.2,5.47,5.89,7.7,18.39,8.51,19.2,1.63,1.64,5.97.41,6.38.8,18.56,17.73,47.68,36.27,42.53,44.8-24.9-4.93-50.82-7.09-76.55-3.2-12.18-26.95-43.65-60.05-74.42-76.8,1.66-52.5-12.96-70.06-42.53-112-5.21-7.39-12.62-13.08-7.44-14.4,82.56,22.96,69.61,84.74,93.56,54.4l5.32,6.4Z"/>
        <path class="cls-5" d="M1449.93,305.41c7.63,25.92,3.84,50.97,8.51,67.2-18.72,22.14-4.63-17.49-14.88-57.6-.97-3.79-2.88-7.47-4.25-11.2,6.78-.74,5.82-3.54,10.63,1.6Z"/>
        <path class="cls-7" d="M1439.3,303.81c1.38,3.73,3.28,7.41,4.25,11.2l-5.32-6.4c-23.95,30.33-10.99-31.44-93.56-54.4-5.17,1.32,2.23,7.01,7.44,14.4-33.77-28.56-53.36-40.77-99.94-56-17.17-5.62-33.09-10.31-51.03-14.4,104.3-24.92,209.93,29.12,238.15,105.6Z"/>
      </g>
      <g>
        <path class="cls-9" d="M1133.1,126.2c2.71,3.09,6.16,6.41,8.51,9.6,3.04,4.14,5.89,9.93,8.51,14.4-83.99-82.85-216.21-122.29-346.59-76.8-3.33-.24-13.08-.13-17.01,0-.95-3.43,1.77-2.69,6.38-4.8,107.87-49.35,269.93-22.5,340.21,57.6Z"/>
        <path class="cls-19" d="M1150.11,150.2c4.1,7,18.61,43.51,21.26,44.8.46.22,4.03.11,10.63,1.6,3.98.9,14.48.54,19.14,1.6,17.94,4.09,33.86,8.78,51.03,14.4l-4.25,2.4c54.57,24.33,93.86,96.38,82.93,143.2-6.47-1.27-12.49-2.51-19.14-3.2,12.76-7.43-40.63-16.43-45.72-19.2-6.07-3.31-34.46-67.84-107.38-67.2-28.07-16.05-71.49-28.83-106.32-32,2.89-5.93-16.31-31.97-23.39-40.8-10.68-13.32-43.49-47.8-59.54-53.6-33.77-30.83-113.25-65.06-165.85-68.8,130.38-45.49,262.6-6.04,346.59,76.8Z"/>
        <path class="cls-19" d="M1052.3,236.6c-9.69-.88-17.8-1.55-27.64-1.6-8.42-29.53-29.71-69.46-55.28-92.8,16.04,5.8,48.86,40.28,59.54,53.6,7.08,8.83,26.28,34.87,23.39,40.8Z"/>
        <path class="cls-18" d="M1352.12,268.6c29.56,41.94,44.19,59.5,42.53,112-17.78-9.68-42.67-18.26-63.79-22.4,10.94-46.82-28.36-118.87-82.93-143.2l4.25-2.4c46.58,15.24,66.17,27.44,99.94,56Z"/>
        <path class="cls-15" d="M1311.72,355.01c-45.71-4.76-71.94,2.62-75.48,1.6-6.64-1.92-17.74-53.76-77.61-88,72.92-.64,101.31,63.89,107.38,67.2,5.09,2.78,58.47,11.77,45.72,19.2Z"/>
      </g>
      <g>
        <g>
          <path class="cls-9" d="M982.13,236.6c-49.07,5.68-108.67,32.84-140.34,61.6-50.74,46.09-48.31,89.65-51.03,94.4-.96,1.68-20.27,7.19-40.4,20,17.26-18.09-14.95-12.94-22.33-16-1.56-.65-2.81-6.72-6.38-8-70.33-25.26-94.68-3.8-99.94-3.2-9.36,1.06-90.88-16.53-86.12,24-73.46,20.65-81.68,73.63-88.24,75.2-1.12.27-10.38-3.51-23.39-1.6-74.1,10.88-83.67,49.95-89.31,51.2-1.33.29-13.24-3.28-27.64,0-39.44,8.97-73.93,35.27-77.61,67.2-9.42-7.69-35.16-4.12-54.22-14.4-12-6.47-29.47-29.49-30.83-40-2.87-22.1,16.07-56.44,36.15-72.8,23.39-19.07,36.38-17.06,39.34-18.4.97-.44,8.43-8.16,17.01-11.2,16.53-5.85,34.87-8.53,52.1-12.8,4.39.61,16.28,4.21,19.14,2.4,7.06-65.62,81.69-88.95,161.6-80.8.41,8.47-2.68,18.4,13.82,16,16.17-64.96,100.2-96.73,182.86-76.8,1.67-1.03,3.12-22.15,7.44-32,19.06-43.44,71.64-79.42,132.9-84.8,65.88-5.79,82,17.39,91.43,20.8,16.21,5.86,58.65,8.9,83.99,40Z"/>
          <path class="cls-10" d="M304.9,446.21q3.72,4.4,7.44,8.8c-91.26,4.03-130.54-2.56-7.44-8.8Z"/>
        </g>
        <g>
          <path class="cls-9" d="M750.36,412.61c-4.7,2.99-10.79,6.24-14.88,9.6-18.04-6.36-40.11-6.17-59.54-3.2-21.25-9.86-56.05-17.26-80.8-17.6-20.74-.29-40.2,2.56-59.54,8-4.76-40.53,76.76-22.94,86.12-24,5.26-.6,29.6-22.06,99.94,3.2,3.57,1.28,4.82,7.35,6.38,8,7.37,3.06,39.59-2.09,22.33,16Z"/>
          <path class="cls-19" d="M735.48,422.21c-2.99,2.45-19.57,18.7-21.26,20.8-14.18-5.49-24.79-17.74-38.27-24,19.43-2.97,41.5-3.16,59.54,3.2Z"/>
        </g>
      </g>
      <g>
        <path class="cls-1" d="M552.62,627.01c-.19,6.48.93,11.29,2.13,17.6-11.39-11.89-34.43,4.25-37.21,4.8-8.05,1.59-35.39-3.02-43.59,10.4,25.73,15.82,61.51,7.68,91.43,10.4.66,1.1,1.4,2.13,2.13,3.2-35.85,5.01-110.95,3.93-31.89,9.6-74.12.04-188.74,5.94-242.4-6.4.1-1.51-2.35-1.75-2.13-3.2,8.8,1.43,96.41,1.03,104.19,0,21.43-2.84,3.01-14.34,14.88-26.4,41.87-25.53,73.06-2.33,81.86-2.4,7.19-.06,36.06-19.71,60.6-17.6Z"/>
        <path class="cls-1" d="M567.5,673.41c3.42,5.01,3.95,7.64,4.25,8-9.42,2.88-25.01,1.59-36.15,1.6-79.06-5.67-3.95-4.59,31.89-9.6Z"/>
        <path class="cls-3" d="M552.62,627.01c-24.54-2.11-53.41,17.54-60.6,17.6-8.8.07-39.99-23.13-81.86,2.4-11.88,12.06,6.55,23.56-14.88,26.4,11.37-36.66-24.89-16.95-49.97-20.8-49.98-7.68-48.09-72.1,42.53-68.8,5.66.21,26.77,6.49,29.77,4.8,3.32-1.87,1.01-33.73,48.91-46.4,68.22-18.05,106.78,15.16,112.7,14.4,5.85-.75,45.07-46.86,94.62-40.8-18.56,12.52-4.82,14.76-7.44,16.8-6.41,4.98-111.34,12.6-113.76,94.4Z"/>
        <path class="cls-16" d="M554.74,644.61c2.28,12.01,4.26,15,10.63,25.6-29.92-2.72-65.7,5.42-91.43-10.4,8.2-13.42,35.54-8.81,43.59-10.4,2.78-.55,25.82-16.69,37.21-4.8Z"/>
        <path class="cls-10" d="M675.94,419.01c13.49,6.26,24.09,18.51,38.27,24-1.44,1.79-7.73,21.93-13.82,20.8-7.13-22.8-35.7-40.62-63.79-49.6-13.1-4.19-42.26-3.54-41.46-12.8,24.75.34,59.55,7.74,80.8,17.6Z"/>
        <g>
          <path class="cls-6" d="M1024.66,235c9.84.05,17.95.72,27.64,1.6,34.83,3.17,78.25,15.95,106.32,32,59.87,34.24,70.97,86.09,77.61,88,3.55,1.02,29.77-6.36,75.48-1.6,6.65.69,12.67,1.93,19.14,3.2,21.12,4.14,46.01,12.72,63.79,22.4,30.78,16.75,62.24,49.85,74.42,76.8.43.96,1.08,3.74,2.13,6.4q-11.69.8-23.39,1.6c-30.78-68.03-107.3-106.79-203.06-99.2-10.8.86-24.27,6.79-25.52,6.4-3.21-1-1.94-17.91-26.58-48-29.47-35.99-77.95-61.26-132.9-70.4-105.06-2.17-44.31-.3,1.06,12.8,2.62,5.23-11.86,5.82-18.07,8-21.02,7.38-38.1,17.3-40.4,17.6-1.37.18-16.74-3.57-27.64-1.6-58.14,10.51-109.71,48.14-118.01,93.6,3.83.35,7.21,1.61,10.63,2.4h-24.45c-12.57,11.6,18.03,6.24,26.58,8,5.93,1.22,42.22,14.03,51.03,17.6-8.21,11.05,24.03,7.79,25.52,23.2-54.88,8.85-129.25,38.98-150.97,80-10.06,18.99-8.25,61.63-23.39,66.4-84.49-48.63-195.86,27.09-129.71,92,33.8,33.17,78.8,24.42,85.05,24.8,51.94,3.18,46.84,9.84,56.35,11.2,7.42,1.06,33.69-.27,47.84,0,3.56,11.91,12.77,5.92,17.01,9.6-53.69-3.28-128.31,1.91-173.3,0-8.93-.38-54.97-6.81-62.73-9.6-11.69-4.2-33.46-20.58-40.4-28.8-.31-.36-.83-2.99-4.25-8-.73-1.07-1.46-2.1-2.13-3.2-6.38-10.6-8.35-13.59-10.63-25.6-1.2-6.31-2.32-11.12-2.13-17.6,2.41-81.81,107.35-89.42,113.76-94.4,2.62-2.04-11.12-4.28,7.44-16.8-49.55-6.06-88.77,40.05-94.62,40.8-5.92.76-44.48-32.45-112.7-14.4-47.89,12.67-45.58,44.53-48.91,46.4-3,1.69-24.11-4.59-29.77-4.8-90.62-3.3-92.5,61.13-42.53,68.8,25.08,3.85,61.34-15.86,49.97,20.8-7.78,1.03-95.39,1.43-104.19,0-41.73-6.77-65.08-42.35-61.66-72,3.68-31.93,38.17-58.23,77.61-67.2,14.4-3.28,26.32.29,27.64,0,5.64-1.25,15.2-40.32,89.31-51.2,13.01-1.91,22.27,1.87,23.39,1.6,6.57-1.57,14.78-54.56,88.24-75.2,19.34-5.44,38.79-8.29,59.54-8-.79,9.26,28.36,8.61,41.46,12.8,28.09,8.98,56.66,26.8,63.79,49.6,6.09,1.13,12.38-19.01,13.82-20.8,1.69-2.11,18.27-18.35,21.26-20.8,4.09-3.36,10.19-6.61,14.88-9.6,20.13-12.81,39.44-18.32,40.4-20,2.72-4.76.29-48.31,51.03-94.4,31.67-28.77,91.27-55.92,140.34-61.6,11.36-1.32,30.53-1.66,42.53-1.6Z"/>
          <path class="cls-1" d="M681.26,515.01c10.51-6.01,19.87,24.26-7.44,16.8.4-5.88,9.17-3.16,7.44-16.8Z"/>
          <path class="cls-6" d="M865.19,387.01q2.13,4,4.25,8c-8.55-1.76-39.15,3.6-26.58-8h22.33Z"/>
        </g>
      </g>
      <path class="cls-6" d="M1645.55,545.41c-.99.25-10.37,6.1-19.14,6.4-49.6-56.83-130.76-69.32-208.38-35.2v-3.2c6.42-2.94,24.69-20.75,38.27-25.6,1.52-.54,18.48-4.4,21.26-4.8,66.3-9.43,137.02,17.8,167.98,62.4Z"/>
      <g>
        <path class="cls-10" d="M848.18,719.81c13.66.83,37.7.23,42.53,8-32.86.98-65.99-.69-98.87,0-1.57.03-2.92,3.19-3.19,3.2-31.14.62-62.4-.33-93.56,0-29.8-1.4-60.6-4.05-82.93-20.8,7.76,2.79,53.8,9.22,62.73,9.6,44.98,1.91,119.6-3.28,173.3,0Z"/>
        <path class="cls-3" d="M1284.07,598.21c-73.49-.35-69.4,19.84-73.36,20.8-2.23.54-20.34-5.83-46.78-3.2-7.34.73-30.98,10.33-63.79,9.6-13.26,50.05,28.33,68.26,87.18,72,19.22,1.22,322.85,1.27,340.21,0,6.19-.45,23.12-8.64,24.45-4-17.29,11.09,54.16,3.46,51.03-35.2-15.09-5.44-5.67,21.52-41.46,31.2,8.78-19.2-5.34-37.49-30.83-43.2,13.45-13.78,70.16,19.84,40.4-31.2,11.19-10.2,6.93,6.34,14.88,7.2.59.94-.93,6.49,3.19,9.6,1.31.98,22.17,4.31,30.83,14.4,12.48,14.54,11.15,36.25-4.25,49.6-9.72,8.43-33.65,16.19-47.84,17.6-52.03,5.16-324.9-2.53-410.38,3.2-43.64-6.44-73.86-19.88-88.24-52.8-2.17-4.96,1.7-16.36-7.44-14.4-3.89,16.07-24.51,12.05-45.72,42.4q8.51-1.2,17.01-2.4c-36.88,36.14-88.34,36.79-142.46,38.4-4.82-7.77-28.86-7.17-42.53-8-4.24-3.68-13.45,2.31-17.01-9.6,81.02,1.54,174.45-2.24,182.86-77.6q-2.66-1.2-5.32-2.4c-38.12,9.07-151.07-7.07-174.36,19.2-5.75,6.49-1.46,17.75-8.51,19.2-4.12.85-22.83-11.1-42.53-8-2.09.33-23.45,10.29-24.45,12-5.09,8.66,14.19,11.3-31.89,26.4-6.25-.38-51.25,8.36-85.05-24.8-66.15-64.91,45.22-140.63,129.71-92,11.8,6.79,22.55,20.58,24.45,20.8,5.8.68,40.67-30.94,110.57-11.2,19.54-51.2,80.89-38.59,95.68-41.6,8.27-1.68,50.94-52.05,127.58-32,52.09,13.62,55.29,54.07,59.54,56,10.3,4.69,19.03-15.1,94.62,24Z"/>
        <path class="cls-10" d="M1069.31,663.81c-23.72-7.57-16.76,6.6-36.15,25.6q-8.51,1.2-17.01,2.4c21.2-30.35,41.82-26.33,45.72-42.4,9.14-1.96,5.28,9.44,7.44,14.4Z"/>
        <path class="cls-6" d="M1007.65,455.81c23.24,5.34,49.08,10.98,63.79,27.2,4.39,4.85-1.13,18.34,15.95,17.6,48.87-43.66,117.91-63.79,193.5-51.2,9.69-8.69-46.21-18.17-39.34-27.2,41.93,3.21,76.34,20.61,106.32,41.6-8.2,34.05,5.16,35.87,8.51,44.8,24.05,64.14,5.61,57.55,2.13,78.4-.2,1.2-.28,1.77-2.13,1.6-3.08-1.07-2.91-1.07-6.38-1.6-17.64-2.7-40.93,10.37-59.54,12.8-.28-.14-3.03.13-6.38-1.6-75.59-39.1-84.32-19.31-94.62-24-4.25-1.93-7.45-42.38-59.54-56-76.64-20.05-119.31,30.32-127.58,32-14.79,3.01-76.15-9.6-95.68,41.6-69.9-19.74-104.77,11.88-110.57,11.2-1.9-.22-12.65-14.01-24.45-20.8,15.14-4.77,13.33-47.41,23.39-66.4,21.72-41.03,96.09-71.15,150.97-80-1.48-15.41-33.73-12.15-25.52-23.2,54.37,22.02,58.24,39.56,64.85,41.6,1.45.45,12.39-.68,22.33,1.6Z"/>
        <path class="cls-3" d="M1171.38,340.61c4.41,6.07,12.19,19.04,14.88,25.6-61.18,7.81-65.93,25.12-82.93,42.4-10.34,10.52-22.45,12.76-35.08,47.2-17.85-8.53-37.08-11.15-56.35-16-2.41-.61-7.96.64-9.57,0-5.59-2.21-18.9-34.65-99.94-49.6-11.19-2.06-23.55-.54-35.08-3.2-3.43-.79-6.8-2.05-10.63-2.4,8.3-45.46,59.87-83.09,118.01-93.6,10.9-1.97,26.28,1.78,27.64,1.6,2.3-.3,19.38-10.22,40.4-17.6,6.21-2.18,20.69-2.77,18.07-8,44.65,12.9,87.74,42.16,110.57,73.6Z"/>
        <path class="cls-14" d="M1192.64,324.61c24.64,30.09,23.36,47,26.58,48,1.24.39,14.72-5.54,25.52-6.4,95.77-7.59,172.28,31.18,203.06,99.2,3.33,7.36,6.1,14.85,8.51,22.4-13.59,4.85-31.85,22.66-38.27,25.6-14.8,6.78-9.61-8.33-38.27-24-6.89-9.78-21.2-18.11-31.89-25.6-29.97-20.99-64.39-38.39-106.32-41.6-8.18-.63-46.02-.7-53.16,0,12.17-14.03,4.74-39.27-2.13-56-2.69-6.56-10.48-19.53-14.88-25.6,10.51-4.53,7.4-16.71,21.26-16Z"/>
        <path class="cls-1" d="M831.16,710.21c-14.15-.27-40.42,1.06-47.84,0-9.51-1.36-4.41-8.02-56.35-11.2,46.09-15.11,26.81-17.74,31.89-26.4,1-1.71,22.36-11.67,24.45-12,19.7-3.1,38.41,8.85,42.53,8,7.05-1.45,2.75-12.71,8.51-19.2,23.29-26.27,136.24-10.13,174.36-19.2q2.66,1.2,5.32,2.4c-8.41,75.37-101.84,79.14-182.86,77.6Z"/>
        <path class="cls-1" d="M1192.64,324.61c-13.86-.71-10.75,11.47-21.26,16-22.83-31.44-65.91-60.71-110.57-73.6-45.37-13.1-106.12-14.97-1.06-12.8,54.95,9.14,103.42,34.41,132.9,70.4Z"/>
        <path class="cls-10" d="M1011.9,439.81q-2.13,8-4.25,16c-9.94-2.28-20.88-1.15-22.33-1.6-6.61-2.04-10.49-19.58-64.85-41.6-8.81-3.57-45.1-16.38-51.03-17.6q-2.13-4-4.25-8h2.13c11.53,2.66,23.89,1.14,35.08,3.2,81.04,14.95,94.35,47.39,99.94,49.6,1.61.64,7.16-.61,9.57,0Z"/>
        <path class="cls-3" d="M1471.19,463.81c2.43,6.21,1.69,13.34,6.38,19.2-2.79.4-19.74,4.26-21.26,4.8-2.41-7.55-5.18-15.04-8.51-22.4q11.69-.8,23.39-1.6Z"/>
        <g>
          <path class="cls-1" d="M1356.37,588.61c27.92,9.71,25.3,34.8,28.71,36.8,1.75,1.03,22.63.71,42.53,9.6,19.93,8.9,27.64,24.96,29.77,25.6,15.55,4.69,33.45-23.33,73.36-14.4,25.49,5.71,39.61,24,30.83,43.2,35.79-9.68,26.38-36.64,41.46-31.2,3.13,38.66-68.32,46.3-51.03,35.2-1.34-4.64-18.27,3.55-24.45,4-17.36,1.27-320.99,1.22-340.21,0-58.85-3.74-100.44-21.95-87.18-72,32.81.73,56.45-8.87,63.79-9.6,26.43-2.63,44.54,3.74,46.78,3.2,3.96-.96-.14-21.15,73.36-20.8,3.35,1.73,6.1,1.46,6.38,1.6,22.32,11.53,10.61,25.99,59.54-12.8,3.47.53,3.3.53,6.38,1.6Z"/>
          <path class="cls-6" d="M1445.67,583.81c41.58-12.43,52.67,5.32,58.47,6.4,4,.74,57.15-2.82,75.48,18.4,3.23,3.74,4.38,10.41,6.38,13.6-7.96-.86-3.69-17.4-14.88-7.2,29.76,51.04-26.95,17.42-40.4,31.2-39.91-8.93-57.81,19.09-73.36,14.4-2.13-.64-9.84-16.7-29.77-25.6-19.89-8.89-40.78-8.57-42.53-9.6-3.41-2-.79-27.09-28.71-36.8,1.84.17,1.93-.4,2.13-1.6,10.7,1.9,18.68-6.65,28.71-8,31.37-4.22,50.44,7.6,53.16,8,7.27,1.07,5-3.11,5.32-3.2Z"/>
        </g>
        <path class="cls-1" d="M1418.03,513.41v3.2c-16.81,6.45,20.59,48.09,27.64,67.2-.32.09,1.95,4.27-5.32,3.2-2.72-.4-21.79-12.22-53.16-8-10.03,1.35-18.01,9.9-28.71,8,3.49-20.85,21.92-14.27-2.13-78.4,5.81-13.95,29.88,32.49,31.89,34.4,17.98,17.09-.75-42.58-8.51-53.6,28.67,15.67,23.47,30.78,38.27,24Z"/>
        <path class="cls-1" d="M1186.26,366.21c6.87,16.73,14.3,41.98,2.13,56-40.87,4.03-95.73,33.77-116.95,60.8-14.71-16.22-40.55-21.86-63.79-27.2q2.13-8,4.25-16c19.27,4.85,38.5,7.47,56.35,16,12.63-34.44,24.74-36.68,35.08-47.2,16.99-17.28,21.74-34.59,82.93-42.4Z"/>
        <path class="cls-6" d="M1241.55,422.21c-6.87,9.03,49.02,18.51,39.34,27.2-75.59-12.59-144.62,7.54-193.5,51.2-17.08.74-11.55-12.75-15.95-17.6,21.22-27.03,76.07-56.77,116.95-60.8,7.14-.7,44.98-.63,53.16,0Z"/>
        <path class="cls-3" d="M1379.76,489.41c7.76,11.02,26.48,70.69,8.51,53.6-2.01-1.91-26.09-48.35-31.89-34.4-3.35-8.93-16.7-10.75-8.51-44.8,10.69,7.49,25.01,15.82,31.89,25.6Z"/>
        <path class="cls-3" d="M1349.99,587.01c-48.92,38.79-37.21,24.33-59.54,12.8,18.61-2.44,41.9-15.5,59.54-12.8Z"/>
      </g>
    </g>
  </g>
</svg>