<?xml version="1.0" encoding="UTF-8"?>
<svg id="Layer_2" data-name="Layer 2" xmlns="http://www.w3.org/2000/svg" viewBox="0 0 118.58 111.14">
  <defs>
    <style>
      .cls-1 {
        fill: #f7941d;
        stroke-width: 0px;
      }
    </style>
  </defs>
  <g id="etoile_01">
    <path class="cls-1" d="M21.71,111.14l1.12-5.67c.45-2.29,2.59-8.43,6.06-18.27,2.28-6.46,5.32-15.08,6-17.81-2.1-2.16-10.13-8.47-16.12-13.18-8.34-6.55-13.51-10.66-15.03-12.39l-3.74-4.27,5.67.12c7.98.17,33.46.38,38.64-.07,1.32-2.72,4.47-12.33,6.61-18.88,3-9.15,4.89-14.86,5.93-16.72l2.25-4.02,2.14,4.08c.92,1.75,2.69,6.68,5.5,14.59,2.63,7.39,6.51,18.32,8.02,21,2.15.3,10.09.6,37.13.04l6.69-.14-3.71,4.26c-1.54,1.77-6.83,5.98-15.36,12.72-6.06,4.78-14.17,11.19-16.31,13.38.63,2.29,3,8.65,4.94,13.88,4.3,11.56,7.14,19.35,7.4,22.21l.45,5.07-4.29-2.74c-1.41-.9-5.13-3.55-9.84-6.9-6.82-4.86-19.14-13.62-22.38-15.39-3.44,1.72-16.63,10.86-23.92,15.91-4.28,2.97-7.66,5.31-8.97,6.13l-4.9,3.06ZM59.56,80.87c.06,0,.12,0,.18,0,1.53.1,3.95,1.48,25.03,16.48,1.42,1.01,2.78,1.98,4.01,2.85-1.47-4.34-3.59-10.02-5.32-14.67-4.95-13.3-5.6-15.33-5.35-16.7.31-1.71,1.92-3.29,18.31-16.23,3.36-2.65,6.96-5.5,9.79-7.8-26.82.49-32.14,0-33.66-.55-1.92-.7-2.95-2.68-10.5-23.93-1.02-2.88-2.06-5.81-2.96-8.26-1.03,2.99-2.25,6.73-3.39,10.22-6.38,19.5-7.21,21.19-8.97,21.93-2.05.85-23.15.7-34.31.56,2.74,2.23,6.21,4.96,9.46,7.51,16.34,12.85,17.83,14.31,18.12,16.05.23,1.35-.33,3.41-6.37,20.54-1.32,3.74-2.73,7.74-3.84,11.02.93-.64,1.93-1.34,2.96-2.05,21.91-15.19,25.1-16.98,26.83-16.98Z"/>
  </g>
</svg>