<?xml version="1.0" encoding="UTF-8"?>
<svg xmlns="http://www.w3.org/2000/svg" xmlns:xlink="http://www.w3.org/1999/xlink" viewBox="0 0 85.08 93.27">
  <defs>
    <style>
      .cls-1 {
        fill: url(#_ÂÁ_Ï_ÌÌ_È_ËÂÌÚ_50);
      }

      .cls-1, .cls-2, .cls-3, .cls-4, .cls-5, .cls-6, .cls-7, .cls-8, .cls-9, .cls-10, .cls-11, .cls-12, .cls-13, .cls-14, .cls-15, .cls-16 {
        stroke-width: 0px;
      }

      .cls-2 {
        fill: url(#_ÂÁ_Ï_ÌÌ_È_ËÂÌÚ_842-3);
      }

      .cls-2, .cls-6, .cls-15, .cls-16 {
        mix-blend-mode: multiply;
        opacity: .4;
      }

      .cls-3 {
        fill: url(#_ÂÁ_Ï_ÌÌ_È_ËÂÌÚ_52-4);
      }

      .cls-4 {
        fill: #65918d;
      }

      .cls-5 {
        fill: url(#_ÂÁ_Ï_ÌÌ_È_ËÂÌÚ_50-2);
      }

      .cls-17 {
        isolation: isolate;
      }

      .cls-6 {
        fill: url(#_ÂÁ_Ï_ÌÌ_È_ËÂÌÚ_842-2);
      }

      .cls-7 {
        fill: url(#_ÂÁ_Ï_ÌÌ_È_ËÂÌÚ_52-5);
      }

      .cls-8 {
        fill: url(#_ÂÁ_Ï_ÌÌ_È_ËÂÌÚ_629);
      }

      .cls-8, .cls-10 {
        mix-blend-mode: screen;
        opacity: .5;
      }

      .cls-9 {
        fill: url(#_ÂÁ_Ï_ÌÌ_È_ËÂÌÚ_50-3);
      }

      .cls-10 {
        fill: url(#_ÂÁ_Ï_ÌÌ_È_ËÂÌÚ_628);
      }

      .cls-11 {
        fill: url(#_ÂÁ_Ï_ÌÌ_È_ËÂÌÚ_52);
      }

      .cls-12 {
        fill: url(#_ÂÁ_Ï_ÌÌ_È_ËÂÌÚ_50-4);
      }

      .cls-13 {
        fill: url(#_ÂÁ_Ï_ÌÌ_È_ËÂÌÚ_52-3);
      }

      .cls-14 {
        fill: url(#_ÂÁ_Ï_ÌÌ_È_ËÂÌÚ_52-2);
      }

      .cls-15 {
        fill: url(#_ÂÁ_Ï_ÌÌ_È_ËÂÌÚ_842);
      }

      .cls-16 {
        fill: url(#_ÂÁ_Ï_ÌÌ_È_ËÂÌÚ_842-4);
      }
    </style>
    <linearGradient id="_ÂÁ_Ï_ÌÌ_È_ËÂÌÚ_52" data-name="¡ÂÁ˚ÏˇÌÌ˚È „‡‰ËÂÌÚ 52" x1="54.99" y1="35.35" x2="35.66" y2="16.5" gradientUnits="userSpaceOnUse">
      <stop offset="0" stop-color="#fa0"/>
      <stop offset=".99" stop-color="#ff0c00"/>
    </linearGradient>
    <linearGradient id="_ÂÁ_Ï_ÌÌ_È_ËÂÌÚ_52-2" data-name="¡ÂÁ˚ÏˇÌÌ˚È „‡‰ËÂÌÚ 52" x1="43.92" y1="63" x2="41.34" y2="29.34" xlink:href="#_ÂÁ_Ï_ÌÌ_È_ËÂÌÚ_52"/>
    <linearGradient id="_ÂÁ_Ï_ÌÌ_È_ËÂÌÚ_52-3" data-name="¡ÂÁ˚ÏˇÌÌ˚È „‡‰ËÂÌÚ 52" x1="43.08" y1="28" x2="49.55" y2="37.36" xlink:href="#_ÂÁ_Ï_ÌÌ_È_ËÂÌÚ_52"/>
    <linearGradient id="_ÂÁ_Ï_ÌÌ_È_ËÂÌÚ_52-4" data-name="¡ÂÁ˚ÏˇÌÌ˚È „‡‰ËÂÌÚ 52" x1="40.31" y1="63.28" x2="37.74" y2="29.61" xlink:href="#_ÂÁ_Ï_ÌÌ_È_ËÂÌÚ_52"/>
    <linearGradient id="_ÂÁ_Ï_ÌÌ_È_ËÂÌÚ_50" data-name="¡ÂÁ˚ÏˇÌÌ˚È „‡‰ËÂÌÚ 50" x1="-666.13" y1="81.14" x2="-666.28" y2="63.28" gradientTransform="translate(-622.57) rotate(-180) scale(1 -1)" gradientUnits="userSpaceOnUse">
      <stop offset="0" stop-color="#5c7581"/>
      <stop offset="1" stop-color="#48427a"/>
    </linearGradient>
    <linearGradient id="_ÂÁ_Ï_ÌÌ_È_ËÂÌÚ_842" data-name="¡ÂÁ˚ÏˇÌÌ˚È „‡‰ËÂÌÚ 842" x1="-674.67" y1="79.38" x2="-674.79" y2="65.15" gradientTransform="translate(-622.57) rotate(-180) scale(1 -1)" gradientUnits="userSpaceOnUse">
      <stop offset="0" stop-color="#3e0f33"/>
      <stop offset="1" stop-color="#ac53be"/>
    </linearGradient>
    <linearGradient id="_ÂÁ_Ï_ÌÌ_È_ËÂÌÚ_50-2" data-name="¡ÂÁ˚ÏˇÌÌ˚È „‡‰ËÂÌÚ 50" x1="-647.28" y1="96.56" x2="-670.2" y2="84.62" xlink:href="#_ÂÁ_Ï_ÌÌ_È_ËÂÌÚ_50"/>
    <linearGradient id="_ÂÁ_Ï_ÌÌ_È_ËÂÌÚ_50-3" data-name="¡ÂÁ˚ÏˇÌÌ˚È „‡‰ËÂÌÚ 50" x1="-661.34" y1="87.15" x2="-674.3" y2="78.44" xlink:href="#_ÂÁ_Ï_ÌÌ_È_ËÂÌÚ_50"/>
    <linearGradient id="_ÂÁ_Ï_ÌÌ_È_ËÂÌÚ_842-2" data-name="¡ÂÁ˚ÏˇÌÌ˚È „‡‰ËÂÌÚ 842" x1="-664.5" y1="83.55" x2="-667.14" y2="78.4" xlink:href="#_ÂÁ_Ï_ÌÌ_È_ËÂÌÚ_842"/>
    <linearGradient id="_ÂÁ_Ï_ÌÌ_È_ËÂÌÚ_50-4" data-name="¡ÂÁ˚ÏˇÌÌ˚È „‡‰ËÂÌÚ 50" x1="-659.39" y1="78.12" x2="-669.87" y2="77.04" xlink:href="#_ÂÁ_Ï_ÌÌ_È_ËÂÌÚ_50"/>
    <linearGradient id="_ÂÁ_Ï_ÌÌ_È_ËÂÌÚ_842-3" data-name="¡ÂÁ˚ÏˇÌÌ˚È „‡‰ËÂÌÚ 842" x1="385.64" y1="77.27" x2="389" y2="77.27" gradientTransform="translate(-341.91)" xlink:href="#_ÂÁ_Ï_ÌÌ_È_ËÂÌÚ_842"/>
    <radialGradient id="_ÂÁ_Ï_ÌÌ_È_ËÂÌÚ_629" data-name="¡ÂÁ˚ÏˇÌÌ˚È „‡‰ËÂÌÚ 629" cx="14.83" cy="30.46" fx="14.83" fy="30.46" r="32.68" gradientTransform="translate(23.24 2.49) scale(1.3 1.12)" gradientUnits="userSpaceOnUse">
      <stop offset="0" stop-color="#ff7a00"/>
      <stop offset=".03" stop-color="#f47400"/>
      <stop offset=".24" stop-color="#ab5100"/>
      <stop offset=".44" stop-color="#6e3400"/>
      <stop offset=".62" stop-color="#3e1d00"/>
      <stop offset=".78" stop-color="#1c0d00"/>
      <stop offset=".91" stop-color="#070300"/>
      <stop offset="1" stop-color="#000"/>
    </radialGradient>
    <radialGradient id="_ÂÁ_Ï_ÌÌ_È_ËÂÌÚ_628" data-name="¡ÂÁ˚ÏˇÌÌ˚È „‡‰ËÂÌÚ 628" cx="15.64" cy="43.6" fx="15.64" fy="43.6" r="9.91" gradientTransform="translate(22.8 2.74) rotate(-.73) scale(1.3 1.12)" gradientUnits="userSpaceOnUse">
      <stop offset="0" stop-color="red"/>
      <stop offset="1" stop-color="#000"/>
    </radialGradient>
    <linearGradient id="_ÂÁ_Ï_ÌÌ_È_ËÂÌÚ_842-4" data-name="¡ÂÁ˚ÏˇÌÌ˚È „‡‰ËÂÌÚ 842" x1="-658.84" y1="94.02" x2="-671.05" y2="87.67" xlink:href="#_ÂÁ_Ï_ÌÌ_È_ËÂÌÚ_842"/>
    <linearGradient id="_ÂÁ_Ï_ÌÌ_È_ËÂÌÚ_52-5" data-name="¡ÂÁ˚ÏˇÌÌ˚È „‡‰ËÂÌÚ 52" x1="44.71" y1="64.66" x2="42.15" y2="31.16" xlink:href="#_ÂÁ_Ï_ÌÌ_È_ËÂÌÚ_52"/>
  </defs>
  <g class="cls-17">
    <g id="Calque_2" data-name="Calque 2">
      <g id="feu_01">
        <path class="cls-11" d="M46.74,23.27c-.82,2.58.15-1.56-.45,7.63,0-3.37-1.6-3.32-1.79-3.37-.89-.22,2.16-4.15,2.24-4.26Z"/>
        <path class="cls-14" d="M52.82,68.56c-.43.82-1.05,1.49-1.91,1.89-4.99,2.34-10.37,3.53-10.37,3.53l-5.39-.74,4.76-3.73c4.76-3.74-8.69-11.63-4.1-15.12.29-.22.62-.44.98-.66.13,1.25.98,2.56,4.41,1.4,3.88-1.32,1.64-4.68,1.13-5.85.22-2.91,1.83-5.29,3.46-7-.15,1.28,0,2.72.8,4.16.59,1.06,1.23,1.83,1.88,2.38-.22,3.56-.23,7.03.44,8.2,1.56,2.68,3.85-.02,3.85-.02,0,0,.18.61.36,1.56-.36.4-.77,1.42-1.1,3.83-.35,2.56.16,4.67.8,6.19Z"/>
        <path class="cls-13" d="M46.77,32.73c1.22,0,0,1.72,0,1.72,0,0-.86-1.72,0-1.72Z"/>
        <path class="cls-3" d="M39.38,46.26c.1,1.15-1.2-.48-.62-.53s.62.53.62.53Z"/>
        <path class="cls-4" d="M23.16,66.91s18.49,9.25,20.51,9.25,20.8-8.67,20.8-8.67c0,0-10.68-2.66-19.98-2.66s-21.34,2.08-21.34,2.08Z"/>
        <path class="cls-1" d="M23.45,67.2s4.01,2.1,8.42,4.3h0c4.84,2.42,10.17,4.95,11.23,4.95,1.8,0,16.89-6.87,20.17-8.38h.01s.01-.01.01-.01c.39-.18.61-.28.61-.28,0,0-.98-.24-2.61-.55-2.5-.49-6.54-1.19-10.86-1.55-2.24-.19-4.55-.28-6.76-.21-9.25.29-20.23,1.73-20.23,1.73Z"/>
        <path class="cls-15" d="M44.25,75.58c.7,0,11.36-4.87,15.89-7.19-2.51-.49-6.54-1.19-10.86-1.55-2.83,4.1-5.59,8.74-5.03,8.74Z"/>
        <polygon class="cls-5" points="36.09 84.66 40.39 93.27 46.41 93.27 50.71 84.66 46.75 81.37 44.98 79.9 41.27 79.91 39.02 81.98 36.09 84.66"/>
        <path class="cls-9" d="M36.09,84.66h14.63l-3.96-3.3-1.77-1.47-3.71.02-2.25,2.06-2.93,2.68Z"/>
        <path class="cls-6" d="M41.27,79.91l-2.25,2.06c.8-.28,1.82-.54,3.09-.76,1.89-.32,3.44-.16,4.65.15l-1.77-1.47-3.71.02Z"/>
        <path class="cls-12" d="M38.76,77.46c0,1.52,2.01,2.75,4.48,2.75s4.48-1.23,4.48-2.75-2.01-2.74-4.48-2.74-4.48,1.23-4.48,2.74Z"/>
        <path class="cls-2" d="M47.09,77.3c0,1.09-1.23,2.01-2.89,2.25.73-.54,1.19-1.29,1.19-2.13,0-1.01-.66-1.9-1.66-2.42,1.89.12,3.36,1.11,3.36,2.3Z"/>
        <g>
          <ellipse class="cls-8" cx="42.54" cy="36.74" rx="42.54" ry="36.74" transform="translate(-.47 .55) rotate(-.73)"/>
          <path class="cls-10" d="M56.69,51.33c.08,6.15-5.64,11.22-12.76,11.31-7.13.09-12.97-4.82-13.05-10.98-.08-6.15,5.64-11.22,12.76-11.31,7.13-.09,12.97,4.82,13.05,10.98Z"/>
        </g>
        <polygon class="cls-16" points="48.99 85.52 46.41 92.41 44.69 92.41 45.55 85.52 48.99 85.52"/>
        <path class="cls-4" d="M43.24,84.66s-1.47.4-2.57.4-1.19-.4-1.19-.4h-.72l-.28.4-.55-.55,5.3.15Z"/>
        <path class="cls-4" d="M36.09,65.9s-1.7.85-4.44.85-3.28-.55-3.28-.55l7.72-.3Z"/>
        <path class="cls-7" d="M45.28,39.56c-1.54.94-3.89,2.74-3.89,4.97,0,0-2.37-3.31.47-5.68,2.65-2.21-.46-6.46-.9-7.04.5.59,4.28,5.22,4.32,7.75Z"/>
      </g>
    </g>
  </g>
</svg>