<?xml version="1.0" encoding="UTF-8"?>
<svg xmlns="http://www.w3.org/2000/svg" xmlns:xlink="http://www.w3.org/1999/xlink" viewBox="0 0 95.72 92.05">
  <defs>
    <style>
      .cls-1 {
        fill: url(#_ÂÁ_Ï_ÌÌ_È_ËÂÌÚ_50);
      }

      .cls-1, .cls-2, .cls-3, .cls-4, .cls-5, .cls-6, .cls-7, .cls-8, .cls-9, .cls-10, .cls-11, .cls-12, .cls-13, .cls-14, .cls-15, .cls-16, .cls-17 {
        stroke-width: 0px;
      }

      .cls-2 {
        fill: url(#_ÂÁ_Ï_ÌÌ_È_ËÂÌÚ_842-3);
      }

      .cls-2, .cls-6, .cls-16, .cls-17 {
        mix-blend-mode: multiply;
        opacity: .4;
      }

      .cls-3 {
        fill: url(#_ÂÁ_Ï_ÌÌ_È_ËÂÌÚ_52-4);
      }

      .cls-4 {
        fill: #65918d;
      }

      .cls-5 {
        fill: url(#_ÂÁ_Ï_ÌÌ_È_ËÂÌÚ_50-2);
      }

      .cls-18 {
        isolation: isolate;
      }

      .cls-6 {
        fill: url(#_ÂÁ_Ï_ÌÌ_È_ËÂÌÚ_842-2);
      }

      .cls-7 {
        fill: url(#_ÂÁ_Ï_ÌÌ_È_ËÂÌÚ_52-5);
      }

      .cls-8 {
        fill: url(#_ÂÁ_Ï_ÌÌ_È_ËÂÌÚ_629);
      }

      .cls-8, .cls-10 {
        mix-blend-mode: screen;
        opacity: .5;
      }

      .cls-9 {
        fill: url(#_ÂÁ_Ï_ÌÌ_È_ËÂÌÚ_50-3);
      }

      .cls-10 {
        fill: url(#_ÂÁ_Ï_ÌÌ_È_ËÂÌÚ_628);
      }

      .cls-11 {
        fill: url(#_ÂÁ_Ï_ÌÌ_È_ËÂÌÚ_52);
      }

      .cls-12 {
        fill: url(#_ÂÁ_Ï_ÌÌ_È_ËÂÌÚ_50-4);
      }

      .cls-13 {
        fill: url(#_ÂÁ_Ï_ÌÌ_È_ËÂÌÚ_52-3);
      }

      .cls-14 {
        fill: url(#_ÂÁ_Ï_ÌÌ_È_ËÂÌÚ_52-6);
      }

      .cls-15 {
        fill: url(#_ÂÁ_Ï_ÌÌ_È_ËÂÌÚ_52-2);
      }

      .cls-16 {
        fill: url(#_ÂÁ_Ï_ÌÌ_È_ËÂÌÚ_842);
      }

      .cls-17 {
        fill: url(#_ÂÁ_Ï_ÌÌ_È_ËÂÌÚ_842-4);
      }
    </style>
    <radialGradient id="_ÂÁ_Ï_ÌÌ_È_ËÂÌÚ_629" data-name="¡ÂÁ˚ÏˇÌÌ˚È „‡‰ËÂÌÚ 629" cx="86.77" cy="31.13" fx="86.77" fy="31.13" r="36.76" gradientTransform="translate(-65.11 6.33) scale(1.3 1.12)" gradientUnits="userSpaceOnUse">
      <stop offset="0" stop-color="#ff7a00"/>
      <stop offset=".03" stop-color="#f47400"/>
      <stop offset=".24" stop-color="#ab5100"/>
      <stop offset=".44" stop-color="#6e3400"/>
      <stop offset=".62" stop-color="#3e1d00"/>
      <stop offset=".78" stop-color="#1c0d00"/>
      <stop offset=".91" stop-color="#070300"/>
      <stop offset="1" stop-color="#000"/>
    </radialGradient>
    <linearGradient id="_ÂÁ_Ï_ÌÌ_È_ËÂÌÚ_52" data-name="¡ÂÁ˚ÏˇÌÌ˚È „‡‰ËÂÌÚ 52" x1="52.89" y1="65.53" x2="51.72" y2="30.96" gradientUnits="userSpaceOnUse">
      <stop offset="0" stop-color="#fa0"/>
      <stop offset=".99" stop-color="#ff0c00"/>
    </linearGradient>
    <linearGradient id="_ÂÁ_Ï_ÌÌ_È_ËÂÌÚ_52-2" data-name="¡ÂÁ˚ÏˇÌÌ˚È „‡‰ËÂÌÚ 52" x1="41.35" y1="36.15" x2="56.28" y2="15.88" xlink:href="#_ÂÁ_Ï_ÌÌ_È_ËÂÌÚ_52"/>
    <linearGradient id="_ÂÁ_Ï_ÌÌ_È_ËÂÌÚ_52-3" data-name="¡ÂÁ˚ÏˇÌÌ˚È „‡‰ËÂÌÚ 52" x1="47.79" y1="65.71" x2="46.62" y2="31.14" xlink:href="#_ÂÁ_Ï_ÌÌ_È_ËÂÌÚ_52"/>
    <linearGradient id="_ÂÁ_Ï_ÌÌ_È_ËÂÌÚ_52-4" data-name="¡ÂÁ˚ÏˇÌÌ˚È „‡‰ËÂÌÚ 52" x1="38.64" y1="49.28" x2="52.42" y2="30.58" xlink:href="#_ÂÁ_Ï_ÌÌ_È_ËÂÌÚ_52"/>
    <linearGradient id="_ÂÁ_Ï_ÌÌ_È_ËÂÌÚ_52-5" data-name="¡ÂÁ˚ÏˇÌÌ˚È „‡‰ËÂÌÚ 52" x1="46.29" y1="35.99" x2="49.87" y2="31.13" xlink:href="#_ÂÁ_Ï_ÌÌ_È_ËÂÌÚ_52"/>
    <linearGradient id="_ÂÁ_Ï_ÌÌ_È_ËÂÌÚ_52-6" data-name="¡ÂÁ˚ÏˇÌÌ˚È „‡‰ËÂÌÚ 52" x1="316.85" y1="335.97" x2="319.24" y2="332.72" gradientTransform="translate(-266.95 390.72) rotate(-94.74)" xlink:href="#_ÂÁ_Ï_ÌÌ_È_ËÂÌÚ_52"/>
    <linearGradient id="_ÂÁ_Ï_ÌÌ_È_ËÂÌÚ_50" data-name="¡ÂÁ˚ÏˇÌÌ˚È „‡‰ËÂÌÚ 50" x1="45.17" y1="80.27" x2="45.03" y2="62.92" gradientUnits="userSpaceOnUse">
      <stop offset="0" stop-color="#5c7581"/>
      <stop offset="1" stop-color="#48427a"/>
    </linearGradient>
    <linearGradient id="_ÂÁ_Ï_ÌÌ_È_ËÂÌÚ_842" data-name="¡ÂÁ˚ÏˇÌÌ˚È „‡‰ËÂÌÚ 842" x1="36.88" y1="78.56" x2="36.76" y2="64.74" gradientUnits="userSpaceOnUse">
      <stop offset="0" stop-color="#3e0f33"/>
      <stop offset="1" stop-color="#ac53be"/>
    </linearGradient>
    <linearGradient id="_ÂÁ_Ï_ÌÌ_È_ËÂÌÚ_50-2" data-name="¡ÂÁ˚ÏˇÌÌ˚È „‡‰ËÂÌÚ 50" x1="63.48" y1="95.25" x2="41.22" y2="83.65" xlink:href="#_ÂÁ_Ï_ÌÌ_È_ËÂÌÚ_50"/>
    <linearGradient id="_ÂÁ_Ï_ÌÌ_È_ËÂÌÚ_50-3" data-name="¡ÂÁ˚ÏˇÌÌ˚È „‡‰ËÂÌÚ 50" x1="49.83" y1="86.11" x2="37.24" y2="77.65" xlink:href="#_ÂÁ_Ï_ÌÌ_È_ËÂÌÚ_50"/>
    <linearGradient id="_ÂÁ_Ï_ÌÌ_È_ËÂÌÚ_842-2" data-name="¡ÂÁ˚ÏˇÌÌ˚È „‡‰ËÂÌÚ 842" x1="46.76" y1="82.62" x2="44.19" y2="77.61" xlink:href="#_ÂÁ_Ï_ÌÌ_È_ËÂÌÚ_842"/>
    <linearGradient id="_ÂÁ_Ï_ÌÌ_È_ËÂÌÚ_50-4" data-name="¡ÂÁ˚ÏˇÌÌ˚È „‡‰ËÂÌÚ 50" x1="51.72" y1="77.34" x2="41.54" y2="76.28" xlink:href="#_ÂÁ_Ï_ÌÌ_È_ËÂÌÚ_50"/>
    <linearGradient id="_ÂÁ_Ï_ÌÌ_È_ËÂÌÚ_842-3" data-name="¡ÂÁ˚ÏˇÌÌ˚È „‡‰ËÂÌÚ 842" x1="259.92" y1="76.51" x2="263.19" y2="76.51" gradientTransform="translate(304.93) rotate(-180) scale(1 -1)" xlink:href="#_ÂÁ_Ï_ÌÌ_È_ËÂÌÚ_842"/>
    <linearGradient id="_ÂÁ_Ï_ÌÌ_È_ËÂÌÚ_842-4" data-name="¡ÂÁ˚ÏˇÌÌ˚È „‡‰ËÂÌÚ 842" x1="52.25" y1="92.79" x2="40.39" y2="86.61" xlink:href="#_ÂÁ_Ï_ÌÌ_È_ËÂÌÚ_842"/>
    <radialGradient id="_ÂÁ_Ï_ÌÌ_È_ËÂÌÚ_628" data-name="¡ÂÁ˚ÏˇÌÌ˚È „‡‰ËÂÌÚ 628" cx="88.25" cy="42.63" fx="88.25" fy="42.63" r="9.63" gradientTransform="translate(-65.55 7.78) rotate(-.73) scale(1.3 1.12)" gradientUnits="userSpaceOnUse">
      <stop offset="0" stop-color="red"/>
      <stop offset="1" stop-color="#000"/>
    </radialGradient>
  </defs>
  <g class="cls-18">
    <g id="Calque_2" data-name="Calque 2">
      <g id="feu_02">
        <ellipse class="cls-8" cx="47.86" cy="41.33" rx="47.86" ry="41.33" transform="translate(-.53 .62) rotate(-.73)"/>
        <path class="cls-11" d="M52.48,45.59c-3.85,1.03-1.69,3.22.32,3.54-.51-1.51-3.22-5.43-3.38-7.24-.27-3.07-.08-9.45.22-11.55.65,7.41,9.23,13.55,2.83,15.26Z"/>
        <path class="cls-15" d="M47.76,24.05c-.8,2.51.14-1.51-.43,7.41,0-3.27-1.55-3.22-1.74-3.27-.86-.22,2.1-4.03,2.18-4.14Z"/>
        <path class="cls-13" d="M47.76,65.55l2.54,5.3-5.01-1.67s-4.18-3.34-7.52-7.52c-.58-.72-.83-1.56-.85-2.47,1.21-1.05,2.57-2.67,3.36-5.06.74-2.24.83-3.31.69-3.81.58-.75.99-1.2.99-1.2,0,0,.84,3.34,3.34,1.67,2.51-1.67,0-9.19,0-9.19,0,0,3.33,2.49,6.63,5.57-.94.79-1.92,2.47.89,5.29,2.49,2.49,3.79,1.71,4.45.68.22.34.41.68.57.99,2.51,5.01-12.6,6.12-10.06,11.42Z"/>
        <path class="cls-3" d="M45.28,45.78l-.84-3.34s-2.51-1.67-1.67-3.34l.84-1.67s-2.51,1.67-1.67,4.18c.84,2.51,3.34,4.18,3.34,4.18Z"/>
        <path class="cls-7" d="M47.79,33.24c1.18,0,0,1.67,0,1.67,0,0-.84-1.67,0-1.67Z"/>
        <path class="cls-14" d="M40.61,46.38c.09,1.12-1.16-.47-.61-.51.56-.05.61.51.61.51Z"/>
        <path class="cls-4" d="M64.99,66.45s-17.96,8.98-19.93,8.98-20.21-8.42-20.21-8.42c0,0,10.37-2.58,19.41-2.58s20.73,2.02,20.73,2.02Z"/>
        <path class="cls-1" d="M64.71,66.73s-3.89,2.04-8.18,4.18h0c-4.7,2.35-9.88,4.81-10.91,4.81-1.75,0-16.41-6.68-19.6-8.14h-.01s-.01-.01-.01-.01c-.38-.18-.59-.27-.59-.27,0,0,.96-.23,2.53-.54,2.43-.48,6.35-1.15,10.55-1.5,2.17-.18,4.42-.28,6.57-.21,8.98.28,19.65,1.68,19.65,1.68Z"/>
        <path class="cls-16" d="M44.5,74.87c-.68,0-11.04-4.74-15.43-6.99,2.43-.48,6.35-1.16,10.55-1.5,2.75,3.98,5.43,8.49,4.88,8.49Z"/>
        <polygon class="cls-5" points="52.43 83.69 48.25 92.05 42.4 92.05 38.22 83.69 42.07 80.49 43.79 79.06 47.39 79.08 49.58 81.09 52.43 83.69"/>
        <path class="cls-9" d="M52.43,83.69h-14.21l3.84-3.2,1.72-1.43,3.6.02,2.19,2.01,2.85,2.61Z"/>
        <path class="cls-6" d="M47.39,79.08l2.19,2.01c-.78-.28-1.76-.53-3-.74-1.84-.31-3.34-.16-4.51.14l1.72-1.43,3.6.02Z"/>
        <ellipse class="cls-12" cx="45.48" cy="76.69" rx="4.35" ry="2.67"/>
        <path class="cls-2" d="M41.74,76.54c0,1.06,1.2,1.95,2.81,2.19-.71-.52-1.15-1.25-1.15-2.07,0-.98.64-1.84,1.61-2.35-1.84.12-3.27,1.07-3.27,2.23Z"/>
        <polygon class="cls-17" points="39.89 84.53 42.4 91.22 44.07 91.22 43.24 84.53 39.89 84.53"/>
        <path class="cls-4" d="M45.48,83.69s1.43.39,2.49.39,1.15-.39,1.15-.39h.7l.27.39.53-.53-5.15.14Z"/>
        <path class="cls-4" d="M52.43,65.46s1.65.82,4.31.82,3.19-.53,3.19-.53l-7.5-.29Z"/>
        <path class="cls-10" d="M62.48,54.07c.08,5.98-5.47,10.9-12.4,10.99-6.92.09-12.6-4.69-12.68-10.67-.08-5.98,5.47-10.9,12.4-10.99,6.92-.09,12.6,4.69,12.68,10.67Z"/>
      </g>
    </g>
  </g>
</svg>