<?xml version="1.0" encoding="UTF-8"?>
<svg xmlns="http://www.w3.org/2000/svg" xmlns:xlink="http://www.w3.org/1999/xlink" viewBox="0 0 967.18 386.62">
  <defs>
    <style>
      .cls-1, .cls-2, .cls-3, .cls-4, .cls-5, .cls-6, .cls-7, .cls-8, .cls-9, .cls-10, .cls-11, .cls-12, .cls-13, .cls-14, .cls-15, .cls-16, .cls-17, .cls-18, .cls-19 {
        stroke-width: 0px;
      }

      .cls-1, .cls-3, .cls-5, .cls-8, .cls-10, .cls-18 {
        fill: #a70e0e;
      }

      .cls-1, .cls-5, .cls-20, .cls-13, .cls-19 {
        mix-blend-mode: screen;
      }

      .cls-1, .cls-15 {
        opacity: .2;
      }

      .cls-2 {
        fill: url(#_ÂÁ_Ï_ÌÌ_È_ËÂÌÚ_733);
      }

      .cls-3 {
        mix-blend-mode: overlay;
      }

      .cls-21 {
        opacity: .7;
      }

      .cls-21, .cls-6, .cls-8, .cls-22, .cls-23 {
        mix-blend-mode: multiply;
      }

      .cls-4 {
        fill: #882c52;
      }

      .cls-5, .cls-7, .cls-10 {
        fill-rule: evenodd;
      }

      .cls-5, .cls-20 {
        opacity: .47;
      }

      .cls-6 {
        fill: #311e55;
      }

      .cls-6, .cls-23 {
        opacity: .6;
      }

      .cls-7 {
        fill: #0e0d34;
      }

      .cls-24 {
        isolation: isolate;
      }

      .cls-20 {
        stroke: url(#_ÂÁ_Ï_ÌÌ_È_ËÂÌÚ_828);
        stroke-miterlimit: 10;
      }

      .cls-20, .cls-11 {
        fill: none;
      }

      .cls-8 {
        opacity: .4;
      }

      .cls-9 {
        fill: #bb97d2;
        mix-blend-mode: soft-light;
        opacity: .65;
      }

      .cls-12 {
        fill: url(#_ÂÁ_Ï_ÌÌ_È_ËÂÌÚ_65);
        mix-blend-mode: color-dodge;
      }

      .cls-12, .cls-13, .cls-19 {
        opacity: .5;
      }

      .cls-13 {
        fill: url(#_ÂÁ_Ï_ÌÌ_È_ËÂÌÚ_629);
      }

      .cls-14 {
        fill: #180d2d;
      }

      .cls-15, .cls-16 {
        fill: #9a2226;
      }

      .cls-16 {
        opacity: .15;
      }

      .cls-17 {
        fill: #10051c;
      }

      .cls-22 {
        opacity: .3;
      }

      .cls-19 {
        fill: url(#_ÂÁ_Ï_ÌÌ_È_ËÂÌÚ_629-2);
      }
    </style>
    <linearGradient id="_ÂÁ_Ï_ÌÌ_È_ËÂÌÚ_733" data-name="¡ÂÁ˚ÏˇÌÌ˚È „‡‰ËÂÌÚ 733" x1="320.93" y1="224.15" x2="336.5" y2="242.79" gradientUnits="userSpaceOnUse">
      <stop offset="0" stop-color="#863c56"/>
      <stop offset="1" stop-color="#572977"/>
    </linearGradient>
    <radialGradient id="_ÂÁ_Ï_ÌÌ_È_ËÂÌÚ_629" data-name="¡ÂÁ˚ÏˇÌÌ˚È „‡‰ËÂÌÚ 629" cx="334.16" cy="134.45" fx="334.16" fy="134.45" r="22.12" gradientUnits="userSpaceOnUse">
      <stop offset="0" stop-color="#ff7a00"/>
      <stop offset=".03" stop-color="#f47400"/>
      <stop offset=".24" stop-color="#ab5100"/>
      <stop offset=".44" stop-color="#6e3400"/>
      <stop offset=".62" stop-color="#3e1d00"/>
      <stop offset=".78" stop-color="#1c0d00"/>
      <stop offset=".91" stop-color="#070300"/>
      <stop offset="1" stop-color="#000"/>
    </radialGradient>
    <radialGradient id="_ÂÁ_Ï_ÌÌ_È_ËÂÌÚ_65" data-name="¡ÂÁ˚ÏˇÌÌ˚È „‡‰ËÂÌÚ 65" cx="597.97" cy="196.06" fx="597.97" fy="196.06" r="22.82" gradientUnits="userSpaceOnUse">
      <stop offset="0" stop-color="#ffa245"/>
      <stop offset="1" stop-color="#442351"/>
    </radialGradient>
    <linearGradient id="_ÂÁ_Ï_ÌÌ_È_ËÂÌÚ_828" data-name="¡ÂÁ˚ÏˇÌÌ˚È „‡‰ËÂÌÚ 828" x1="527.94" y1="387.89" x2="494.76" y2="342.03" gradientUnits="userSpaceOnUse">
      <stop offset=".01" stop-color="#ff5e45"/>
      <stop offset=".37" stop-color="#973829"/>
      <stop offset=".68" stop-color="#461913"/>
      <stop offset=".89" stop-color="#130705"/>
      <stop offset="1" stop-color="#000"/>
    </linearGradient>
    <radialGradient id="_ÂÁ_Ï_ÌÌ_È_ËÂÌÚ_629-2" data-name="¡ÂÁ˚ÏˇÌÌ˚È „‡‰ËÂÌÚ 629" cx="312.06" cy="167.33" fx="312.06" fy="167.33" r="16.65" xlink:href="#_ÂÁ_Ï_ÌÌ_È_ËÂÌÚ_629"/>
  </defs>
  <g class="cls-24">
    <g id="Calque_2" data-name="Calque 2">
      <g id="fond">
        <g id="Layer_23" data-name="Layer 23">
          <g>
            <g>
              <polygon class="cls-18" points="732.58 273.07 730.47 301.38 664.69 303 667 272.39 732.58 273.07"/>
              <path class="cls-18" d="M147.18,63.01v300.53h613V118.53l-62.9-.73,1.86-27.59,61.04-6.08v-21.12H147.18ZM730.47,301.38l-65.78,1.62,2.31-30.61,65.58.68-2.11,28.31ZM736.66,211.07l-65.46,6.55v-30.68l30.36-1.92.88-.06,34.22-2.17v28.28Z"/>
              <polygon class="cls-18" points="760.18 84.13 760.18 118.53 697.28 117.8 699.14 90.21 760.18 84.13"/>
              <polygon class="cls-18" points="736.66 182.79 736.66 211.07 671.2 217.62 671.2 186.94 736.66 182.79"/>
              <g class="cls-22">
                <g>
                  <polygon class="cls-18" points="763.48 180.22 763.46 181.09 760.18 181.3 737.54 182.73 736.66 182.79 671.2 186.94 669.29 187.06 653.8 188.04 653.83 187.17 760.18 180.43 763.48 180.22"/>
                  <polygon class="cls-18" points="772.18 236.48 648.18 248.48 648.18 247.61 772.18 235.61 772.18 236.48"/>
                  <rect class="cls-18" x="717.34" y="214.62" width=".88" height="26.03"/>
                  <rect class="cls-18" x="669.29" y="186.62" width="1.91" height="31.54"/>
                  <rect class="cls-18" x="736.66" y="182.62" width=".88" height="30.14"/>
                  <polygon class="cls-18" points="689.21 271.62 687.76 271.52 689.24 243.62 690.7 243.71 689.21 271.62"/>
                  <polygon class="cls-18" points="791.18 205.62 791.18 209.62 760.18 212.28 756.18 212.62 718.22 215.51 717.35 215.58 651.18 220.62 651.18 219.62 669.29 217.81 671.2 217.62 736.66 211.07 737.54 210.98 760.18 208.72 791.18 205.62"/>
                </g>
                <polygon class="cls-18" points="772.52 272.62 772.43 273.49 760.18 273.36 733.47 273.08 732.58 273.07 667 272.39 665.08 272.37 649.56 272.21 649.65 271.34 760.18 272.49 772.52 272.62"/>
                <polygon class="cls-18" points="667.02 272.09 667 272.39 664.69 303 664.65 303.54 662.75 303.4 662.78 303.05 665.08 272.37 665.11 271.95 667.02 272.09"/>
                <polygon class="cls-18" points="733.47 273.07 733.47 273.08 731.34 301.35 731.21 303.12 730.34 303.06 730.47 301.38 732.58 273.07 732.59 273 733.47 273.07"/>
                <rect class="cls-18" x="690.45" y="303.61" width=".88" height="34.52" transform="translate(-2 4.34) rotate(-.36)"/>
                <polygon class="cls-18" points="785.24 300.02 784.94 304.01 760.18 304.27 749.81 304.38 691.23 304.44 690.35 304.44 644.51 304.49 644.58 303.5 662.78 303.05 664.69 303 730.47 301.38 731.34 301.35 760.18 300.64 785.24 300.02"/>
              </g>
              <g class="cls-22">
                <g>
                  <polygon class="cls-18" points="771.45 27.09 661.8 34.04 661.82 33.16 771.48 26.21 771.45 27.09"/>
                  <polygon class="cls-18" points="766.65 82.61 766.65 83.49 760.18 84.13 699.14 90.21 697.77 90.35 656.18 94.49 656.18 93.61 726.08 86.65 726.22 86.64 760.18 83.25 766.65 82.61"/>
                  <rect class="cls-18" x="725.34" y="60.62" width=".88" height="26.03"/>
                  <rect class="cls-18" x="677.29" y="32.62" width="1.91" height="31.54"/>
                  <rect class="cls-18" x="744.66" y="28.62" width=".88" height="30.14"/>
                  <polygon class="cls-18" points="699.18 89.62 699.14 90.21 697.28 117.8 697.22 118.62 695.76 118.52 695.8 117.78 697.25 90.62 697.77 90.35 699.18 89.62"/>
                  <polygon class="cls-18" points="659.18 66.62 764.18 58.62 799.18 55.62 799.18 51.62 659.18 65.62 659.18 66.62"/>
                </g>
                <polygon class="cls-18" points="767.52 118.62 767.43 119.49 760.18 119.41 741.46 119.19 740.58 119.18 675 118.41 673.08 118.39 657.56 118.21 657.65 117.34 695.8 117.78 697.28 117.8 760.18 118.53 767.52 118.62"/>
                <rect class="cls-18" x="657.11" y="132.78" width="31.54" height="1.91" transform="translate(489.12 794.71) rotate(-85.7)"/>
                <rect class="cls-18" x="724.83" y="133.62" width="30.14" height=".88" transform="translate(550.83 861.85) rotate(-85.71)"/>
                <rect class="cls-18" x="701.45" y="150.61" width=".88" height="34.52" transform="translate(-1.04 4.41) rotate(-.36)"/>
                <polygon class="cls-18" points="655.5 150.49 760.81 150.38 795.94 150.01 796.23 146.02 655.58 149.49 655.5 150.49"/>
              </g>
              <g>
                <g class="cls-22">
                  <g>
                    <polygon class="cls-18" points="148.23 174.09 257.88 181.04 257.86 180.16 148.2 173.21 148.23 174.09"/>
                    <polygon class="cls-18" points="153.04 230.48 263.5 241.48 263.5 240.61 153.04 229.61 153.04 230.48"/>
                    <rect class="cls-18" x="193.46" y="207.62" width=".88" height="26.03"/>
                    <rect class="cls-18" x="240.49" y="179.62" width="1.91" height="31.54"/>
                    <rect class="cls-18" x="174.15" y="175.62" width=".88" height="30.14"/>
                    <polygon class="cls-18" points="222.47 264.62 223.92 264.52 222.44 236.62 220.98 236.71 222.47 264.62"/>
                    <polygon class="cls-18" points="260.5 213.62 155.5 205.62 120.5 202.62 120.5 198.62 260.5 212.62 260.5 213.62"/>
                  </g>
                  <polygon class="cls-18" points="152.25 266.48 262.12 265.2 262.03 264.33 152.16 265.61 152.25 266.48"/>
                  <rect class="cls-18" x="245.85" y="264.97" width="1.91" height="31.54" transform="translate(-20.33 19.27) rotate(-4.3)"/>
                  <rect class="cls-18" x="179.34" y="265.99" width=".88" height="30.14" transform="translate(-20.53 14.25) rotate(-4.29)"/>
                  <polygon class="cls-18" points="220.25 337.62 221.12 337.62 221.34 296.61 220.47 296.61 220.25 337.62"/>
                  <polygon class="cls-18" points="267.18 297.49 161.87 297.38 126.75 297.01 126.45 293.02 267.1 296.49 267.18 297.49"/>
                </g>
                <g class="cls-22">
                  <g>
                    <polygon class="cls-18" points="140.23 20.09 249.88 27.04 249.86 26.16 140.2 19.21 140.23 20.09"/>
                    <polygon class="cls-18" points="145.04 76.48 255.5 87.48 255.5 86.61 145.04 75.61 145.04 76.48"/>
                    <rect class="cls-18" x="185.46" y="53.62" width=".88" height="26.03"/>
                    <rect class="cls-18" x="232.49" y="25.62" width="1.91" height="31.54"/>
                    <rect class="cls-18" x="166.15" y="21.62" width=".88" height="30.14"/>
                    <polygon class="cls-18" points="214.47 110.62 215.92 110.52 214.44 82.62 212.98 82.71 214.47 110.62"/>
                    <polygon class="cls-18" points="252.5 59.62 147.5 51.62 112.5 48.62 112.5 44.62 252.5 58.62 252.5 59.62"/>
                  </g>
                  <polygon class="cls-18" points="144.25 112.48 254.12 111.2 254.03 110.33 144.16 111.61 144.25 112.48"/>
                  <rect class="cls-18" x="237.85" y="110.97" width="1.91" height="31.54" transform="translate(-8.82 18.24) rotate(-4.3)"/>
                  <rect class="cls-18" x="171.34" y="111.99" width=".88" height="30.14" transform="translate(-9.03 13.22) rotate(-4.29)"/>
                  <rect class="cls-18" x="192.54" y="160.43" width="34.52" height=".88" transform="translate(47.61 369.65) rotate(-89.64)"/>
                  <polygon class="cls-18" points="256.18 143.49 150.87 143.38 115.75 143.01 115.45 139.02 256.1 142.49 256.18 143.49"/>
                </g>
              </g>
              <polygon class="cls-3" points="257.02 89.27 266.04 331.14 644.96 331.14 659.07 89.27 257.02 89.27"/>
              <polygon class="cls-18" points="455.39 319.01 452.81 318.99 455.39 318.97 455.39 319.01"/>
              <polygon class="cls-18" points="452.81 318.99 450.23 319.01 450.23 318.97 452.81 318.99"/>
              <g class="cls-23">
                <rect class="cls-18" x="456.53" y="-29.04" width=".85" height="394.53" transform="translate(276.39 620.44) rotate(-88.44)"/>
                <rect class="cls-18" x="456.07" y="-56.74" width=".85" height="398.66" transform="translate(307.83 597.14) rotate(-89.23)"/>
                <polygon class="cls-18" points="261.2 200.91 261.14 200.06 458.91 185.45 458.94 186.93 654.18 200.06 654.12 200.91 458.91 187.78 261.2 200.91"/>
                <rect class="cls-18" x="261.87" y="218.91" width="113.8" height=".85"/>
                <rect class="cls-18" x="530.7" y="220.09" width="120.72" height=".85"/>
                <rect class="cls-18" x="611.36" y="197.64" width=".85" height="22.5"/>
                <rect class="cls-18" x="563.78" y="171.14" width="1.85" height="23.3"/>
                <rect class="cls-18" x="630.09" y="173.19" width=".85" height="25.71"/>
                <rect class="cls-18" x="582.34" y="157.37" width="26.73" height=".85" transform="translate(403.56 743.32) rotate(-86.67)"/>
                <rect class="cls-18" x="544.51" y="143.76" width=".85" height="26.43"/>
                <rect class="cls-18" x="423.95" y="108.73" width=".85" height="26.43"/>
                <rect class="cls-18" x="468.57" y="107.35" width=".85" height="26.43"/>
                <rect class="cls-18" x="335.1" y="164.63" width=".85" height="29.83" transform="translate(-10.4 20.96) rotate(-3.52)"/>
                <rect class="cls-18" x="292.74" y="140.33" width=".85" height="22.57" transform="translate(-11.37 24.37) rotate(-4.67)"/>
                <rect class="cls-18" x="330.6" y="152.43" width="23.64" height=".85" transform="translate(172.63 487.2) rotate(-87.13)"/>
                <rect class="cls-18" x="368.31" y="141.4" width=".85" height="23.87"/>
                <rect class="cls-18" x="258.25" y="106.94" width="400.99" height=".85" transform="translate(-2.28 10.25) rotate(-1.28)"/>
                <rect class="cls-18" x="316.39" y="82.94" width=".85" height="26.73" transform="translate(-4.72 17.17) rotate(-3.08)"/>
                <polygon class="cls-18" points="300.32 140.86 301.17 140.81 299.74 110.47 298.89 110.52 300.32 140.86"/>
                <rect class="cls-18" x="354.38" y="95.29" width="26.43" height=".85" transform="translate(270.25 462.88) rotate(-89.74)"/>
                <rect class="cls-18" x="340.9" y="124.44" width="31.66" height="2.26" transform="translate(229.58 481.74) rotate(-89.75)"/>
                <rect class="cls-18" x="608.1" y="92.05" width="22.57" height=".85" transform="translate(474.09 701.64) rotate(-85.08)"/>
                <polygon class="cls-18" points="582.64 144.43 584.65 104.63 583.8 104.51 581.79 144.3 582.64 144.43"/>
                <rect class="cls-18" x="569.71" y="80.67" width=".85" height="23.64" transform="translate(-3.62 26.07) rotate(-2.61)"/>
                <rect class="cls-18" x="531.87" y="92.43" width="23.87" height=".85" transform="translate(448.54 636.24) rotate(-89.75)"/>
                <rect class="cls-18" x="498.14" y="124.45" width="37.77" height=".85" transform="translate(389.84 641.33) rotate(-89.74)"/>
                <rect class="cls-18" x="285.06" y="198.89" width=".85" height="20.44" transform="translate(-15.27 22.62) rotate(-4.42)"/>
                <rect class="cls-18" x="349.99" y="194.41" width=".85" height="24.92" transform="translate(-12.28 22.38) rotate(-3.59)"/>
                <polygon class="cls-18" points="649.67 250.59 533.83 246.15 372.79 245.32 262.84 245.61 262.84 244.76 372.79 244.47 533.85 245.3 649.7 249.74 649.67 250.59"/>
                <polygon class="cls-3" points="647.72 284.26 528.44 283.37 528.43 283.37 374.63 274.98 264.09 278.88 264.06 278.03 374.64 274.13 374.66 274.13 528.47 282.52 647.72 283.41 647.72 284.26"/>
                <rect class="cls-18" x="286.54" y="245.17" width=".85" height="32.62" transform="translate(-10.87 12.45) rotate(-2.44)"/>
                <polygon class="cls-18" points="322.26 244.92 319.34 218.84 320.93 218.79 323.85 244.87 322.26 244.92"/>
                <rect class="cls-18" x="362.49" y="219.37" width=".85" height="25.53"/>
                <rect class="cls-18" x="263.45" y="295.97" width="119.43" height=".85"/>
                <polygon class="cls-18" points="312 332.07 308.94 296.49 310.6 296.42 313.67 332 312 332.07"/>
                <rect class="cls-18" x="369.05" y="296.42" width=".89" height="33.09"/>
                <rect class="cls-18" x="334.61" y="276.04" width=".89" height="20.35"/>
                <rect class="cls-18" x="356.56" y="275.3" width=".89" height="21.1"/>
                <rect class="cls-18" x="521.58" y="304.01" width="132.64" height=".85"/>
                <polygon class="cls-18" points="583.34 331.14 580.28 304.52 581.94 304.46 585.01 331.09 583.34 331.14"/>
                <rect class="cls-18" x="616.15" y="304.12" width=".89" height="27.37"/>
                <rect class="cls-18" x="605.95" y="284.08" width=".89" height="20.35"/>
                <rect class="cls-18" x="545.47" y="283.05" width=".89" height="21.01"/>
                <rect class="cls-18" x="627.89" y="283.34" width=".89" height="21.1"/>
                <polygon class="cls-18" points="572.44 247.28 571.03 247.21 574.41 220.1 575.82 220.16 572.44 247.28"/>
                <rect class="cls-18" x="542.71" y="220.11" width=".85" height="25.1" transform="translate(-13.01 33.09) rotate(-3.45)"/>
                <rect class="cls-18" x="597.26" y="265.47" width="34.13" height=".85" transform="translate(325.21 869.64) rotate(-87.82)"/>
                <rect class="cls-18" x="564.43" y="246.88" width=".85" height="36.07" transform="translate(-9.16 20.47) rotate(-2.06)"/>
              </g>
              <polygon class="cls-18" points="31.7 368.66 266.04 331.14 644.96 331.14 967.18 371.62 31.7 368.66"/>
              <polygon class="cls-18" points="0 27.08 257.02 89.27 659.07 89.27 857.16 40.97 0 27.08"/>
              <g class="cls-21">
                <path class="cls-18" d="M764.7,364.05c-6.05-.1-604.51-10.23-674.96-10.23-.15,0-.28,0-.43,0v-1.02c.14,0,.28,0,.43,0,70.4,0,668.93,10.12,674.98,10.23l-.02,1.02Z"/>
                <path class="cls-18" d="M754.81,376.71l-73.87.51-18.5-14.88-45.6-.75-20.55-18.89h-109.13l1.39,16.8-48.71-.78.59-20.51-148.62,1.52-37.79,16.12-1.39.54-41.71-1.17-49.37,20.45-2.46-2.85,51.67-18.62h.1s43.09-1.39,43.09-1.39l37.65-14.1h.1s149.78-1.53,149.78-1.53l-.59,20.54,46.55.75-1.39-16.78h88.24l-2.97-.05-.13-.09-14.21-9.98.59-.83,14.08,9.89,83.9,1.02,120.27,2.4-.02,1.02h0s-115.59-1.94-115.59-1.94l32.77,18.71,27.45.46,34.38,14.42ZM681.3,376.2l70.56-.51-31.79-12.39-27.37-.46-34.61-19.76-60.99-1.02,20.14,18.51,45.56.75,18.49,14.87Z"/>
                <path class="cls-18" d="M354,376.94l-.91-.46c.53-1.05,12.04-18.96,12.53-19.72l.86.55c-4.14,6.44-12.07,18.82-12.47,19.62Z"/>
                <polygon class="cls-18" points="467.56 376.73 466.71 358.67 469.84 358.65 470.7 376.72 467.56 376.73"/>
                <rect class="cls-18" x="553.46" y="359.4" width="1.02" height="19.2" transform="translate(-93.26 213.65) rotate(-20.17)"/>
                <rect class="cls-18" x="266.71" y="312.47" width="1.02" height="49.14" transform="translate(-92.11 573.43) rotate(-84.93)"/>
                <polygon class="cls-18" points="337.48 356.09 353.08 339.1 353.98 339.09 339.22 356.76 337.48 356.09"/>
              </g>
              <polygon class="cls-1" points="200.95 14.58 291.82 89.27 378.65 89.27 360.82 4.17 378.65 4.17 388.62 89.27 413.37 89.27 410.4 7.64 460.58 6.94 452.33 89.27 505.6 89.27 539.24 4.17 582.64 8.33 576.21 89.27 584.2 89.27 612.56 0 677.81 4.17 619.39 89.27 674.48 89.27 887.62 33.4 200.95 14.58"/>
              <polygon class="cls-10" points="354.18 377.62 366.18 357.62 467.18 358.62 467.18 386.62 354.18 377.62"/>
              <polygon class="cls-5" points="328.92 357.34 309.18 372.62 343.47 372.14 349.35 357.34 328.92 357.34"/>
            </g>
            <g>
              <polygon class="cls-14" points="269.21 356.29 270.25 357.44 289.73 355.95 310.62 355.95 262.23 370.19 211.58 370.3 269.21 356.29"/>
              <polygon class="cls-6" points="307.66 356.73 289.27 356.31 270.43 358.69 269.35 357 226.47 367.66 220.26 370.3 211.58 370.3 269.21 356.29 270.25 357.44 289.73 355.95 310.62 355.95 307.66 356.73"/>
              <polygon class="cls-14" points="469.68 368.58 469.96 362.94 480.06 365.74 502.97 364.5 518.3 361.12 553.42 368.6 469.68 368.58"/>
              <polygon class="cls-6" points="469.96 362.94 469.9 364.13 479.14 366.1 504.48 364.86 519.9 362.3 542 367.12 545.61 368.64 553.42 368.6 518.3 361.12 502.97 364.5 480.06 365.74 469.96 362.94"/>
              <polygon class="cls-14" points="290.95 339.12 298.74 342.54 307.6 342.54 321.62 339.12 290.95 339.12"/>
              <polygon class="cls-6" points="293.24 340.12 302.96 339.78 317.13 340.21 321.62 339.12 290.95 339.12 293.24 340.12"/>
              <polygon class="cls-14" points="688.86 362.01 655.5 351.27 640.52 349.24 635.96 350.15 640.7 354.79 634.18 356.67 611.18 352.67 634.03 361.53 688.86 362.01"/>
              <polygon class="cls-6" points="682.61 361.95 654.48 352.18 640.57 350.63 637.1 351.27 635.96 350.15 640.52 349.24 655.5 351.27 688.86 362.01 682.61 361.95"/>
            </g>
          </g>
        </g>
        <g id="Layer_21" data-name="Layer 21">
          <polygon class="cls-2" points="322.54 232.12 322.18 219.62 321.18 219.62 322.54 232.12"/>
        </g>
        <g id="Layer_20" data-name="Layer 20">
          <polygon class="cls-13" points="330.18 140.62 355.67 139.04 355.67 140.62 330.18 140.62"/>
        </g>
        <g id="Layer_19" data-name="Layer 19">
          <polygon class="cls-12" points="565.77 193.85 630.18 195.62 630.18 198.28 565.77 193.85"/>
        </g>
        <g id="Layer_18" data-name="Layer 18">
          <polygon id="troue5" class="cls-4" points="529.18 245.62 561.18 248.62 563.62 247.49 529.18 245.62"/>
        </g>
        <g id="Layer_17" data-name="Layer 17">
          <polygon id="troue4" class="cls-20" points="472.18 368.62 472.18 359.23 550.18 360.62 553.18 368.62 472.18 368.62"/>
        </g>
        <g id="Layer_13" data-name="Layer 13">
          <polygon id="troue3" class="cls-7" points="581.04 97.6 579.98 97.6 579.23 98.83 576.92 101.33 575.48 103.52 573.17 104.32 569.66 108.94 565.42 108.02 564.15 108.17 564.09 106.64 564.23 104.67 564.27 103.73 565.25 102.44 565.84 101.19 568.42 97.61 567.56 97.6 563.69 104.32 563.69 108.94 555.4 110.94 552 115.04 549.46 121.59 542.99 123.05 539.86 124.43 537.51 123.05 528.86 129.27 514.86 125.71 509.81 132.75 505.14 134.1 500.1 131.4 493.63 134.1 485.98 149.82 493.63 171.69 526.28 186.96 533.81 172.22 537.51 169.59 534.86 165.02 542.28 155.2 542.99 146.13 530.64 131.4 536.94 124.69 539.19 125.71 542.99 123.77 549.86 123.05 552.15 117.14 552.52 115.1 555.73 111.44 556.57 111.02 562.69 109.94 567.27 109.64 570.32 109.48 572.27 106.2 573.73 104.32 575.69 103.87 576.71 103.5 577.77 101.64 577.59 100.89 578.96 99.5 581.04 97.6"/>
        </g>
        <g id="Layer_11" data-name="Layer 11">
          <path id="bottom" class="cls-8" d="M323.18,339.62l20-2,34.68.49,17.32,2.51,2-1h71s18.23.47,34.61.23c16.39-.23,82.11-2.23,82.11-2.23l-2.73,10-35,21h-205l-17-22-2-7Z"/>
        </g>
        <g id="Layer_10" data-name="Layer 10">
          <polygon id="troue2" class="cls-19" points="294.18 162.62 310.18 161.62 341.18 164.62 294.18 162.62"/>
        </g>
        <g id="Layer_9" data-name="Layer 9">
          <g id="troue1">
            <polygon class="cls-17" points="215.26 256.9 205.19 244.24 200.36 233.66 205.19 230.4 202 223.35 199.18 215.35 205.19 202.22 222.47 178.96 240.56 174.51 250.22 187.78 241.73 226.19 235.24 227.53 226.39 243.04 225 250.97 215.26 256.9"/>
            <polygon class="cls-9" points="235.24 227.53 235.24 222.02 233.07 212.64 238.98 209.71 241.73 226.19 235.24 227.53"/>
            <polygon class="cls-9" points="225 250.97 222.47 241.69 218.84 235.02 213.36 234.74 200.36 233.66 205.19 244.24 215.26 256.9 225 250.97"/>
            <polygon class="cls-6" points="250.22 187.78 240.56 194.21 233.07 193.65 217.05 198.64 205.19 216.63 199.18 215.35 205.19 202.22 222.47 178.96 240.56 174.51 250.22 187.78"/>
            <polygon class="cls-6" points="233.07 212.64 230.31 226.31 224.7 229.78 218.84 235.02 222.47 241.69 225 250.97 226.39 243.04 235.24 227.53 235.24 222.02 233.07 212.64"/>
            <polygon class="cls-17" points="233.36 232.21 236.03 231.21 238.19 232.65 239.64 241.71 238.19 250.78 232.41 255.42 232.41 266.71 236.03 271.01 233.22 266.76 232.82 258.27 234.8 254.49 238.79 250.97 241.35 240.84 239.84 235.88 238.98 232.01 236.03 227.53 233.36 232.21"/>
            <polygon class="cls-17" points="221.84 180.87 222.27 176.9 217.04 170.02 209.42 167.52 208.11 166.81 209.56 165.56 202.97 151.03 204.5 149.48 207.06 138.45 218.52 133.24 209.87 138.23 208.34 138.47 205.33 148.23 204.94 151.25 211.56 166.77 212.28 167.56 217.24 169.63 223.94 176.25 226.07 178.27 223.26 178.96 221.84 180.87"/>
            <polygon class="cls-6" points="222.47 178.96 221.87 176.62 218.75 172.42 216.42 169.76 210.46 167.54 209.28 165.56 203.61 151.25 203.61 150.52 206.57 139.63 207.55 138.47 204.25 149.46 204.15 151.25 210.25 165.56 211.49 167.56 216.45 169.63 225.28 178.27 222.47 178.96"/>
            <polygon class="cls-6" points="234.75 229.78 236.88 230.85 238.52 232.55 240.23 239.61 241.35 240.84 239.84 235.88 238.98 232.01 236.03 227.53 234.75 229.78"/>
          </g>
        </g>
        <g id="Layer_8" data-name="Layer 8">
          <path id="toile4" class="cls-15" d="M496.96,202.35l-.26-1.01s-14.13,1.3-19.35-22.27l-1.11-.56s.03,6.01-.49,6.35c-3.62,2.35-8.8-13.5-8.8-13.5l-1.74-.49s7.13,19.74,6.51,23.58c-.62,3.84-9.53-2.3-12.33-11.54l-.81-.1s5.87,9.04-1.7,10.84c-7.56,1.8-10.32-10.51-10.32-10.51l-.79.12s14.65,47.34,51.5,51.69l.07-1.46s-13.72.74-18.73-9.01,18.93,4.74,18.93,4.74l.08-1.68s-6.26-1.11-6.49-4.58c-.22-3.47,6.82-2.08,6.82-2.08l.04-.84s-6.88-2.75-7.22-10.54,6.19-7.16,6.19-7.16ZM463.69,192.74c1.54,1.68,9.44,12.1,7,12.95-2.44.84-11.18-8.29-11.18-9.85s2.63-4.77,4.18-3.1ZM470.11,211.11c-.69.15-3.37-4.33-2.31-5.41.33-.34,1.68.5,2.31,1.25.62.73.69,4.01,0,4.16ZM489.98,223.77c-.69.15-5.94-1.96-5.37-4.43.12-.52,2.02-1.19,3.65,0,.74.54,2.41,4.28,1.72,4.43ZM471.68,219.11c-6.45-.43-17.33-16.4-17.25-20.1.03-1.67.77-1.53,4.1-.83,3.33.69,17.57,21.23,13.15,20.94ZM476.9,196.79c-1.37.3-6.68-8.75-4.57-10.91.66-.68,3.34,1.02,4.57,2.51,1.23,1.49,1.37,8.11,0,8.4Z"/>
        </g>
        <g id="Layer_7" data-name="Layer 7">
          <path id="toile3" class="cls-16" d="M228.38,239.42s-26.48,41.23-27.75,37.4c-1.27-3.82,10.25-25.4,10.25-25.4l-1.6-2.03c-10.82,34.89-54.47,60.84-54.47,60.84l.14,6.7c16.7-6.54,32.99-29.04,34.84-23.37,1.8,5.51-34.36,34.85-34.36,34.85l-.24.56s7.76-1.11,7.45,1.65c-.3,2.76-7.33,4.14-7.33,4.14v.44s26.86-8.36,21-1.92c-5.87,6.45-20.88,10.31-20.88,10.31v1.01c65.65-22.12,75.39-109.25,75.39-109.25l-2.44,4.06ZM195.83,315.67c-5.93,8.18-14.82,11.64-15.81,11.89-3.81.93,18.35-30.99,23.92-32.59,5.58-1.6-2.18,12.53-8.11,20.71ZM207.12,299.66c-1.08-.4,2.19-12.03,5.58-11.98,3.39.07-4,12.56-5.58,11.98ZM212.95,277.53c-2.19,3.24-8.49,5.27-10.33,4.69-2.68-.85,8.86-15.77,10.23-16.04,1.38-.28,2.33,8.07.1,11.35Z"/>
        </g>
        <g id="Layer_6" data-name="Layer 6">
          <path id="toile2" class="cls-16" d="M565.66,98.62s-17.75,12.21-32.19,13.86c-14.44,1.64,1.73-13.86,1.73-13.86h-1.73s-16.94,11.52-27.19,8.63c-10.25-2.88,6.72-8.63,6.72-8.63h-1.97s-27,8.12-69.88,7.12c-42.87-1-50.74-7.12-50.74-7.12h-3.11s19.98,6,22.11,10c2.12,4-36.72-10-36.72-10h-3.26s5.08,5.94-3.91,8.63c-9,2.7-42.17-8.63-42.17-8.63h-4.02s40.18,22.02,112.69,33.26c72.5,11.24,136.94-33.26,136.94-33.26h-3.31ZM421.7,128.99c-24.84-2.63-59.5-15.03-56.17-15.7,25.49-5.17,85.17,12.66,84.67,13.83-.5,1.17-3.67,4.5-28.5,1.87ZM444.15,131.68c-1.07-.29,8.07-3.68,14-2.94,5.94.76,9.37,2.93,9.26,3.76-.12.82-17.01.89-23.26-.82ZM467.41,110.49c-15.49,2.12-33.58-3.22-31.05-3.24,31.84-.24,49.25-3.75,49.59-2.13.34,1.62-3.04,3.25-18.54,5.37ZM524.95,109.7c-1.92,1.5-5.75.5-6.75,0-1.22-.6,7.91-6.58,9.91-6.58s-1.25,5.08-3.16,6.58Z"/>
        </g>
        <g id="Layer_5" data-name="Layer 5">
          <path id="toile1" class="cls-16" d="M676.14,254.13s-11.57,8.8-18.69,7.43c-7.12-1.36,8.92-14.85,8.92-14.85l-1.66.17s-5.94,9.65-12.08,8.66c-6.14-.99-.17-17.2-.17-17.2l.1-2.4s-15.21,17.33-23.21,14.22c-11.86-4.61-14.54-21.04-14.54-21.04l-.59.28s2.66,7.19,2.13,10.31c-.53,3.11-7.72-15.81-7.72-15.81l-.71-.06s2.7,9.36-1.15,9.66c-3.84.3-4.38-9.9-4.38-9.9h-.46s-2.16,19.95,18.92,34.14c26.03,17.53,57.8-3.64,57.8-3.64h-2.52ZM608.22,243.83c-2.64-3.11-4.7-9.11-3.31-9.52.59-.17,2.05.38,3.1,1.38,1.05,1,2.86,11.25.21,8.14ZM648.72,253.83c.42.08,2.41,1.73,2.58,2.37.17.64-2.96.4-3.48-.34-.32-.45.49-2.11.91-2.04ZM644.87,247.09c1.23.02,4.67,7.53,1.78,8.44-2.88.91-11.57-.39-11.11-2.45s7.73-6.01,9.33-5.99ZM627.97,256.37c-.57-.81,6.47-1.26,8.74-1.07,2.27.18,3.61,1.29,3.61,1.61,0,.31-2.17,1.97-2.89,2.2-2.76.9-8.26-1.02-9.46-2.74ZM640.11,263.59c-6.98-.46-8.22-1.92-8.78-2.55-1.67-1.89,19.53-1.24,21.58.53,2.05,1.77-5.82,2.48-12.8,2.02Z"/>
        </g>
        <g id="Layer_4" data-name="Layer 4">
          <g id="rocks">
            <path class="cls-18" d="M359.55,355.91c-.83.41-1.65.87-2.48,1.27-.27.13-.86.32-.96.65-.15.48.64.95,1.02,1.03.24.05.51,0,.76.04.25.05.36.28.74.22.38-.07.76-.41,1-.74.6-.82,1.2-1.98-.34-1.95l.27-.54Z"/>
            <path class="cls-18" d="M363.56,358.59c.53.01,2.2-.76,2.43-.01.28.87-1.17,1.09-1.56,1.31-.32-.41-1.03-.45-1.14-1.03l.27-.27Z"/>
            <path class="cls-18" d="M371.26,352.5c0-.2-.47.14-.47.27,0,.11.2.17.27.19.12.03.21.07.33.08.19.02.63-.06.35-.29-.08-.07-.6-.38-.62-.18l.13-.07Z"/>
            <path class="cls-18" d="M373.6,356.78s-.04,0-.06-.01c.02-.14.14-.13.21-.06.07.07.1.18.13.27.1.27-.05.39-.32.4-.12,0-.26.02-.37,0-.14-.02-.17-.08-.13-.24.03-.13.23-.48.4-.43l.13.07Z"/>
            <path class="cls-18" d="M390,361c-.24.18-.43.49-.59.75-.09.15-.21.23-.03.34.14.09.33.13.49.18.28.1.59.14.87.27.24.11.64.12.86-.02.17-.1.21-.21.27-.38.05-.13.07-.25.07-.4,0-.2,0-.31-.12-.47-.08-.1-.24-.22-.35-.28-.12-.07-.3-.14-.42-.17-.14-.03-.25-.1-.39-.13-.36-.09-.67.1-.87.39l.2-.07Z"/>
            <path class="cls-18" d="M393.08,362.34c-.36-.07.07-.52.2-.6.29-.18.47.09.59.33.15.32.07.52-.32.47-.07,0-.1-.04-.15-.05-.08-.02-.17,0-.26-.01-.11-.02-.23-.09-.33-.14h.27Z"/>
            <path class="cls-18" d="M398.1,359.79c.03-.15.29-.29.4-.24.17.09.26.33.2.51-.07.22-.25.2-.4.13-.09-.04-.21-.04-.31-.1-.07-.04-.2-.23-.03-.24l.13-.07Z"/>
            <path class="cls-18" d="M393.57,329.03c-.12.15-.24.27-.27.47-.03.27.16.26.34.33.25.11.82.29,1.04,0,.09-.12.24-.32.24-.47,0-.13-.04-.13-.15-.18-.09-.04-.16-.1-.25-.14-.17-.07-.48-.17-.66-.13-.12.03-.38.17-.42.32l.13-.2Z"/>
            <path class="cls-18" d="M395.24,330.97s-.09,0-.13-.01c.01-.08.25-.32.33-.36.18-.09.27.1.32.25.06.2.03.36-.18.39-.11.01-.18-.01-.27-.07-.06-.04-.13-.12-.2-.13l.13-.07Z"/>
            <path class="cls-18" d="M410.69,363.27c-.06.02-.12,0-.15-.06-.13.05-.28.12-.41.19-.14.07-.31.13-.13.26.12.09.27.12.41.16.14.04.33.1.48.12.18.02.96.03.76-.29-.07-.11-.23-.21-.33-.27-.17-.1-.28-.11-.49-.12h-.13Z"/>
            <path class="cls-18" d="M393.02,360.8c-.07,0-.29,0-.26.12.02.07.2.12.26.14.13.03.27.02.4.02.1,0,.28.03.36,0,.24-.11-.09-.27-.2-.32-.21-.1-.34-.19-.56-.08v.13Z"/>
            <path class="cls-18" d="M395.56,363.01c.38-.19.78-.19,1.2-.2.17,0,.41.06.4.27,0,.17-.12.29-.24.4-.29.3-.71.2-1.07.13-.12-.03-.33-.11-.42-.21-.14-.15-.1-.41.12-.45v.07Z"/>
            <path class="cls-18" d="M399.71,363.88s0-.04.01-.05c.09,0,.14-.07.22-.08.12-.02.2.01.31.05.18.07.28.22.17.42-.09.16-.29.15-.44.1-.18-.07-.25-.17-.28-.36-.02,0-.04,0-.06-.01l.07-.07Z"/>
            <path class="cls-18" d="M269.19,350.38c-.31.24-.56.65-.77.99-.12.19-.28.3-.04.45.19.12.43.17.64.24.37.13.77.18,1.15.35.32.14.84.16,1.14-.02.22-.13.28-.28.36-.51.06-.18.09-.33.09-.53,0-.26,0-.41-.15-.62-.1-.13-.31-.29-.46-.37-.16-.09-.4-.18-.55-.22-.18-.04-.33-.13-.51-.18-.48-.12-.88.14-1.15.51l.26-.09Z"/>
            <path class="cls-18" d="M284.6,349.93c-.47-.1.09-.68.26-.79.38-.24.62.12.77.44.2.42.09.68-.42.62-.09-.01-.13-.06-.19-.07-.11-.02-.23,0-.34-.02-.14-.03-.3-.11-.44-.18h.35Z"/>
            <path class="cls-18" d="M291.21,346.59c.04-.2.38-.39.53-.31.22.11.34.44.27.67-.09.3-.32.26-.53.17-.12-.05-.27-.06-.4-.13-.1-.05-.26-.31-.04-.31l.18-.09Z"/>
            <path class="cls-18" d="M255.57,352.05c.04-.2.38-.39.53-.31.22.11.34.44.27.67-.09.3-.32.26-.53.17-.12-.05-.27-.06-.4-.13-.1-.05-.26-.31-.04-.31l.18-.09Z"/>
            <path class="cls-18" d="M310.11,340.11c-.08.02-.15,0-.2-.07-.17.06-.37.16-.54.25-.18.09-.41.18-.17.34.16.11.36.16.54.21.19.05.43.14.63.16.24.03,1.26.04,1-.38-.1-.15-.3-.27-.44-.35-.22-.13-.37-.15-.64-.15h-.18Z"/>
            <path class="cls-18" d="M284.51,347.91c-.09,0-.38-.01-.34.15.02.09.27.16.34.18.17.04.35.02.53.02.13,0,.37.04.48,0,.31-.14-.12-.36-.27-.42-.28-.13-.44-.25-.74-.1v.18Z"/>
            <path class="cls-18" d="M287.86,350.82c.5-.25,1.02-.26,1.59-.26.22,0,.54.08.53.35,0,.22-.16.38-.31.53-.39.39-.94.27-1.4.17-.16-.03-.43-.14-.56-.27-.18-.2-.13-.54.15-.6v.09Z"/>
            <path class="cls-18" d="M300.02,345.46c.5-.25,1.02-.26,1.59-.26.22,0,.54.08.53.35,0,.22-.16.38-.31.53-.39.39-.94.27-1.4.17-.16-.03-.43-.14-.56-.27-.18-.2-.13-.54.15-.6v.09Z"/>
            <path class="cls-18" d="M293.32,351.96l.02-.07c.11,0,.18-.09.29-.11.16-.02.26.02.4.07.24.09.37.29.22.55-.12.21-.39.2-.58.13-.24-.09-.33-.22-.37-.47-.02,0-.05,0-.07-.01l.09-.09Z"/>
            <path class="cls-18" d="M338.13,354.36s.01-.05.02-.07c.11,0,.18-.09.29-.11.16-.02.26.02.4.07.24.09.37.29.22.55-.12.21-.39.2-.58.13-.24-.09-.33-.22-.37-.47-.02,0-.05,0-.07-.01l.09-.09Z"/>
            <path class="cls-18" d="M190.03,347.97c-.13-.15-.35,0-.5.03-.12.03-.38.03-.46.15-.13.19.54.54.69.59.22.07.73.25.87-.07.07-.16,0-.34-.11-.45-.15-.15-.28-.12-.49-.12v-.13Z"/>
            <path class="cls-18" d="M193.71,353.12s-.03,0-.04,0c.13.02.14-.05.24-.07.08-.02.22,0,.3,0,.16.04.39.09.52.18.17.11.22.25.12.42-.05.09-.08.09-.16.14-.07.05-.12.13-.21.16-.38.17-.81.03-1.21-.04-.21-.04-.43-.12-.64-.18-.16-.05-.42-.14-.46-.33.22-.23.61-.24.89-.29.16-.03.31-.09.47-.12.16-.03.34,0,.5,0l-.33.13Z"/>
            <path class="cls-18" d="M201.01,354.53s-.04,0-.05-.01c0-.04-.02-.08-.02-.11-.07,0-.13.04-.18.08.02.08.08.1.16.12.1.02.2.05.3.07.13.02.46.04.55-.05.26-.27-.75-.35-.89-.35l.13.27Z"/>
            <path class="cls-18" d="M173.9,354.66c-.34,0-.71.16-1,.27-.14.05-.4.07-.17.23.17.12.41.17.61.17.09,0,.18,0,.27,0,.11,0,.14.05.23.07.16.04.35-.01.47-.1.33-.23-.06-.54-.27-.7l-.13.07Z"/>
            <path class="cls-18" d="M166.8,356.2c-.08.04-.11.06-.2.07-.04,0-.1-.02-.14,0-.05.01-.06.05-.1.06-.17.04-.33.02-.49.09.06.18.53.12.7.12.22,0,.59.08.75-.08.09-.09.11-.19.09-.32-.02-.12-.06-.17-.2-.2-.12-.03-.3.04-.41.07-.11.03-.31.12-.4.2h.4Z"/>
            <path class="cls-18" d="M182.33,357.4h-.06c-.03-.11-.04-.3-.01-.41.01-.06.06-.07.07-.13.01-.05-.01-.11,0-.17.02-.08.1-.16.13-.24.05-.11.08-.22.18-.29.17-.11.43.01.59.09.18.08.38.15.52.32.14.17.25.39.19.62-.04.15-.25.39-.39.48-.17.12-.4.13-.62.12-.13,0-.65-.11-.67-.27l.07-.13Z"/>
            <path class="cls-18" d="M198.19,351.51c-.17-.02.11-.4.21-.46.2-.11.43.1.54.25.12.18.23.45.17.66-.06.19-.24.28-.41.36-.3.13-1.03.28-1.05-.24,0-.24-.03-.42.17-.57.18-.13.37-.23.56-.33l-.2.33Z"/>
            <path class="cls-18" d="M204.62,351.91s0-.07,0-.11c-.27.27-.02.45.26.44.16,0,.25.09.4.05.09-.02.28-.09.34-.15.24-.25-.15-.42-.33-.5-.18-.08-.68-.26-.74.07l.07.2Z"/>
            <path class="cls-18" d="M209.91,353.25s-.04,0-.06-.01c.02-.12.31-.35.42-.32.13.03.29.42.23.52-.11.18-.37.15-.53.08-.06-.02-.21-.07-.24-.13-.07-.15.15-.15.17-.27v.13Z"/>
            <path class="cls-18" d="M215.46,349.91v-.06c-.1-.03-.21-.01-.3-.01-.12,0-.16.03-.25.05-.1.03-.2,0-.3.03-.05.02-.14.08-.19.11-.08.05-.14.08-.08.2.02.04.12.12.16.15.15.1.45.19.63.2.29.02.77.03.92-.28.09-.18-.12-.36-.25-.42-.2-.1-.38-.1-.6-.1l.27.13Z"/>
            <path class="cls-18" d="M342.89,355.3c-.06-.22.17-.53.37-.63.12-.06.25-.02.37-.05.11-.03.14-.15.26-.16.44-.05.96.51,1.17.85.31.51.37,1.06.34,1.67-.04.82-.74.84-1.42.83-.65,0-1.21.03-1.82-.19-.47-.17-.93-.29-.93-.89,0-.59.26-.95.67-1.33.26-.24.95-.86,1.33-.75l-.33.67Z"/>
            <path class="cls-18" d="M346.73,359.64s.09.07.13.11c.08-.44.66-.63,1.03-.77.33-.12.55-.27.84,0,.23.21.33.46.33.76,0,.52-.23.89-.75.92-.61.03-.89-.21-1.25-.67l-.33-.33Z"/>
            <path class="cls-18" d="M540.42,357.95c-.19-.4-.2-.48,0-.92.18-.4.35-.78.66-1.09.46-.46.84-.87,1.5-.83.66.04,1.33.62,1.87.96.5.32,1.03.64,1.38,1.12.36.5.62.97.12,1.46-.43.43-1.01.63-1.62.63-.69,0-1.39,0-2.08,0-.32,0-.66.05-.96-.04-.23-.06-.64-.17-.7-.46l-.17-.83Z"/>
            <path class="cls-18" d="M549.76,357.78c-.71-.15-.03-.98.29-1.21.6-.43,1.07.32,1.33.76.13.21.29.42.34.66.11.53.07.64-.46.63-.74-.01-1.25-.26-1.5-1v.17Z"/>
            <path class="cls-18" d="M553.92,356.28s-.07-.02-.11-.04c.35-.28.72-.65,1.15-.34.17.12.69.67.64.88-.03.12-.28.26-.39.29-.32.08-.31-.04-.56-.11-.33-.1-.97-.1-1.07-.52l.33-.17Z"/>
            <path class="cls-18" d="M529.26,358.78c-.28.08-.18-.08-.37-.13-.16-.04-.3-.03-.46-.07-.24-.06-.55-.26-.77-.28-.59-.08-.89.69-.61,1.16.33.56,1.05.32,1.54.2.18-.04.69-.07.8-.23.25-.36-.17-.6-.47-.64h.33Z"/>
            <path class="cls-18" d="M516.42,361.45c-.3,0-1.03-.14-1.22.12-.12.16-.09.21.09.35.04.03.46.15.5.16.17.03,1.17.17,1.27,0,.32-.48-.63-.47-.81-.47l.17-.17Z"/>
            <path class="cls-18" d="M592.76,359.28c-.63-.55.67-2.19,1.04-2.62.32-.38.64-.75,1.12-.39.34.25.75.76,1,1.11.12.17.26.39.34.56.06.14.18.49.13.63-.13.36-.91.66-1.22.79-.18.07-.39.22-.57.25-.13.03-.28-.03-.41,0-.11.02-.14.13-.26.16-.52.13-1.01-.26-1.51-.34l.33-.17Z"/>
            <path class="cls-18" d="M597.59,354.95c-.06-.1-.1-.19-.14-.29.2-.17.38-.37.58-.55-.39-.03-.9.36-.65.72.32.46,1.16.28,1.63.29.43,0,1.21-.19.67-.67-.44-.38-1.03-.33-1.58-.33l-.5.83Z"/>
            <path class="cls-18" d="M605.42,359.11c.35-.25.59-.59,1-.75.44-.17.67.12.68.58,0,.34-.31.7-.67.68-.48-.03-.6-.59-1-.68v.17Z"/>
            <path class="cls-18" d="M679.46,350.83c-.59-.36.62-.67.83-.67.51,0,1.03.01,1.17.58.3,1.19-1.96.9-2.04-.04-.04-.01-.09-.02-.13-.03l.17.17Z"/>
            <path class="cls-18" d="M685.63,350.5c-.1-.06-.19-.1-.29-.14-.1.07-.17.16-.18.27.29.31.57.37.97.37.28,0,1.07.11,1.17-.27.06-.23-.39-.56-.58-.65-.36-.17-.86-.08-1.26-.08l.17.5Z"/>
            <path class="cls-18" d="M643.42,338.95s-.1-.02-.15-.04c.04-.33.77-.57,1.05-.45.35.15.65.69.23.95-.26.16-1.16.07-1.47.04-.22-.03-.43-.11-.46-.38-.03-.23.03-.4.3-.46l.5.33Z"/>
            <path class="cls-18" d="M678.29,345.17s.06,0,.09,0c-.27.36,1,.5,1.2.55.12.02.21.11.37.13.16.02.32,0,.47-.04.18-.05.5-.24.55-.45.29-1.16-2.29-1.71-2.68-.51v.33Z"/>
            <path class="cls-18" d="M719.92,351.45s-.09-.02-.14-.03c-.17-.46.14-1.04.35-1.43.24-.45.42-.71.92-.91.25-.1.26-.17.54-.05.21.09.46.26.67.38.44.24.9.51,1.25.88.36.38.27.57-.08.92-.27.26-.58.61-.93.74-.82.3-1.8.22-2.57-.15v-.33Z"/>
            <path class="cls-18" d="M726.26,351.11s-.1-.02-.15-.04c.02-.17.46-.61.64-.64.36-.07.62.36.98.37.07.56.48,1.03-.39,1.14-.34.04-1.23-.15-1.08-.67v-.17Z"/>
            <path class="cls-18" d="M716.7,346.11c-.37-.46-1.11-.06-1.25.33-.25.68.65.42,1.05.54.25.07.38.2.71.1.29-.09.44-.3.3-.6-.18-.36-.81-.53-1.13-.7l.33.33Z"/>
            <path class="cls-18" d="M749.76,356.78h-.11c.3.06.56-.29.95-.17.33.1.4.4.25.68-.31.56-1.44.32-1.26-.34l.17-.17Z"/>
            <path class="cls-18" d="M763.76,358.95c-.04.37-.45.49-.49.77-.05.34.58.27.83.23.43-.06.36-.18.2-.54-.17-.4-.23-.47-.71-.46h.17Z"/>
            <path class="cls-18" d="M604.09,364.11c-.42-.01-.02-.45.12-.55.25-.17.55-.2.7.14.05.11.07.89,0,.98-.2.27-.6.03-.83-.08v-.5Z"/>
            <path class="cls-18" d="M557.67,352.78c-.18-.65,1.18-1.05,1.17-.08,0,.19-.1.72-.2.88-.26.4-.51-.04-.8-.13l-.17-.67Z"/>
            <path class="cls-18" d="M517.42,333.11s-.1-.02-.15-.04c.02-.13.32-.48.48-.48.14,0,.47.36.55.47.37.54.1,1.34-.63,1.37-.34.01-1.37-.29-1.57-.58-.2-.28.07-.59.26-.72.29-.21.54-.18.9-.19l.17.17Z"/>
            <path class="cls-18" d="M525.92,332.78c-.33.07-.77.66-.35.85.38.17.96-.15,1.32-.2.08-.32.04-.54-.18-.77-.13-.13-.61-.45-.62-.04l-.17.17Z"/>
            <path class="cls-18" d="M493.26,334.28c-.45-.02.19-.71.37-.8.4-.2.92.31,1.22.53.42.32.55.53.02.79-.53.26-.87-.03-1.44-.02l-.17-.5Z"/>
          </g>
        </g>
        <g id="Layer_3" data-name="Layer 3">
          <rect id="rectangle" class="cls-11" x="156.18" y="98.62" width="600" height="270"/>
        </g>
      </g>
    </g>
  </g>
</svg>