<?xml version="1.0" encoding="UTF-8"?>
<svg xmlns="http://www.w3.org/2000/svg" xmlns:xlink="http://www.w3.org/1999/xlink" viewBox="0 0 300 243.21">
  <defs>
    <style>
      .cls-1 {
        fill: url(#_ÂÁ_Ï_ÌÌ_È_ËÂÌÚ_62-3);
      }

      .cls-1, .cls-2, .cls-3, .cls-4, .cls-5, .cls-6, .cls-7, .cls-8, .cls-9, .cls-10, .cls-11, .cls-12, .cls-13, .cls-14, .cls-15, .cls-16, .cls-17, .cls-18, .cls-19, .cls-20, .cls-21, .cls-22, .cls-23, .cls-24, .cls-25, .cls-26, .cls-27, .cls-28, .cls-29, .cls-30, .cls-31, .cls-32, .cls-33, .cls-34, .cls-35, .cls-36, .cls-37, .cls-38, .cls-39, .cls-40, .cls-41, .cls-42, .cls-43, .cls-44, .cls-45, .cls-46, .cls-47, .cls-48, .cls-49, .cls-50, .cls-51, .cls-52, .cls-53, .cls-54, .cls-55, .cls-56, .cls-57, .cls-58, .cls-59, .cls-60, .cls-61, .cls-62, .cls-63, .cls-64, .cls-65, .cls-66, .cls-67, .cls-68, .cls-69, .cls-70, .cls-71, .cls-72, .cls-73, .cls-74, .cls-75, .cls-76, .cls-77, .cls-78, .cls-79, .cls-80, .cls-81, .cls-82, .cls-83, .cls-84, .cls-85, .cls-86, .cls-87, .cls-88, .cls-89, .cls-90 {
        stroke-width: 0px;
      }

      .cls-2 {
        fill: url(#_ÂÁ_Ï_ÌÌ_È_ËÂÌÚ_681);
      }

      .cls-2, .cls-4, .cls-7, .cls-8, .cls-10, .cls-11, .cls-12, .cls-14, .cls-15, .cls-17, .cls-27, .cls-31, .cls-39, .cls-42, .cls-43, .cls-44, .cls-48, .cls-49, .cls-55, .cls-56, .cls-57, .cls-58, .cls-62, .cls-65, .cls-67, .cls-69, .cls-73, .cls-75, .cls-78, .cls-80, .cls-85, .cls-86, .cls-88, .cls-89 {
        mix-blend-mode: multiply;
      }

      .cls-2, .cls-7, .cls-14, .cls-17, .cls-42, .cls-43, .cls-44, .cls-49, .cls-55, .cls-80, .cls-86, .cls-88 {
        opacity: .2;
      }

      .cls-3 {
        fill: url(#_ÂÁ_Ï_ÌÌ_È_ËÂÌÚ_928-4);
      }

      .cls-4 {
        fill: url(#_ÂÁ_Ï_ÌÌ_È_ËÂÌÚ_681-10);
      }

      .cls-4, .cls-8, .cls-11, .cls-12, .cls-15, .cls-31, .cls-39, .cls-48, .cls-56, .cls-57, .cls-58, .cls-62, .cls-65, .cls-67, .cls-69, .cls-75, .cls-76 {
        opacity: .6;
      }

      .cls-5 {
        fill: url(#_ÂÁ_Ï_ÌÌ_È_ËÂÌÚ_733);
      }

      .cls-6 {
        fill: url(#_ÂÁ_Ï_ÌÌ_È_ËÂÌÚ_50);
      }

      .cls-7 {
        fill: url(#_ÂÁ_Ï_ÌÌ_È_ËÂÌÚ_681-7);
      }

      .cls-8 {
        fill: url(#_ÂÁ_Ï_ÌÌ_È_ËÂÌÚ_53-9);
      }

      .cls-9 {
        fill: #882c52;
      }

      .cls-10 {
        fill: url(#_ÂÁ_Ï_ÌÌ_È_ËÂÌÚ_24);
      }

      .cls-10, .cls-22, .cls-26, .cls-30, .cls-33, .cls-41, .cls-51, .cls-54, .cls-59, .cls-66, .cls-72, .cls-81, .cls-82, .cls-87 {
        opacity: .4;
      }

      .cls-11 {
        fill: url(#_ÂÁ_Ï_ÌÌ_È_ËÂÌÚ_53-8);
      }

      .cls-12 {
        fill: url(#_ÂÁ_Ï_ÌÌ_È_ËÂÌÚ_53-10);
      }

      .cls-13 {
        fill: #2e0d14;
      }

      .cls-14 {
        fill: url(#_ÂÁ_Ï_ÌÌ_È_ËÂÌÚ_681-9);
      }

      .cls-15 {
        fill: url(#_ÂÁ_Ï_ÌÌ_È_ËÂÌÚ_53);
      }

      .cls-16, .cls-36 {
        fill: #2c0502;
      }

      .cls-16, .cls-47, .cls-52 {
        fill-rule: evenodd;
      }

      .cls-17 {
        fill: url(#_ÂÁ_Ï_ÌÌ_È_ËÂÌÚ_37-3);
      }

      .cls-18 {
        fill: url(#_ÂÁ_Ï_ÌÌ_È_ËÂÌÚ_935-3);
      }

      .cls-19 {
        fill: url(#_ÂÁ_Ï_ÌÌ_È_ËÂÌÚ_59);
      }

      .cls-20 {
        fill: url(#_ÂÁ_Ï_ÌÌ_È_ËÂÌÚ_55);
      }

      .cls-21, .cls-27, .cls-48 {
        fill: #ba3e03;
      }

      .cls-22 {
        fill: url(#_ÂÁ_Ï_ÌÌ_È_ËÂÌÚ_828-2);
      }

      .cls-22, .cls-26, .cls-30, .cls-32, .cls-33, .cls-41, .cls-50, .cls-51, .cls-54, .cls-59, .cls-66, .cls-72, .cls-76, .cls-81, .cls-82, .cls-87 {
        mix-blend-mode: screen;
      }

      .cls-23 {
        fill: url(#_ÂÁ_Ï_ÌÌ_È_ËÂÌÚ_84);
      }

      .cls-24 {
        fill: url(#_ÂÁ_Ï_ÌÌ_È_ËÂÌÚ_928);
      }

      .cls-25 {
        fill: url(#_ÂÁ_Ï_ÌÌ_È_ËÂÌÚ_50-2);
      }

      .cls-91 {
        clip-path: url(#clippath-2);
      }

      .cls-26 {
        fill: url(#_ÂÁ_Ï_ÌÌ_È_ËÂÌÚ_36);
      }

      .cls-92 {
        isolation: isolate;
      }

      .cls-27 {
        opacity: .8;
      }

      .cls-28 {
        fill: #3e1d26;
      }

      .cls-29 {
        fill: url(#_ÂÁ_Ï_ÌÌ_È_ËÂÌÚ_928-3);
      }

      .cls-30 {
        fill: url(#_ÂÁ_Ï_ÌÌ_È_ËÂÌÚ_36-8);
      }

      .cls-31 {
        fill: url(#_ÂÁ_Ï_ÌÌ_È_ËÂÌÚ_53-4);
      }

      .cls-32 {
        fill: url(#_ÂÁ_Ï_ÌÌ_È_ËÂÌÚ_828-6);
      }

      .cls-32, .cls-50 {
        opacity: .47;
      }

      .cls-33 {
        fill: url(#_ÂÁ_Ï_ÌÌ_È_ËÂÌÚ_828-3);
      }

      .cls-34 {
        fill: #c84977;
      }

      .cls-35 {
        fill: none;
      }

      .cls-37, .cls-50 {
        fill: #9a2226;
      }

      .cls-38 {
        fill: url(#_ÂÁ_Ï_ÌÌ_È_ËÂÌÚ_50-3);
      }

      .cls-39 {
        fill: url(#_ÂÁ_Ï_ÌÌ_È_ËÂÌÚ_53-7);
      }

      .cls-40 {
        fill: url(#_ÂÁ_Ï_ÌÌ_È_ËÂÌÚ_745);
      }

      .cls-41 {
        fill: url(#_ÂÁ_Ï_ÌÌ_È_ËÂÌÚ_36-2);
      }

      .cls-42 {
        fill: url(#_ÂÁ_Ï_ÌÌ_È_ËÂÌÚ_681-5);
      }

      .cls-43 {
        fill: url(#_ÂÁ_Ï_ÌÌ_È_ËÂÌÚ_37);
      }

      .cls-44 {
        fill: url(#_ÂÁ_Ï_ÌÌ_È_ËÂÌÚ_681-4);
      }

      .cls-45 {
        fill: url(#_ÂÁ_Ï_ÌÌ_È_ËÂÌÚ_55-2);
      }

      .cls-46 {
        fill: url(#_ÂÁ_Ï_ÌÌ_È_ËÂÌÚ_928-2);
      }

      .cls-47 {
        fill: url(#linear-gradient);
      }

      .cls-49 {
        fill: url(#_ÂÁ_Ï_ÌÌ_È_ËÂÌÚ_681-3);
      }

      .cls-51 {
        fill: url(#_ÂÁ_Ï_ÌÌ_È_ËÂÌÚ_36-3);
      }

      .cls-52 {
        fill: #40011b;
      }

      .cls-53 {
        fill: url(#_ÂÁ_Ï_ÌÌ_È_ËÂÌÚ_935);
      }

      .cls-54 {
        fill: url(#_ÂÁ_Ï_ÌÌ_È_ËÂÌÚ_828-4);
      }

      .cls-55 {
        fill: url(#_ÂÁ_Ï_ÌÌ_È_ËÂÌÚ_681-8);
      }

      .cls-56 {
        fill: url(#_ÂÁ_Ï_ÌÌ_È_ËÂÌÚ_681-11);
      }

      .cls-57 {
        fill: url(#_ÂÁ_Ï_ÌÌ_È_ËÂÌÚ_53-3);
      }

      .cls-93 {
        clip-path: url(#clippath);
      }

      .cls-58 {
        fill: url(#_ÂÁ_Ï_ÌÌ_È_ËÂÌÚ_53-12);
      }

      .cls-59 {
        fill: url(#_ÂÁ_Ï_ÌÌ_È_ËÂÌÚ_828-5);
      }

      .cls-60 {
        fill: url(#_ÂÁ_Ï_ÌÌ_È_ËÂÌÚ_935-4);
      }

      .cls-61 {
        fill: #260319;
      }

      .cls-62 {
        fill: url(#_ÂÁ_Ï_ÌÌ_È_ËÂÌÚ_681-12);
      }

      .cls-63 {
        fill: #1a0733;
      }

      .cls-64 {
        fill: url(#_ÂÁ_Ï_ÌÌ_È_ËÂÌÚ_935-2);
      }

      .cls-65 {
        fill: url(#_ÂÁ_Ï_ÌÌ_È_ËÂÌÚ_53-2);
      }

      .cls-66 {
        fill: url(#_ÂÁ_Ï_ÌÌ_È_ËÂÌÚ_36-7);
      }

      .cls-67 {
        fill: url(#_ÂÁ_Ï_ÌÌ_È_ËÂÌÚ_53-6);
      }

      .cls-68 {
        fill: #34306e;
      }

      .cls-69 {
        fill: url(#_ÂÁ_Ï_ÌÌ_È_ËÂÌÚ_53-5);
      }

      .cls-70 {
        fill: #290d24;
      }

      .cls-71 {
        fill: url(#_ÂÁ_Ï_ÌÌ_È_ËÂÌÚ_62);
      }

      .cls-72 {
        fill: url(#_ÂÁ_Ï_ÌÌ_È_ËÂÌÚ_828);
      }

      .cls-73 {
        fill: url(#_ÂÁ_Ï_ÌÌ_È_ËÂÌÚ_53-16);
      }

      .cls-73, .cls-78, .cls-85, .cls-89 {
        opacity: .7;
      }

      .cls-74 {
        fill: url(#_ÂÁ_Ï_ÌÌ_È_ËÂÌÚ_50-4);
      }

      .cls-75 {
        fill: url(#_ÂÁ_Ï_ÌÌ_È_ËÂÌÚ_53-11);
      }

      .cls-76 {
        fill: url(#_ÂÁ_Ï_ÌÌ_È_ËÂÌÚ_14);
      }

      .cls-77 {
        fill: url(#_ÂÁ_Ï_ÌÌ_È_ËÂÌÚ_916);
      }

      .cls-78 {
        fill: url(#_ÂÁ_Ï_ÌÌ_È_ËÂÌÚ_53-13);
      }

      .cls-79 {
        fill: url(#_ÂÁ_Ï_ÌÌ_È_ËÂÌÚ_35);
      }

      .cls-80 {
        fill: url(#_ÂÁ_Ï_ÌÌ_È_ËÂÌÚ_681-2);
      }

      .cls-81 {
        fill: url(#_ÂÁ_Ï_ÌÌ_È_ËÂÌÚ_36-5);
      }

      .cls-82 {
        fill: url(#_ÂÁ_Ï_ÌÌ_È_ËÂÌÚ_36-6);
      }

      .cls-83 {
        fill: #330b2b;
      }

      .cls-84 {
        fill: url(#_ÂÁ_Ï_ÌÌ_È_ËÂÌÚ_62-2);
      }

      .cls-85 {
        fill: url(#_ÂÁ_Ï_ÌÌ_È_ËÂÌÚ_53-15);
      }

      .cls-86 {
        fill: url(#_ÂÁ_Ï_ÌÌ_È_ËÂÌÚ_681-6);
      }

      .cls-87 {
        fill: url(#_ÂÁ_Ï_ÌÌ_È_ËÂÌÚ_36-4);
      }

      .cls-88 {
        fill: url(#_ÂÁ_Ï_ÌÌ_È_ËÂÌÚ_37-2);
      }

      .cls-89 {
        fill: url(#_ÂÁ_Ï_ÌÌ_È_ËÂÌÚ_53-14);
      }

      .cls-90 {
        fill: url(#_ÂÁ_Ï_ÌÌ_È_ËÂÌÚ_733-2);
      }
    </style>
    <clipPath id="clippath">
      <rect class="cls-35" y=".21" width="300" height="243"/>
    </clipPath>
    <linearGradient id="_ÂÁ_Ï_ÌÌ_È_ËÂÌÚ_62" data-name="¡ÂÁ˚ÏˇÌÌ˚È „‡‰ËÂÌÚ 62" x1="156.88" y1="224.14" x2="155.2" y2="34.94" gradientUnits="userSpaceOnUse">
      <stop offset="0" stop-color="#4e0021"/>
      <stop offset=".02" stop-color="#4a0022"/>
      <stop offset=".12" stop-color="#340329"/>
      <stop offset=".24" stop-color="#25052e"/>
      <stop offset=".38" stop-color="#1c0632"/>
      <stop offset=".58" stop-color="#1a0733"/>
    </linearGradient>
    <linearGradient id="_ÂÁ_Ï_ÌÌ_È_ËÂÌÚ_62-2" data-name="¡ÂÁ˚ÏˇÌÌ˚È „‡‰ËÂÌÚ 62" x1="152.86" y1="210.73" x2="158.48" y2="46.81" xlink:href="#_ÂÁ_Ï_ÌÌ_È_ËÂÌÚ_62"/>
    <linearGradient id="_ÂÁ_Ï_ÌÌ_È_ËÂÌÚ_84" data-name="¡ÂÁ˚ÏˇÌÌ˚È „‡‰ËÂÌÚ 84" x1="157" y1="4.08" x2="158.02" y2="208.33" gradientUnits="userSpaceOnUse">
      <stop offset="0" stop-color="#382041"/>
      <stop offset=".53" stop-color="#6f3054"/>
      <stop offset="1" stop-color="#432050"/>
    </linearGradient>
    <linearGradient id="_ÂÁ_Ï_ÌÌ_È_ËÂÌÚ_916" data-name="¡ÂÁ˚ÏˇÌÌ˚È „‡‰ËÂÌÚ 916" x1="157.19" y1="192.3" x2="157.19" y2="31.96" gradientUnits="userSpaceOnUse">
      <stop offset="0" stop-color="#863c56"/>
      <stop offset="1" stop-color="#442351"/>
    </linearGradient>
    <linearGradient id="_ÂÁ_Ï_ÌÌ_È_ËÂÌÚ_745" data-name="¡ÂÁ˚ÏˇÌÌ˚È „‡‰ËÂÌÚ 745" x1="157.45" y1="220.09" x2="156.08" y2="-8.34" gradientUnits="userSpaceOnUse">
      <stop offset="0" stop-color="#41314f"/>
      <stop offset=".56" stop-color="#49325e"/>
      <stop offset="1" stop-color="#521d37"/>
    </linearGradient>
    <linearGradient id="_ÂÁ_Ï_ÌÌ_È_ËÂÌÚ_62-3" data-name="¡ÂÁ˚ÏˇÌÌ˚È „‡‰ËÂÌÚ 62" x1="159.54" y1="215.86" x2="156.47" y2="29.65" xlink:href="#_ÂÁ_Ï_ÌÌ_È_ËÂÌÚ_62"/>
    <linearGradient id="_ÂÁ_Ï_ÌÌ_È_ËÂÌÚ_733" data-name="¡ÂÁ˚ÏˇÌÌ˚È „‡‰ËÂÌÚ 733" x1="79.81" y1="115.85" x2="89.45" y2="120.12" gradientUnits="userSpaceOnUse">
      <stop offset="0" stop-color="#863c56"/>
      <stop offset="1" stop-color="#572977"/>
    </linearGradient>
    <linearGradient id="_ÂÁ_Ï_ÌÌ_È_ËÂÌÚ_733-2" data-name="¡ÂÁ˚ÏˇÌÌ˚È „‡‰ËÂÌÚ 733" x1="113.74" y1="33.43" x2="121.26" y2="33.43" xlink:href="#_ÂÁ_Ï_ÌÌ_È_ËÂÌÚ_733"/>
    <linearGradient id="_ÂÁ_Ï_ÌÌ_È_ËÂÌÚ_828" data-name="¡ÂÁ˚ÏˇÌÌ˚È „‡‰ËÂÌÚ 828" x1="37.81" y1="149.52" x2="100.36" y2="125.52" gradientUnits="userSpaceOnUse">
      <stop offset=".01" stop-color="#ff5e45"/>
      <stop offset=".37" stop-color="#973829"/>
      <stop offset=".68" stop-color="#461913"/>
      <stop offset=".89" stop-color="#130705"/>
      <stop offset="1" stop-color="#000"/>
    </linearGradient>
    <linearGradient id="_ÂÁ_Ï_ÌÌ_È_ËÂÌÚ_828-2" data-name="¡ÂÁ˚ÏˇÌÌ˚È „‡‰ËÂÌÚ 828" x1="271.05" y1="119.76" x2="206.88" y2="91.51" xlink:href="#_ÂÁ_Ï_ÌÌ_È_ËÂÌÚ_828"/>
    <linearGradient id="_ÂÁ_Ï_ÌÌ_È_ËÂÌÚ_681" data-name="¡ÂÁ˚ÏˇÌÌ˚È „‡‰ËÂÌÚ 681" x1="116.89" y1="31.54" x2="103.36" y2="184.22" gradientUnits="userSpaceOnUse">
      <stop offset="0" stop-color="#3e0f33"/>
      <stop offset="1" stop-color="#ad6043"/>
    </linearGradient>
    <linearGradient id="_ÂÁ_Ï_ÌÌ_È_ËÂÌÚ_681-2" data-name="¡ÂÁ˚ÏˇÌÌ˚È „‡‰ËÂÌÚ 681" x1="120.09" y1="31.82" x2="106.56" y2="184.51" xlink:href="#_ÂÁ_Ï_ÌÌ_È_ËÂÌÚ_681"/>
    <linearGradient id="_ÂÁ_Ï_ÌÌ_È_ËÂÌÚ_828-3" data-name="¡ÂÁ˚ÏˇÌÌ˚È „‡‰ËÂÌÚ 828" x1="183.19" y1="162.94" x2="214.85" y2="156.82" xlink:href="#_ÂÁ_Ï_ÌÌ_È_ËÂÌÚ_828"/>
    <linearGradient id="_ÂÁ_Ï_ÌÌ_È_ËÂÌÚ_828-4" data-name="¡ÂÁ˚ÏˇÌÌ˚È „‡‰ËÂÌÚ 828" x1="188.15" y1="188.53" x2="219.81" y2="182.4" xlink:href="#_ÂÁ_Ï_ÌÌ_È_ËÂÌÚ_828"/>
    <linearGradient id="_ÂÁ_Ï_ÌÌ_È_ËÂÌÚ_681-3" data-name="¡ÂÁ˚ÏˇÌÌ˚È „‡‰ËÂÌÚ 681" x1="114.56" y1="31.33" x2="101.03" y2="184.02" xlink:href="#_ÂÁ_Ï_ÌÌ_È_ËÂÌÚ_681"/>
    <linearGradient id="_ÂÁ_Ï_ÌÌ_È_ËÂÌÚ_828-5" data-name="¡ÂÁ˚ÏˇÌÌ˚È „‡‰ËÂÌÚ 828" x1="145.98" y1="110.94" x2="95.17" y2="84.64" xlink:href="#_ÂÁ_Ï_ÌÌ_È_ËÂÌÚ_828"/>
    <linearGradient id="_ÂÁ_Ï_ÌÌ_È_ËÂÌÚ_681-4" data-name="¡ÂÁ˚ÏˇÌÌ˚È „‡‰ËÂÌÚ 681" x1="122.07" y1="32" x2="108.54" y2="184.68" xlink:href="#_ÂÁ_Ï_ÌÌ_È_ËÂÌÚ_681"/>
    <linearGradient id="_ÂÁ_Ï_ÌÌ_È_ËÂÌÚ_681-5" data-name="¡ÂÁ˚ÏˇÌÌ˚È „‡‰ËÂÌÚ 681" x1="206.88" y1="39.52" x2="193.35" y2="192.2" xlink:href="#_ÂÁ_Ï_ÌÌ_È_ËÂÌÚ_681"/>
    <linearGradient id="_ÂÁ_Ï_ÌÌ_È_ËÂÌÚ_681-6" data-name="¡ÂÁ˚ÏˇÌÌ˚È „‡‰ËÂÌÚ 681" x1="212.28" y1="40" x2="198.75" y2="192.68" xlink:href="#_ÂÁ_Ï_ÌÌ_È_ËÂÌÚ_681"/>
    <linearGradient id="_ÂÁ_Ï_ÌÌ_È_ËÂÌÚ_681-7" data-name="¡ÂÁ˚ÏˇÌÌ˚È „‡‰ËÂÌÚ 681" x1="197.54" y1="38.69" x2="184" y2="191.37" xlink:href="#_ÂÁ_Ï_ÌÌ_È_ËÂÌÚ_681"/>
    <linearGradient id="_ÂÁ_Ï_ÌÌ_È_ËÂÌÚ_681-8" data-name="¡ÂÁ˚ÏˇÌÌ˚È „‡‰ËÂÌÚ 681" x1="157.72" y1="35.16" x2="144.19" y2="187.84" xlink:href="#_ÂÁ_Ï_ÌÌ_È_ËÂÌÚ_681"/>
    <linearGradient id="_ÂÁ_Ï_ÌÌ_È_ËÂÌÚ_681-9" data-name="¡ÂÁ˚ÏˇÌÌ˚È „‡‰ËÂÌÚ 681" x1="177.99" y1="36.96" x2="164.46" y2="189.64" xlink:href="#_ÂÁ_Ï_ÌÌ_È_ËÂÌÚ_681"/>
    <clipPath id="clippath-2">
      <path class="cls-35" d="M193.03,213.33l-73.25-.28-1.88-107.52s.69-33.39,40.43-33.24c35.01.13,39.68,33.52,39.68,33.52l-4.99,107.53Z"/>
    </clipPath>
    <radialGradient id="_ÂÁ_Ï_ÌÌ_È_ËÂÌÚ_59" data-name="¡ÂÁ˚ÏˇÌÌ˚È „‡‰ËÂÌÚ 59" cx="156.22" cy="219.08" fx="156.22" fy="219.08" r="117.61" gradientUnits="userSpaceOnUse">
      <stop offset=".02" stop-color="#b02222"/>
      <stop offset=".36" stop-color="#6d1726"/>
      <stop offset=".99" stop-color="#45012d"/>
    </radialGradient>
    <linearGradient id="_ÂÁ_Ï_ÌÌ_È_ËÂÌÚ_37" data-name="¡ÂÁ˚ÏˇÌÌ˚È „‡‰ËÂÌÚ 37" x1="151.22" y1="160.99" x2="277.2" y2="89.43" gradientTransform="translate(.31 -.35) rotate(.21)" gradientUnits="userSpaceOnUse">
      <stop offset="0" stop-color="#420300"/>
      <stop offset="1" stop-color="#a26320"/>
    </linearGradient>
    <linearGradient id="_ÂÁ_Ï_ÌÌ_È_ËÂÌÚ_37-2" data-name="¡ÂÁ˚ÏˇÌÌ˚È „‡‰ËÂÌÚ 37" x1="142.91" y1="146.36" x2="268.89" y2="74.8" xlink:href="#_ÂÁ_Ï_ÌÌ_È_ËÂÌÚ_37"/>
    <linearGradient id="_ÂÁ_Ï_ÌÌ_È_ËÂÌÚ_37-3" data-name="¡ÂÁ˚ÏˇÌÌ˚È „‡‰ËÂÌÚ 37" x1="118.65" y1="103.66" x2="244.63" y2="32.09" xlink:href="#_ÂÁ_Ï_ÌÌ_È_ËÂÌÚ_37"/>
    <linearGradient id="_ÂÁ_Ï_ÌÌ_È_ËÂÌÚ_681-10" data-name="¡ÂÁ˚ÏˇÌÌ˚È „‡‰ËÂÌÚ 681" x1="127.24" y1="171.36" x2="127.24" y2="193.32" xlink:href="#_ÂÁ_Ï_ÌÌ_È_ËÂÌÚ_681"/>
    <linearGradient id="_ÂÁ_Ï_ÌÌ_È_ËÂÌÚ_35" data-name="¡ÂÁ˚ÏˇÌÌ˚È „‡‰ËÂÌÚ 35" x1="157.14" y1="212.13" x2="154.16" y2="199.11" gradientTransform="translate(.31 -.35) rotate(.21)" gradientUnits="userSpaceOnUse">
      <stop offset="0" stop-color="#3e0f0f"/>
      <stop offset="1" stop-color="#2e0d14"/>
    </linearGradient>
    <linearGradient id="_ÂÁ_Ï_ÌÌ_È_ËÂÌÚ_50" data-name="¡ÂÁ˚ÏˇÌÌ˚È „‡‰ËÂÌÚ 50" x1="128.95" y1="137.27" x2="120.65" y2="128.72" gradientUnits="userSpaceOnUse">
      <stop offset="0" stop-color="#5c7581"/>
      <stop offset="1" stop-color="#48427a"/>
    </linearGradient>
    <linearGradient id="_ÂÁ_Ï_ÌÌ_È_ËÂÌÚ_53" data-name="¡ÂÁ˚ÏˇÌÌ˚È „‡‰ËÂÌÚ 53" x1="111.24" y1="116.47" x2="140.79" y2="137.17" gradientTransform="translate(.31 -.35) rotate(.21)" gradientUnits="userSpaceOnUse">
      <stop offset="0" stop-color="#3a2475"/>
      <stop offset="1" stop-color="#a15e8e"/>
    </linearGradient>
    <linearGradient id="_ÂÁ_Ï_ÌÌ_È_ËÂÌÚ_53-2" data-name="¡ÂÁ˚ÏˇÌÌ˚È „‡‰ËÂÌÚ 53" x1="106.28" y1="123.55" x2="135.83" y2="144.25" xlink:href="#_ÂÁ_Ï_ÌÌ_È_ËÂÌÚ_53"/>
    <linearGradient id="_ÂÁ_Ï_ÌÌ_È_ËÂÌÚ_53-3" data-name="¡ÂÁ˚ÏˇÌÌ˚È „‡‰ËÂÌÚ 53" x1="128.98" y1="138.31" x2="132.4" y2="142.3" xlink:href="#_ÂÁ_Ï_ÌÌ_È_ËÂÌÚ_53"/>
    <linearGradient id="_ÂÁ_Ï_ÌÌ_È_ËÂÌÚ_50-2" data-name="¡ÂÁ˚ÏˇÌÌ˚È „‡‰ËÂÌÚ 50" x1="120.98" y1="168.25" x2="121.39" y2="177.53" gradientTransform="translate(.31 -.35) rotate(.21)" xlink:href="#_ÂÁ_Ï_ÌÌ_È_ËÂÌÚ_50"/>
    <linearGradient id="_ÂÁ_Ï_ÌÌ_È_ËÂÌÚ_53-4" data-name="¡ÂÁ˚ÏˇÌÌ˚È „‡‰ËÂÌÚ 53" x1="110.59" y1="164.75" x2="140.15" y2="185.45" xlink:href="#_ÂÁ_Ï_ÌÌ_È_ËÂÌÚ_53"/>
    <linearGradient id="_ÂÁ_Ï_ÌÌ_È_ËÂÌÚ_53-5" data-name="¡ÂÁ˚ÏˇÌÌ˚È „‡‰ËÂÌÚ 53" x1="105.63" y1="171.83" x2="135.18" y2="192.54" xlink:href="#_ÂÁ_Ï_ÌÌ_È_ËÂÌÚ_53"/>
    <linearGradient id="_ÂÁ_Ï_ÌÌ_È_ËÂÌÚ_53-6" data-name="¡ÂÁ˚ÏˇÌÌ˚È „‡‰ËÂÌÚ 53" x1="128.33" y1="186.59" x2="131.76" y2="190.58" xlink:href="#_ÂÁ_Ï_ÌÌ_È_ËÂÌÚ_53"/>
    <linearGradient id="_ÂÁ_Ï_ÌÌ_È_ËÂÌÚ_50-3" data-name="¡ÂÁ˚ÏˇÌÌ˚È „‡‰ËÂÌÚ 50" x1="185.02" y1="138.77" x2="194.98" y2="129.33" xlink:href="#_ÂÁ_Ï_ÌÌ_È_ËÂÌÚ_50"/>
    <linearGradient id="_ÂÁ_Ï_ÌÌ_È_ËÂÌÚ_53-7" data-name="¡ÂÁ˚ÏˇÌÌ˚È „‡‰ËÂÌÚ 53" x1="-9375.44" y1="49.53" x2="-9345.89" y2="70.23" gradientTransform="translate(-9168.12 -97.97) rotate(-178.99) scale(1 -1)" xlink:href="#_ÂÁ_Ï_ÌÌ_È_ËÂÌÚ_53"/>
    <linearGradient id="_ÂÁ_Ï_ÌÌ_È_ËÂÌÚ_53-8" data-name="¡ÂÁ˚ÏˇÌÌ˚È „‡‰ËÂÌÚ 53" x1="-9380.4" y1="56.61" x2="-9350.85" y2="77.31" gradientTransform="translate(-9168.12 -97.97) rotate(-178.99) scale(1 -1)" xlink:href="#_ÂÁ_Ï_ÌÌ_È_ËÂÌÚ_53"/>
    <linearGradient id="_ÂÁ_Ï_ÌÌ_È_ËÂÌÚ_53-9" data-name="¡ÂÁ˚ÏˇÌÌ˚È „‡‰ËÂÌÚ 53" x1="-9357.71" y1="71.37" x2="-9354.28" y2="75.36" gradientTransform="translate(-9168.12 -97.97) rotate(-178.99) scale(1 -1)" xlink:href="#_ÂÁ_Ï_ÌÌ_È_ËÂÌÚ_53"/>
    <linearGradient id="_ÂÁ_Ï_ÌÌ_È_ËÂÌÚ_50-4" data-name="¡ÂÁ˚ÏˇÌÌ˚È „‡‰ËÂÌÚ 50" x1="-9365.7" y1="101.32" x2="-9365.3" y2="110.59" gradientTransform="translate(-9168.12 -97.97) rotate(-178.99) scale(1 -1)" xlink:href="#_ÂÁ_Ï_ÌÌ_È_ËÂÌÚ_50"/>
    <linearGradient id="_ÂÁ_Ï_ÌÌ_È_ËÂÌÚ_53-10" data-name="¡ÂÁ˚ÏˇÌÌ˚È „‡‰ËÂÌÚ 53" x1="-9376.09" y1="97.81" x2="-9346.53" y2="118.51" gradientTransform="translate(-9168.12 -97.97) rotate(-178.99) scale(1 -1)" xlink:href="#_ÂÁ_Ï_ÌÌ_È_ËÂÌÚ_53"/>
    <linearGradient id="_ÂÁ_Ï_ÌÌ_È_ËÂÌÚ_53-11" data-name="¡ÂÁ˚ÏˇÌÌ˚È „‡‰ËÂÌÚ 53" x1="-9381.05" y1="104.89" x2="-9351.5" y2="125.6" gradientTransform="translate(-9168.12 -97.97) rotate(-178.99) scale(1 -1)" xlink:href="#_ÂÁ_Ï_ÌÌ_È_ËÂÌÚ_53"/>
    <linearGradient id="_ÂÁ_Ï_ÌÌ_È_ËÂÌÚ_53-12" data-name="¡ÂÁ˚ÏˇÌÌ˚È „‡‰ËÂÌÚ 53" x1="-9358.35" y1="119.65" x2="-9354.93" y2="123.64" gradientTransform="translate(-9168.12 -97.97) rotate(-178.99) scale(1 -1)" xlink:href="#_ÂÁ_Ï_ÌÌ_È_ËÂÌÚ_53"/>
    <linearGradient id="_ÂÁ_Ï_ÌÌ_È_ËÂÌÚ_53-13" data-name="¡ÂÁ˚ÏˇÌÌ˚È „‡‰ËÂÌÚ 53" x1="166.44" y1="146.43" x2="164.71" y2="163.79" gradientTransform="matrix(1,0,0,1,0,0)" xlink:href="#_ÂÁ_Ï_ÌÌ_È_ËÂÌÚ_53"/>
    <linearGradient id="_ÂÁ_Ï_ÌÌ_È_ËÂÌÚ_53-14" data-name="¡ÂÁ˚ÏˇÌÌ˚È „‡‰ËÂÌÚ 53" x1="152.14" y1="145.01" x2="150.42" y2="162.37" gradientTransform="matrix(1,0,0,1,0,0)" xlink:href="#_ÂÁ_Ï_ÌÌ_È_ËÂÌÚ_53"/>
    <linearGradient id="_ÂÁ_Ï_ÌÌ_È_ËÂÌÚ_935" data-name="¡ÂÁ˚ÏˇÌÌ˚È „‡‰ËÂÌÚ 935" x1="143.74" y1="149.61" x2="150.12" y2="150.72" gradientUnits="userSpaceOnUse">
      <stop offset="0" stop-color="#88bea6"/>
      <stop offset="1" stop-color="#617888"/>
    </linearGradient>
    <linearGradient id="_ÂÁ_Ï_ÌÌ_È_ËÂÌÚ_935-2" data-name="¡ÂÁ˚ÏˇÌÌ˚È „‡‰ËÂÌÚ 935" x1="143.21" y1="161.58" x2="154.1" y2="161.58" gradientTransform="translate(.31 -.35) rotate(.21)" xlink:href="#_ÂÁ_Ï_ÌÌ_È_ËÂÌÚ_935"/>
    <linearGradient id="_ÂÁ_Ï_ÌÌ_È_ËÂÌÚ_53-15" data-name="¡ÂÁ˚ÏˇÌÌ˚È „‡‰ËÂÌÚ 53" x1="148.09" y1="157.65" x2="148.69" y2="166.42" gradientTransform="matrix(1,0,0,1,0,0)" xlink:href="#_ÂÁ_Ï_ÌÌ_È_ËÂÌÚ_53"/>
    <linearGradient id="_ÂÁ_Ï_ÌÌ_È_ËÂÌÚ_55" data-name="¡ÂÁ˚ÏˇÌÌ˚È „‡‰ËÂÌÚ 55" x1="150.52" y1="151" x2="148.79" y2="156.35" gradientTransform="translate(.31 -.35) rotate(.21)" gradientUnits="userSpaceOnUse">
      <stop offset="0" stop-color="#48427a"/>
      <stop offset="1" stop-color="#5c7581"/>
    </linearGradient>
    <linearGradient id="_ÂÁ_Ï_ÌÌ_È_ËÂÌÚ_36" data-name="¡ÂÁ˚ÏˇÌÌ˚È „‡‰ËÂÌÚ 36" x1="149.71" y1="152.87" x2="148.38" y2="157" gradientTransform="translate(.31 -.35) rotate(.21)" gradientUnits="userSpaceOnUse">
      <stop offset="0" stop-color="#000"/>
      <stop offset="1" stop-color="#fff"/>
    </linearGradient>
    <linearGradient id="_ÂÁ_Ï_ÌÌ_È_ËÂÌÚ_36-2" data-name="¡ÂÁ˚ÏˇÌÌ˚È „‡‰ËÂÌÚ 36" x1="140.76" y1="126.28" x2="148.54" y2="154.61" xlink:href="#_ÂÁ_Ï_ÌÌ_È_ËÂÌÚ_36"/>
    <linearGradient id="_ÂÁ_Ï_ÌÌ_È_ËÂÌÚ_36-3" data-name="¡ÂÁ˚ÏˇÌÌ˚È „‡‰ËÂÌÚ 36" x1="147.64" y1="162.68" x2="147.86" y2="163.67" gradientTransform="matrix(1,0,0,1,0,0)" xlink:href="#_ÂÁ_Ï_ÌÌ_È_ËÂÌÚ_36"/>
    <linearGradient id="_ÂÁ_Ï_ÌÌ_È_ËÂÌÚ_36-4" data-name="¡ÂÁ˚ÏˇÌÌ˚È „‡‰ËÂÌÚ 36" x1="149.22" y1="162.32" x2="149.44" y2="163.31" gradientTransform="matrix(1,0,0,1,0,0)" xlink:href="#_ÂÁ_Ï_ÌÌ_È_ËÂÌÚ_36"/>
    <linearGradient id="_ÂÁ_Ï_ÌÌ_È_ËÂÌÚ_935-3" data-name="¡ÂÁ˚ÏˇÌÌ˚È „‡‰ËÂÌÚ 935" x1="176.66" y1="150.45" x2="166.11" y2="150.11" xlink:href="#_ÂÁ_Ï_ÌÌ_È_ËÂÌÚ_935"/>
    <linearGradient id="_ÂÁ_Ï_ÌÌ_È_ËÂÌÚ_935-4" data-name="¡ÂÁ˚ÏˇÌÌ˚È „‡‰ËÂÌÚ 935" x1="176.24" y1="161.9" x2="164.43" y2="161.52" xlink:href="#_ÂÁ_Ï_ÌÌ_È_ËÂÌÚ_935"/>
    <linearGradient id="_ÂÁ_Ï_ÌÌ_È_ËÂÌÚ_53-16" data-name="¡ÂÁ˚ÏˇÌÌ˚È „‡‰ËÂÌÚ 53" x1="166.8" y1="156.38" x2="167.4" y2="165.15" gradientTransform="matrix(1,0,0,1,0,0)" xlink:href="#_ÂÁ_Ï_ÌÌ_È_ËÂÌÚ_53"/>
    <linearGradient id="_ÂÁ_Ï_ÌÌ_È_ËÂÌÚ_55-2" data-name="¡ÂÁ˚ÏˇÌÌ˚È „‡‰ËÂÌÚ 55" x1="-9729.46" y1="150.91" x2="-9731.19" y2="156.25" gradientTransform="translate(-9563.58 -35.88) rotate(-179.79) scale(1 -1)" xlink:href="#_ÂÁ_Ï_ÌÌ_È_ËÂÌÚ_55"/>
    <linearGradient id="_ÂÁ_Ï_ÌÌ_È_ËÂÌÚ_36-5" data-name="¡ÂÁ˚ÏˇÌÌ˚È „‡‰ËÂÌÚ 36" x1="-9730.27" y1="152.77" x2="-9731.6" y2="156.9" gradientTransform="translate(-9563.58 -35.88) rotate(-179.79) scale(1 -1)" xlink:href="#_ÂÁ_Ï_ÌÌ_È_ËÂÌÚ_36"/>
    <linearGradient id="_ÂÁ_Ï_ÌÌ_È_ËÂÌÚ_36-6" data-name="¡ÂÁ˚ÏˇÌÌ˚È „‡‰ËÂÌÚ 36" x1="-9751.15" y1="96.52" x2="-9743.37" y2="124.83" gradientTransform="translate(-9574.32 -63.86) rotate(-179.45) scale(1 -1)" xlink:href="#_ÂÁ_Ï_ÌÌ_È_ËÂÌÚ_36"/>
    <linearGradient id="_ÂÁ_Ï_ÌÌ_È_ËÂÌÚ_36-7" data-name="¡ÂÁ˚ÏˇÌÌ˚È „‡‰ËÂÌÚ 36" x1="-9732.7" y1="163.92" x2="-9730.71" y2="167.4" gradientTransform="translate(-9563.58 -35.88) rotate(-179.79) scale(1 -1)" xlink:href="#_ÂÁ_Ï_ÌÌ_È_ËÂÌÚ_36"/>
    <linearGradient id="_ÂÁ_Ï_ÌÌ_È_ËÂÌÚ_36-8" data-name="¡ÂÁ˚ÏˇÌÌ˚È „‡‰ËÂÌÚ 36" x1="-9731.44" y1="163.2" x2="-9729.44" y2="166.67" gradientTransform="translate(-9563.58 -35.88) rotate(-179.79) scale(1 -1)" xlink:href="#_ÂÁ_Ï_ÌÌ_È_ËÂÌÚ_36"/>
    <linearGradient id="_ÂÁ_Ï_ÌÌ_È_ËÂÌÚ_928" data-name="¡ÂÁ˚ÏˇÌÌ˚È „‡‰ËÂÌÚ 928" x1="140.46" y1="29.58" x2="136.54" y2="117.92" gradientUnits="userSpaceOnUse">
      <stop offset="0" stop-color="#560527"/>
      <stop offset=".02" stop-color="#500529"/>
      <stop offset=".13" stop-color="#3a0831"/>
      <stop offset=".24" stop-color="#2b0936"/>
      <stop offset=".38" stop-color="#220a39"/>
      <stop offset=".58" stop-color="#200b3b"/>
    </linearGradient>
    <linearGradient id="_ÂÁ_Ï_ÌÌ_È_ËÂÌÚ_928-2" data-name="¡ÂÁ˚ÏˇÌÌ˚È „‡‰ËÂÌÚ 928" x1="112.76" y1="28.35" x2="108.84" y2="116.69" xlink:href="#_ÂÁ_Ï_ÌÌ_È_ËÂÌÚ_928"/>
    <linearGradient id="_ÂÁ_Ï_ÌÌ_È_ËÂÌÚ_928-3" data-name="¡ÂÁ˚ÏˇÌÌ˚È „‡‰ËÂÌÚ 928" x1="209.01" y1="32.62" x2="205.1" y2="120.96" xlink:href="#_ÂÁ_Ï_ÌÌ_È_ËÂÌÚ_928"/>
    <linearGradient id="_ÂÁ_Ï_ÌÌ_È_ËÂÌÚ_928-4" data-name="¡ÂÁ˚ÏˇÌÌ˚È „‡‰ËÂÌÚ 928" x1="188.81" y1="31.72" x2="184.89" y2="120.06" xlink:href="#_ÂÁ_Ï_ÌÌ_È_ËÂÌÚ_928"/>
    <linearGradient id="_ÂÁ_Ï_ÌÌ_È_ËÂÌÚ_24" data-name="¡ÂÁ˚ÏˇÌÌ˚È „‡‰ËÂÌÚ 24" x1="217.14" y1="164.71" x2="221.72" y2="165.37" gradientTransform="translate(.31 -.35) rotate(.21)" gradientUnits="userSpaceOnUse">
      <stop offset="0" stop-color="#3e0f0f"/>
      <stop offset="1" stop-color="#7c6043"/>
    </linearGradient>
    <linearGradient id="_ÂÁ_Ï_ÌÌ_È_ËÂÌÚ_681-11" data-name="¡ÂÁ˚ÏˇÌÌ˚È „‡‰ËÂÌÚ 681" x1="124.72" y1="114.13" x2="191.58" y2="123.68" gradientTransform="translate(.31 -.35) rotate(.21)" xlink:href="#_ÂÁ_Ï_ÌÌ_È_ËÂÌÚ_681"/>
    <linearGradient id="_ÂÁ_Ï_ÌÌ_È_ËÂÌÚ_14" data-name="¡ÂÁ˚ÏˇÌÌ˚È „‡‰ËÂÌÚ 14" x1="221.42" y1="115.7" x2="221.62" y2="115.55" gradientTransform="translate(.31 -.35) rotate(.21)" gradientUnits="userSpaceOnUse">
      <stop offset="0" stop-color="#a07700"/>
      <stop offset="1" stop-color="#000"/>
    </linearGradient>
    <linearGradient id="_ÂÁ_Ï_ÌÌ_È_ËÂÌÚ_681-12" data-name="¡ÂÁ˚ÏˇÌÌ˚È „‡‰ËÂÌÚ 681" x1="186.87" y1="171.36" x2="186.87" y2="193.32" xlink:href="#_ÂÁ_Ï_ÌÌ_È_ËÂÌÚ_681"/>
    <linearGradient id="_ÂÁ_Ï_ÌÌ_È_ËÂÌÚ_828-6" data-name="¡ÂÁ˚ÏˇÌÌ˚È „‡‰ËÂÌÚ 828" x1="173.58" y1="192.16" x2="200.58" y2="240.05" xlink:href="#_ÂÁ_Ï_ÌÌ_È_ËÂÌÚ_828"/>
    <linearGradient id="linear-gradient" x1="143.47" y1="205.63" x2="143.47" y2="141.66" gradientUnits="userSpaceOnUse">
      <stop offset="0" stop-color="#6d1726"/>
      <stop offset=".99" stop-color="#45012d"/>
    </linearGradient>
  </defs>
  <g class="cls-92">
    <g id="Calque_2" data-name="Calque 2">
      <g id="porte">
        <g id="Layer_12" data-name="Layer 12">
          <g id="porte-2" data-name="porte">
            <g class="cls-93">
              <path class="cls-34" d="M224,212.21h24l18,8s5,4,9,5,14,1,14,1l-3,11-9.94.14-28.06-12.14-24-13Z"/>
              <polygon class="cls-34" points="53 220.21 53 217.21 64 211.21 82.28 211.83 54 221.21 53 220.21"/>
              <g>
                <polygon class="cls-71" points="83.8 211.82 83.28 185.75 83.89 185.75 82.28 164.04 73.59 164.01 81.86 162.56 80.74 133.78 78.98 108.61 81.42 108.2 80.39 80.86 83.97 55.88 106.43 30.81 128.15 16.74 156.08 0 173.21 9.61 208 33.21 222.83 48.01 229.09 60.05 234.73 81.64 234.98 110.4 238.63 110.63 234.54 112.52 233.04 135.52 231.5 135.16 228.73 212.35 221.33 212.32 83.8 211.82"/>
                <path class="cls-84" d="M222.67,85.63c-1.44,40.77-5.59,115.21-6.37,128.67l-118.92-.44c-.93-17.53-4.59-88.79-5.68-127.92-.61-21.96,17.42-40.01,32.66-51.29,14.65-10.84,29.61-17.69,33.1-19.22,3.48,1.52,18.33,8.27,32.89,19.03,15.18,11.22,33.1,29.2,32.33,51.16Z"/>
                <path class="cls-23" d="M233.24,80.43l-.93,28.75-1.18,1.2-5.44,103.96-9.38-.03c.79-13.46,4.93-87.91,6.37-128.68.77-21.97-17.15-39.95-32.33-51.16-14.56-10.76-29.4-17.51-32.89-19.03-3.49,1.53-18.45,8.38-33.1,19.22-15.23,11.28-33.27,29.33-32.66,51.29,1.09,39.13,4.75,110.39,5.68,127.92l-10.19-.04s-.95-18.54-2.1-43.27c-.06-1.25-1.04-2.16-1.1-3.44-.69-15.09-1.44-32.15-2.09-48.57-.05-1.19.65-5.69.6-6.87-.46-11.83-.67-20.27-.95-30.23-1.23-43.93,66.72-73.96,74.87-77.4.08-.03.16-.07.23-.1.37-.15.57-.23.57-.23,0,0,49.78,20.48,68.29,52.86,2.24,3.91,4.02,8,5.2,12.24.87,3.13,1.42,6.35,1.58,9.65.02.37.04,1.12.04,1.12l.93.83Z"/>
                <path class="cls-77" d="M225.9,81.17c-.04-.51-.1-1.04-.2-1.6-.02-.15-.05-.29-.08-.44-1.68-9.04-9.65-23.67-9.65-23.67l-2.07-.79-.43-.16h0s-18.48-20.08-18.48-20.08l-.34-.29s-3.97.57-4.63.08c-8.82-6.52-20.99-16.31-20.99-16.31l-11.01-2.69-.34-2.7-.22-.09-.22.09-.53.22s-.23.13-.62.35c-4.64,2.66-33.9,19.56-33.9,19.56l-2.32,2.68-.71.82-.14.16h-.01s1.02,1.9,1.02,1.9c-1.7,1.38-16.71,10.92-21.38,17.48-.15.21-.29.41-.43.61-.09.12-.17.24-.25.36,0,0,0,0,0,.01-5.06,7.36-8.12,14.86-9.16,22.38-.04.29-.08.61-.11.96-.01.14-.02.29-.04.44-.19,2.4-.24,5.53-.24,5.53l3.18,25.27-.06.44-.9,6.69-.09.69v.08c.08.84.78,8.42,1.56,18.98.08,1.04.16,2.12.23,3.22l.05.72c.62,8.72,1.24,18.96,1.63,28.95,0,.03,0,.07-.01.12-.01.08-.04.19-.09.31,0,.01,0,.02-.01.03-.16.46-.47,1.11-.74,1.66-.27.56-.51,1-.51,1,0,0,.16,4.12.37,9.61,0,0,2.01-.55,2.01-.54.42,10.8-.98,27.42-.97,27.6l-.03,3.03h3.38c-.3-5.59-.87-16.67-1.56-30.44-.19-3.81-.38-7.82-.58-11.98,0-.12-.01-.24-.02-.36-.9-18.66-1.89-40.22-2.64-59.35,0-.15-.01-.3-.02-.44-.36-9.22-.66-17.86-.87-25.33-.02-.62-.02-1.23,0-1.84,0-.3.01-.59.03-.89,0-.15.01-.31.02-.47.02-.37.05-.74.08-1.11.01-.13.02-.27.04-.4,0,0,0,0,0,0,.01-.11.02-.23.03-.34,0-.1.02-.19.03-.29,0-.04,0-.09.01-.13.02-.15.03-.3.05-.44.01-.09.02-.18.03-.27.04-.32.09-.64.13-.95.05-.33.1-.66.17-.98.03-.16.06-.32.09-.47.02-.11.04-.21.06-.32.03-.15.06-.29.09-.44.02-.11.05-.22.07-.33.02-.08.04-.17.06-.25.04-.2.09-.39.14-.58.03-.13.06-.27.1-.4.1-.42.22-.84.33-1.25.06-.22.13-.44.19-.66.16-.52.32-1.04.49-1.55.04-.11.08-.22.12-.33.21-.61.44-1.22.67-1.82.06-.15.12-.3.18-.45.06-.15.12-.3.19-.45.95-2.29,2.08-4.51,3.34-6.67.06-.1.12-.21.18-.31.13-.22.26-.43.39-.65.08-.13.16-.25.23-.38.24-.39.49-.78.74-1.16.07-.1.13-.21.2-.31l.04-.07c.08-.12.15-.23.23-.34.18-.27.37-.54.56-.82.16-.23.31-.45.48-.68.19-.26.38-.53.57-.79.13-.18.26-.36.39-.54.22-.3.45-.59.67-.89.37-.48.74-.96,1.12-1.43.24-.29.47-.58.71-.87.19-.23.38-.45.57-.68.17-.19.33-.39.5-.58.12-.14.25-.29.37-.43.1-.12.21-.24.31-.36.09-.1.17-.19.26-.29.16-.18.32-.35.47-.53.02-.02.04-.04.06-.06.18-.2.37-.4.55-.6,1.38-1.5,2.81-2.95,4.27-4.34.21-.2.42-.41.64-.61.31-.29.61-.57.92-.86.15-.14.31-.28.46-.42.03-.03.06-.05.09-.08.19-.17.38-.34.57-.51.18-.16.36-.32.54-.49.14-.13.28-.25.43-.38.43-.38.87-.76,1.3-1.13.17-.15.34-.29.51-.43.73-.62,1.47-1.22,2.2-1.81.04-.03.08-.06.12-.09.01-.01.02-.02.03-.03.06-.05.13-.11.19-.16.09-.07.18-.14.27-.21.55-.44,1.1-.87,1.65-1.29.24-.18.47-.36.71-.54.47-.36.94-.71,1.41-1.06.54-.4,1.09-.8,1.63-1.19,1.98-1.42,3.95-2.77,5.89-4.04,10.9-7.14,20.82-11.85,24.66-13.58.22-.1.43-.19.61-.27.06-.03.12-.05.17-.08.05-.02.1-.04.14-.06.04.02.09.04.13.06,3.71,1.63,18.37,8.34,32.75,18.97.85.63,1.71,1.28,2.58,1.95.12.09.23.18.35.27,6.71,5.25,13.69,11.74,19.16,19.25.09.13.18.25.27.38,4.91,6.82,8.56,14.48,9.65,22.79.02.15.04.3.06.44.24,1.99.33,4.01.26,6.07-.25,7.16-.59,15.36-.98,24.09,0,.21-.02.42-.03.63,0,.04,0,.08,0,.12,0,.11-.01.22-.01.33-.39,8.81-.84,18.12-1.29,27.42,0,.18-.02.36-.03.54-.03.65-.06,1.31-.1,1.96-.24,4.82-.48,9.63-.72,14.35,0,.12-.01.23-.02.34-.34,6.57-.67,12.96-.99,18.98,0,.15-.01.3-.02.44-1,18.89-1.86,34.08-2.17,39.47h2.91s.36-2.7.36-2.7c.02-.29-.48-26.88-.22-34.59.04-1.31,1.47-2.06,1.47-2.06v-.09s.03-.44.03-.44c0,0,1.15,4.79.15-17.21s3.63-43.71,3.63-43.71l-.5-2.7-.04-.25-.04-.2s.02-.27.07-.76l.02-.26c.18-1.95.58-6.43.97-11.11.19-2.31.38-4.67.53-6.8v-.05c.17-2.28.29-4.28.34-5.66.05-1.51.02-3.02-.09-4.54Z"/>
                <path class="cls-40" d="M214.03,84.86c-.09,2.45-.18,5.14-.29,8.03h0c-.03.88-.06,1.78-.1,2.7-.61,16.48-1.48,38.5-2.31,59.12-.09,2.35-.19,4.69-.28,6.99-.04.95-.07,1.89-.11,2.83-.7,17.33-1.33,32.75-1.7,41.73-.21,5.19-.34,8.23-.34,8.23l-46.06-.05-59.4-.34s-3.15-92.43-4.19-129.65c0-.33-.01-.66-.01-.98.01-4.69,1.06-9.18,2.85-13.42.43-1,.89-1.99,1.4-2.97,3.9-7.53,10.11-14.24,16.92-19.96,7.92-6.65,16.68-11.97,23.62-15.7,7.46-4,12.83-6.16,12.83-6.16,0,0,6.5,2.67,15.11,7.55,2.13,1.2,4.38,2.54,6.7,4.01,1.97,1.25,3.99,2.59,6.02,4.02,3.12,2.2,6.25,4.61,9.24,7.21,6.29,5.47,11.99,11.8,15.7,18.84.42.8.82,1.62,1.19,2.44,1.85,4.1,3,8.41,3.21,12.93.04.86.04,1.73.01,2.61Z"/>
                <polygon class="cls-13" points="157.35 25.15 156.91 25.13 157.22 12.43 156.57 3.91 157.02 3.87 157.66 12.42 157.66 12.43 157.35 25.15"/>
                <rect class="cls-63" x="184.73" y="35.34" width="18.21" height=".44" transform="translate(49 169.2) rotate(-53.09)"/>
                <path class="cls-1" d="M201.97,106.32l-4.99,104.32-81.67-.32-1.87-102.84s0-1.26.22-3.34c-.05-.82-.07-1.65-.06-2.48.09-23.6,19.94-42.66,44.34-42.57,24.4.09,44.11,19.29,44.02,42.9,0,1.01-.04,2.01-.12,3,.1.86.13,1.34.13,1.34Z"/>
                <rect class="cls-63" x="118.76" y="27.23" width=".44" height="18.19" transform="translate(1.81 78.12) rotate(-36.61)"/>
                <rect class="cls-63" x="222.98" y="70.22" width=".44" height="18.24" transform="translate(143.05 302.25) rotate(-89.79)"/>
                <rect class="cls-70" x="222.32" y="101.99" width=".44" height="17.16" transform="translate(111.16 332.71) rotate(-89.79)"/>
                <rect class="cls-63" x="219.14" y="166.08" width=".44" height="17.08" transform="translate(41.26 391.16) rotate(-89.08)"/>
                <rect class="cls-63" x="90.43" y="71.13" width=".44" height="18.24" transform="translate(10.06 170.6) rotate(-89.79)"/>
                <rect class="cls-63" x="91.33" y="102.44" width=".44" height="18.11" transform="translate(-20.28 202.63) rotate(-89.79)"/>
                <polygon class="cls-63" points="85.48 171.93 85.14 171.71 102.26 170.62 102.29 171.06 85.48 171.93"/>
                <polygon class="cls-63" points="106.11 62.59 99.7 59.2 97.9 56.65 91.17 51.9 91.42 51.54 98.22 56.33 100 58.86 106.31 62.2 106.11 62.59"/>
                <polygon class="cls-63" points="206.05 59.97 205.84 59.57 212.18 56.28 213.98 53.77 214.01 53.75 220.81 49.02 221.06 49.39 214.3 54.09 212.48 56.63 206.05 59.97"/>
                <polygon class="cls-9" points="85 172.21 95.23 171.42 93.08 173.19 85 172.21"/>
                <polygon class="cls-5" points="82.03 116.61 90.6 118.41 90.5 119.09 82.02 119.06 82.03 116.61"/>
                <polygon class="cls-90" points="113.74 28.89 121.26 36.84 120.17 37.98 113.74 28.89"/>
                <polygon class="cls-72" points="82.02 119.06 90.5 119.09 92.07 138.15 82.7 138.11 82.81 140.66 92.3 141.37 92.35 142.08 82.9 142.85 82.02 119.06"/>
                <polygon class="cls-22" points="231.85 109.18 224.12 109.59 224.16 109.15 231.86 107.41 232.35 98.25 225.11 98.22 225.65 91.37 232.85 92.44 231.85 109.18"/>
                <polygon class="cls-63" points="156.57 3.91 154.66 4.81 156.53 15.85 156.91 25.13 157.44 12.43 156.57 3.91"/>
                <polygon class="cls-2" points="101.41 138.13 112.98 138.86 112.96 144.1 101.38 146.03 101.41 138.13"/>
                <polygon class="cls-80" points="101.37 148.57 113.75 149.64 114.47 189.86 103.34 190.99 101.37 148.57"/>
                <path class="cls-33" d="M211.32,154.69c-.09,2.35-.19,4.69-.28,6.99l-9.68-1.14-.08-5.24,10.04-.61Z"/>
                <path class="cls-54" d="M210.93,164.52c-.7,17.33-1.33,32.75-1.7,41.73l-10.43-1.54,1.01-40.22,11.12.04Z"/>
                <path class="cls-49" d="M121.74,72.66l-5.8,8.23-16.72,2.55c.01-4.69,1.06-9.18,2.85-13.42l19.67,2.63Z"/>
                <polygon class="cls-59" points="103.22 85.98 101.7 96.55 111.55 96.59 114.33 86.02 103.22 85.98"/>
                <path class="cls-44" d="M134.97,61.19l-10.8,9.58s-14.84-2.69-20.69-3.72c3.9-7.53,10.11-14.24,16.92-19.96l14.58,14.09Z"/>
                <path class="cls-42" d="M214.01,82.24l-15.14-2.43-5.74-8.27,17.67-2.23c1.85,4.1,3,8.41,3.21,12.93Z"/>
                <polygon class="cls-86" points="212.66 85 214.1 95.58 204.25 95.54 201.55 84.96 212.66 85"/>
                <path class="cls-7" d="M209.61,66.87c-6.8,1.16-17.83,3.08-17.83,3.08l-10.73-9.67,12.86-12.25c6.29,5.47,11.99,11.8,15.7,18.84Z"/>
                <path class="cls-55" d="M171.96,32.79c-1.55,8.43-4.7,24.66-6.05,24.52-1.82-.2-14.75-.71-14.75-.71l-7.14-25.2c7.46-4,12.83-6.16,12.83-6.16,0,0,6.5,2.67,15.11,7.55Z"/>
                <path class="cls-14" d="M184.67,40.82l-11.25,18.05-4.27-1.55s6.6-14.73,9.5-20.52c1.97,1.25,3.99,2.59,6.02,4.02Z"/>
                <g class="cls-91">
                  <path class="cls-19" d="M199.95,108.03c-.9,25.53-4.39,94.26-4.91,104.37l-.05,1.03s0,0,0,0c0,0,0,0,0,.01v.21s-78.18-.29-78.18-.29c0,0,0-.05,0-.14,0-.03,0-.06,0-.09,0-.14,0-.33,0-.58-.13-8.35-1.21-78.89-1.93-104.83-.25-8.87,4.51-16.74,10.92-23.28.82-.84,1.67-1.66,2.54-2.45,5.97-5.45,12.91-9.83,18.52-12.92.9-.5,1.77-.96,2.6-1.39,4.8-2.5,8.12-3.84,8.12-3.84,0,0,4.27,1.75,10.1,4.98.96.53,1.97,1.11,3.01,1.72,4.88,2.88,10.45,6.63,15.4,11.11.85.77,1.68,1.56,2.49,2.37,6.69,6.71,11.71,14.84,11.39,24.01Z"/>
                  <path class="cls-36" d="M126.79,82.8l-.13,129.29v1.1s-.02.09-.02.09v.12s-1.33,0-1.33,0l1.15-129.6c.82-.84-.54-.2.33-.99Z"/>
                  <path class="cls-36" d="M187.33,83.46l-1.35,128.3-.02,1.55h-.94s2.07-130.05,2.07-130.05c.85.77-.57-.6.24.21Z"/>
                  <path class="cls-36" d="M144.39,213.44h-2.45s0-.08,0-.08l-1.94-140.64c.9-.49-.63-.09.19-.51l2.25,140.98,1.95.25Z"/>
                  <path class="cls-36" d="M172.37,70.59l-3.6,142.97-.48.53.03-2.45,3.61-141.11c.96.53-.6-.55.44.07Z"/>
                  <path class="cls-43" d="M183.31,79.35l-13.16,134.05,1.33-.16s6.62-83.19,9.46-89.5c2.84-6.3,5.13-42.1,5.13-42.1l-2.76-2.3Z"/>
                  <path class="cls-88" d="M149.45,67.67s2.71,63.98,3.12,74.07c.41,10.09-1.53,63.28-1.53,63.28l.18,8.46,5.79.03s-5.05-94.15-5.4-107.01c-.34-12.86.93-20.29.93-20.29l-.78-19.71-2.32,1.18Z"/>
                  <path class="cls-17" d="M129.84,80.65s.18,34.9.63,33.78c.45-1.13,1.83-35.81,1.83-35.81l-2.46,2.03Z"/>
                  <polygon class="cls-4" points="126.64 213.28 126.87 143.68 127.85 195 127.55 213.36 126.64 213.28"/>
                  <polygon class="cls-36" points="157.61 63.99 158.9 213.41 159.82 213.5 157.95 64.01 157.57 63.84 157.61 63.99"/>
                  <polygon class="cls-79" points="118.52 208.43 159.05 207.43 194.08 208.2 194.06 215.63 118.85 214.78 118.52 208.43"/>
                  <path class="cls-61" d="M120.83,211.52s-1.54-97.71-2.02-105.47c-.86-13.98,12-32.94,39.21-33.19,27.21-.25,38.89,22.18,39.4,32.67.43,8.95-4.9,105.65-4.9,105.65l5.5-1.05,8.68-128.53-44.6-17.8-40.77,14.89-10.19,20.53,6.38,114.36,3.32-2.05Z"/>
                  <g>
                    <polygon class="cls-6" points="118.2 121.29 125.29 120.71 125.25 139.17 118.5 139.28 118.2 121.29"/>
                    <path class="cls-15" d="M123.24,124.53c0,.8-.36,1.44-.8,1.44s-.79-.65-.79-1.45c0-.8.36-1.44.8-1.44s.79.65.79,1.45Z"/>
                    <path class="cls-65" d="M124.05,135.51c0,.87-.47,1.57-1.05,1.57-.58,0-1.04-.71-1.04-1.58,0-.87.47-1.57,1.05-1.57.58,0,1.04.71,1.04,1.58Z"/>
                    <polygon class="cls-57" points="118.48 138.45 123.51 138.47 124.73 137.86 124.84 121.23 125.29 120.71 125.51 140.59 118.51 140.02 118.48 138.45"/>
                  </g>
                  <g>
                    <polygon class="cls-25" points="117.37 169.57 124.46 168.99 124.42 187.45 117.67 187.56 117.37 169.57"/>
                    <path class="cls-31" d="M122.41,172.81c0,.8-.36,1.44-.8,1.44-.44,0-.79-.65-.79-1.45,0-.8.36-1.44.8-1.44.44,0,.79.65.79,1.45Z"/>
                    <path class="cls-69" d="M123.22,183.79c0,.87-.47,1.57-1.05,1.57-.58,0-1.04-.71-1.04-1.58,0-.87.47-1.57,1.05-1.57.58,0,1.04.71,1.04,1.58Z"/>
                    <polygon class="cls-67" points="117.65 186.73 122.69 186.75 123.9 186.14 124.01 169.51 124.46 168.99 124.68 188.87 117.68 188.3 117.65 186.73"/>
                  </g>
                  <g>
                    <polygon class="cls-38" points="197.39 122.1 190.31 121.37 189.96 139.82 196.7 140.08 197.39 122.1"/>
                    <path class="cls-39" d="M192.28,125.22c-.01.8.33,1.45.77,1.46.44,0,.8-.63.82-1.43.01-.8-.33-1.45-.77-1.46-.44,0-.8.63-.82,1.43Z"/>
                    <path class="cls-11" d="M191.24,136.19c-.02.87.44,1.58,1.01,1.59.58.01,1.05-.69,1.07-1.56.02-.87-.44-1.58-1.01-1.59-.58-.01-1.05.69-1.07,1.56Z"/>
                    <polygon class="cls-8" points="196.74 139.25 191.71 139.16 190.5 138.52 190.75 121.9 190.31 121.37 189.67 141.24 196.68 140.82 196.74 139.25"/>
                  </g>
                  <g>
                    <polygon class="cls-74" points="197.19 170.39 190.1 169.65 189.75 188.11 196.5 188.37 197.19 170.39"/>
                    <path class="cls-12" d="M192.07,173.51c-.01.8.33,1.45.77,1.46.44,0,.8-.63.82-1.43.01-.8-.33-1.45-.77-1.46s-.8.63-.82,1.43Z"/>
                    <path class="cls-75" d="M191.03,184.47c-.02.87.44,1.58,1.01,1.59.58.01,1.05-.69,1.07-1.56.02-.87-.44-1.58-1.01-1.59-.58-.01-1.05.69-1.07,1.56Z"/>
                    <polygon class="cls-58" points="196.53 187.53 191.5 187.45 190.3 186.81 190.55 170.18 190.1 169.65 189.46 189.52 196.47 189.1 196.53 187.53"/>
                  </g>
                  <g>
                    <path class="cls-78" d="M159.39,162.75c-.19,3.37,2.29,6.16,5.1,6.32,2.81.16,5.6-2.55,5.79-5.92.1-1.69-.47-3.27-1.42-4.47h0s-5.13-19.55-5.13-19.55l-2.17,1.01-1.11,19.34c-.6.96-.99,2.09-1.06,3.26ZM161.14,162.26l6.03.47h.05s.29.04.29.04v-.02s.93.07.93.07l.12-1.14c.04.31.05.63.03.96-.14,2.47-1.92,4.37-3.98,4.25-2.05-.12-3.6-2.19-3.47-4.64Z"/>
                    <path class="cls-89" d="M154.95,159.7l.07-19.37-2.11-1.14-6.31,19.19h0c-1.01,1.15-1.68,2.69-1.69,4.38-.01,3.37,2.61,6.25,5.42,6.26,2.81.01,5.46-2.62,5.47-6,0-1.18-.32-2.33-.86-3.32ZM150.35,166.85c-2.06,0-3.72-2.01-3.71-4.48,0-.33.03-.65.09-.96l.05,1.14.93-.02v.02s.29-.02.29-.02h.05s6.05-.1,6.05-.1c-.02,2.45-1.7,4.42-3.75,4.42Z"/>
                    <g>
                      <g>
                        <polygon class="cls-68" points="153.03 139.33 152.95 161 152.67 161.02 152.09 161.06 146.05 161.52 146 161.52 145.71 161.54 145.71 161.47 145.67 160.73 145.58 158.41 145.55 157.87 145.51 156.55 145.28 151.29 144.85 140.83 144.79 139.3 153.03 139.33"/>
                        <polygon class="cls-53" points="152.11 139.32 152.03 160.99 145.71 161.47 144.78 161.54 144.73 160.4 144.73 160.39 144.68 159.05 144.61 157.39 144.61 157.38 143.87 139.29 152.11 139.32"/>
                        <polygon class="cls-68" points="152.95 161 152.77 161.42 152.71 161.42 152.1 161.42 146.05 161.52 145.71 161.52 144.78 161.54 145.36 160.73 152.03 160.75 152.07 160.76 152.65 160.92 152.95 161"/>
                      </g>
                      <g>
                        <path class="cls-64" d="M152.96,158.7c-.26-.48-.57-.93-.92-1.32-.7-.79-1.55-1.39-2.47-1.66-.09-.03-.18-.05-.28-.07-.29-.07-.59-.11-.9-.11s-.63.04-.94.11c-.14.03-.28.07-.42.11-.54.18-1.04.46-1.52.8h0c-.31.24-.61.52-.88.83h0c-1.01,1.15-1.68,2.69-1.69,4.38-.01,3.37,2.61,6.25,5.42,6.26s5.46-2.62,5.47-6c0-1.18-.32-2.33-.86-3.32ZM148.35,165.84c-2.06,0-3.72-2.01-3.71-4.48,0-.33.03-.65.09-.96h0c.14-.75.44-1.43.85-1.99.32-.45.72-.82,1.18-1.08.16-.1.33-.18.51-.25.35-.13.73-.2,1.11-.2.39,0,.76.07,1.11.21.09.03.18.07.27.11,1.16.55,2.02,1.78,2.27,3.28,0,.09.03.18.04.27,0,.1.02.2.02.3,0,.11,0,.21,0,.32v.04c-.02,2.45-1.7,4.42-3.75,4.42Z"/>
                        <path class="cls-85" d="M152.71,161.42c0-.13-.02-.26-.04-.39h0c0-.05,0-.07-.02-.11-.1-.63-.32-1.24-.61-1.79-.55-1.01-1.37-1.83-2.32-2.24-.08-.03-.17-.07-.26-.1-.34-.12-.7-.18-1.07-.18-.36,0-.72.06-1.07.17-.17.06-.33.12-.49.2-.46.22-.89.53-1.27.91-.34.34-.63.74-.87,1.18-.41.75-.66,1.61-.66,2.53,0,2.69,2.09,4.99,4.33,5,2.25,0,4.36-2.09,4.37-4.78,0-.13,0-.25,0-.37ZM148.35,165.84c-2.06,0-3.72-2.01-3.71-4.48,0-.33.03-.65.09-.96h0c.14-.75.44-1.43.85-1.99.32-.45.72-.82,1.18-1.08.16-.1.33-.18.51-.25.35-.13.73-.2,1.11-.2.39,0,.76.07,1.11.21.09.03.18.07.27.11,1.16.55,2.02,1.78,2.27,3.28,0,.09.03.18.04.27,0,.1.02.2.02.3,0,.11,0,.21,0,.32v.04c-.02,2.45-1.7,4.42-3.75,4.42Z"/>
                        <polygon class="cls-20" points="147.49 153.02 146.51 158.81 149.97 158.82 149.21 153.03 147.49 153.02"/>
                        <path class="cls-26" d="M147.62,154.23l-.38,3.13s2.28.09,2.28-.03c0-.12-.43-3.06-.43-3.06l-1.47-.05Z"/>
                        <polygon class="cls-68" points="146.51 158.81 147.24 157.64 149.52 157.73 149.97 158.82 146.51 158.81"/>
                      </g>
                      <polygon class="cls-41" points="144.69 140.9 146.58 139.97 147.27 150.94 145.02 151.33 144.69 140.9"/>
                    </g>
                    <polygon class="cls-51" points="147.71 166.79 147.71 167.63 149.65 167.55 149.58 166.63 147.71 166.79"/>
                    <polygon class="cls-87" points="149.87 166.55 150.14 167.35 150.59 167.04 150.12 166.38 149.87 166.55"/>
                  </g>
                  <g>
                    <g>
                      <g>
                        <polygon class="cls-68" points="162.57 160.8 169.82 161.39 170.89 139.16 162.65 139.13 162.57 160.8"/>
                        <polygon class="cls-18" points="163.5 160.8 170.74 161.4 171.81 139.16 163.58 139.13 163.5 160.8"/>
                        <polygon class="cls-68" points="170.74 161.4 170.17 160.58 163.5 160.56 162.57 160.8 162.76 161.21 170.74 161.4"/>
                      </g>
                      <g>
                        <path class="cls-60" d="M170.94,157.23c-.27-.31-.57-.59-.88-.83-.47-.36-.98-.64-1.52-.81-.14-.05-.28-.09-.42-.12-.31-.07-.62-.11-.94-.11-.3,0-.61.03-.9.1-.09.02-.18.04-.27.07-.92.27-1.78.86-2.49,1.64-.35.39-.66.83-.93,1.31-.55.99-.87,2.14-.88,3.32-.01,3.37,2.61,6.03,5.42,6.04,2.81.01,5.46-2.85,5.47-6.23,0-1.69-.65-3.25-1.65-4.4ZM167.13,165.68c-2.05,0-3.7-2-3.71-4.45,0-.01,0-.03,0-.04,0-.11,0-.21.01-.31,0-.1.01-.2.03-.3.01-.09.02-.17.04-.26.25-1.5,1.13-2.72,2.29-3.27.09-.04.17-.08.26-.11.35-.13.72-.2,1.11-.2.39,0,.76.07,1.11.2.18.07.35.15.52.25.45.27.85.64,1.18,1.09.4.56.69,1.24.83,1.99.06.31.09.63.08.96,0,2.47-1.69,4.47-3.75,4.46Z"/>
                        <path class="cls-73" d="M170.86,158.91c-.23-.44-.53-.84-.87-1.18-.37-.39-.8-.7-1.26-.92-.16-.08-.32-.15-.49-.2-.35-.12-.71-.18-1.07-.18-.36,0-.72.06-1.07.18-.09.03-.18.06-.26.1-.94.4-1.78,1.21-2.33,2.22-.3.55-.52,1.16-.63,1.79,0,.03-.01.07-.02.1-.02.13-.03.26-.04.39-.01.12-.02.24-.02.37,0,2.69,2.09,4.82,4.33,4.82,2.25,0,4.36-2.28,4.37-4.97,0-.91-.23-1.78-.64-2.53ZM167.13,165.68c-2.05,0-3.7-2-3.71-4.45,0-.01,0-.03,0-.04,0-.11,0-.21.01-.31,0-.1.01-.2.03-.3.01-.09.02-.17.04-.26.25-1.5,1.13-2.72,2.29-3.27.09-.04.17-.08.26-.11.35-.13.72-.2,1.11-.2.39,0,.76.07,1.11.2.18.07.35.15.52.25.45.27.85.64,1.18,1.09.4.56.69,1.24.83,1.99.06.31.09.63.08.96,0,2.47-1.69,4.47-3.75,4.46Z"/>
                        <polygon class="cls-45" points="168.1 152.86 169.03 158.65 165.57 158.64 166.37 152.85 168.1 152.86"/>
                        <path class="cls-81" d="M167.95,154.07l.35,3.13s-2.28.07-2.28-.04c0-.12.45-3.05.45-3.05l1.47-.04Z"/>
                        <polygon class="cls-68" points="169.03 158.65 168.31 157.48 166.02 157.56 165.57 158.64 169.03 158.65"/>
                      </g>
                      <polygon class="cls-82" points="171.03 140.75 170.09 139.79 169.62 150.76 170.75 151.17 171.03 140.75"/>
                    </g>
                    <polygon class="cls-66" points="167.77 166.63 167.77 167.47 165.83 167.37 165.9 166.45 167.77 166.63"/>
                    <polygon class="cls-30" points="165.61 166.37 165.34 167.17 164.89 166.86 165.36 166.19 165.61 166.37"/>
                  </g>
                </g>
                <polygon class="cls-28" points="187.35 210.6 187.34 210.77 122.73 210.52 122.73 210.35 187.35 210.6"/>
                <path class="cls-24" d="M126.68,53.17s10.39,11.64,10.93,11.51,14.23-4.4,14.23-4.4l-5.35-20.16s4,17.29,3.88,17.82c-.12.53-12.17,4.41-13.44,4.35-1.27-.06-10.25-9.13-10.25-9.13Z"/>
                <path class="cls-46" d="M102.47,85.98c.4.02,12.64-.32,12.64.05,0,.36-2.9,10.57-2.9,10.57l-9.78-.04,14.03.05,1.52-11.86-15.51,1.23Z"/>
                <polygon class="cls-83" points="114.52 144.8 102.25 146.38 114.52 146.08 114.52 144.8"/>
                <path class="cls-29" d="M212.55,96.63l-9.05.47-.03,7.48,9.23.03s-11.81,1.05-11.81.87c0-.17-1.52-10.25-1.52-10.25l13.19,1.4Z"/>
                <polygon class="cls-3" points="184.62 54.39 178.57 60.38 189.55 70.16 203.6 67.9 187.6 72.18 171.01 63.23 184.62 54.39"/>
                <path class="cls-10" d="M215.67,213.87l5.7-97.25c-1.82,39.74-4.46,87.2-5.08,97.68l-.62-.43Z"/>
                <path class="cls-56" d="M222.67,85.62c-.31,8.85-.75,19.29-1.26,30.34l-8.64,2.36-.86,21.89-.33.25c.71-25.74,1.06-50.61.01-58.22-4.48-32.82-54.78-47.39-54.78-47.39,0,0-48.64,12.22-54.32,46.99-3.8,23.2,3.28,126.55,3.28,126.55l-8.4,5.48c-.93-17.52-4.59-88.79-5.68-127.92-.61-21.95,17.42-40.01,32.66-51.28,14.65-10.85,29.61-17.69,33.1-19.23,3.47,1.52,18.32,8.28,32.88,19.03,15.18,11.22,33.11,29.19,32.33,51.16Z"/>
                <g>
                  <path class="cls-37" d="M285.07,237.38l-255.76-.94s-1.55-4.63-2.2-7.68l.78-2.33.37-1.13s4.5-1.26,7.93-1.71c3.43-.46,7.46-1.16,11.6-3.27l5.55.02v-2.83c.06-.02.1-.05.15-.07.78-.4,1.54-.77,2.27-1.14.7-.35,1.37-.68,2.01-1.01.03-.02.06-.03.09-.04.64-.33,1.25-.63,1.82-.91.9-.45,1.71-.85,2.4-1.2.18-.09.35-.17.51-.25,1.25-.63,1.98-.98,1.98-.98l14.84-.08,7.49-.03.26,2.02,10.19.04,5.88-4.83.29-.24h1.58s2.64-.01,2.64-.01l5.11-.02h2.41s0-.01,0-.01l7.4-.03,31.02-.12h2.58s2.58.02,2.58.02l28.55.33,9.63.11h0l9.04.1,2.95.03.05.04,4.37,3.65,1.7,1.43,10.19.04.28-2.02h.15s3.95.05,3.95.05l18.24.23s11.58,5.82,22.06,11.32c8.55,4.48,17.38,2.74,17.56,3.45,0,.02,0,.04,0,.06.3,1.69-2.54,9.96-2.54,9.96Z"/>
                  <path class="cls-37" d="M98.56,228.73l1.81,7.97-71.06-.26s-.07-.2-.18-.55c-.43-1.31-1.51-4.72-2.02-7.13l.78-2.33.37-1.13s4.51-1.26,7.93-1.71c3.43-.45,7.46-1.16,11.6-3.26l5.55.02v-2.83c.06-.02.1-.05.15-.07.78-.4,1.54-.78,2.27-1.14.71-.35,1.38-.69,2.02-1.02.03-.02.06-.03.09-.04.64-.31,1.25-.62,1.82-.91.9-.45,1.72-.85,2.41-1.2.18-.09.35-.17.51-.25,1.25-.62,1.98-.98,1.98-.98l14.84-.08,7.49-.03.26,2.02,10.19.04,5.88-4.83.29-.24h4.22s5.11-.03,5.11-.03l-14.31,19.97Z"/>
                  <path class="cls-21" d="M258.72,228.14s28.54,1.93,28.6,1.66.29-2.39.29-2.39l-28.89.72Z"/>
                  <path class="cls-37" d="M285.07,237.38l-255.76-.94s-1.55-4.63-2.2-7.68l.78-2.33,18.69.61h.01l61.77,2.01s3.25,1.92,3.5,1.04c.15-.53.17-.99.17-.99l59.99-.34h.35s10.67.97,10.82.7l.02-.03,18.86.07s.18,1.67,1.13,1.67c.96,0,.71-1.67.71-1.67l19.88-.5,1.96-.05,61.86-1.54c.3,1.69-2.54,9.96-2.54,9.96Z"/>
                  <polygon class="cls-21" points="46.58 227.05 27.11 228.77 27.11 228.77 27.11 228.76 27.89 226.44 28.26 225.31 28.26 225.31 28.26 225.31 46.58 227.05"/>
                  <polygon class="cls-21" points="84.74 228.29 99 230.21 98.56 228.73 84.74 228.29"/>
                  <polygon class="cls-50" points="162.14 219.97 107.07 220.55 112.87 208.76 159.89 208.63 162.14 219.97"/>
                  <path class="cls-21" d="M79.12,220.8l-25.78-.44v-2.83c.06-.02.1-.05.15-.07,7.89.97,25.63,3.34,25.63,3.34Z"/>
                  <polygon class="cls-48" points="100.37 236.7 98.56 228.73 111.21 211.49 100.74 229.11 101.5 236.71 100.37 236.7"/>
                  <path class="cls-27" d="M162.43,236.93l.89-8.11-2.5-8.12-50.82-.48,52-2-.87-6.54,1.53,8.6,3.18,8.77s.36,7.9.23,7.9c-.13,0-3.65-.01-3.65-.01Z"/>
                  <path class="cls-27" d="M225.75,228.97l.7,8.2h-2.69s.03-8.41.03-8.41l-11.36-5.34-9.25-13.35,9.44,12.17,5.86-.73,51.39,2.41c-3.19.27-50.54-1.75-50.87-1.75-.35,0,6.74,6.59,6.74,6.59l.02.2Z"/>
                </g>
                <path class="cls-76" d="M221.42,115.96l-.02.27c.01-.09.01-.18.01-.27h0Z"/>
                <polygon class="cls-62" points="186.44 168.16 186.29 208.1 187.46 208.32 186.44 168.16"/>
                <polygon class="cls-63" points="213.35 110.14 232.31 109.18 231.12 110.83 213.35 110.14"/>
                <polygon class="cls-32" points="212 223.21 165.06 226.87 166 228.21 222 228.21 212 223.21"/>
                <path class="cls-34" d="M53.34,220.35l-5.55-.02c-4.14,2.1-8.17,2.81-11.6,3.26-3.42.45-7.93,1.71-7.93,1.71l-.37,1.13-.78,2.33c.51,2.41,1.59,5.82,2.02,7.13l-.13.32-3-7,2-5s10-1,13-2l6-2,6.34.14Z"/>
                <polygon class="cls-34" points="47 220.21 71.71 220.74 45 221.21 47 220.21"/>
                <polygon class="cls-16" points="132.42 208.63 132.01 159.01 134.15 163.83 136.32 138.74 137.82 144.19 139.32 141.66 143.65 183.07 144.99 178.07 149.99 205.63 152.65 205.63 172.65 208.8 132.42 208.63"/>
                <polygon class="cls-52" points="132.01 163.83 134.15 163.83 132.01 159.01 132.01 163.83"/>
                <polygon class="cls-52" points="135.85 144.19 137.82 144.19 136.32 138.74 135.85 144.19"/>
                <polygon class="cls-47" points="136.96 144.19 141.44 183.7 143.65 183.07 148.19 205.45 149.99 205.63 144.99 178.07 143.57 182.57 139.32 141.66 137.82 144.19 136.96 144.19"/>
              </g>
              <polygon class="cls-34" points="271 224.21 262.79 223.87 271.17 223.63 271 224.21"/>
            </g>
          </g>
        </g>
      </g>
    </g>
  </g>
</svg>