<?xml version="1.0" encoding="UTF-8"?>
<svg id="Layer_2" data-name="Layer 2" xmlns="http://www.w3.org/2000/svg" xmlns:xlink="http://www.w3.org/1999/xlink" viewBox="0 0 1923.95 809.29">
  <defs>
    <style>
      .cls-1 {
        fill: #00537b;
      }

      .cls-1, .cls-2, .cls-3, .cls-4, .cls-5, .cls-6, .cls-7, .cls-8, .cls-9, .cls-10, .cls-11, .cls-12, .cls-13, .cls-14, .cls-15, .cls-16, .cls-17, .cls-18, .cls-19, .cls-20, .cls-21, .cls-22, .cls-23, .cls-24, .cls-25, .cls-26, .cls-27, .cls-28, .cls-29, .cls-30, .cls-31, .cls-32, .cls-33, .cls-34, .cls-35, .cls-36, .cls-37, .cls-38, .cls-39, .cls-40, .cls-41, .cls-42, .cls-43, .cls-44, .cls-45, .cls-46, .cls-47, .cls-48, .cls-49, .cls-50, .cls-51, .cls-52, .cls-53, .cls-54, .cls-55, .cls-56, .cls-57, .cls-58, .cls-59 {
        stroke-width: 0px;
      }

      .cls-2 {
        fill: #174568;
      }

      .cls-3 {
        fill: #8384a9;
      }

      .cls-4 {
        fill: url(#linear-gradient);
      }

      .cls-5 {
        fill: #397792;
      }

      .cls-6 {
        fill: #a78b96;
      }

      .cls-7 {
        fill: #f57f2d;
      }

      .cls-8 {
        fill: #dc7f66;
      }

      .cls-9 {
        fill: #5572a0;
      }

      .cls-10 {
        fill: #ac7f6a;
      }

      .cls-11 {
        fill: url(#linear-gradient-6);
      }

      .cls-12 {
        fill: #997b72;
      }

      .cls-13 {
        fill: #fcf1be;
      }

      .cls-14 {
        fill: #7c7293;
      }

      .cls-15 {
        fill: #d2aca1;
      }

      .cls-16 {
        fill: #6c344b;
      }

      .cls-17 {
        fill: #717ca7;
      }

      .cls-18 {
        fill: #e9ba73;
      }

      .cls-19 {
        fill: #212b46;
      }

      .cls-20 {
        fill: #fc6;
      }

      .cls-21 {
        fill: #3a3b63;
      }

      .cls-22 {
        fill: #9c93ac;
      }

      .cls-23 {
        fill: #fbe696;
      }

      .cls-24 {
        fill: url(#linear-gradient-5);
      }

      .cls-25 {
        fill: #8f959d;
      }

      .cls-26 {
        fill: #db6b36;
      }

      .cls-27 {
        fill: #814d60;
      }

      .cls-28 {
        fill: #cbc0c2;
      }

      .cls-29 {
        fill: #b4aab6;
      }

      .cls-30 {
        fill: #68648f;
      }

      .cls-31 {
        fill: #7ba7c5;
      }

      .cls-32 {
        fill: #fdf4df;
      }

      .cls-33 {
        fill: url(#linear-gradient-2);
      }

      .cls-34 {
        fill: #c5aa91;
      }

      .cls-35 {
        fill: #8d7b76;
      }

      .cls-36 {
        fill: #8b3a4f;
      }

      .cls-37 {
        fill: #614762;
      }

      .cls-38 {
        fill: url(#linear-gradient-7);
      }

      .cls-39 {
        fill: url(#linear-gradient-3);
      }

      .cls-40 {
        fill: #ffe0a5;
      }

      .cls-41 {
        fill: #585884;
      }

      .cls-42 {
        fill: #e55730;
      }

      .cls-43 {
        fill: #e7b39a;
      }

      .cls-44 {
        fill: #ca825e;
      }

      .cls-45 {
        fill: #d8beb0;
      }

      .cls-46 {
        fill: #ce4d3f;
      }

      .cls-47 {
        fill: #256390;
      }

      .cls-48 {
        fill: #fbb755;
      }

      .cls-49 {
        fill: #454a77;
      }

      .cls-50 {
        fill: #a2665a;
      }

      .cls-51 {
        fill: #de874f;
      }

      .cls-52 {
        fill: #70556c;
      }

      .cls-53 {
        fill: #9c747d;
      }

      .cls-54 {
        fill: #2088a6;
      }

      .cls-55 {
        fill: #f89b28;
      }

      .cls-56 {
        fill: #e2d3cc;
      }

      .cls-57 {
        fill: #c46c59;
      }

      .cls-58 {
        fill: url(#linear-gradient-4);
      }

      .cls-59 {
        fill: #528aab;
      }
    </style>
    <linearGradient id="linear-gradient" x1="980.17" y1="-86.24" x2="939.17" y2="307.88" gradientUnits="userSpaceOnUse">
      <stop offset="0" stop-color="#0664a2"/>
      <stop offset=".47" stop-color="#448faa"/>
      <stop offset="1" stop-color="#c0cdae"/>
    </linearGradient>
    <linearGradient id="linear-gradient-2" x1="1535.1" y1="143.86" x2="1503.89" y2="349.44" gradientUnits="userSpaceOnUse">
      <stop offset="0" stop-color="#579ba3"/>
      <stop offset="1" stop-color="#cdb58e"/>
    </linearGradient>
    <linearGradient id="linear-gradient-3" x1="274.2" y1="138.62" x2="341.49" y2="305.49" gradientUnits="userSpaceOnUse">
      <stop offset="0" stop-color="#fbad4f"/>
      <stop offset="1" stop-color="#bd9d7a"/>
    </linearGradient>
    <linearGradient id="linear-gradient-4" x1="359.76" y1="239.32" x2="358.96" y2="265.3" gradientUnits="userSpaceOnUse">
      <stop offset="0" stop-color="#b4c6ab"/>
      <stop offset="1" stop-color="#d5d5ad"/>
    </linearGradient>
    <linearGradient id="linear-gradient-5" x1="1378.39" y1="603" x2="1382.8" y2="792.77" gradientUnits="userSpaceOnUse">
      <stop offset="0" stop-color="#716182"/>
      <stop offset="1" stop-color="#e6eff1"/>
    </linearGradient>
    <linearGradient id="linear-gradient-6" x1="224.08" y1="438.6" x2="212.85" y2="505.69" gradientUnits="userSpaceOnUse">
      <stop offset="0" stop-color="#e8975e"/>
      <stop offset="1" stop-color="#f4b67d"/>
    </linearGradient>
    <linearGradient id="linear-gradient-7" x1="524.71" y1="258.7" x2="534.32" y2="402.64" gradientUnits="userSpaceOnUse">
      <stop offset="0" stop-color="#d35446"/>
      <stop offset=".72" stop-color="#e0653b"/>
      <stop offset="1" stop-color="#f99d3a"/>
    </linearGradient>
  </defs>
  <g id="jour_arriere">
    <path class="cls-4" d="M.03,225.97C.19,150.65-.09,75.32.03,0h1923.86c.12,59.21-.16,118.42,0,177.62-75.78,0-151.55-.01-227.33,0-13.15,0-26.3-.02-39.45,0-64.55.1-128.99.76-193.51,1.05-33.19.15-66.39-.22-99.57,0-37.33.25-252.52.55-265.85,3.15-1.47.29-.94,1.41-.94,2.1-9.7-5.14-19.63-3.62-21.61-4.2-41.16-12.11-80.77-27.89-122.12-38.89l-2.82,2.1c-.54-2.08-8.66-8.61-12.21-8.41-42.92,23.27-89.48,42.7-138.09,62.01-23.57,9.37-49.39,17.55-69.51,29.43-8.83.07-6.77.77-11.27,1.05-9.33.58-11.54,3.12-12.21,3.15-26.02,1.29-52.08,1.81-77.97,0-6.52-.46-17.11-3.66-21.61-4.2-5.86-.7-18.3.75-30.06-1.05-5.7-.87-18.63-6.67-22.55-7.36-3.96-.69-14.88.69-18.79,0-4.16-.74-17.65-7.27-18.79-7.36-1.91-.15-20.32,4.68-37.58,3.15-6.96-.61-15.26-4.89-22.55-5.26-21.4-1.08-44.73,9.37-69.51-1.05-20.13-8.46-1.55-20.62-86.42-5.26-22.48,4.07-69.3,17.6-73.27,17.87-6.64.45-12.47-2.11-13.15-2.1-8.13.12-15.64,2.38-18.79,2.1-2.85-.26-12.6-5.84-15.03-6.31-27.12-5.25-78.88,17.44-97.7,15.77-2.43-.22-13.9-6.08-18.79-6.31-7.1-.33-20.38,5.01-24.42,5.26-11.68.72-23.27-4.74-40.39-2.1Z"/>
    <path class="cls-33" d="M1875.04,189.19c16.28.13,32.57-.1,48.85,0,.15,65.16-.06,130.33,0,195.49-32.48-5.87-65.53,5.36-98.64,3.15-25.22-1.68-83.22-21.47-93.94-22.07-3.03-.17-57.21,4.76-60.12,5.26-8.6,1.46-19.41,8.29-20.67,8.41-6.03.59-10.47-5.85-20.67-5.26-4.35.25-11.66,6.37-27.24,6.31-2.7-.01-32.28-4.78-33.82-5.26-8.88-2.71-19.1-11.74-27.24-14.71-11.21-4.1-16.89-2.9-17.85-3.15-22.13-5.83-22.34-3.88-23.48-4.2-4.77-1.33,8.49-8.53-39.45-6.31-6.19,1.05,2.31,2.62,14.09,7.36-82.34-17.51-143.51-54.48-214.18-81.98-4.54-2.74-7.9-4.77-15.03-5.26-12.18-9.03-21.18-9.45-30.06-13.66-2.98-1.41-3.6-.98-3.76-1.05-36.4-16.93-77.89-31.83-80.79-34.16-2.33-1.87-13.13-18.82-28.18-28.9,83.16.64,166.74,2.24,249.88,2.1,41.23-.07,82.71-1.95,124-2.1,38.15-.14,76.42.14,114.6,0,94.78-.35,188.89-.76,283.69,0Z"/>
    <path class="cls-40" d="M501.66,287.98c-35.72,7.37-32.63,13.89-57.3,23.12-16.17,6.05-112.01,31.37-136.21,36.79-26.77,5.99-53.61,10.34-80.79,14.71-96.43-14.25-95.09,4.59-117.42,8.41-2.83.48-8.86-.44-12.21,0-31.44,4.11-65.67,5.86-97.7,8.41.03-30.48-.05-60.96,0-91.44,110.84-1.2,221.69-2.57,332.54-3.15,29.29-.15,153.01-1.95,166.27,0,.7.1,1.42,1.92,2.82,3.15Z"/>
    <path class="cls-39" d="M629.42,230.18q-24.89,3.68-49.79,7.36C386.61,245.06,193.45,246.65.03,248.04c.01-7.36-.02-14.71,0-22.07,17.13-2.64,28.72,2.82,40.39,2.1,4.04-.25,17.33-5.58,24.42-5.26,4.89.22,16.36,6.09,18.79,6.31,18.82,1.67,70.57-21.02,97.7-15.77,2.43.47,12.18,6.05,15.03,6.31,3.14.28,10.66-1.98,18.79-2.1.68-.01,6.51,2.55,13.15,2.1,3.97-.27,50.79-13.8,73.27-17.87,84.88-15.37,66.3-3.21,86.42,5.26,24.78,10.42,48.12-.03,69.51,1.05,7.29.37,15.59,4.64,22.55,5.26,17.26,1.52,35.67-3.3,37.58-3.15,1.14.09,14.62,6.62,18.79,7.36,3.9.69,14.82-.69,18.79,0,3.91.68,16.85,6.49,22.55,7.36,11.76,1.8,24.2.35,30.06,1.05,4.5.54,15.08,3.75,21.61,4.2Z"/>
    <path class="cls-58" d="M719.6,227.02q-16.91,7.36-33.82,14.71c-37.15,8.16-71.04,19.86-107.09,29.43-21.57-2.25-32.74,4.29-57.3-5.26-94.21,1.52-188.51,1.56-282.75,2.1-79.54.45-159.06,2.5-238.6,0,.01-6.66-.01-13.31,0-19.97,193.42-1.39,386.58-2.99,579.6-10.51q24.89-3.68,49.79-7.36c25.89,1.81,51.95,1.29,77.97,0,.67-.03,2.88-2.58,12.21-3.15Z"/>
    <path class="cls-48" d="M238.63,268.01c15.64,4.26,59.7-.29,73.27,9.98,4.94,3.74-10.81,5.4,20.67,6.83-110.85.58-221.71,1.95-332.54,3.15.01-6.66-.01-13.31,0-19.97,79.54,2.5,159.07.45,238.6,0Z"/>
    <path class="cls-35" d="M1923.89,177.62c.01,3.85,0,7.71,0,11.56-16.28-.1-32.57.13-48.85,0,0-.73.5-1.82-.94-2.1-10.39-2.02-134.87,2.03-140.91,0-4.35-1.47,9.55-9.42-36.64-9.46,75.78-.01,151.55,0,227.33,0Z"/>
    <path class="cls-51" d="M1364.02,178.68c8.94,10.08-4.53,7.53-11.27,12.61-83.14.14-166.72-1.46-249.88-2.1-2.91-1.95-5.05-4.95-5.64-5.26,0-.69-.53-1.82.94-2.1,13.32-2.6,228.52-2.91,265.85-3.15Z"/>
    <path class="cls-10" d="M1657.1,177.62c57.58,10.95-8.99,9.51-64.82,9.46l-.94,2.1c-38.18.14-76.46-.14-114.6,0q4.7-2.36,9.39-4.73-11.27-2.89-22.55-5.78c64.52-.3,128.97-.95,193.51-1.05Z"/>
    <path class="cls-44" d="M1463.59,178.68q11.27,2.89,22.55,5.78-4.7,2.36-9.39,4.73c-41.28.15-82.77,2.03-124,2.1,6.74-5.08,20.21-2.53,11.27-12.61,33.18-.22,66.39.15,99.57,0Z"/>
    <path class="cls-12" d="M1696.56,177.62c46.19.04,32.28,7.99,36.64,9.46,6.03,2.03,130.52-2.02,140.91,0,1.44.28.95,1.37.94,2.1-94.81-.76-188.91-.35-283.69,0l.94-2.1c55.83.05,122.4,1.49,64.82-9.46,13.15-.02,26.3,0,39.45,0Z"/>
    <path class="cls-18" d="M578.69,271.17c-11.08,2.94-21.57,7.94-32.88,10.51-18.05,4.1-40.9,5.64-44.15,6.31-1.4-1.23-2.12-3.05-2.82-3.15-13.26-1.95-136.98-.15-166.27,0-31.47-1.44-15.73-3.09-20.67-6.83-13.57-10.28-57.63-5.72-73.27-9.98,94.24-.54,188.54-.58,282.75-2.1,24.57,9.55,35.73,3,57.3,5.26Z"/>
    <path class="cls-25" d="M1568.8,375.22c-5.59-.71-5.87,3.94-8.45,4.2-2.93.3-47.07-12.82-53.54-14.71q8.45-3.68,16.91-7.36c.96.25,6.64-.95,17.85,3.15,8.14,2.98,18.37,12,27.24,14.71Z"/>
    <g>
      <g>
        <path class="cls-24" d="M1923.89,560.2c-.03,43.09.05,86.18,0,129.28-3.13,14.69-5.41,10.91-5.64,11.56-38.21-1.26-115.14,16.87-156.88,26.28-45.6,10.28-88.95,24.3-135.27,33.63-47.69,9.6-98.33,15.28-146.54,24.17-22.69,4.19-52.78,12.99-67.64,15.77-21.36,3.99-18.06-2.48-49.79,8.41-61.2-30.86-134.54-15.04-204.79-10.51-1.89-3.6-8.54-7.62-8.45-12.61-4.23,7.13-1.79,14.06-17.85,8.41-11.11-3.91-8.14-16.43-19.73,0-38.48-5.96-23.86-17.69-31-22.6-3.87-2.66-8.93-.48-9.39-.53-8.15-.88-14.37-1.96-22.55,0-.73-.79,1.47-5.97-2.82-6.31-4.37-.34-7.88,14.19-22.55-9.46-15.66,20.32-9.02-2.39-20.67-9.46-15.22,30.89-18.85-5.31-26.3-6.31-21.66,21.45-16.32-14.3-28.18,3.15-28.66,2.34-1.11-24.85-26.3-6.31-15.69-9.44-3.8-34-24.42-7.36-25.03-6.68-16.18-11.96-20.67-12.61-1.63-.24-10.84,9.74-20.67-7.36-6.86-1.66-12.76,15.28-21.61-7.36,79.17-9.7,111.64,3.04,139.97,3.15,21.89.09,155.03-20.91,187.88-26.28,81.46-13.32,161.29-30.6,243.3-43.09,23.57-3.59,47.72-7.12,71.39-10.51,23.36-3.34,47.98-5.02,71.39-8.41,63.14-9.14,126.76-16.57,189.76-26.28,13.45-2.07,26.29-5.23,39.45-7.36,18.07-2.92,36.39-5.37,54.48-8.41,20.69-3.47,41.33-7,62-10.51,9.84-1.67,19.63-3.87,30.06-4.2Z"/>
        <path class="cls-43" d="M888.69,444.59c1.42.09,3.61,2.86,6.58,3.15,14.4,1.41,31.66-.59,29.12,7.36-.26.1,1.17.91-1.88,2.1-9.95,3.9-13.47,2.91-14.09,3.15-21.17,8.34-26.81,8.91-28.18,9.46-15.78,6.34-26.32,12.53-29.12,13.66-28.77,11.7-37.63,17.75-40.39,18.92-.89.38-4.75-.38-5.64,0-29.71,12.59-61.57,22.99-87.36,38.36q1.41,1.84,2.82,3.68c30.36-2.33,60.46,2.04,63.88,2.1,20.39.38,67.14-2.38,73.27-2.1,3.71.17,56.73,8.4,65.76,8.41,8.48,0,138.56-26.3,160.63-30.48-.02.71-.46,1.92.94,2.1,3.43.46,63.77,2.21,70.45,2.1q-1.88,4.2-3.76,8.41-1.41-1.05-2.82-2.1c1.05,6.98-4.23,4.92-4.7,5.26-31.96,4.54-67.79-.02-75.15,13.14,3.35,6.84,30.89,5.46,34.76,7.88,2.64,1.65-3.18,3.22,0,4.2.86.27,6.31-1.23,19.73,0,4.25.39,8.19,3.64,35.7,1.05,3.98-.37,9.85.14,15.03-3.15,20.22,2.15,20.54-1.27,21.61-1.05,1.46.3.22,3.59,3.76,4.2,15.5,2.67,47.61-9.89,72.33-6.31,11.96,1.73,24,5.9,35.7,8.41.53.11-1.02,2.21,8.45,4.2.53.11,5.67-.98,11.27,0,2.51.44,11.49,3.96,14.09,4.2l-1.88,2.1c-36.06.62-49.12,4.32-82.67,11.04l8.45,3.68c31.03,2.53,60.93,8.12,91.12,12.61q-.47,3.68-.94,7.36c-56.63,1.44-114.73-5.93-58.24,4.2,45.67-2.34,56.96,12.67,100.51-5.26,11.4,1.69,22.48,3.48,33.82,5.26,5.87,10.44-12.58,2.1-32.88,3.15-1.93.1-19.01,4.57-37.58,5.26-30.75,1.14-93.37-.47-128.7.53,56.58,8.85,115.88,4.66,173.79,8.93l-.94,2.1c-82.01,12.5-161.84,29.78-243.3,43.09-32.85,5.37-165.98,26.37-187.88,26.28-28.32-.12-60.8-12.85-139.97-3.15-1.36.17-.27-6.29-12.21,4.2-19.25,3.06,1.49-27.22-22.55-6.31-31.92-6.57-7.76-16.71-31.94-8.41-21.77-16.57-19.06,2.14-31.94-15.77-9.83,7.42-24.46-.16-25.36-1.58-.9-1.4,4.47-30.42-17.85-2.63-21.42-16.17-18.61,2.53-31.94-17.87-12.32,16.18-17.75-.24-23.48-8.41,2.88-1.56,9.38-3.92,12.21-4.2,23.78-2.37,155.89,4.52,195.39,3.15,18.51-2.82-30.25-8.29-37.58-9.46-1.32-.21-4.39-2.98-5.64-3.15-44.34-6.16-139.5-6.27-189.76-7.36-1.3-.03,4.77-1.05-24.42-1.05-2.04,0-17.85-6.39-31,8.41-2.72-2.1-2.68-5.73-4.7-6.31-9.34-2.66-4.95,11.45-33.82-9.46-1.61,7.62-17.87.13-24.42,3.15-24.7-15.53-16.25-6.73-22.55-7.36-3.92-.39-7.27-11.23-9.39-11.56-19.04,12.56-19.17-.05-22.55,7.36-10.7-15.02-15.57-6.25-16.91-6.31-4.23-.16-1.05-22.11-18.79-6.31-10.72.78-10.27-22.01-16.91-3.15-11.02-7.56.65-15.92-21.61-7.36-4.03-17.6-10.86-8.79-12.21-8.41-1.28.36-9.78-16.89-15.03-3.15-13.29-13.77-19.84,1.45-24.42-19.97-19.55,23.76-14.06-26.55-30.06-2.1-26.64-11.22-52.43-24.38-81.73-33.63,27.12-5.84,61.19-7.37,87.36-11.56,24.77-3.97,53.83-12.21,78.91-15.77,26.61-3.77,53.63-4.07,79.85-8.41,2.48.07,5.03.03,7.52,0,7.94-.11,132.08-14.16,155.94-16.82-.1,2.27-.9,3.72,2.82,5.26,4.49,1.86,105.27,6.45,110.85,6.31,16.88-.44,30.9-4.74,46.03-7.36,29.88-5.17,110.46-24.65,118.36-24.17Z"/>
        <path class="cls-29" d="M1737.89,590.68c-63,9.71-126.62,17.13-189.76,26.28-10.35-5.02-93.33-3.14-98.64-2.1-1.47.29-.94,1.41-.94,2.1-4.57-.72-14.31-.64-16.91-1.05-11.33-1.77-22.42-3.57-33.82-5.26-13.75-2.03-27.54-4.25-41.33-6.31-30.19-4.49-60.09-10.08-91.12-12.61l-8.45-3.68c33.54-6.72,46.61-10.42,82.67-11.04,49.83-.85,99.13,2.36,149.36,0,.5-.02,8.89,2.14,9.39,2.1,1.79-.14.07-2.97,1.88-3.15,14.47-1.49,38.87-1.1,32.88-9.46,14.14,2.69,29.55,2.81,31,3.15,4.15.98,6.5,6.04,7.52,6.31,50.67,13.19,113.71.04,166.27,14.71Z"/>
        <path class="cls-22" d="M1660.86,563.35c10.41,2.83,21.19,4.14,31.94,6.31,27.69,5.57,55.74,10.25,84.54,13.66-13.16,2.13-26.01,5.29-39.45,7.36-52.56-14.68-115.6-1.52-166.27-14.71-1.01-.26-3.36-5.33-7.52-6.31-1.45-.34-16.86-.47-31-3.15-6.34-1.2-11.83-2.57-15.03-3.15,18.7-3.98,40.11,2.25,42.27,2.1,1.67-.11,9.38-4.02,11.27-4.2,1.3-.13,10.39.89,16.91,0,8.52-1.16,34.82-9.9,43.21-7.36,1.96.59,13.49,20.71,29.12,9.46Z"/>
        <path class="cls-45" d="M1448.56,616.96c8.89,1.4,44.17,7.01,28.18,8.41-23.67,3.39-47.83,6.92-71.39,10.51l.94-2.1c-57.9-4.27-117.2-.09-173.79-8.93,35.32-.99,97.95.61,128.7-.53,18.56-.69,35.65-5.16,37.58-5.26,20.3-1.05,38.75,7.29,32.88-3.15,2.6.41,12.34.33,16.91,1.05Z"/>
        <path class="cls-28" d="M1548.14,616.96c-23.41,3.39-48.04,5.06-71.39,8.41,15.99-1.4-19.29-7-28.18-8.41,0-.69-.53-1.82.94-2.1,5.3-1.04,88.29-2.92,98.64,2.1Z"/>
        <path class="cls-21" d="M1446.68,508.7c.28,3.94-23.91,1.26-14.09,7.36,16.31,2.65,31.99,6.19,47.91,9.46-17.83,1.87-36.46,1.26-54.48,1.05-7-1.19-17.39-4.81-23.48-5.26-18.27-1.34-73.4,2.07-97.7,3.15-1.46.06-.42,2.03-1.88,2.1-.83.04,5.14-1.95-14.09-1.05-2.6.12-5.02-1.45-12.21-1.05-1.17.06-11.99,3.96-15.97,4.2-26.77,1.67-41.57-5.91-48.85-5.26l-3.76-4.2c34.2-6.78,89.43-22.17,129.63-29.43,6.7,1.2,16.15,5.81,25.36,7.36,20.72,3.48,64.12,10.16,83.61,11.56Z"/>
        <path class="cls-42" d="M1271.96,485.58c22.61-.74,44.13.34,65.76,4.2-40.2,7.26-95.44,22.65-129.63,29.43-14.5,2.88-37.69,7.12-52.61,7.36-6.68.11-67.02-1.65-70.45-2.1-1.4-.19-.96-1.39-.94-2.1,23.21-4.4,47.15-7.97,69.51-13.66,13.94-1.07,18.71-3.82,20.67-4.2,21.84-4.23,50.32-12.35,63.88-14.71l3.76-1.05c8.08-1.23,22.03-2.89,30.06-3.15Z"/>
        <g>
          <path class="cls-14" d="M1831.83,574.91c-18.1,3.04-36.41,5.49-54.48,8.41-28.8-3.41-56.85-8.09-84.54-13.66,7.46-7.24,73.12,3.31,78.91-10.51,8.02,2.01,15.36,5.44,23.48,7.36,11.95,2.81,37.05,4.32,36.64,8.41Z"/>
          <path class="cls-49" d="M1576.32,520.26c13.74,2.64,33.48,9.2,46.97,11.56-.71,10.41-66.84-.23-90.18,3.15-17.46-3.12-35.4-5.92-52.61-9.46-15.92-3.27-31.59-6.81-47.91-9.46-9.82-6.1,14.37-3.41,14.09-7.36,45,3.23,51.76-3.37,129.63,11.56Z"/>
          <path class="cls-41" d="M1690.92,540.23c16.04,2.61,21.28,4.62,33.82,7.36-6.68,12.25-65.87-2.1-93.94,3.15-9.34-3.1-71.12-11.02-97.7-15.77,23.34-3.39,89.47,7.26,90.18-3.15,22.2,3.89,45.41,4.79,67.64,8.41Z"/>
          <path class="cls-30" d="M1767.95,558.1c1.34.34,2.42.72,3.76,1.05-5.78,13.82-71.45,3.27-78.91,10.51-10.75-2.16-21.53-3.47-31.94-6.31-21.79-5.93-27.03-11.61-30.06-12.61,28.07-5.25,87.26,9.1,93.94-3.15,14.61,3.19,28.9,6.92,43.21,10.51Z"/>
        </g>
        <path class="cls-53" d="M1007.05,496.09c-4.37,1.62-40.69,12.44-36.64,13.66,5.83,1.76,69.19-23.91,79.85-27.33,2.71,1.62,5.17,3.47,7.52,5.26-9.59-.71-11.06-3.39-7.52,4.73,24.42,6.16,20.18,4.95,7.52-4.73,12.31.91,40.92,10.85,45.09,2.1,2.86.97,6.57,2.33,9.39,3.15,6.51,9.01,22.47,17.21,41.33,15.77-22.36,5.7-46.31,9.27-69.51,13.66-22.07,4.18-152.15,30.48-160.63,30.48-9.03,0-62.04-8.24-65.76-8.41-6.14-.28-52.89,2.48-73.27,2.1-3.42-.06-33.52-4.43-63.88-2.1q-1.41-1.84-2.82-3.68c25.8-15.37,57.65-25.78,87.36-38.36.89-.38,4.75.38,5.64,0,2.76-1.16,11.63-7.22,40.39-18.92,2.17,6.96,12.74-3.65,21.61-2.1,2.07.36,11.43,10.88,34.76,1.58-.26-1.37-20.79-.14-1.88-9.98,13.8,4.86,40.08,5.35,62.94,10.51,8.25,1.86,26.43,9.69,38.51,12.61Z"/>
        <path class="cls-21" d="M1067.17,474.01c-21.69,5.91-40.15,14.68-60.12,22.07-12.09-2.92-30.27-10.75-38.51-12.61-22.86-5.16-49.14-5.65-62.94-10.51,9.51-4.95,23.32-6.31,35.7-6.83-11.38-2.96-16.14-.57-18.79-8.93,3.05-1.19,1.62-2,1.88-2.1,23.25-9.1,47.3-18.83,67.64-30.48,5.63-.58,39.74-1.73,42.27-1.05-5.19,21.6,26.91,3.27,55.42,28.9,3.37,14.21-27.43,13.84-22.55,21.55Z"/>
        <path class="cls-45" d="M636.93,645.33c-9.99,5.42-10.67,17.26-14.09-2.1-6.12,19.84-11.38.21-13.15,0-1.67-.2-12.35,7.81-26.3-4.2-7.52,6.76-1.84-.73-9.39-4.2-3.75-1.72-9.37,3.37-17.85-3.15,13.15-14.8,28.96-8.41,31-8.41,29.19,0,23.12,1.02,24.42,1.05,50.26,1.09,145.41,1.2,189.76,7.36,1.25.17,4.31,2.94,5.64,3.15,7.32,1.17,56.08,6.64,37.58,9.46-39.51,1.37-171.61-5.52-195.39-3.15-2.83.28-9.34,2.64-12.21,4.2Z"/>
        <path class="cls-37" d="M845.48,417.26c3.86,4.24-6.46,12.49-1.88,16.29,2.71,2.25,29.2,10.25,45.09,9.98v1.05c-7.9-.48-88.48,19-118.36,24.17-20.14-2.18-57.11-.17-67.64-9.98,8.47-3.85,13.27,1.62,9.39-6.83,7.79-1.65,120.74-30.98,133.39-34.68Z"/>
        <path class="cls-28" d="M1518.07,563.35c3.2.58,8.69,1.95,15.03,3.15,6,8.36-18.4,7.97-32.88,9.46-1.81.19-.08,3.01-1.88,3.15-.5.04-8.89-2.13-9.39-2.1-50.23,2.36-99.53-.85-149.36,0l1.88-2.1c15.75,1.49,84.82-.67,69.51-17.87,33.83,2.95,31.88-4.43,47.91-4.2,3.1.04,50.25,8.89,59.18,10.51Z"/>
        <path class="cls-56" d="M1410.99,557.05c15.3,17.2-53.76,19.36-69.51,17.87-2.6-.25-11.58-3.77-14.09-4.2-5.6-.98-10.75.11-11.27,0-9.47-2-7.93-4.09-8.45-4.2,23.32-1.7,44.82-8.85,65.76-14.71,11.12.62,15.65,3.98,17.85,4.2,2.62.26,6.76-2.36,9.39-2.1,4.81.47,9.75,3.1,10.33,3.15Z"/>
        <path class="cls-53" d="M1144.2,538.13c-4.81,3.45-8.75,7.25-15.03,9.98,11.04,4.43,6.99-5.54,18.79,2.1.59,3.81-31.58,4.88,26.3,11.04-5.18,3.29-11.05,2.78-15.03,3.15-9.37-4.04-26.19-4.91-35.7-1.05-13.42-1.23-18.86.27-19.73,0-3.18-.99,2.64-2.56,0-4.2-3.87-2.42-31.41-1.04-34.76-7.88,7.36-13.15,43.19-8.6,75.15-13.14Z"/>
        <path class="cls-37" d="M905.6,472.96c-18.91,9.84,1.62,8.61,1.88,9.98-23.32,9.3-32.69-1.22-34.76-1.58-8.87-1.54-19.44,9.06-21.61,2.1,2.8-1.14,13.34-7.33,29.12-13.66,1.37-.55,7.01-1.12,28.18-9.46.62-.24,4.14.75,14.09-3.15,2.65,8.36,7.41,5.97,18.79,8.93-12.38.52-26.19,1.88-35.7,6.83Z"/>
        <path class="cls-15" d="M1397.83,610.65c-43.56,17.93-54.84,2.92-100.51,5.26-56.49-10.14,1.62-2.77,58.24-4.2q.47-3.68.94-7.36c13.79,2.05,27.58,4.27,41.33,6.31Z"/>
        <path class="cls-22" d="M1373.41,551.79c-20.93,5.86-42.43,13.02-65.76,14.71-11.7-2.51-23.74-6.68-35.7-8.41q5.17-1.05,10.33-2.1c-14.43-.76-26.52-2.44-38.51-7.36,7.83,1.25,50.42,7.24,53.54,7.36,2.31.09,10.68-2.11,11.27-2.1,15.6.28,31.41,1.33,46.97,1.05,1.01-.02,3.75-3.94,17.85-3.15Z"/>
        <path class="cls-53" d="M1211.84,523.41c-3.2.29-25.38,10.28-60.12,12.61v-1.05q1.88-4.2,3.76-8.41c14.91-.24,38.11-4.48,52.61-7.36l3.76,4.2Z"/>
        <path class="cls-15" d="M1159.23,564.4c-27.5,2.59-31.45-.66-35.7-1.05,9.51-3.85,26.33-2.99,35.7,1.05Z"/>
        <path class="cls-14" d="M1426.02,526.57c18.02.21,36.65.82,54.48-1.05,17.21,3.53,35.14,6.34,52.61,9.46,26.57,4.74,88.35,12.67,97.7,15.77,3.03,1.01,8.27,6.69,30.06,12.61-15.63,11.25-27.16-8.87-29.12-9.46-8.39-2.54-34.69,6.19-43.21,7.36-6.52.89-15.61-.13-16.91,0-1.9.18-9.6,4.09-11.27,4.2-2.16.15-23.57-6.09-42.27-2.1-8.93-1.62-56.08-10.47-59.18-10.51-16.03-.23-14.08,7.15-47.91,4.2-.58-.05-5.53-2.68-10.33-3.15-2.63-.26-6.77,2.36-9.39,2.1-2.19-.22-6.73-3.58-17.85-4.2-14.1-.79-16.84,3.13-17.85,3.15-15.56.28-31.37-.77-46.97-1.05-.59-.01-8.96,2.19-11.27,2.1-3.13-.12-45.72-6.11-53.54-7.36-14.23-2.27-37.85-2.96-28.18-10.51,9.64-.35,28.6-2.49,39.45-3.15,29.42-1.8,56.35-1.61,59.18-2.1,3.19-.56,2.56-3.05,2.82-3.15,6.72-2.59,5.18-3.94,6.58-4.2,5.96-1.11,85.6.85,102.39,1.05Z"/>
        <g>
          <path class="cls-47" d="M1903.22,503.44c6.47,1.2,14.15,1.72,20.67,3.15,0,7.01,0,14.01,0,21.02-83.24-4.94-167.51-2.24-250.82-5.26-14.95-.54-91.97-9.63-98.64-3.68l1.88,1.58c-77.88-14.93-84.64-8.34-129.63-11.56-19.49-1.4-62.89-8.08-83.61-11.56-9.21-1.55-18.66-6.16-25.36-7.36-21.63-3.86-43.15-4.94-65.76-4.2-15.13-12.05,14.27-4.19,15.97-4.2,5.08-.04,56.63-3.9,46.03,1.58,10.11,4.15,9.56-3.67,24.42-3.15-16.6-1.11-10.63-5.92-2.82-6.83,10.03-1.17,87.47-.15,114.6,3.15,10.59,1.29,25.1,6.07,35.7,7.36,33.77,4.11,67.21,7.73,101.45,10.51.88.07,2.89,2.03,3.76,2.1,12.28.95,39.29-5.87,67.64,4.2,37.56-2.95,75.3,3.21,112.73,4.2,18.35.49,36.26-1.17,54.48-1.05,7.81.05,39.55,3.62,57.3,0Z"/>
          <path class="cls-9" d="M1923.89,527.62c0,5.26,0,10.51,0,15.77-32.15,1.91-72.37-3.73-83.61-4.2-15.88-.67-37.59.66-54.48,0-25.2-.99-80.19-10.5-94.88,1.05-22.22-3.62-45.43-4.52-67.64-8.41-13.49-2.36-33.23-8.93-46.97-11.56l-1.88-1.58c6.66-5.95,83.69,3.14,98.64,3.68,83.3,3.02,167.57.32,250.82,5.26Z"/>
          <path class="cls-17" d="M1923.89,543.38c0,5.61,0,11.21,0,16.82-10.43.33-20.22,2.53-30.06,4.2-5.58-9.13-37.8-5.38-53.54-6.31-25.84-1.52-72.48-7.77-72.33,0-14.31-3.59-28.6-7.32-43.21-10.51-12.54-2.74-17.78-4.75-33.82-7.36,14.69-11.55,69.68-2.04,94.88-1.05,16.89.66,38.61-.67,54.48,0,11.23.48,51.46,6.11,83.61,4.2Z"/>
          <path class="cls-3" d="M1893.83,564.4c-20.67,3.51-41.31,7.04-62,10.51.42-4.09-24.69-5.59-36.64-8.41-8.12-1.91-15.46-5.35-23.48-7.36-1.34-.33-2.42-.72-3.76-1.05-.14-7.77,46.5-1.52,72.33,0,15.75.93,47.97-2.83,53.54,6.31Z"/>
          <path class="cls-2" d="M1256.93,383.63c30.82,6.28,62.04,12.97,93,18.92,38.55,7.41,79.79,11.66,118.36,18.92,31.01,5.83,60.94,14.21,92.06,19.97,43.1,7.98,87.34,14.07,130.57,22.07,70.86,13.11,141.45,26.77,212.3,39.94-17.76,3.62-49.49.05-57.3,0-18.22-.12-36.13,1.54-54.48,1.05-37.43-1-75.17-7.15-112.73-4.2-28.35-10.07-55.36-3.25-67.64-4.2-.87-.07-2.88-2.03-3.76-2.1-34.24-2.78-67.68-6.4-101.45-10.51-10.59-1.29-25.11-6.07-35.7-7.36-27.13-3.3-104.57-4.32-114.6-3.15-7.81.91-13.78,5.72,2.82,6.83-14.87-.51-14.32,7.3-24.42,3.15,10.6-5.48-40.95-1.62-46.03-1.58-1.7.01-31.1-7.85-15.97,4.2-8.03.26-21.98,1.93-30.06,3.15-1.83.28-3.15.95-3.76,1.05-13.56,2.36-42.04,10.48-63.88,14.71-22.95-1.59-41.85-5.66-62-11.56-2.83-.83-6.53-2.18-9.39-3.15-9.42-3.19-23.38-7.91-30.06-12.61-1.6-1.13-2.66-2.81-5.64-3.15-4.88-7.7,25.92-7.34,22.55-21.55-28.52-25.63-60.62-7.3-55.42-28.9-2.53-.68-36.64.47-42.27,1.05-3.4.35-9.09,1.51-13.15,2.1-26.97-15.25,36.06-39.36,15.03-62.01,21.46-9.54,35.25-22.7,60.12-30.48,22.66,1.71,69.86,20.77,91.12,26.28,32.34,8.38,77.64,16.16,111.79,23.12Z"/>
          <path class="cls-21" d="M821.05,294.29c5.52.75,11.29,1.35,16.91,2.1,26.12,3.49,52.85,5.98,78.91,9.46,22.05,2.95,61.98,6.61,76.09,9.46,21.81,4.4,36.96,15.02,59.18,18.92-12.01-.59-99.88,9.99-112.73,12.61,2.22-22.87-65.57-6.36-87.36,0-4.39,1.28-20.71,9.77-34.76,13.66-4.04,1.12-10.96,2.04-15.03,3.15-14.17-19.8-63.32-32.33-82.67-49.92-2.86-2.6-20.44-26.35-20.67-27.85-.2-1.34-.61-5.69.94-6.31,43.05-2.66,80.07,9.1,121.18,14.71Z"/>
        </g>
        <path class="cls-21" d="M993.9,364.71c21.03,22.65-42,46.76-15.03,62.01-.42.06-6.16,3.09-6.58,3.15-13.82,2.12-78.96,13.58-83.61,13.66-15.89.27-42.38-7.74-45.09-9.98-4.59-3.81,5.73-12.05,1.88-16.29,30.83-9.03,122.25-40.92,148.42-52.55Z"/>
        <path class="cls-37" d="M1102.87,489.78c-4.17,8.75-32.78-1.19-45.09-2.1-2.34-1.79-4.81-3.64-7.52-5.26,7.87-2.53,13.53-4.15,22.55-5.26,6.68,4.71,20.64,9.42,30.06,12.61Z"/>
        <path class="cls-21" d="M1174.26,504.49c-1.96.38-6.73,3.13-20.67,4.2-18.86,1.45-34.83-6.76-41.33-15.77,20.15,5.9,39.05,9.97,62,11.56Z"/>
        <path class="cls-57" d="M1067.17,474.01c2.98.34,4.04,2.03,5.64,3.15-9.01,1.11-14.67,2.73-22.55,5.26-10.66,3.42-74.02,29.09-79.85,27.33-4.05-1.23,32.27-12.05,36.64-13.66,19.97-7.39,38.43-16.16,60.12-22.07Z"/>
        <path class="cls-19" d="M1241.9,488.73l-3.76,1.05c.61-.11,1.93-.77,3.76-1.05Z"/>
        <path class="cls-28" d="M1260.68,528.67q-2.82,3.15-5.64,6.31c-10.85.66-29.81,2.81-39.45,3.15-9.77.35-59.43,1.74-63.88-2.1,34.74-2.33,56.92-12.33,60.12-12.61,7.28-.65,22.07,6.93,48.85,5.26Z"/>
        <path class="cls-41" d="M1426.02,526.57c-16.79-.2-96.44-2.16-102.39-1.05-1.4.26.15,1.62-6.58,4.2-9.13-2.84-22.06,1.54-28.18-4.2,19.23-.9,13.27,1.09,14.09,1.05,1.46-.07.42-2.04,1.88-2.1,24.3-1.08,79.43-4.5,97.7-3.15,6.1.45,16.49,4.06,23.48,5.26Z"/>
        <path class="cls-22" d="M1288.87,525.52c6.12,5.75,19.05,1.36,28.18,4.2-.26.1.37,2.6-2.82,3.15-2.83.49-29.77.3-59.18,2.1q2.82-3.15,5.64-6.31c3.98-.25,14.8-4.14,15.97-4.2,7.19-.4,9.61,1.17,12.21,1.05Z"/>
        <g>
          <path class="cls-54" d="M1863.77,451.94c19.96,3.98,39.7,8.33,60.12,11.56.01,14.36,0,28.73,0,43.09-6.51-1.43-14.19-1.95-20.67-3.15-70.85-13.17-141.44-26.83-212.3-39.94,4.16-19.99-32.14-14.29-34.76-14.71-1.57-.26-11.59-7.62-30.06-5.26-13.08-10.54-.6-2.25,22.55-3.15,1.07-.04,11.49-3.06,20.67-3.15,49.51-.49,53.48,6.02,75.15,8.41,21.04,2.32,104.09,11.19,118.36,8.41,1.44-.28.95-1.37.94-2.1Z"/>
          <path class="cls-1" d="M1200.56,260.66c8.04,3.44,47.6,31.61,15.03-7.36,8.88,4.21,17.88,4.64,30.06,13.66,11.08,8.21,14.06,21.74,36.64,23.12,7.56-2.98-18.46-13.37-21.61-15.24-.55-.33.48-2.34,0-2.63,70.67,27.5,131.84,64.47,214.18,81.98,8.12,3.27,15.69,5.75,24.42,8.41q-.47,2.63-.94,5.26c-32.33,4.25-38.63-13.68-41.33-13.66-5.09.04-17.44,12.23-18.79,12.61-10.05,2.89-65.98-8.58-78.91-10.51-1-.15-11.05,1.53-20.67,0-2.18-.35-4.78-6.07-41.33-8.41-.73-.05-5.02-3.75-13.15-2.1-4.68.95,4,5.85-28.18,2.1-27.24-3.17-39.66-16-69.51-9.46-21.66-4.19-49.82-9.75-68.57-18.92-28.85-14.11-33.5-41.17-48.85-55.18-8.67-7.91-80.55-39.58-97.7-80.93,45.73,53.51,86.2,53.33,108.03,62.54,19.61,8.27,40.53,39.94,50.73,19.97,11.65,4.8,17.82,13.58,20.67,14.71,5.85,2.34,46.58,7.75,48.85,8.41,3.35.96,34.05,23.81,56.36,27.33-17.14-11.12-33.03-22.9-49.79-34.16-15.84-10.64-44.11-18-38.51-35.21,18.92,12.91,28.59,11.83,32.88,13.66Z"/>
          <path class="cls-47" d="M1499.29,362.61c2.5.76,5.09,1.39,7.52,2.1,6.47,1.9,50.61,15.01,53.54,14.71,2.58-.26,2.87-4.92,8.45-4.2,1.54.47,31.12,5.24,33.82,5.26,4.87,10.29,33.36,2.38,46.03,4.2,3.97.57,20.53,11.83,43.21,19.97,8.86,3.18,23.31,4.87,24.42,5.26,1.85.64,5.16,3.64,19.73,8.41.29.1,2.23,1.02,5.64,2.1-15.34,7.35-60.4-.53-72.33-1.05-24.51-1.07-52.29.36-77.03-2.1-31.38-3.13-95.3-23.14-145.6-16.29q1.41,1.31,2.82,2.63c80.86,15.16-12.61.3-43.21-8.41-29.54-8.4-13.59-7.38-20.67-10.51-7.21-3.19-86.49-9.15-103.33-14.71-29.92,1.86-43.14-6.09-40.39,3.15-43.92-19.4-95.63-37.25-124-51.5v-2.1c18.75,9.17,46.91,14.73,68.57,18.92,29.85-6.54,42.27,6.29,69.51,9.46,32.19,3.75,23.5-1.15,28.18-2.1,8.13-1.65,12.42,2.06,13.15,2.1,36.56,2.33,39.15,8.06,41.33,8.41,9.62,1.53,19.67-.15,20.67,0,12.93,1.93,68.85,13.4,78.91,10.51,1.34-.39,13.7-12.58,18.79-12.61,2.7-.02,9,17.91,41.33,13.66q.47-2.63.94-5.26Z"/>
          <g>
            <path class="cls-31" d="M1097.23,183.93c.58.31,2.73,3.31,5.64,5.26,15.05,10.08,25.85,27.03,28.18,28.9,2.9,2.33,44.39,17.23,80.79,34.16-7.73,1.63-4.61,5.08-11.27,8.41-4.29-1.83-13.95-.75-32.88-13.66-5.59,17.21,22.67,24.57,38.51,35.21,16.76,11.26,32.65,23.04,49.79,34.16-22.31-3.52-53.01-26.36-56.36-27.33-2.27-.65-42.99-6.07-48.85-8.41-2.85-1.14-9.01-9.91-20.67-14.71-10.2,19.97-31.12-11.7-50.73-19.97-21.83-9.21-62.3-9.02-108.03-62.54,17.15,41.35,89.03,73.02,97.7,80.93,15.35,14.01,19.99,41.07,48.85,55.18v2.1c-43.7-21.96-30.08-22.49-31.94-23.65-4.31-2.7-5.14.39-6.58-.53-6.48-4.11-29.06-17.62-31-19.44-5.46-5.14-5.38-15.53-12.21-17.34-.43-.11-7.59,1.61-9.39,1.05-26.47-8.21-62.07-41.59-87.36-38.89-3.22-5.12,0-9.21-9.39-10.51-1.49-.21-3.86.52-3.76-1.05,12.81-9.55,31.49-31.19,30.06-43.09-.8-6.7-7.18-13.16-7.52-14.19-1.62-4.98,2.39-9.06,1.88-11.04l2.82-2.1c41.35,11,80.96,26.78,122.12,38.89,1.98.58,11.91-.94,21.61,4.2Z"/>
            <path class="cls-31" d="M1215.59,253.3c32.57,38.96-6.99,10.79-15.03,7.36,6.66-3.33,3.54-6.78,11.27-8.41.16.08.78-.36,3.76,1.05Z"/>
          </g>
          <path class="cls-31" d="M1260.68,272.22c.48.29-.55,2.3,0,2.63,3.14,1.87,29.17,12.26,21.61,15.24-22.57-1.38-25.55-14.91-36.64-23.12,7.13.49,10.49,2.52,15.03,5.26Z"/>
          <path class="cls-5" d="M1741.65,420.41c50.13,16,67.71,20.69,122.12,31.53,0,.73.5,1.82-.94,2.1-14.27,2.78-97.32-6.09-118.36-8.41-21.68-2.39-25.64-8.9-75.15-8.41-9.18.09-19.6,3.11-20.67,3.15-23.15.91-35.62-7.38-22.55,3.15,18.47-2.36,28.49,5,30.06,5.26,2.62.43,38.92-5.28,34.76,14.71-43.24-8-87.47-14.1-130.57-22.07-31.12-5.76-61.05-14.14-92.06-19.97-38.58-7.26-79.81-11.51-118.36-18.92-30.96-5.95-62.18-12.63-93-18.92,11.65-4.43-9.36-8.01-15.03-10.51-2.74-9.25,10.47-1.29,40.39-3.15,16.85,5.57,96.12,11.52,103.33,14.71,7.07,3.13-8.87,2.11,20.67,10.51,30.6,8.71,124.07,23.56,43.21,8.41q-1.41-1.31-2.82-2.63c50.31-6.85,114.22,13.16,145.6,16.29,24.74,2.47,52.52,1.04,77.03,2.1,11.93.52,56.99,8.4,72.33,1.05Z"/>
          <path class="cls-2" d="M1117.9,321.62c28.36,14.25,80.08,32.1,124,51.5,5.67,2.51,26.68,6.08,15.03,10.51-34.14-6.96-79.44-14.75-111.79-23.12-21.26-5.51-68.46-24.56-91.12-26.28-.61-.05-1.26.03-1.88,0-22.22-3.9-37.37-14.52-59.18-18.92-14.11-2.85-54.04-6.51-76.09-9.46,13.81-5.78,35.15-21.02,35.7-30.48,25.11,8.06,40.36,23.85,41.33,11.04,1.68-9.01,57.39,22.43,50.73,12.61-31.6-15.54-79.91-37.71-97.7-58.33-2.13-9-4.28-9.61-5.64-12.61-.47-1.03.08-2.14-1.88-5.26,25.29-2.71,60.89,30.68,87.36,38.89,1.8.56,8.96-1.17,9.39-1.05,6.84,1.82,6.75,12.21,12.21,17.34,1.94,1.83,24.52,15.33,31,19.44,1.44.91,2.26-2.18,6.58.53,1.86,1.16-11.76,1.69,31.94,23.65Z"/>
          <path class="cls-31" d="M952.57,275.37c.07-1.18-3.75-2.14-3.76-2.63-.17-7.67-.53-14.96-1.88-22.6-.36-2.05.47-4.29,0-6.31-.24-1.02.24-2.13,0-3.15,17.78,20.63,66.09,42.8,97.7,58.33,6.66,9.81-49.04-21.62-50.73-12.61-.97,12.81-16.22-2.97-41.33-11.04Z"/>
        </g>
        <path class="cls-52" d="M1057.78,487.68c12.67,9.68,16.9,10.89-7.52,4.73-3.55-8.12-2.08-5.44,7.52-4.73Z"/>
        <g>
          <path class="cls-6" d="M1151.72,534.97v1.05c4.45,3.85,54.11,2.45,63.88,2.1-9.67,7.55,13.95,8.24,28.18,10.51,11.99,4.91,24.09,6.6,38.51,7.36q-5.17,1.05-10.33,2.1c-24.72-3.58-56.83,8.98-72.33,6.31-3.54-.61-2.3-3.9-3.76-4.2-1.07-.22-1.39,3.2-21.61,1.05-57.89-6.15-25.71-7.22-26.3-11.04-11.8-7.64-7.74,2.33-18.79-2.1,6.28-2.74,10.22-6.53,15.03-9.98.47-.33,5.74,1.72,4.7-5.26q1.41,1.05,2.82,2.1Z"/>
          <path class="cls-45" d="M1205.26,559.15c15.96,3.37,4.72,3.43-5.64,3.15q2.82-1.58,5.64-3.15Z"/>
        </g>
        <g>
          <path class="cls-11" d="M13.18,406.75c.49.28,3.83,5.5,8.45,6.31,17.06,2.97,49.98-8.67,85.48-2.1,27.7,5.13,40.34,18.86,47.91,22.07,1.04.44,9.03,1.78,23.48,6.31,40.81,12.77,56.6,12.42,98.64,18.92,11.55,1.79,33.2,8,45.09,9.46,8.07.99,20.77.56,32.88,2.1,4.23.54,16.1.2,23.48,1.05,22.02,2.53,44.77,9.85,68.57,10.51-26.22,4.34-53.24,4.64-79.85,8.41-25.08,3.55-54.13,11.8-78.91,15.77-26.17,4.19-60.25,5.72-87.36,11.56-29-9.16-52.89-12.95-82.67-18.92-38.69-7.76-76.73-16.42-118.36-17.87.02-26.28-.03-52.55,0-78.83,3.54.08,10.39,3.66,13.15,5.26Z"/>
          <path class="cls-27" d="M712.08,451.94c3.87,8.46-.93,2.98-9.39,6.83,10.52,9.82,47.49,7.8,67.64,9.98-15.13,2.62-29.15,6.91-46.03,7.36-5.58.15-106.36-4.45-110.85-6.31-3.72-1.54-2.92-2.98-2.82-5.26,12.94-1.44,33.21-1.77,52.61-4.2,15.78-1.98,33.71-5.19,48.85-8.41Z"/>
          <path class="cls-36" d="M924.38,455.1c2.54-7.95-14.72-5.95-29.12-7.36-2.97-.29-5.16-3.07-6.58-3.15v-1.05c4.64-.08,69.79-11.55,83.61-13.66.42-.06,6.16-3.09,6.58-3.15,4.06-.59,9.75-1.75,13.15-2.1-20.34,11.65-44.38,21.38-67.64,30.48Z"/>
          <g>
            <path class="cls-20" d="M97.73,371.01c-7,8.25-25.04.03-20.67,13.66-18.69,5.13-45.68,15.43-63.88,22.07-2.77-1.59-9.62-5.18-13.15-5.26,0-7.36,0-14.71,0-22.07,32.03-2.55,66.26-4.3,97.7-8.41Z"/>
            <path class="cls-32" d="M950.69,142.94c.51,1.97-3.5,6.06-1.88,11.04.34,1.03,6.71,7.49,7.52,14.19-10.09,5.91-17.38,15.1-28.18,22.07-8.39,5.42-30.74,14.78-31.94,15.77h-3.76c17.44-19.48,36.54-38.49,52.61-58.33l-2.82-1.58c-24.15,11.98-32.73,31.61-46.03,42.57-17.57,14.47-58.14,35.05-82.67,46.77l69.51-42.57c-4.58-9.65-27.21,13.84-55.42,25.75-11.64,4.91-36.79,10.81-38.51,11.56-2.1-.94-3.89-.74-5.64-1.05,15.01-16.76,47.48-32.62,73.27-44.67,2.71-5.71-42.96,16.19-46.97,18.39-5.37.82-9.79-3.31-9.39-6.31,48.61-19.31,95.16-38.74,138.09-62.01,3.55-.2,11.68,6.33,12.21,8.41Z"/>
            <path class="cls-13" d="M809.78,202.85c-30.59,16.8-31.86,24.07-33.82,25.22-7.72,4.57-18.36,8.99-26.3,13.66-29.61-9.59,40.87-11.6-13.15-14.71-4.11-.24-4.47-1.06-5.64-1.05,20.13-11.88,45.94-20.06,69.51-29.43-.4,2.99,4.02,7.12,9.39,6.31Z"/>
            <path class="cls-51" d="M730.87,225.97c1.16,0,1.52.81,5.64,1.05-3.58,5.56-15.24,13.3-22.55,17.87-18.11,11.32-12.59,15.04-37.58,5.26,4.38-2.14,14.48-8.06,9.39-8.41q16.91-7.36,33.82-14.71c4.5-.28,2.45-.98,11.27-1.05Z"/>
            <path class="cls-48" d="M394.57,336.33q-31.94,17.34-63.88,34.68c-18.1,9.59-54.11,17.61-78.91,23.12-24.83,5.52-50.51,12.39-77.03,13.14,14.05-9.26-33.19,2.01-44.15,2.63-2.06.12-19.72-3.62-23.48,1.05-35.5-6.57-68.42,5.07-85.48,2.1-4.62-.8-7.96-6.02-8.45-6.31,18.2-6.65,45.18-16.95,63.88-22.07,56.31-15.44,74.11-9.97,104.27-13.66,16.05-1.96,30.62-5.93,46.03-8.41,27.18-4.38,54.02-8.72,80.79-14.71,10.6,9.19,80.34-13.89,85.48-13.66,1.55.07.76,2.06.94,2.1Z"/>
            <path class="cls-48" d="M227.36,362.61c-15.41,2.48-29.98,6.44-46.03,8.41-30.16,3.69-47.96-1.78-104.27,13.66-4.37-13.63,13.67-5.41,20.67-13.66,3.35-.44,9.38.48,12.21,0,22.33-3.82,20.99-22.66,117.42-8.41Z"/>
            <path class="cls-48" d="M428.39,448.79c-17.79,3.65-100.77,12.45-73.27,21.02-12.11-1.54-24.81-1.11-32.88-2.1-11.89-1.46-33.54-7.67-45.09-9.46-42.04-6.5-57.83-6.15-98.64-18.92,39.73-8.71,98.1-17.85,135.27-27.33,1.68-.12,1.64.29,1.88,1.05.29.93-.82,2.7.94,3.15,8.93,2.29,157.89-16.68,128.7,7.88,25.87,1.21.19,13.65,21.61,8.93,10.14,7.49-7.93,9.49-38.51,15.77Z"/>
            <path class="cls-32" d="M926.26,211.26c-15.29,11.4-31.91,14.1-41.33,19.44-7.7,4.37-14.36,13.15-23.48,18.39-.3.17-8.15.88-8.45,1.05,16.05-13.92,26.31-29.45,39.45-44.14h3.76c-6.58,5.43-7.44,9.05,4.7,4.2,1.95-.78,31.47-18.48,27.24-19.97,10.8-6.97,18.09-16.16,28.18-22.07,1.43,11.9-17.25,33.54-30.06,43.09Z"/>
            <path class="cls-48" d="M930.02,212.31c-59.93,33.67-72.26,42.15,2.82,6.31,9.33.41-11.62,10.23-14.09,11.56-30.4,16.38-70.11,28.52-97.7,46.25-5.02,1.67-16.95,6.32-16.91,4.2,18.4-9.21,31.66-20.62,48.85-30.48.3-.17,8.15-.88,8.45-1.05,9.13-5.24,15.79-14.03,23.48-18.39,9.42-5.35,26.05-8.05,41.33-19.44-.1,1.57,2.26.85,3.76,1.05Z"/>
            <path class="cls-40" d="M939.41,222.82c1.96,3.11,1.41,4.22,1.88,5.26-1.24,1.29-1.68,1.56-1.88,3.15-2.28-.12-1.78,1-1.88,1.05-1.46.74-3.98,1.44-5.64,2.1q-6.58-2.1-13.15-4.2c2.47-1.33,23.42-11.16,14.09-11.56-75.08,35.85-62.75,27.36-2.82-6.31,9.4,1.3,6.17,5.39,9.39,10.51Z"/>
            <path class="cls-48" d="M813.54,235.43c-22.58,10.79-40.33,21.07-68.57,28.38l-2.82-1.58c14.54-6.54,38.31-28.28,46.97-32.06,1.72-.75,26.87-6.65,38.51-11.56,28.22-11.91,50.85-35.4,55.42-25.75l-69.51,42.57Z"/>
            <path class="cls-20" d="M783.48,229.12c-2.07-.36-3.31-1.54-7.52-1.05,1.95-1.16,3.23-8.42,33.82-25.22,4.01-2.2,49.67-24.1,46.97-18.39-25.8,12.05-58.26,27.91-73.27,44.67Z"/>
            <path class="cls-18" d="M896.2,206c1.19-.99,23.55-10.35,31.94-15.77,4.23,1.49-25.29,19.19-27.24,19.97-12.13,4.84-11.28,1.23-4.7-4.2Z"/>
            <path class="cls-23" d="M749.66,241.74c-6.82,4.01-13.73,7.66-20.67,11.56-1.05-5.67-6.21-6.82-15.03-8.41,7.31-4.57,18.97-12.3,22.55-17.87,54.02,3.12-16.46,5.13,13.15,14.71Z"/>
            <path class="cls-48" d="M728.99,253.3c-24.84,13.95-80.62,43.48-108.03,52.55-10.67,3.53-22.35,4.94-23.48,5.26-12.34-1.02,30.61-15.53,35.7-29.95-4.64-4.55-54.81,30.96-60.12,33.11-2.3.93-7.84,3.82-7.52.53,32.27-17.45,56.46-39.15,89.24-56.23,5.17-2.69,17.7-6.5,21.61-8.41,24.99,9.79,19.47,6.07,37.58-5.26,8.82,1.59,13.98,2.73,15.03,8.41Z"/>
            <path class="cls-50" d="M698.93,285.88c.22,1.5,17.81,25.25,20.67,27.85,19.35,17.59,68.5,30.13,82.67,49.92-34.29,9.36-188.94,49.81-208.54,53.6-35.53,6.88-23.47,1.76-29.12,1.05-32.09-4.04-16.36-4.42-30.06-9.46-1.28-.47-7.96.47-9.39,0-2.16-.72.26-3.69-1.88-4.2-8.03-1.94-21.56,1.55-24.42,1.05-1.36-.24-18.9-10.91-19.73-11.56-11.14-8.81,3.93-4.69,20.67-22.6-3.04-2.62-21.71,4.63-20.67-.53,32.49-10.67,56.77-23.83,84.54-34.68,13.15-5.14,26.04-11.73,40.39-15.77,24.79-6.97,31.27-5.93,32.88-6.31,15.6,7.3,35.55-13.47,45.09-19.97,3.04-2.07,12.48-8.05,16.91-8.41Z"/>
            <path class="cls-7" d="M809.78,290.08c-2.81.2-20-1.76-20.67-2.63-.98-1.29,9.05-3.84,15.03-6.83-.04,2.12,11.89-2.54,16.91-4.2,8.63-2.87,16.88-6.34,26.3-8.41-31.92,15.64,11.79,5.77,15.03-5.26,23.16-9.43,46.23-19.06,69.51-28.38,1.66-.66,4.18-1.36,5.64-2.1-.88,3.75,1.23,10.77,0,13.14-4.49,8.66-109.53,43.38-127.76,44.67Z"/>
            <path class="cls-55" d="M563.66,336.33c-27.77,10.85-52.05,24.02-84.54,34.68-15.01,4.93-64.67,17.97-84.54,23.12-25.98,6.74-52.5,12.74-78.91,18.92-.24-.77-.2-1.17-1.88-1.05,44.66-11.38,45.35-16.1,47.91-16.82,26.25-7.29,54.95-12.22,80.79-19.97,21.8-6.54,107.06-39.73,118.36-40.99,3.09-.34,3.17.84,2.82,2.1Z"/>
            <path class="cls-46" d="M946.93,243.84c.47,2.02-.36,4.26,0,6.31-23.65,24.46-76.17,28.1-108.97,46.25-5.62-.75-11.38-1.35-16.91-2.1l-11.27-4.2c18.22-1.29,123.26-36,127.76-44.67,1.23-2.37-.88-9.39,0-13.14.1-.05-.41-1.17,1.88-1.05-.41,3.23.55,13.4,7.52,12.61Z"/>
            <path class="cls-51" d="M341.97,375.22c-2.57-2.47-8.88,1.11-11.27-4.2q31.94-17.34,63.88-34.68c16.87,3.52.35,4.26,11.27,16.29-27.75,14.49-34.76,10.39-36.64,11.04-8.01,2.76-18.91,8.87-27.24,11.56Z"/>
            <path class="cls-46" d="M597.48,311.11c-1.09.3-16.81,8.76-20.67,5.78-.35-.27,9.54-3.3-3.76-2.63,5.31-2.15,55.48-37.66,60.12-33.11-5.09,14.43-48.03,28.93-35.7,29.95Z"/>
            <path class="cls-7" d="M341.97,375.22c-.96.31-9.55,5.06-17.85,7.36-5.85,1.62-64.33,12.9-72.33,11.56,24.8-5.51,60.81-13.53,78.91-23.12,2.39,5.32,8.7,1.73,11.27,4.2Z"/>
            <g>
              <path class="cls-38" d="M892.45,206c-13.15,14.69-23.41,30.22-39.45,44.14-17.19,9.86-30.45,21.27-48.85,30.48-5.98,2.99-16.01,5.54-15.03,6.83.66.87,17.86,2.83,20.67,2.63l11.27,4.2c-41.11-5.61-78.13-17.38-121.18-14.71-1.55.61-1.14,4.96-.94,6.31-4.42.36-13.86,6.33-16.91,8.41-15.25-1.26-16.4,13.3-45.09,19.97-1.6.37-8.09-.66-32.88,6.31-14.36,4.04-27.24,10.63-40.39,15.77.35-1.26.27-2.45-2.82-2.1-11.3,1.26-96.57,34.45-118.36,40.99-25.84,7.75-54.53,12.68-80.79,19.97-2.56.71-3.25,5.43-47.91,16.82-37.17,9.48-95.54,18.61-135.27,27.33-14.46-4.53-22.45-5.87-23.48-6.31-7.57-3.21-20.21-16.95-47.91-22.07,3.76-4.67,21.43-.94,23.48-1.05,10.97-.62,58.2-11.89,44.15-2.63,26.52-.75,52.2-7.62,77.03-13.14,8,1.34,66.48-9.94,72.33-11.56,8.3-2.3,16.89-7.05,17.85-7.36,8.33-2.69,19.23-8.8,27.24-11.56,1.87-.65,8.89,3.45,36.64-11.04-10.93-12.03,5.6-12.77-11.27-16.29-.18-.04.61-2.03-.94-2.1-5.14-.23-74.89,22.86-85.48,13.66,24.2-5.42,120.04-30.73,136.21-36.79,24.67-9.24,21.59-15.75,57.3-23.12,3.25-.67,26.1-2.2,44.15-6.31,11.31-2.57,21.8-7.57,32.88-10.51,36.05-9.57,69.94-21.27,107.09-29.43,5.09.34-5.01,6.27-9.39,8.41-3.9,1.91-16.44,5.71-21.61,8.41-32.78,17.08-56.97,38.78-89.24,56.23-.32,3.29,5.21.41,7.52-.53,13.3-.67,3.4,2.35,3.76,2.63,3.85,2.98,19.57-5.48,20.67-5.78,1.14-.31,12.82-1.73,23.48-5.26,27.41-9.07,83.19-38.6,108.03-52.55,6.94-3.9,13.85-7.55,20.67-11.56,7.94-4.67,18.59-9.1,26.3-13.66,4.2-.49,5.44.69,7.52,1.05,1.74.31,3.54.11,5.64,1.05-8.66,3.78-32.43,25.51-46.97,32.06l2.82,1.58c28.24-7.3,46-17.59,68.57-28.38,24.52-11.72,65.1-32.3,82.67-46.77,13.3-10.96,21.88-30.58,46.03-42.57l2.82,1.58c-16.07,19.84-35.17,38.85-52.61,58.33Z"/>
              <path class="cls-48" d="M538.3,287.98l2.82,1.58c-16.42,9.81-30.24,20.75-47.91,29.95-4.58,2.39-63.62,29.66-54.48,19.97,40.53-12.66,67.44-33.56,99.57-51.5Z"/>
            </g>
            <path class="cls-26" d="M682.02,294.29c-9.54,6.5-29.49,27.26-45.09,19.97,28.69-6.67,29.84-21.23,45.09-19.97Z"/>
            <path class="cls-16" d="M952.57,275.37c-.55,9.46-21.89,24.7-35.7,30.48-26.06-3.48-52.79-5.97-78.91-9.46,32.8-18.15,85.32-21.79,108.97-46.25,1.34,7.64,1.71,14.93,1.88,22.6.01.49,3.83,1.44,3.76,2.63Z"/>
            <path class="cls-8" d="M946.93,240.69c.24,1.02-.24,2.13,0,3.15-6.96.79-7.92-9.39-7.52-12.61.2-1.6.63-1.86,1.88-3.15,1.36,3.01,3.51,3.62,5.64,12.61Z"/>
            <path class="cls-40" d="M931.9,234.38c-23.28,9.32-46.35,18.95-69.51,28.38-.81.33-5.94.8-15.03,5.26-9.42,2.06-17.67,5.54-26.3,8.41,27.58-17.73,67.29-29.87,97.7-46.25q6.58,2.1,13.15,4.2Z"/>
            <path class="cls-7" d="M479.12,371.01c-1.04,5.15,17.63-2.09,20.67.53-16.73,17.91-31.8,13.79-20.67,22.6,1.77,3.76-8.39-.69-11.27,1.58-.52.41.45,8.96-2.82,9.98-3.53,1.11-82.44-2.81-70.45-11.56,19.87-5.15,69.53-18.19,84.54-23.12Z"/>
            <g>
              <path class="cls-48" d="M428.39,448.79c12.46,10.31,37.55,4.53,46.03,5.26,6.43.55,7.05,3.11,7.52,3.15,9.48.8,25.64,1.27,37.58,2.1,5.35.37-6.26,6.2,42.27-3.15-13.05,4.34-53.87,13.44-68.57,15.77-2.57.41-9.23-5.45-47.91,6.83q4.7,1.31,9.39,2.63c-2.48.03-5.04.07-7.52,0-23.8-.66-46.55-7.98-68.57-10.51-7.38-.85-19.25-.51-23.48-1.05-27.5-8.57,55.48-17.37,73.27-21.02Z"/>
              <path class="cls-48" d="M708.33,425.67c18.67.18,27.55-4.4,26.3,0-25.86,7.76-53.16,14.2-79.85,21.02-3.46,5.39,4.08,1.86,6.58,10.51.4,1.37.38,1.86,1.88,3.15-19.4,2.44-39.66,2.76-52.61,4.2-23.86,2.66-148,16.71-155.94,16.82q-4.7-1.31-9.39-2.63c38.67-12.29,45.34-6.43,47.91-6.83,14.7-2.32,55.52-11.43,68.57-15.77,18.81-7.24,48.6-9.42,67.64-13.66,33.3-7.42,68.34-20.28,72.33-19.97,3.25.25-4.08,3.05,6.58,3.15Z"/>
              <path class="cls-55" d="M479.12,394.14c.82.65,18.36,11.32,19.73,11.56,2.87.5,16.4-2.99,24.42-1.05,2.14.52-.28,3.49,1.88,4.2,1.43.47,8.11-.47,9.39,0,13.7,5.04-2.03,5.42,30.06,9.46,5.65.71-6.41,5.82,29.12-1.05-2.72,9.22,45.75,9.59,35.7,25.22-19.04,4.24-48.82,6.42-67.64,13.66-48.53,9.36-36.92,3.53-42.27,3.15-11.94-.83-28.09-1.3-37.58-2.1-.46-.04-1.09-2.6-7.52-3.15-8.48-.73-33.57,5.06-46.03-5.26,30.58-6.27,48.65-8.28,38.51-15.77-21.42,4.71,4.27-7.73-21.61-8.93,29.19-24.56-119.76-5.6-128.7-7.88-1.76-.45-.65-2.22-.94-3.15,26.41-6.17,52.93-12.18,78.91-18.92-11.99,8.75,66.93,12.67,70.45,11.56,3.27-1.03,2.29-9.57,2.82-9.98,2.89-2.27,13.04,2.18,11.27-1.58Z"/>
              <path class="cls-42" d="M1052.14,334.23c.62.03,1.27-.05,1.88,0-24.88,7.78-38.66,20.94-60.12,30.48-26.17,11.63-117.6,43.52-148.42,52.55-12.66,3.71-125.6,33.03-133.39,34.68-15.14,3.22-33.07,6.43-48.85,8.41-1.5-1.29-1.48-1.78-1.88-3.15,49.5-9.64,92.99-25.32,139.03-38.89,25.47-7.5,57.8-14.12,82.67-23.65-10.93-.88-13.25,6.44-30.06-2.1,19.83-6.33,12.35-10.96,13.15-11.56,1.54-1.16,6.05-.15,6.58-.53,4.25-3.02-.53-2.73.94-3.68,7.42-4.79,56.04-27.97,65.76-29.95,12.85-2.63,100.72-13.2,112.73-12.61Z"/>
              <path class="cls-7" d="M817.29,360.5c6.13,2.56-3.65,8.81-1.88,12.09,2.88,5.32,22.98-1.39,23.48,11.04,59.08-11.25-8.04,13.28-49.79,24.7-5.85,10.93,12.76,3.42,11.27,9.98-46.04,13.56-89.53,29.25-139.03,38.89-2.5-8.65-10.04-5.12-6.58-10.51,26.68-6.82,53.99-13.26,79.85-21.02,5.09-1.53,47.88-13.18,40.39-15.77-25.49-2.74-51.3,4.54-66.7,15.77-10.65-.1-3.32-2.9-6.58-3.15-3.99-.31-39.04,12.55-72.33,19.97,10.05-15.63-38.41-16.01-35.7-25.22,19.6-3.79,174.25-44.24,208.54-53.6,4.07-1.11,10.99-2.03,15.03-3.15Z"/>
              <path class="cls-55" d="M734.63,425.67c1.25-4.4-7.63.18-26.3,0,15.4-11.23,41.21-18.51,66.7-15.77,7.48,2.58-35.3,14.24-40.39,15.77Z"/>
              <path class="cls-42" d="M939.41,346.84c-9.72,1.99-58.33,25.17-65.76,29.95-1.47.95,3.31.66-.94,3.68-.52.37-5.03-.63-6.58.53-.8.6,6.68,5.23-13.15,11.56,16.81,8.55,19.13,1.22,30.06,2.1-24.86,9.53-57.19,16.14-82.67,23.65,1.49-6.56-17.12.95-11.27-9.98,41.75-11.42,108.87-35.95,49.79-24.7-.5-12.42-20.61-5.71-23.48-11.04-1.77-3.27,8-9.53,1.88-12.09,14.05-3.89,30.37-12.38,34.76-13.66,21.8-6.36,89.58-22.87,87.36,0Z"/>
            </g>
            <path class="cls-7" d="M862.39,262.76c-3.24,11.02-46.95,20.9-15.03,5.26,9.09-4.45,14.22-4.93,15.03-5.26Z"/>
          </g>
        </g>
      </g>
      <path class="cls-34" d="M1523.71,357.35q-8.45,3.68-16.91,7.36c-2.42-.71-5.02-1.34-7.52-2.1-8.73-2.66-16.31-5.14-24.42-8.41-11.78-4.74-20.28-6.31-14.09-7.36,47.95-2.23,34.68,4.97,39.45,6.31,1.15.32,1.35-1.63,23.48,4.2Z"/>
    </g>
    <g>
      <path class="cls-47" d="M1923.89,384.68c.02,19.27-.02,38.54,0,57.81-11.52-.45-19.33,1.3-31,0-22.04-2.45-113.77-27.92-120.24-28.38-1.97-.14-38.37,2.17-36.64,4.2-14.56-4.76-17.88-7.77-19.73-8.41-1.11-.39-15.56-2.08-24.42-5.26-22.68-8.14-39.24-19.4-43.21-19.97-12.67-1.82-41.16,6.09-46.03-4.2,15.58.06,22.89-6.05,27.24-6.31,10.2-.59,14.63,5.84,20.67,5.26,1.26-.12,12.06-6.95,20.67-8.41,2.91-.49,57.09-5.43,60.12-5.26,10.72.6,68.72,20.39,93.94,22.07,33.11,2.21,66.16-9.02,98.64-3.15Z"/>
      <path class="cls-59" d="M1923.89,442.48c0,7.01,0,14.01,0,21.02-20.42-3.24-40.16-7.58-60.12-11.56-54.41-10.85-71.99-15.53-122.12-31.53-3.4-1.09-5.34-2.01-5.64-2.1-1.74-2.04,34.66-4.34,36.64-4.2,6.47.45,98.2,25.92,120.24,28.38,11.67,1.3,19.48-.45,31,0Z"/>
    </g>
  </g>
</svg>