<?xml version="1.0" encoding="UTF-8"?>
<svg id="Layer_2" data-name="Layer 2" xmlns="http://www.w3.org/2000/svg" xmlns:xlink="http://www.w3.org/1999/xlink" viewBox="0 0 1923.93 386.8">
  <defs>
    <style>
      .cls-1 {
        fill: url(#linear-gradient);
      }

      .cls-1, .cls-2, .cls-3, .cls-4, .cls-5, .cls-6, .cls-7, .cls-8, .cls-9, .cls-10, .cls-11, .cls-12, .cls-13, .cls-14, .cls-15, .cls-16, .cls-17, .cls-18, .cls-19, .cls-20, .cls-21, .cls-22, .cls-23, .cls-24, .cls-25 {
        stroke-width: 0px;
      }

      .cls-2 {
        fill: #656028;
      }

      .cls-3 {
        fill: #25331a;
      }

      .cls-4 {
        fill: #151e1b;
      }

      .cls-5 {
        fill: #562f1f;
      }

      .cls-6 {
        fill: #0e1b28;
      }

      .cls-7 {
        fill: #08594a;
      }

      .cls-8 {
        fill: #393e1a;
      }

      .cls-9 {
        fill: #017d8e;
      }

      .cls-10 {
        fill: #535424;
      }

      .cls-11 {
        fill: url(#linear-gradient-2);
      }

      .cls-12 {
        fill: #3f6566;
      }

      .cls-13 {
        fill: #083438;
      }

      .cls-14 {
        fill: #444f22;
      }

      .cls-15 {
        fill: #024b5f;
      }

      .cls-16 {
        fill: #02364b;
      }

      .cls-17 {
        fill: #1a1c20;
      }

      .cls-18 {
        fill: #2a1e1c;
      }

      .cls-19 {
        fill: #508755;
      }

      .cls-20 {
        fill: #036878;
      }

      .cls-21 {
        fill: #12806d;
      }

      .cls-22 {
        fill: #063e38;
      }

      .cls-23 {
        fill: #112928;
      }

      .cls-24 {
        fill: #3d2b26;
      }

      .cls-25 {
        fill: #18272e;
      }
    </style>
    <linearGradient id="linear-gradient" x1="1261.69" y1="258.37" x2="1271.35" y2="358.36" gradientUnits="userSpaceOnUse">
      <stop offset="0" stop-color="#054b5c"/>
      <stop offset="1" stop-color="#016b77"/>
    </linearGradient>
    <linearGradient id="linear-gradient-2" x1="1271.85" y1="32.88" x2="1276.26" y2="309.31" gradientUnits="userSpaceOnUse">
      <stop offset="0" stop-color="#6b6961"/>
      <stop offset=".43" stop-color="#81b8bb"/>
      <stop offset=".67" stop-color="#0c8191"/>
      <stop offset="1" stop-color="#60b2bc"/>
    </linearGradient>
  </defs>
  <g id="jour_devant">
    <path class="cls-16" d="M1916.38,37.84q3.76-.53,7.52-1.05c-.02,17.52.03,35.03,0,52.55-65.92,2.48-117.59,26.56-181.3,34.68-30.71,13.61-50.54,10.55-60.12,12.61-8.99,1.94-43.32,13.44-70.45,16.82-8.14-11.81-3.02-4.29-22.55,18.92-.24.29.24.76,0,1.05-.15.19-2.64-1.01-5.64,2.63-2.17,2.63,2.08,5.01,1.88,5.26-.51.6-16.37,8.4-16.91,9.46-2.54,5.01,4.3,9.77,3.76,10.51-2.65,3.59-9.86.41-10.33.53-1.71.43-.7,2.05-.94,2.1-7,1.59-23.16,3.31-31,5.26-12.52,3.11-24.52,8.51-36.64,11.56-47.74,12.02-97.15,23.56-145.6,34.68-23.56,5.41-62.87,10.59-90.18,16.82-51.3,11.69-159.19,37.5-205.72,50.45,6.08-7.71,70.37-21.56,93-25.22,16.15-8.11,51-11.52,50.73-15.77-39.52-1.27-45.13,10.75-48.85,11.56-1.93.42-34.74.52-41.33,1.05-9.35.75-20.1,3.83-30.06,4.2-10.16.38-77.02-.24-80.79-1.05-3.9-.84-2.51-4.06-2.82-4.2,3.46-1,18.2-3.41,18.79-5.78.15-.61-10.65-6.77-7.52-11.04,59.92-15.02,120.34-31.23,179.42-47.3,103.62-28.17,203.73-61.02,308.12-88.29,68.17-17.8,138.21-32.21,207.6-48.35,11.43-2.66,11.64-4.9,13.15-5.26,1.32-.31-1.43,3.37,26.3-4.2,5.01-1.37,10.4-2.35,15.03-4.2,16.7,9.11,21.32-25.03,34.76-6.31,27.67-12.14,26.59-5.96,28.18-6.31,30.7-6.7,15.28-19.56,30.06-10.51,1.95-14.42,20.8,7.2,45.09-5.26,11.69-5.99-.34-37.46,22.55-4.2,7.03-.08-1.26-5.77-.94-7.88.13-.87,3.74-.42,3.76-.53Z"/>
    <path class="cls-15" d="M1923.9,89.34c-.01,7.71.01,15.42,0,23.12-23.59,4.33-52.25,5.47-71.39,14.71-2.92-3.11-10.87-5.92-11.27-6.31-5.38-5.11-5.52-11.95-8.45-11.56-10.21,11.24-11.13,22.08-12.21,23.12-.24.23-4.4.71-7.52,3.15-41.7,9.19-122.69,30.32-162.51,34.68-7.55.83-17.28-1.78-15.97,2.1-.7-.79-9.1-3.4-9.39-3.68-1.54-1.43,2.38-12.26-9.39-7.88.14-.84-2.84-6.03-3.76-7.36,27.13-3.38,61.46-14.88,70.45-16.82,9.58-2.06,29.41,1,60.12-12.61,63.71-8.13,115.38-32.2,181.3-34.68Z"/>
    <path class="cls-16" d="M1923.9,130.33c-.04,25.58.07,51.15,0,76.73-6.74.1-12.89,2.59-18.79,4.2-32.03-27.71-24.64-38.93-26.3-42.57-1.74-3.81-15.89-3.22-16.91-23.65,12.5-.52,45.97-12.84,62-14.71Z"/>
    <path class="cls-20" d="M1923.9,130.33c-16.03,1.87-49.5,14.2-62,14.71-1.74.07-6.65.34-7.52-.53,16.57-4.76-.75-11.34-3.76-14.71-.11-.13,3.22-1.19,1.88-2.63,19.14-9.25,47.81-10.39,71.39-14.71,0,5.96,0,11.91,0,17.87Z"/>
    <path class="cls-15" d="M1052.15,322.67c-6.72,1.87-13.35,4.17-20.67,5.26,1.33-11.98-107.14,7-124-9.46,7.49-2.36,18.83-7.99,27.24-10.51,18.47-5.53,38.73-9.32,57.3-14.71.31.14-1.08,3.36,2.82,4.2,3.77.81,70.63,1.44,80.79,1.05,9.96-.38,20.71-3.45,30.06-4.2,6.59-.53,39.41-.63,41.33-1.05,3.72-.82,9.33-12.83,48.85-11.56.27,4.25-34.57,7.66-50.73,15.77-22.63,3.67-86.92,17.51-93,25.22Z"/>
    <path class="cls-20" d="M1493.66,220.72c23.97,5.29-9.35,3.86-3.76,10.51-36.4,8.46-73.5,15.67-108.03,26.28-117.98,16.14-229.4,44.97-337.24,75.67-1.74-4.47-25.59,8.85-13.15-5.26,7.32-1.08,13.95-3.39,20.67-5.26,46.53-12.95,154.42-38.76,205.72-50.45,27.31-6.22,66.62-11.41,90.18-16.82,48.45-11.12,97.87-22.66,145.6-34.68Z"/>
    <path class="cls-15" d="M1003.3,276.42c-3.14,4.27,7.67,10.42,7.52,11.04-.59,2.37-15.33,4.78-18.79,5.78-.18-.08-1.3-1.92-2.82-2.1-10-1.18-66.13,17.77-77.97,21.02-10.53-3.57-15.43-3.37-20.67-10.51,37.1-9.03,75.93-16,112.73-25.22Z"/>
    <path class="cls-20" d="M1561.3,203.9c-10.18,4.7,14.19,7.14,0,11.56-7.65,2.38-52.77,11.44-71.39,15.77-5.59-6.65,27.72-5.22,3.76-10.51,12.11-3.05,24.11-8.45,36.64-11.56,7.84-1.94,24-3.67,31-5.26Z"/>
    <path class="cls-1" d="M1561.3,215.46v3.15c-25.81,12.14-4.48,11.18-5.64,15.24-.16.57-3.59-.08-11.27,8.93-.63.74.62,2.84,0,3.68-1.41,1.93-8.92,3.09-9.39,4.2-.75,1.76,15.21,7.6,0,14.71,26.22-1.72,3.02,4.04-13.15,16.82,25.86,5.12-6.97,6.1,13.15,13.14-39.69,9.15-77.98,20.37-119.3,27.33,19.25-8.73-7.76-8.79,12.21-12.09-26.65-7.47-1.89-1.24,1.88-7.36,2.75-4.46-9.26-1.65,7.52-13.66-25.53-8.27-23.39-17.63-36.64-31.01-5.87,5.66-6.16,12-6.58,12.61-3.89,5.73-3.42,7.02-3.76,7.36-2.95,2.89-20.18,7.69-24.42,11.04-.45.35-.75,5.87-3.76,8.41-5.72,4.83-34.7,10.48-16.91,14.71-28.85,9.61-11.75,11.45-11.27,14.71,1.42,9.66-23.9,9.94-27.24,11.04-4.6,1.51.86,2.81-3.76,4.2-27.4,8.3-99.9,21.9-158.76,39.94-1.12.34-2.71.67-3.76,1.05-1.08-2.84-29.09-3.9-44.15-6.31-7.19-1.15-18.14-4.87-27.24-6.31,68.5-22.18,139.6-42.32,211.36-60.96,11.43-2.97,41-6.45,39.45-11.56-45.32,10.3-92.77,17.77-137.15,29.43-43.92,11.54-83.89,27.5-124.94,40.99-30.01-4.39-60.04-6.73-90.18-10.51,8.41-3.79,17.53-7,26.3-10.51q14.09-4.73,28.18-9.46c6.71-2.01,15.29-3.19,22.55-5.26,107.84-30.7,219.26-59.53,337.24-75.67,34.53-10.61,71.63-17.81,108.03-26.28,18.62-4.33,63.74-13.38,71.39-15.77Z"/>
    <path class="cls-3" d="M1390.33,278.52c.34-.33-.13-1.63,3.76-7.36,16.68,5.74-2.9,12.71-3.76,7.36Z"/>
    <path class="cls-20" d="M1813.05,135.58c-10.36,7.99-6.77,12.1-7.52,13.14-3.77,5.3-12.26,10.86-13.15,12.09-25.48,2.56-51.23,12.91-54.48,13.66-23.04,5.3-69.36,13.49-93.94,14.71-2.86-5.47-4.83-11.71-9.39-16.82-1.31-3.88,8.42-1.28,15.97-2.1,39.83-4.36,120.81-25.49,162.51-34.68Z"/>
    <path class="cls-20" d="M907.49,318.46c16.86,16.46,125.32-2.52,124,9.46-12.44,14.11,11.41.78,13.15,5.26-7.25,2.06-15.83,3.24-22.55,5.26-12.6,3.78-9.97,2.18-28.18,9.46-8.77,3.51-17.89,6.72-26.3,10.51-54.23-6.8-57.22-4.38-127.76-17.87,19.41-9.99,45.05-14.96,67.64-22.07Z"/>
    <path class="cls-20" d="M1069.06,371.01c-3.84-.6-7.78-1.59-11.27-2.1,41.05-13.49,81.02-29.45,124.94-40.99,44.38-11.66,91.83-19.13,137.15-29.43,1.55,5.11-28.03,8.59-39.45,11.56-71.77,18.64-142.86,38.78-211.36,60.96Z"/>
    <path class="cls-9" d="M992.03,293.24c-18.57,5.39-38.83,9.18-57.3,14.71-8.41,2.52-19.75,8.15-27.24,10.51-22.58,7.11-48.22,12.08-67.64,22.07-18.76-3.59-37.21-7.55-56.36-10.51,13.02-.52,32.99-9.29,45.09-12.61-2.04,28.12,27.28,8.23,46.03,3.15,8.19-2.22,20.14-3.88,36.64-8.41,11.84-3.25,67.97-22.2,77.97-21.02,1.52.18,2.64,2.02,2.82,2.1Z"/>
    <path class="cls-20" d="M890.58,301.65c5.23,7.14,10.14,6.94,20.67,10.51-16.5,4.53-28.44,6.19-36.64,8.41-18.75,5.08-48.07,24.97-46.03-3.15,22.61-6.2,39.33-10.25,62-15.77Z"/>
    <g>
      <path class="cls-10" d="M1612.02,153.45c.91,1.33,3.9,6.52,3.76,7.36-.83,4.95-21.9,6.1,1.88,20.5-9.26,7.31-14.29,2.25-16.91,5.26-2.2,2.52,1.95,4.49,1.88,4.73-.61,1.99-6.7,2.96,0,11.56-3.71,1.8-6.18.83-6.58,1.05-1.89,1.06-.52,2.96-.94,3.15-5.3,2.38-5.73,4.77-11.27,6.31-.76.21-3.11-2.54-11.27.53-1.72.65,2.95,1.87.94,2.63-2.48.93-11.53,1.78-12.21,2.1v-3.15c14.19-4.42-10.18-6.86,0-11.56.24-.06-.77-1.67.94-2.1.47-.12,7.68,3.07,10.33-.53.54-.74-6.29-5.5-3.76-10.51.54-1.06,16.4-8.86,16.91-9.46.21-.24-4.04-2.62-1.88-5.26,2.99-3.64,5.48-2.44,5.64-2.63,21.94,10.83,19.44-1.41,0-1.05,19.53-23.21,14.4-30.73,22.55-18.92Z"/>
      <path class="cls-8" d="M1589.48,173.42c.24-.29-.24-.76,0-1.05,19.44-.36,21.94,11.88,0,1.05Z"/>
      <path class="cls-3" d="M1553.78,292.19c-4.91,1.13-10.2,2.04-15.03,3.15-.85.2-2.91-.2-3.76,0-20.13-7.04,12.71-8.02-13.15-13.14,16.17-12.78,39.37-18.53,13.15-16.82,15.21-7.11-.75-12.95,0-14.71.47-1.11,7.98-2.28,9.39-4.2.62-.84-.63-2.94,0-3.68q7.05,2.63,14.09,5.26c5.97-.74,34.14-20.12,34.76-21.55.29-.66-1.17-1.59-1.88-3.68,10.31-5.29,13.91-9.02,3.76-15.77.42-.19-.95-2.09.94-3.15.4-.22,2.86.75,6.58-1.05,1.17-.57,12.15-.56,7.52-8.41.56.19,7.74.48,11.27,3.68,6.31,5.71.06,39.53-1.88,42.04-3.14,4.07-38.27,8.17-20.67,26.28l-45.09,17.87c-1.56,5.06,9.45,1.06,0,7.88Z"/>
      <path class="cls-4" d="M1634.57,172.37c4.57,5.1,6.53,11.35,9.39,16.82,16.25,31.04,13.61,49.5,15.03,52.03,1.06,1.89,10.65,4.28,11.27,5.26.53.83-1.63,7.66,3.76,16.29-19.42,4.42-15.94,5.04-16.91,5.26-2.14.49-8.2-.48-10.33,0-8.68,1.96-43.18,13.63-52.61,15.77-13.3,3.01-27.16,5.35-40.39,8.41,9.45-6.82-1.56-2.82,0-7.88l45.09-17.87c-17.61-18.1,17.52-22.21,20.67-26.28,1.94-2.51,8.19-36.33,1.88-42.04-3.53-3.2-10.72-3.49-11.27-3.68-5.19-1.79-3.16-3.69-7.52-3.15.07-.24-4.08-2.21-1.88-4.73,2.62-3.01,7.64,2.05,16.91-5.26-23.78-14.39-2.71-15.54-1.88-20.5,11.77-4.38,7.85,6.45,9.39,7.88.3.27,8.69,2.89,9.39,3.68Z"/>
      <path class="cls-10" d="M1583.84,213.36c1.15,3.16,6.92,7.72,7.52,9.46.71,2.08,2.17,3.01,1.88,3.68-.62,1.43-28.79,20.81-34.76,21.55q-7.05-2.63-14.09-5.26c7.68-9.02,11.11-8.36,11.27-8.93,1.15-4.06-20.17-3.1,5.64-15.24.69-.32,9.73-1.17,12.21-2.1,2.01-.75-2.66-1.98-.94-2.63,8.16-3.06,10.51-.32,11.27-.53Z"/>
      <path class="cls-8" d="M1595.12,207.05c10.15,6.75,6.55,10.47-3.76,15.77-.59-1.74-6.37-6.3-7.52-9.46,5.54-1.53,5.97-3.93,11.27-6.31Z"/>
      <path class="cls-10" d="M1610.15,194.44c4.63,7.85-6.35,7.84-7.52,8.41-6.7-8.6-.61-9.57,0-11.56,4.36-.54,2.33,1.37,7.52,3.15Z"/>
    </g>
    <path class="cls-9" d="M1022.09,338.43q-14.09,4.73-28.18,9.46c18.21-7.28,15.58-5.68,28.18-9.46Z"/>
    <path class="cls-16" d="M1739.78,176.57c-13.54,7.78-9.84,23.08-20.67,33.11,10.28,4.32-3.48,9.72-3.76,11.56-.2,1.32,5.29,3.74,3.76,10.51-2.64,11.7-43.26,17.31-3.76,23.65-21.61,4.91-39.32,6.9-41.33,7.36-5.39-8.63-3.22-15.46-3.76-16.29-.63-.98-10.21-3.36-11.27-5.26-1.42-2.53,1.22-20.99-15.03-52.03,24.58-1.22,70.9-9.42,93.94-14.71,2.85-.06,1.48,1.34,1.88,2.1Z"/>
    <path class="cls-16" d="M1792.39,160.81c-7.1,9.78-.66,6.7,0,12.61.5,4.49-10.91,3.68,5.64,11.04-3.93,5.16-8.08,11.2-18.79,13.14-6.14,1.11-15.15-2.01-18.79,2.1-8.57-16.55-3.8,2.24-20.67-5.26,1.77-8.6,7.97-2.66,0-17.87-.4-.76.97-2.16-1.88-2.1,3.26-.75,29.01-11.11,54.48-13.66Z"/>
    <g>
      <g>
        <path class="cls-2" d="M1739.78,176.57c7.97,15.21,1.77,9.27,0,17.87-1.73,8.41-.24,5.03,1.88,8.41-9.27,19-.08,18.4,0,19.44.83,10.51-8.57,7.8-7.52,13.66,1.31,7.34,19.05,4.09-9.39,17.34-3.13.71-6.3,1.4-9.39,2.1-39.51-6.34,1.12-11.95,3.76-23.65,1.53-6.77-3.96-9.19-3.76-10.51.28-1.84,14.04-7.24,3.76-11.56,10.83-10.03,7.13-25.33,20.67-33.11Z"/>
        <path class="cls-23" d="M1760.45,199.7c.83,1.61-.87,5.05,0,6.31q-5.17,2.63-10.33,5.26c-3.51-5.5-4.52-2.13-8.45-8.41-2.12-3.38-3.61,0-1.88-8.41,16.87,7.5,12.09-11.3,20.67,5.26Z"/>
      </g>
      <g>
        <path class="cls-4" d="M1852.51,127.17c1.35,1.43-1.99,2.5-1.88,2.63,3.01,3.37,20.33,9.96,3.76,14.71.86.87,5.77.6,7.52.53,1.02,20.43,15.17,19.84,16.91,23.65,1.66,3.64-5.72,14.86,26.3,42.57-17.21,4.7-34.33,9.31-52.61,12.61-31.03,5.91-70.42,18.01-97.7,24.17-14.42,3.26-28.6,4.92-30.06,5.26,28.45-13.25,10.71-10,9.39-17.34-1.05-5.87,8.34-3.16,7.52-13.66-.08-1.04-9.27-.45,0-19.44,3.93,6.28,4.95,2.91,8.45,8.41q5.17-2.63,10.33-5.26c1.55,2.24,13.45,14.29,19.73,11.56,20.73-8.45-23.18,10.6,0,17.87,7.23-6.65,34.96-13.05,39.45-15.77,9.66-5.83,5.99-8.54,6.58-8.93,5.92-3.94,24.73-9.3,22.55-15.77-1.28-3.78-19.69-1.41,7.52-15.77-24.8-12.47-8.76-9.01-9.39-16.82-.2-2.47-5.21-17.72-11.27-17.34.24-.62-3.87.69,0-12.61,1.14-3.91,2.53-7.92,5.64-11.56.4.38,8.35,3.19,11.27,6.31Z"/>
        <path class="cls-10" d="M1835.6,132.43c-3.87,13.3.24,12,0,12.61-3.52,9.23-13.43,18.17-16.91,25.22q-13.15,1.58-26.3,3.15c-.66-5.91-7.1-2.83,0-12.61.89-1.23,9.38-6.79,13.15-12.09.74-1.04-2.85-5.15,7.52-13.14,3.11-2.44,7.28-2.93,7.52-3.15h15.03Z"/>
        <path class="cls-14" d="M1841.23,120.87c-3.11,3.65-4.5,7.65-5.64,11.56h-15.03c1.08-1.04,2.01-11.88,12.21-23.12,2.94-.39,3.07,6.45,8.45,11.56Z"/>
        <path class="cls-8" d="M1760.45,206c-.87-1.26.83-4.7,0-6.31,3.64-4.11,12.64-.99,18.79-2.1-6.58,6.52,5.58,11.59,14.09,14.71,19.69-8.63,10.98-15.21,12.21-17.34.65-1.12,7.82-1.9,9.39-5.26.88-1.89-3.19-3.67-1.88-6.31.36-.73,5.25-2.41,5.64-3.15.25-.48-3.71-2.46,0-9.98,3.48-7.06,13.39-16,16.91-25.22,6.06-.38,11.07,14.87,11.27,17.34.63,7.81-15.4,4.35,9.39,16.82-27.21,14.36-8.79,11.99-7.52,15.77,2.18,6.46-16.62,11.82-22.55,15.77-.59.39,3.09,3.1-6.58,8.93-4.5,2.71-32.22,9.11-39.45,15.77-23.18-7.27,20.73-26.32,0-17.87-6.28,2.72-18.18-9.32-19.73-11.56Z"/>
        <path class="cls-10" d="M1818.69,170.27c-3.71,7.52.25,9.51,0,9.98-.38.74-5.27,2.43-5.64,3.15-1.31,2.63,2.76,4.42,1.88,6.31-1.57,3.36-8.75,4.13-9.39,5.26-1.23,2.13,7.48,8.71-12.21,17.34-8.51-3.13-20.67-8.19-14.09-14.71,10.71-1.94,14.85-7.98,18.79-13.14-16.55-7.36-5.14-6.55-5.64-11.04q13.15-1.58,26.3-3.15Z"/>
      </g>
    </g>
    <path class="cls-12" d="M1711.6,87.24c-1.51.35-1.72,2.6-13.15,5.26-3.53-6.32,7.24-15.39,13.15-5.26Z"/>
    <path class="cls-12" d="M1752.93,78.83c-4.63,1.86-10.02,2.84-15.03,4.2,10.28-14.43,12.12-5.79,15.03-4.2Z"/>
    <g>
      <path class="cls-16" d="M244.28,340.53c30.58,4.19,60.61,10.47,91.12,14.71,70.61,9.83,144.42,14.03,211.36,31.53-182.24-.08-364.48.06-546.72,0-.15-26.63.2-53.25,0-79.88,80.23,14.16,162.76,22.46,244.24,33.63Z"/>
      <path class="cls-22" d="M597.49,362.61c37.09,9.85,79.65,11.92,114.6,24.17-28.18,0-56.36.01-84.54,0,.26-1.24-9.68-4.1-10.33-4.2-82.82-13.06-167.16-23.46-249.88-36.79-16.23.1-115.91-13.73-122.12-9.46-2.18,1.5,6.31,1.75-.94,4.2-81.48-11.18-164.01-19.48-244.24-33.63-.12-16.82.07-33.63,0-50.45,99.35,14.9,196.17,44.74,294.03,48.35,34.01,8.78,60.67,6.92,63.88,7.36,1.86.26.02,2.87,1.88,3.15,19.35,2.92,14.2-.19,15.03,0,.92.21,8.6,5.91,15.03,7.36,37.48,8.44,79.64,12.39,117.42,19.44-32.04,5.73-10.23,1.84,4.7,3.68,8.07.99,58.62,15.87,85.48,16.82Z"/>
      <path class="cls-21" d="M633.19,306.9c20.02,3.23,140.72,23.11,148.42,23.12-.19.84-1.28,1.25-1.88,2.1-1.7,2.4-8.93,14.15-12.21,14.71-3.14.54-60.85-7.7-63.88-8.41-1.59-.37.08-3.28-3.76-4.2-27.88-6.7-55.06-15.4-58.24-15.77-3.27-.38-74.73.17-49.79-7.88-36.52-3.58-74.56-10.74-111.79-15.24-3.78-.46-2.56,2.24-3.76,2.1-4.68-.55-36.15-4.52-37.58-5.26-5.97-3.07,11.22-1.12-12.21-5.26-54.08-9.53-106.29-22.3-160.63-31.53C178.6,240.57,88.21,230.61.04,217.56c-.01-4.9.01-9.81,0-14.71,111.94,15,221.28,35.34,331.6,53.6,28.99,4.8,59.41,7.85,88.3,12.61,71.34,11.76,141.66,26.28,213.24,37.84Z"/>
      <path class="cls-21" d="M426.52,286.93c23.43,4.13,6.24,2.19,12.21,5.26,1.43.73,32.89,4.7,37.58,5.26,1.19.14-.02-2.56,3.76-2.1,37.23,4.5,75.27,11.66,111.79,15.24-24.94,8.05,46.52,7.51,49.79,7.88,3.18.37,30.37,9.06,58.24,15.77,3.83.92,2.17,3.83,3.76,4.2,3.03.71,60.74,8.94,63.88,8.41,3.28-.56,10.51-12.31,12.21-14.71,1.06,4.25,3.22,10.57-1.88,14.19-1.41,1-12.82.5-3.76,1.58-.7-.08-4.08,2.19-14.09,1.05-93.59-10.65-186.34-24.88-280.88-32.58,9.17-2.13,14.32-1.75,11.27-8.41,41.57,6.28,27.24,2.22-2.82-3.15-52.45-9.37-107.05-15.98-159.7-25.22-94.49-16.59-170.87-35.58-271.48-44.14-14.11-1.8-15.11-4.1-15.97-4.2-.42-.05-1.81,1.83-8.45,1.05-8.38-.98-7.14.03-7.52,0-2.56-.21-1.75-1.04-1.88-1.05-.38-.03,2.14-.42-7.52-1.05-5.7-1.08-11.82-3.66-15.03-2.1,0-2.8,0-5.61,0-8.41,125.03,16.23,249.86,33.96,371.06,57.81,18.8,3.7,56.34,14.6,55.42,9.46Z"/>
      <path class="cls-19" d="M839.85,340.53c70.53,13.48,73.53,11.07,127.76,17.87,30.14,3.78,60.17,6.12,90.18,10.51,3.5.51,7.43,1.5,11.27,2.1,9.1,1.43,20.06,5.16,27.24,6.31,15.06,2.41,43.07,3.47,44.15,6.31-2.26.82-4.88,1.55-5.64,3.15-15.66,0-31.31,0-46.97,0-31.92-4.51-64.57-9.98-96.76-13.66-15.23-1.74-31.66-1.41-46.97-3.15-48.83-5.54-97.72-11.22-146.54-16.82-1.59-.18.25-1.75-2.82-2.1-6.8-.78-13.74-2.36-20.67-3.15-9.06-1.07,2.35-.58,3.76-1.58,5.1-3.62,2.93-9.94,1.88-14.19.6-.85,1.68-1.26,1.88-2.1.62,0,1.26.02,1.88,0,19.15,2.96,37.6,6.92,56.36,10.51Z"/>
      <path class="cls-22" d="M627.55,386.78c-26.93,0-53.86.01-80.79,0-66.94-17.5-140.75-21.7-211.36-31.53-30.51-4.25-60.54-10.52-91.12-14.71,7.25-2.45-1.24-2.7.94-4.2,6.21-4.27,105.89,9.56,122.12,9.46,82.72,13.33,167.05,23.73,249.88,36.79.65.1,10.6,2.97,10.33,4.2Z"/>
      <path class="cls-7" d="M655.73,366.81c8.5,3.58,22.26,3.72,31.94,5.26,10.88,1.73,20.8,3.72,31.94,5.26,14.86,2.85,29.17,6.52,45.09,7.36,2.6,1.44,3.88-1.24,3.76,2.1-18.79,0-37.58,0-56.36,0-34.96-12.25-77.52-14.32-114.6-24.17,5.07.18,12.05-3.17,15.97-3.15,2.21,0,34.83,6.37,42.27,7.36Z"/>
      <path class="cls-6" d="M426.52,286.93c.92,5.14-36.62-5.76-55.42-9.46C249.9,253.63,125.08,235.9.04,219.67c0-.7,0-1.4,0-2.1,88.17,13.05,178.56,23,265.85,37.84,54.34,9.23,106.55,22,160.63,31.53Z"/>
      <g>
        <path class="cls-7" d="M15.07,230.18c.37.07-.98,1.58,7.52,1.05.13,0-.68.85,1.88,1.05,2.41.16,5.2-.25,7.52,0,7.62.81,13.63,2.23,24.42,3.15,17.67,2.25,36.18,3.71,53.54,6.31,111.52,16.71,246.63,46.01,380.45,66.21,3.04,6.66-2.11,6.28-11.27,8.41-12.8-1.04-52.89-3.46-15.97,1.05,43.31,5.29,88.12,8.39,131.51,13.66,38.67,4.7,164.83,23.89,193.51,23.12.43-.01,8.26-1.43,6.58-3.15,3.07.35,1.23,1.92,2.82,2.1,48.82,5.6,97.72,11.27,146.54,16.82,15.31,1.74,31.74,1.41,46.97,3.15,32.19,3.68,64.84,9.15,96.76,13.66-106.46.03-212.93.03-319.39,0,.12-3.34-1.15-.66-3.76-2.1-7.78-4.3-12.05-4.53-23.48-4.2-3.03-3.06-19.61-2.88-21.61-3.15-14.21-2.72-22.24-6.09-23.48-6.31-.41-.07-2.77,2.02-8.45,1.05-2.85-.49-11.52-4.1-12.21-4.2-.95-.15-5,.9-19.73-1.05-7.44-.98-40.06-7.35-42.27-7.36-3.92-.01-10.9,3.33-15.97,3.15-26.87-.95-77.42-15.82-85.48-16.82-14.92-1.84-36.73,2.05-4.7-3.68-37.78-7.05-79.94-11.01-117.42-19.44-6.43-1.45-14.11-7.15-15.03-7.36-.83-.19,4.32,2.92-15.03,0-1.86-.28-.02-2.9-1.88-3.15-3.21-.44-29.87,1.42-63.88-7.36-97.85-3.61-194.67-33.44-294.03-48.35-.01-2.8.01-5.61,0-8.41q59.18,9.2,118.36,18.39c-38.62-10.04-76.99-13.43-118.36-20.5-.02-5.61.02-11.21,0-16.82,4.69,1.87,9.99.72,15.03,1.05Z"/>
        <g>
          <path class="cls-13" d="M.04,248.04c0-.7,0-1.4,0-2.1,41.37,7.07,79.74,10.45,118.36,20.5Q59.22,257.24.04,248.04Z"/>
          <path class="cls-22" d="M15.07,230.18c-5.04-.33-10.34.82-15.03-1.05,0-.35,0-.7,0-1.05,3.21-1.56,9.33,1.02,15.03,2.1Z"/>
          <path class="cls-13" d="M479.13,316.36c94.54,7.7,187.28,21.94,280.88,32.58,10.01,1.14,13.39-1.13,14.09-1.05,6.92.79,13.86,2.37,20.67,3.15,1.68,1.72-6.14,3.14-6.58,3.15-28.68.77-154.84-18.42-193.51-23.12-43.4-5.27-88.21-8.37-131.51-13.66-36.92-4.51,3.17-2.09,15.97-1.05Z"/>
          <path class="cls-25" d="M490.4,307.95c-133.82-20.21-268.93-49.51-380.45-66.21-17.36-2.6-35.87-4.06-53.54-6.31,100.61,8.56,176.99,27.55,271.48,44.14,52.65,9.24,107.24,15.86,159.7,25.22,30.06,5.37,44.39,9.43,2.82,3.15Z"/>
          <path class="cls-13" d="M123.1,265.91q57.77,10.77,115.54,21.55c-1.38,2.91-62.27-8.42-70.45-9.98-19.29-3.7-54.65-10.42-45.09-11.56Z"/>
          <path class="cls-22" d="M764.7,384.68c-15.92-.84-30.23-4.51-45.09-7.36,1.99.27,18.57.09,21.61,3.15,11.43-.33,15.71-.09,23.48,4.2Z"/>
          <path class="cls-22" d="M687.67,372.06c-9.67-1.54-23.44-1.68-31.94-5.26,14.73,1.95,18.77.9,19.73,1.05.69.11,9.36,3.72,12.21,4.2Z"/>
          <path class="cls-22" d="M719.61,377.32c-11.14-1.54-21.06-3.53-31.94-5.26,5.68.97,8.04-1.12,8.45-1.05,1.24.22,9.28,3.58,23.48,6.31Z"/>
          <path class="cls-25" d="M56.41,235.43c-10.8-.92-16.8-2.34-24.42-3.15,6.64.78,8.03-1.1,8.45-1.05.86.11,1.86,2.41,15.97,4.2Z"/>
          <path class="cls-25" d="M31.98,232.28c-2.31-.25-5.11.16-7.52,0,.37.03-.87-.98,7.52,0Z"/>
          <path class="cls-22" d="M22.59,231.23c-8.5.53-7.15-.98-7.52-1.05,9.66.63,7.13,1.03,7.52,1.05Z"/>
        </g>
      </g>
    </g>
    <g>
      <path class="cls-6" d="M1923.9,251.2c-.16,45.19.12,90.39,0,135.58-249.88.06-499.75-.08-749.63,0,62.44-15.61,127.33-28.2,193.51-37.84,31.73-.56,60.49-5.3,90.18-10.51,6.39-1.12,12.43-3.01,18.79-4.2,13.11,12.56,5.14,21.1,36.64,18.92,1.47-.1,8.92-3.08,28.18-5.26,9.83-1.11,2.93,2.79,7.52,2.1,1.68-.25-4.4-3.7,30.06-6.31q42.27-11.56,84.54-23.12c16.52,2.17,18.75-4.84,33.82-9.46,22.24-6.81,66.02-13.37,71.39-14.71,19.18-4.78,50.99-14.18,70.45-19.97,3.09-.92,6.3-1.72,9.39-2.63-21.2-2.04,1.26-.89,14.09-3.68,14.99-3.26,40.37-16.2,61.06-18.92Z"/>
      <path class="cls-4" d="M1535,295.34c.85-.2,2.91.2,3.76,0,5.03,15.21,15.71,8.59,22.55,14.19l-62,16.29c-13.91,2.9-27.01,6.97-41.33,9.46-30,5.21-61.26,6.41-90.18,13.66-66.18,9.63-131.07,22.23-193.51,37.84-9.39,0-18.79,0-28.18,0l-1.88-4.2c58.86-18.04,131.36-31.64,158.76-39.94,4.61-1.4-.84-2.7,3.76-4.2,3.35-1.1,28.67-1.38,27.24-11.04-.48-3.27-17.58-5.11,11.27-14.71-17.79-4.23,11.19-9.88,16.91-14.71,3-2.54,3.31-8.06,3.76-8.41,4.25-3.34,21.47-8.15,24.42-11.04.85,5.36,20.43-1.61,3.76-7.36.42-.61.7-6.95,6.58-12.61,13.24,13.38,11.1,22.73,36.64,31.01-16.77,12.02-4.77,9.21-7.52,13.66-3.77,6.12-28.53-.11-1.88,7.36-19.98,3.3,7.04,3.36-12.21,12.09,41.32-6.95,79.61-18.18,119.3-27.33Z"/>
      <path class="cls-18" d="M1923.9,228.07c-77.34,21.54-158.79,37.61-238.6,55.7-61.88,14.03-123.45,29.01-186,42.04l62-16.29c-6.83-5.6-17.52,1.02-22.55-14.19,4.83-1.12,10.12-2.02,15.03-3.15,13.24-3.06,27.09-5.4,40.39-8.41,9.42-2.13,43.92-13.8,52.61-15.77,2.14-.48,8.19.49,10.33,0-1.78,5.21,6.67,1.9,14.09,4.2,4.02,1.25,5.26,4.78,7.52,5.26,1.32.28,26.78.1,28.18,0,7.44-.55,87.69-20.03,104.27-25.22,35.94-10.78,76.13-15.71,112.73-26.28,0,.7,0,1.4,0,2.1Z"/>
      <path class="cls-18" d="M1923.9,238.58c-.02,4.2.02,8.41,0,12.61-20.69,2.72-46.07,15.65-61.06,18.92-12.83,2.79-35.29,1.64-14.09,3.68-3.1.91-6.3,1.71-9.39,2.63-19.08-1.76-42.54,7.48-59.18,10.51-21.05,3.83-119.88,20.67-121.18,9.46,8.72-1.83,17.25-3.92,26.3-5.26,82.12-13.73,159.07-36.42,238.6-52.55Z"/>
      <path class="cls-5" d="M1923.9,216.51c0,3.15.01,6.31,0,9.46-36.59,10.57-76.78,15.5-112.73,26.28-20.37-5.24-46.22,2.15-56.36-4.2,27.28-6.16,66.67-18.26,97.7-24.17,13.98,7.76,49.85-3.8,71.39-7.36Z"/>
      <path class="cls-24" d="M1923.9,238.58c-79.54,16.13-156.48,38.82-238.6,52.55v-7.36c79.81-18.1,161.26-34.16,238.6-55.7-.01,3.5.01,7.01,0,10.51Z"/>
      <path class="cls-5" d="M1923.9,207.05c0,3.15,0,6.31,0,9.46-21.54,3.55-57.42,15.12-71.39,7.36,18.27-3.3,35.4-7.91,52.61-12.61,5.9-1.61,12.05-4.1,18.79-4.2Z"/>
      <path class="cls-25" d="M1146.09,386.78c-3.76,0-7.52,0-11.27,0,.76-1.61,3.38-2.34,5.64-3.15,1.05-.38,2.64-.71,3.76-1.05l1.88,4.2Z"/>
      <path class="cls-17" d="M1839.36,276.42c-19.47,5.79-51.28,15.19-70.45,19.97-5.37,1.34-49.15,7.9-71.39,14.71-15.07,4.62-17.29,11.63-33.82,9.46q-42.27,11.56-84.54,23.12c-34.46,2.6-28.39,6.06-30.06,6.31-4.59.69,2.32-3.21-7.52-2.1-19.26,2.17-26.71,5.15-28.18,5.26-31.49,2.18-23.53-6.36-36.64-18.92,61.33-11.47,121.69-25.13,182.24-37.84,1.3,11.21,100.13-5.63,121.18-9.46,16.64-3.03,40.1-12.27,59.18-10.51Z"/>
      <path class="cls-17" d="M1685.3,283.78v7.36c-9.05,1.33-17.58,3.42-26.3,5.26-60.55,12.71-120.91,26.37-182.24,37.84-6.36,1.19-12.4,3.08-18.79,4.2v-3.15c14.32-2.49,27.42-6.56,41.33-9.46,62.55-13.03,124.12-28.01,186-42.04Z"/>
      <path class="cls-16" d="M1457.97,338.43c-29.69,5.21-58.45,9.95-90.18,10.51,28.92-7.25,60.18-8.45,90.18-13.66v3.15Z"/>
      <path class="cls-24" d="M1754.81,248.04c10.14,6.36,35.99-1.04,56.36,4.2-16.58,5.2-96.84,24.67-104.27,25.22-1.4.1-26.86.28-28.18,0-2.26-.47-3.5-4.01-7.52-5.26-7.42-2.31-15.88,1.01-14.09-4.2.96-.22-2.52-.84,16.91-5.26,2.01-.46,19.73-2.45,41.33-7.36,3.1-.7,6.26-1.39,9.39-2.1,1.46-.33,15.64-2,30.06-5.26Z"/>
    </g>
    <path class="cls-11" d="M1918.26,11.56c-4.18,12.07-.2,15.4-1.88,26.28-.02.11-3.63-.35-3.76.53-.32,2.12,7.97,7.81.94,7.88-22.89-33.26-10.86-1.79-22.55,4.2-24.29,12.46-43.14-9.16-45.09,5.26-14.78-9.05.64,3.81-30.06,10.51-1.59.35-.51-5.83-28.18,6.31-13.43-18.72-18.05,15.42-34.76,6.31-2.91-1.59-4.75-10.22-15.03,4.2-27.73,7.57-24.98,3.89-26.3,4.2-5.92-10.13-16.69-1.07-13.15,5.26-69.4,16.13-139.44,30.54-207.6,48.35-104.39,27.26-204.5,60.11-308.12,88.29-59.08,16.06-119.51,32.28-179.42,47.3-36.79,9.22-75.63,16.2-112.73,25.22-22.67,5.52-39.39,9.56-62,15.77-12.1,3.32-32.07,12.1-45.09,12.61-.62.02-1.26,0-1.88,0-7.7-.01-128.4-19.89-148.42-23.12,4.41-3.33-3.07-1.39-3.76-2.63,35.18-12.24,89.47-10.87,108.03-35.21,10.52,1.17,4.62,8.19,7.52,9.46,17.64-7.22,25.71-.62,33.82-11.56,31,4.93,24.04.44,26.3,0,54.24-10.51,34.28-18.73,41.33-18.92,15.9,20.3,12.21-28.5,30.06,1.05,9.35-3.41,59.18-13.68,62-14.71,2.25-.83,12.62-14.47,20.67-5.26,2.53-1.09,5.51-1.36,8.45-2.1,13.61-3.41,10.46-9.01,14.09-9.46.95-.12,3.36,3.55,9.39,3.15,3.64-.24,53.96-18.16,62.94-21.02,7.99-2.55,47.65-12.17,49.79-13.66,5.5-3.85-.21-6.53,7.52-9.46,9.58,10.55,11.44,4.4,14.09,4.2,14.12-1.06,14.8-2.88,26.3-5.26,18.14-3.74,28.38-6.54,45.09-10.51,44-10.45,123.2-28.69,160.63-40.99,5.35-1.76,4.32-4.07,4.7-4.2,31.73-10.89,28.43-4.42,49.79-8.41,14.85-2.77,44.94-11.58,67.64-15.77,48.21-8.89,98.86-14.57,146.54-24.17,46.32-9.33,89.67-23.36,135.27-33.63,41.74-9.41,118.67-27.53,156.88-26.28Z"/>
    <path class="cls-13" d="M1923.9,16.82c-5.58-.35-4.97,2.07,0,3.15,0,5.61,0,11.21,0,16.82q-3.76.53-7.52,1.05c1.68-10.88-2.3-14.2,1.88-26.28.23-.65,2.51,3.13,5.64-11.56,0,5.61,0,11.21,0,16.82Z"/>
    <path class="cls-12" d="M1923.9,16.82c0,1.05,0,2.1,0,3.15-4.97-1.09-5.58-3.5,0-3.15Z"/>
  </g>
</svg>