<?xml version="1.0" encoding="utf-8"?>
<!-- Generator: Adobe Illustrator 27.6.1, SVG Export Plug-In . SVG Version: 6.00 Build 0)  -->
<svg version="1.1" id="Layer_2_00000094594132737522990620000012933901586678856878_"
	 xmlns="http://www.w3.org/2000/svg" xmlns:xlink="http://www.w3.org/1999/xlink" x="0px" y="0px" viewBox="0 0 1923.9 386.8"
	 style="enable-background:new 0 0 1923.9 386.8;" xml:space="preserve">
<style type="text/css">
	.st0{fill:#04382F;}
	.st1{fill:#044E3E;}
	.st2{fill:#1A4F39;}
	.st3{fill:url(#SVGID_1_);}
	.st4{fill:#2C403C;}
	.st5{fill:#035A56;}
	.st6{fill:#5D654D;}
	.st7{fill:#683D2B;}
	.st8{fill:#151E1B;}
	.st9{fill:#9F5F3C;}
	.st10{fill:#0D2F25;}
	.st11{fill:#50604B;}
	.st12{fill:#456847;}
	.st13{fill:#174131;}
	.st14{fill:#695B51;}
	.st15{fill:#1B5D43;}
	.st16{fill:#192131;}
	.st17{fill:#0C382B;}
	.st18{fill:#2B3138;}
	.st19{fill:#3C2129;}
	.st20{fill:#862B29;}
	.st21{fill:#4D2F33;}
	.st22{fill:#1A1C20;}
</style>
<g id="devant_nuit">
	<path class="st0" d="M1916.4,37.8c2.5-0.4,5-0.7,7.5-1c0,17.5,0,35,0,52.5c-65.9,2.5-117.6,26.6-181.3,34.7
		c-30.7,13.6-50.5,10.5-60.1,12.6c-9,1.9-43.3,13.4-70.4,16.8c-8.1-11.8-3-4.3-22.6,18.9c-0.2,0.3,0.2,0.8,0,1.1
		c-0.2,0.2-2.6-1-5.6,2.6c-2.2,2.6,2.1,5,1.9,5.3c-0.5,0.6-16.4,8.4-16.9,9.5c-2.5,5,4.3,9.8,3.8,10.5c-2.7,3.6-9.9,0.4-10.3,0.5
		c-1.7,0.4-0.7,2.1-0.9,2.1c-7,1.6-23.2,3.3-31,5.3c-12.5,3.1-24.5,8.5-36.6,11.6c-47.7,12-97.2,23.6-145.6,34.7
		c-23.6,5.4-62.9,10.6-90.2,16.8c-51.3,11.7-159.2,37.5-205.7,50.5c6.1-7.7,70.4-21.6,93-25.2c16.2-8.1,51-11.5,50.7-15.8
		c-39.5-1.3-45.1,10.8-48.8,11.6c-1.9,0.4-34.7,0.5-41.3,1c-9.3,0.8-20.1,3.8-30.1,4.2c-10.2,0.4-77-0.2-80.8-1
		c-3.9-0.8-2.5-4.1-2.8-4.2c3.5-1,18.2-3.4,18.8-5.8c0.2-0.6-10.7-6.8-7.5-11c59.9-15,120.3-31.2,179.4-47.3
		c103.6-28.2,203.7-61,308.1-88.3c68.2-17.8,138.2-32.2,207.6-48.3c11.4-2.7,11.6-4.9,13.2-5.3c1.3-0.3-1.4,3.4,26.3-4.2
		c5-1.4,10.4-2.3,15-4.2c16.7,9.1,21.3-25,34.8-6.3c27.7-12.1,26.6-6,28.2-6.3c30.7-6.7,15.3-19.6,30.1-10.5
		c1.9-14.4,20.8,7.2,45.1-5.3c11.7-6-0.3-37.5,22.6-4.2c7-0.1-1.3-5.8-0.9-7.9C1912.8,37.5,1916.4,37.9,1916.4,37.8L1916.4,37.8z"/>
	<path class="st1" d="M1923.9,89.3c0,7.7,0,15.4,0,23.1c-23.6,4.3-52.2,5.5-71.4,14.7c-2.9-3.1-10.9-5.9-11.3-6.3
		c-5.4-5.1-5.5-11.9-8.4-11.6c-10.2,11.2-11.1,22.1-12.2,23.1c-0.2,0.2-4.4,0.7-7.5,3.1c-41.7,9.2-122.7,30.3-162.5,34.7
		c-7.6,0.8-17.3-1.8-16,2.1c-0.7-0.8-9.1-3.4-9.4-3.7c-1.5-1.4,2.4-12.3-9.4-7.9c0.1-0.8-2.8-6-3.8-7.4
		c27.1-3.4,61.5-14.9,70.4-16.8c9.6-2.1,29.4,1,60.1-12.6C1806.3,115.9,1858,91.8,1923.9,89.3L1923.9,89.3z"/>
	<path class="st0" d="M1923.9,130.3c0,25.6,0.1,51.2,0,76.7c-6.7,0.1-12.9,2.6-18.8,4.2c-32-27.7-24.6-38.9-26.3-42.6
		c-1.7-3.8-15.9-3.2-16.9-23.6C1874.4,144.5,1907.9,132.2,1923.9,130.3L1923.9,130.3z"/>
	<path class="st2" d="M1923.9,130.3c-16,1.9-49.5,14.2-62,14.7c-1.7,0.1-6.7,0.3-7.5-0.5c16.6-4.8-0.8-11.3-3.8-14.7
		c-0.1-0.1,3.2-1.2,1.9-2.6c19.1-9.2,47.8-10.4,71.4-14.7C1923.9,118.4,1923.9,124.4,1923.9,130.3L1923.9,130.3z"/>
	<path class="st1" d="M1052.2,322.7c-6.7,1.9-13.3,4.2-20.7,5.3c1.3-12-107.1,7-124-9.5c7.5-2.4,18.8-8,27.2-10.5
		c18.5-5.5,38.7-9.3,57.3-14.7c0.3,0.1-1.1,3.4,2.8,4.2c3.8,0.8,70.6,1.4,80.8,1c10-0.4,20.7-3.5,30.1-4.2c6.6-0.5,39.4-0.6,41.3-1
		c3.7-0.8,9.3-12.8,48.8-11.6c0.3,4.2-34.6,7.7-50.7,15.8C1122.5,301.1,1058.2,315,1052.2,322.7L1052.2,322.7z"/>
	<path class="st2" d="M1493.7,220.7c24,5.3-9.3,3.9-3.8,10.5c-36.4,8.5-73.5,15.7-108,26.3c-118,16.1-229.4,45-337.2,75.7
		c-1.7-4.5-25.6,8.9-13.2-5.3c7.3-1.1,13.9-3.4,20.7-5.3c46.5-13,154.4-38.8,205.7-50.5c27.3-6.2,66.6-11.4,90.2-16.8
		C1396.5,244.3,1445.9,232.7,1493.7,220.7L1493.7,220.7z"/>
	<path class="st1" d="M1003.3,276.4c-3.1,4.3,7.7,10.4,7.5,11c-0.6,2.4-15.3,4.8-18.8,5.8c-0.2-0.1-1.3-1.9-2.8-2.1
		c-10-1.2-66.1,17.8-78,21c-10.5-3.6-15.4-3.4-20.7-10.5C927.7,292.6,966.5,285.6,1003.3,276.4L1003.3,276.4z"/>
	<path class="st2" d="M1561.3,203.9c-10.2,4.7,14.2,7.1,0,11.6c-7.7,2.4-52.8,11.4-71.4,15.8c-5.6-6.6,27.7-5.2,3.8-10.5
		c12.1-3.1,24.1-8.4,36.6-11.6C1538.2,207.2,1554.3,205.5,1561.3,203.9L1561.3,203.9z"/>
	
		<linearGradient id="SVGID_1_" gradientUnits="userSpaceOnUse" x1="1261.6917" y1="129.6302" x2="1271.3517" y2="29.6402" gradientTransform="matrix(1 0 0 -1 0 388)">
		<stop  offset="0" style="stop-color:#094E3A"/>
		<stop  offset="1" style="stop-color:#024D47"/>
	</linearGradient>
	<path class="st3" d="M1561.3,215.5v3.1c-25.8,12.1-4.5,11.2-5.6,15.2c-0.2,0.6-3.6-0.1-11.3,8.9c-0.6,0.7,0.6,2.8,0,3.7
		c-1.4,1.9-8.9,3.1-9.4,4.2c-0.8,1.8,15.2,7.6,0,14.7c26.2-1.7,3,4-13.2,16.8c25.9,5.1-7,6.1,13.2,13.1
		c-39.7,9.1-78,20.4-119.3,27.3c19.2-8.7-7.8-8.8,12.2-12.1c-26.7-7.5-1.9-1.2,1.9-7.4c2.8-4.5-9.3-1.6,7.5-13.7
		c-25.5-8.3-23.4-17.6-36.6-31c-5.9,5.7-6.2,12-6.6,12.6c-3.9,5.7-3.4,7-3.8,7.4c-2.9,2.9-20.2,7.7-24.4,11
		c-0.4,0.4-0.8,5.9-3.8,8.4c-5.7,4.8-34.7,10.5-16.9,14.7c-28.8,9.6-11.8,11.5-11.3,14.7c1.4,9.7-23.9,9.9-27.2,11
		c-4.6,1.5,0.9,2.8-3.8,4.2c-27.4,8.3-99.9,21.9-158.8,39.9c-1.1,0.3-2.7,0.7-3.8,1c-1.1-2.8-29.1-3.9-44.2-6.3
		c-7.2-1.1-18.1-4.9-27.2-6.3c68.5-22.2,139.6-42.3,211.4-61c11.4-3,41-6.5,39.4-11.6c-45.3,10.3-92.8,17.8-137.2,29.4
		c-43.9,11.5-83.9,27.5-124.9,41c-30-4.4-60-6.7-90.2-10.5c8.4-3.8,17.5-7,26.3-10.5c9.4-3.2,18.8-6.3,28.2-9.5
		c6.7-2,15.3-3.2,22.5-5.3c107.8-30.7,219.3-59.5,337.2-75.7c34.5-10.6,71.6-17.8,108-26.3C1508.5,226.9,1553.6,217.8,1561.3,215.5
		L1561.3,215.5z"/>
	<path class="st4" d="M1390.3,278.5c0.3-0.3-0.1-1.6,3.8-7.4C1410.8,276.9,1391.2,283.9,1390.3,278.5z"/>
	<path class="st2" d="M1813.1,135.6c-10.4,8-6.8,12.1-7.5,13.1c-3.8,5.3-12.3,10.9-13.2,12.1c-25.5,2.6-51.2,12.9-54.5,13.7
		c-23,5.3-69.4,13.5-93.9,14.7c-2.9-5.5-4.8-11.7-9.4-16.8c-1.3-3.9,8.4-1.3,16-2.1C1690.4,165.9,1771.3,144.8,1813.1,135.6
		L1813.1,135.6z"/>
	<path class="st2" d="M907.5,318.5c16.9,16.5,125.3-2.5,124,9.5c-12.4,14.1,11.4,0.8,13.2,5.3c-7.2,2.1-15.8,3.2-22.5,5.3
		c-12.6,3.8-10,2.2-28.2,9.5c-8.8,3.5-17.9,6.7-26.3,10.5c-54.2-6.8-57.2-4.4-127.8-17.9C859.3,330.6,884.9,325.6,907.5,318.5
		L907.5,318.5z"/>
	<path class="st2" d="M1069.1,371c-3.8-0.6-7.8-1.6-11.3-2.1c41.1-13.5,81-29.5,124.9-41c44.4-11.7,91.8-19.1,137.2-29.4
		c1.6,5.1-28,8.6-39.4,11.6C1208.7,328.7,1137.6,348.8,1069.1,371L1069.1,371z"/>
	<path class="st5" d="M992,293.2c-18.6,5.4-38.8,9.2-57.3,14.7c-8.4,2.5-19.8,8.1-27.2,10.5c-22.6,7.1-48.2,12.1-67.6,22.1
		c-18.8-3.6-37.2-7.5-56.4-10.5c13-0.5,33-9.3,45.1-12.6c-2,28.1,27.3,8.2,46,3.1c8.2-2.2,20.1-3.9,36.6-8.4c11.8-3.2,68-22.2,78-21
		C990.7,291.3,991.9,293.1,992,293.2L992,293.2z"/>
	<path class="st2" d="M890.6,301.6c5.2,7.1,10.1,6.9,20.7,10.5c-16.5,4.5-28.4,6.2-36.6,8.4c-18.8,5.1-48.1,25-46-3.1
		C851.2,311.2,867.9,307.2,890.6,301.6L890.6,301.6z"/>
	<g>
		<path class="st6" d="M1612,153.4c0.9,1.3,3.9,6.5,3.8,7.4c-0.8,4.9-21.9,6.1,1.9,20.5c-9.3,7.3-14.3,2.2-16.9,5.3
			c-2.2,2.5,1.9,4.5,1.9,4.7c-0.6,2-6.7,3,0,11.6c-3.7,1.8-6.2,0.8-6.6,1.1c-1.9,1.1-0.5,3-0.9,3.1c-5.3,2.4-5.7,4.8-11.3,6.3
			c-0.8,0.2-3.1-2.5-11.3,0.5c-1.7,0.6,2.9,1.9,0.9,2.6c-2.5,0.9-11.5,1.8-12.2,2.1v-3.1c14.2-4.4-10.2-6.9,0-11.6
			c0.2-0.1-0.8-1.7,0.9-2.1c0.5-0.1,7.7,3.1,10.3-0.5c0.5-0.7-6.3-5.5-3.8-10.5c0.5-1.1,16.4-8.9,16.9-9.5c0.2-0.2-4-2.6-1.9-5.3
			c3-3.6,5.5-2.4,5.6-2.6c21.9,10.8,19.4-1.4,0-1.1C1609,149.2,1603.9,141.6,1612,153.4L1612,153.4z"/>
		<path class="st7" d="M1589.5,173.4c0.2-0.3-0.2-0.8,0-1.1C1608.9,172,1611.4,184.2,1589.5,173.4z"/>
		<path class="st4" d="M1553.8,292.2c-4.9,1.1-10.2,2-15,3.1c-0.8,0.2-2.9-0.2-3.8,0c-20.1-7,12.7-8-13.2-13.1
			c16.2-12.8,39.4-18.5,13.2-16.8c15.2-7.1-0.8-12.9,0-14.7c0.5-1.1,8-2.3,9.4-4.2c0.6-0.8-0.6-2.9,0-3.7c4.7,1.8,9.4,3.5,14.1,5.3
			c6-0.7,34.1-20.1,34.8-21.6c0.3-0.7-1.2-1.6-1.9-3.7c10.3-5.3,13.9-9,3.8-15.8c0.4-0.2-0.9-2.1,0.9-3.1c0.4-0.2,2.9,0.8,6.6-1.1
			c1.2-0.6,12.2-0.6,7.5-8.4c0.6,0.2,7.7,0.5,11.3,3.7c6.3,5.7,0.1,39.5-1.9,42c-3.1,4.1-38.3,8.2-20.7,26.3l-45.1,17.9
			C1552.2,289.4,1563.2,285.4,1553.8,292.2L1553.8,292.2z"/>
		<path class="st8" d="M1634.6,172.4c4.6,5.1,6.5,11.4,9.4,16.8c16.2,31,13.6,49.5,15,52c1.1,1.9,10.7,4.3,11.3,5.3
			c0.5,0.8-1.6,7.7,3.8,16.3c-19.4,4.4-15.9,5-16.9,5.3c-2.1,0.5-8.2-0.5-10.3,0c-8.7,2-43.2,13.6-52.6,15.8
			c-13.3,3-27.2,5.4-40.4,8.4c9.4-6.8-1.6-2.8,0-7.9l45.1-17.9c-17.6-18.1,17.5-22.2,20.7-26.3c1.9-2.5,8.2-36.3,1.9-42
			c-3.5-3.2-10.7-3.5-11.3-3.7c-5.2-1.8-3.2-3.7-7.5-3.1c0.1-0.2-4.1-2.2-1.9-4.7c2.6-3,7.6,2.1,16.9-5.3
			c-23.8-14.4-2.7-15.5-1.9-20.5c11.8-4.4,7.8,6.4,9.4,7.9C1625.5,169,1633.9,171.6,1634.6,172.4L1634.6,172.4z"/>
		<path class="st6" d="M1583.8,213.4c1.2,3.2,6.9,7.7,7.5,9.5c0.7,2.1,2.2,3,1.9,3.7c-0.6,1.4-28.8,20.8-34.8,21.6
			c-4.7-1.8-9.4-3.5-14.1-5.3c7.7-9,11.1-8.4,11.3-8.9c1.2-4.1-20.2-3.1,5.6-15.2c0.7-0.3,9.7-1.2,12.2-2.1c2-0.8-2.7-2-0.9-2.6
			C1580.7,210.8,1583.1,213.6,1583.8,213.4L1583.8,213.4z"/>
		<path class="st7" d="M1595.1,207.1c10.2,6.8,6.6,10.5-3.8,15.8c-0.6-1.7-6.4-6.3-7.5-9.5C1589.4,211.8,1589.8,209.4,1595.1,207.1
			L1595.1,207.1z"/>
		<path class="st6" d="M1610.2,194.4c4.6,7.9-6.3,7.8-7.5,8.4c-6.7-8.6-0.6-9.6,0-11.6C1607,190.8,1605,192.7,1610.2,194.4z"/>
	</g>
	<path class="st5" d="M1022.1,338.4c-9.4,3.2-18.8,6.3-28.2,9.5C1012.1,340.6,1009.5,342.2,1022.1,338.4z"/>
	<path class="st0" d="M1739.8,176.6c-13.5,7.8-9.8,23.1-20.7,33.1c10.3,4.3-3.5,9.7-3.8,11.6c-0.2,1.3,5.3,3.7,3.8,10.5
		c-2.6,11.7-43.3,17.3-3.8,23.6c-21.6,4.9-39.3,6.9-41.3,7.4c-5.4-8.6-3.2-15.5-3.8-16.3c-0.6-1-10.2-3.4-11.3-5.3
		c-1.4-2.5,1.2-21-15-52c24.6-1.2,70.9-9.4,93.9-14.7C1740.7,174.4,1739.4,175.8,1739.8,176.6L1739.8,176.6z"/>
	<path class="st0" d="M1792.4,160.8c-7.1,9.8-0.7,6.7,0,12.6c0.5,4.5-10.9,3.7,5.6,11c-3.9,5.2-8.1,11.2-18.8,13.1
		c-6.1,1.1-15.2-2-18.8,2.1c-8.6-16.6-3.8,2.2-20.7-5.3c1.8-8.6,8-2.7,0-17.9c-0.4-0.8,1-2.2-1.9-2.1
		C1741.2,173.7,1766.9,163.4,1792.4,160.8L1792.4,160.8z"/>
	<g>
		<g>
			<path class="st9" d="M1739.8,176.6c8,15.2,1.8,9.3,0,17.9c-1.7,8.4-0.2,5,1.9,8.4c-9.3,19-0.1,18.4,0,19.4
				c0.8,10.5-8.6,7.8-7.5,13.7c1.3,7.3,19.1,4.1-9.4,17.3c-3.1,0.7-6.3,1.4-9.4,2.1c-39.5-6.3,1.1-11.9,3.8-23.6
				c1.5-6.8-4-9.2-3.8-10.5c0.3-1.8,14-7.2,3.8-11.6C1729.9,199.6,1726.2,184.3,1739.8,176.6L1739.8,176.6z"/>
			<path class="st10" d="M1760.4,199.7c0.8,1.6-0.9,5.1,0,6.3c-3.4,1.8-6.9,3.5-10.3,5.3c-3.5-5.5-4.5-2.1-8.4-8.4
				c-2.1-3.4-3.6,0-1.9-8.4C1756.7,201.9,1751.9,183.1,1760.4,199.7L1760.4,199.7z"/>
		</g>
		<g>
			<path class="st8" d="M1852.5,127.2c1.3,1.4-2,2.5-1.9,2.6c3,3.4,20.3,10,3.8,14.7c0.9,0.9,5.8,0.6,7.5,0.5
				c1,20.4,15.2,19.8,16.9,23.6c1.7,3.6-5.7,14.9,26.3,42.6c-17.2,4.7-34.3,9.3-52.6,12.6c-31,5.9-70.4,18-97.7,24.2
				c-14.4,3.3-28.6,4.9-30.1,5.3c28.4-13.2,10.7-10,9.4-17.3c-1.1-5.9,8.3-3.2,7.5-13.7c-0.1-1-9.3-0.4,0-19.4
				c3.9,6.3,4.9,2.9,8.4,8.4c3.4-1.8,6.9-3.5,10.3-5.3c1.6,2.2,13.4,14.3,19.7,11.6c20.7-8.4-23.2,10.6,0,17.9
				c7.2-6.6,35-13.1,39.4-15.8c9.7-5.8,6-8.5,6.6-8.9c5.9-3.9,24.7-9.3,22.6-15.8c-1.3-3.8-19.7-1.4,7.5-15.8
				c-24.8-12.5-8.8-9-9.4-16.8c-0.2-2.5-5.2-17.7-11.3-17.3c0.2-0.6-3.9,0.7,0-12.6c1.1-3.9,2.5-7.9,5.6-11.6
				C1841.7,121.2,1849.6,124.1,1852.5,127.2L1852.5,127.2z"/>
			<path class="st6" d="M1835.6,132.4c-3.9,13.3,0.2,12,0,12.6c-3.5,9.2-13.4,18.2-16.9,25.2c-8.8,1.1-17.5,2.1-26.3,3.1
				c-0.7-5.9-7.1-2.8,0-12.6c0.9-1.2,9.4-6.8,13.2-12.1c0.7-1-2.8-5.1,7.5-13.1c3.1-2.4,7.3-2.9,7.5-3.1L1835.6,132.4L1835.6,132.4z
				"/>
			<path class="st11" d="M1841.2,120.9c-3.1,3.7-4.5,7.7-5.6,11.6h-15c1.1-1,2-11.9,12.2-23.1
				C1835.7,108.9,1835.8,115.8,1841.2,120.9L1841.2,120.9z"/>
			<path class="st7" d="M1760.4,206c-0.9-1.3,0.8-4.7,0-6.3c3.6-4.1,12.6-1,18.8-2.1c-6.6,6.5,5.6,11.6,14.1,14.7
				c19.7-8.6,11-15.2,12.2-17.3c0.7-1.1,7.8-1.9,9.4-5.3c0.9-1.9-3.2-3.7-1.9-6.3c0.4-0.7,5.2-2.4,5.6-3.1c0.2-0.5-3.7-2.5,0-10
				c3.5-7.1,13.4-16,16.9-25.2c6.1-0.4,11.1,14.9,11.3,17.3c0.6,7.8-15.4,4.4,9.4,16.8c-27.2,14.4-8.8,12-7.5,15.8
				c2.2,6.5-16.6,11.8-22.6,15.8c-0.6,0.4,3.1,3.1-6.6,8.9c-4.5,2.7-32.2,9.1-39.4,15.8c-23.2-7.3,20.7-26.3,0-17.9
				C1773.9,220.3,1762,208.3,1760.4,206L1760.4,206z"/>
			<path class="st6" d="M1818.7,170.3c-3.7,7.5,0.2,9.5,0,10c-0.4,0.7-5.3,2.4-5.6,3.1c-1.3,2.6,2.8,4.4,1.9,6.3
				c-1.6,3.4-8.8,4.1-9.4,5.3c-1.2,2.1,7.5,8.7-12.2,17.3c-8.5-3.1-20.7-8.2-14.1-14.7c10.7-1.9,14.8-8,18.8-13.1
				c-16.6-7.4-5.1-6.6-5.6-11C1801.2,172.4,1809.9,171.3,1818.7,170.3L1818.7,170.3z"/>
		</g>
	</g>
	<path class="st12" d="M1711.6,87.2c-1.5,0.3-1.7,2.6-13.2,5.3C1694.9,86.2,1705.7,77.1,1711.6,87.2z"/>
	<path class="st12" d="M1752.9,78.8c-4.6,1.9-10,2.8-15,4.2C1748.2,68.6,1750,77.2,1752.9,78.8z"/>
	<g>
		<path class="st0" d="M244.3,340.5c30.6,4.2,60.6,10.5,91.1,14.7c70.6,9.8,144.4,14,211.4,31.5c-182.2-0.1-364.5,0.1-546.7,0
			c-0.2-26.6,0.2-53.2,0-79.9C80.3,321,162.8,329.3,244.3,340.5L244.3,340.5z"/>
		<path class="st13" d="M597.5,362.6c37.1,9.9,79.7,11.9,114.6,24.2c-28.2,0-56.4,0-84.5,0c0.3-1.2-9.7-4.1-10.3-4.2
			c-82.8-13.1-167.2-23.5-249.9-36.8c-16.2,0.1-115.9-13.7-122.1-9.5c-2.2,1.5,6.3,1.8-0.9,4.2C162.8,329.4,80.3,321,0,306.9
			c-0.1-16.8,0.1-33.6,0-50.5c99.3,14.9,196.2,44.7,294,48.4c34,8.8,60.7,6.9,63.9,7.4c1.9,0.3,0,2.9,1.9,3.1
			c19.4,2.9,14.2-0.2,15,0c0.9,0.2,8.6,5.9,15,7.4c37.5,8.4,79.6,12.4,117.4,19.4c-32,5.7-10.2,1.8,4.7,3.7
			C520.1,346.8,570.6,361.7,597.5,362.6L597.5,362.6z"/>
		<path class="st14" d="M633.2,306.9c20,3.2,140.7,23.1,148.4,23.1c-0.2,0.8-1.3,1.2-1.9,2.1c-1.7,2.4-8.9,14.1-12.2,14.7
			c-3.1,0.5-60.8-7.7-63.9-8.4c-1.6-0.4,0.1-3.3-3.8-4.2c-27.9-6.7-55.1-15.4-58.2-15.8c-3.3-0.4-74.7,0.2-49.8-7.9
			c-36.5-3.6-74.6-10.7-111.8-15.2c-3.8-0.5-2.6,2.2-3.8,2.1c-4.7-0.5-36.1-4.5-37.6-5.3c-6-3.1,11.2-1.1-12.2-5.3
			c-54.1-9.5-106.3-22.3-160.6-31.5C178.6,240.6,88.2,230.6,0,217.6c0-4.9,0-9.8,0-14.7c111.9,15,221.3,35.3,331.6,53.6
			c29,4.8,59.4,7.9,88.3,12.6C491.3,280.8,561.6,295.3,633.2,306.9L633.2,306.9z"/>
		<path class="st14" d="M426.5,286.9c23.4,4.1,6.2,2.2,12.2,5.3c1.4,0.7,32.9,4.7,37.6,5.3c1.2,0.1,0-2.6,3.8-2.1
			c37.2,4.5,75.3,11.7,111.8,15.2c-24.9,8,46.5,7.5,49.8,7.9c3.2,0.4,30.4,9.1,58.2,15.8c3.8,0.9,2.2,3.8,3.8,4.2
			c3,0.7,60.7,8.9,63.9,8.4c3.3-0.6,10.5-12.3,12.2-14.7c1.1,4.2,3.2,10.6-1.9,14.2c-1.4,1-12.8,0.5-3.8,1.6
			c-0.7-0.1-4.1,2.2-14.1,1c-93.6-10.6-186.3-24.9-280.9-32.6c9.2-2.1,14.3-1.8,11.3-8.4c41.6,6.3,27.2,2.2-2.8-3.1
			c-52.5-9.4-107.1-16-159.7-25.2C233.4,263,157,244,56.4,235.5c-14.1-1.8-15.1-4.1-16-4.2c-0.4-0.1-1.8,1.8-8.5,1.1
			c-8.4-1-7.1,0-7.5,0c-2.6-0.2-1.8-1-1.9-1.1c-0.4,0,2.1-0.4-7.5-1.1c-5.7-1.1-11.8-3.7-15-2.1c0-2.8,0-5.6,0-8.4
			c125,16.2,249.9,34,371.1,57.8C389.9,281.2,427.4,292.1,426.5,286.9L426.5,286.9z"/>
		<path class="st2" d="M839.8,340.5c70.5,13.5,73.5,11.1,127.8,17.9c30.1,3.8,60.2,6.1,90.2,10.5c3.5,0.5,7.4,1.5,11.3,2.1
			c9.1,1.4,20.1,5.2,27.2,6.3c15.1,2.4,43.1,3.5,44.2,6.3c-2.3,0.8-4.9,1.5-5.6,3.1c-15.7,0-31.3,0-47,0
			c-31.9-4.5-64.6-10-96.8-13.7c-15.2-1.7-31.7-1.4-47-3.1c-48.8-5.5-97.7-11.2-146.5-16.8c-1.6-0.2,0.2-1.8-2.8-2.1
			c-6.8-0.8-13.7-2.4-20.7-3.1c-9.1-1.1,2.3-0.6,3.8-1.6c5.1-3.6,2.9-9.9,1.9-14.2c0.6-0.9,1.7-1.3,1.9-2.1c0.6,0,1.3,0,1.9,0
			C802.6,333,821.1,337,839.8,340.5L839.8,340.5z"/>
		<path class="st13" d="M627.5,386.8c-26.9,0-53.9,0-80.8,0c-66.9-17.5-140.8-21.7-211.4-31.5c-30.5-4.2-60.5-10.5-91.1-14.7
			c7.2-2.5-1.2-2.7,0.9-4.2c6.2-4.3,105.9,9.6,122.1,9.5c82.7,13.3,167,23.7,249.9,36.8C617.9,382.7,627.8,385.6,627.5,386.8
			L627.5,386.8z"/>
		<path class="st15" d="M655.7,366.8c8.5,3.6,22.3,3.7,31.9,5.3c10.9,1.7,20.8,3.7,31.9,5.3c14.9,2.9,29.2,6.5,45.1,7.4
			c2.6,1.4,3.9-1.2,3.8,2.1c-18.8,0-37.6,0-56.4,0c-35-12.2-77.5-14.3-114.6-24.2c5.1,0.2,12-3.2,16-3.1
			C615.7,359.5,648.3,365.8,655.7,366.8L655.7,366.8z"/>
		<path class="st16" d="M426.5,286.9c0.9,5.1-36.6-5.8-55.4-9.5c-121.2-23.8-246-41.6-371.1-57.8c0-0.7,0-1.4,0-2.1
			c88.2,13.1,178.6,23,265.9,37.8C320.2,264.6,372.4,277.4,426.5,286.9L426.5,286.9z"/>
		<g>
			<path class="st15" d="M15.1,230.2c0.4,0.1-1,1.6,7.5,1.1c0.1,0-0.7,0.9,1.9,1.1c2.4,0.2,5.2-0.2,7.5,0c7.6,0.8,13.6,2.2,24.4,3.1
				c17.7,2.2,36.2,3.7,53.5,6.3c111.5,16.7,246.6,46,380.5,66.2c3,6.7-2.1,6.3-11.3,8.4c-12.8-1-52.9-3.5-16,1
				c43.3,5.3,88.1,8.4,131.5,13.7c38.7,4.7,164.8,23.9,193.5,23.1c0.4,0,8.3-1.4,6.6-3.1c3.1,0.4,1.2,1.9,2.8,2.1
				c48.8,5.6,97.7,11.3,146.5,16.8c15.3,1.7,31.7,1.4,47,3.1c32.2,3.7,64.8,9.1,96.8,13.7c-106.5,0-212.9,0-319.4,0
				c0.1-3.3-1.2-0.7-3.8-2.1c-7.8-4.3-12-4.5-23.5-4.2c-3-3.1-19.6-2.9-21.6-3.1c-14.2-2.7-22.2-6.1-23.5-6.3c-0.4-0.1-2.8,2-8.5,1
				c-2.8-0.5-11.5-4.1-12.2-4.2c-1-0.1-5,0.9-19.7-1c-7.4-1-40.1-7.4-42.3-7.4c-3.9,0-10.9,3.3-16,3.1c-26.9-1-77.4-15.8-85.5-16.8
				c-14.9-1.8-36.7,2-4.7-3.7c-37.8-7-79.9-11-117.4-19.4c-6.4-1.5-14.1-7.1-15-7.4c-0.8-0.2,4.3,2.9-15,0c-1.9-0.3,0-2.9-1.9-3.1
				c-3.2-0.4-29.9,1.4-63.9-7.4c-97.9-3.6-194.7-33.4-294-48.4c0-2.8,0-5.6,0-8.4c39.5,6.1,78.9,12.3,118.4,18.4
				c-38.6-10-77-13.4-118.4-20.5c0-5.6,0-11.2,0-16.8C4.7,231,10,229.8,15.1,230.2L15.1,230.2z"/>
			<g>
				<path class="st17" d="M0,248c0-0.7,0-1.4,0-2.1c41.4,7.1,79.7,10.4,118.4,20.5C78.9,260.3,39.5,254.2,0,248z"/>
				<path class="st13" d="M15.1,230.2c-5-0.3-10.3,0.8-15-1.1c0-0.4,0-0.7,0-1.1C3.2,226.5,9.4,229.1,15.1,230.2z"/>
				<path class="st17" d="M479.1,316.4c94.5,7.7,187.3,21.9,280.9,32.6c10,1.1,13.4-1.1,14.1-1c6.9,0.8,13.9,2.4,20.7,3.1
					c1.7,1.7-6.1,3.1-6.6,3.1c-28.7,0.8-154.8-18.4-193.5-23.1c-43.4-5.3-88.2-8.4-131.5-13.7C426.2,312.9,466.3,315.3,479.1,316.4
					L479.1,316.4z"/>
				<path class="st18" d="M490.4,308c-133.8-20.2-268.9-49.5-380.5-66.2c-17.4-2.6-35.9-4.1-53.5-6.3c100.6,8.6,177,27.5,271.5,44.1
					c52.6,9.2,107.2,15.9,159.7,25.2C517.6,310.2,532,314.2,490.4,308L490.4,308z"/>
				<path class="st17" d="M123.1,265.9c38.5,7.2,77,14.4,115.5,21.5c-1.4,2.9-62.3-8.4-70.4-10C148.9,273.8,113.5,267.1,123.1,265.9
					L123.1,265.9z"/>
				<path class="st13" d="M764.7,384.7c-15.9-0.8-30.2-4.5-45.1-7.4c2,0.3,18.6,0.1,21.6,3.1C752.6,380.1,756.9,380.4,764.7,384.7
					L764.7,384.7z"/>
				<path class="st13" d="M687.7,372.1c-9.7-1.5-23.4-1.7-31.9-5.3c14.7,2,18.8,0.9,19.7,1C676.1,368,684.8,371.6,687.7,372.1
					L687.7,372.1z"/>
				<path class="st13" d="M719.6,377.3c-11.1-1.5-21.1-3.5-31.9-5.3c5.7,1,8-1.1,8.5-1C697.4,371.2,705.4,374.6,719.6,377.3
					L719.6,377.3z"/>
				<path class="st18" d="M56.4,235.4c-10.8-0.9-16.8-2.3-24.4-3.1c6.6,0.8,8-1.1,8.4-1.1C41.3,231.3,42.3,233.6,56.4,235.4z"/>
				<path class="st18" d="M32,232.3c-2.3-0.2-5.1,0.2-7.5,0C24.8,232.3,23.6,231.3,32,232.3z"/>
				<path class="st13" d="M22.6,231.2c-8.5,0.5-7.1-1-7.5-1.1C24.7,230.8,22.2,231.2,22.6,231.2z"/>
			</g>
		</g>
	</g>
	<g>
		<path class="st16" d="M1923.9,251.2c-0.2,45.2,0.1,90.4,0,135.6c-249.9,0.1-499.8-0.1-749.6,0c62.4-15.6,127.3-28.2,193.5-37.8
			c31.7-0.6,60.5-5.3,90.2-10.5c6.4-1.1,12.4-3,18.8-4.2c13.1,12.6,5.1,21.1,36.6,18.9c1.5-0.1,8.9-3.1,28.2-5.3
			c9.8-1.1,2.9,2.8,7.5,2.1c1.7-0.2-4.4-3.7,30.1-6.3c28.2-7.7,56.4-15.4,84.5-23.1c16.5,2.2,18.8-4.8,33.8-9.5
			c22.2-6.8,66-13.4,71.4-14.7c19.2-4.8,51-14.2,70.4-20c3.1-0.9,6.3-1.7,9.4-2.6c-21.2-2,1.3-0.9,14.1-3.7
			C1877.8,266.9,1903.2,253.9,1923.9,251.2L1923.9,251.2z"/>
		<path class="st8" d="M1535,295.3c0.8-0.2,2.9,0.2,3.8,0c5,15.2,15.7,8.6,22.6,14.2l-62,16.3c-13.9,2.9-27,7-41.3,9.5
			c-30,5.2-61.3,6.4-90.2,13.7c-66.2,9.6-131.1,22.2-193.5,37.8c-9.4,0-18.8,0-28.2,0l-1.9-4.2c58.9-18,131.4-31.6,158.8-39.9
			c4.6-1.4-0.8-2.7,3.8-4.2c3.3-1.1,28.7-1.4,27.2-11c-0.5-3.3-17.6-5.1,11.3-14.7c-17.8-4.2,11.2-9.9,16.9-14.7
			c3-2.5,3.3-8.1,3.8-8.4c4.2-3.3,21.5-8.1,24.4-11c0.8,5.4,20.4-1.6,3.8-7.4c0.4-0.6,0.7-7,6.6-12.6c13.2,13.4,11.1,22.7,36.6,31
			c-16.8,12-4.8,9.2-7.5,13.7c-3.8,6.1-28.5-0.1-1.9,7.4c-20,3.3,7,3.4-12.2,12.1C1457,315.7,1495.3,304.5,1535,295.3L1535,295.3z"
			/>
		<path class="st19" d="M1923.9,228.1c-77.3,21.5-158.8,37.6-238.6,55.7c-61.9,14-123.4,29-186,42l62-16.3
			c-6.8-5.6-17.5,1-22.6-14.2c4.8-1.1,10.1-2,15-3.1c13.2-3.1,27.1-5.4,40.4-8.4c9.4-2.1,43.9-13.8,52.6-15.8
			c2.1-0.5,8.2,0.5,10.3,0c-1.8,5.2,6.7,1.9,14.1,4.2c4,1.2,5.3,4.8,7.5,5.3c1.3,0.3,26.8,0.1,28.2,0c7.4-0.5,87.7-20,104.3-25.2
			c35.9-10.8,76.1-15.7,112.7-26.3C1923.9,226.7,1923.9,227.4,1923.9,228.1L1923.9,228.1z"/>
		<path class="st19" d="M1923.9,238.6c0,4.2,0,8.4,0,12.6c-20.7,2.7-46.1,15.6-61.1,18.9c-12.8,2.8-35.3,1.6-14.1,3.7
			c-3.1,0.9-6.3,1.7-9.4,2.6c-19.1-1.8-42.5,7.5-59.2,10.5c-21.1,3.8-119.9,20.7-121.2,9.5c8.7-1.8,17.2-3.9,26.3-5.3
			C1767.4,277.4,1844.4,254.7,1923.9,238.6L1923.9,238.6z"/>
		<path class="st20" d="M1923.9,216.5c0,3.1,0,6.3,0,9.5c-36.6,10.6-76.8,15.5-112.7,26.3c-20.4-5.2-46.2,2.1-56.4-4.2
			c27.3-6.2,66.7-18.3,97.7-24.2C1866.5,231.6,1902.4,220.1,1923.9,216.5L1923.9,216.5z"/>
		<path class="st21" d="M1923.9,238.6c-79.5,16.1-156.5,38.8-238.6,52.6v-7.4c79.8-18.1,161.3-34.2,238.6-55.7
			C1923.9,231.6,1923.9,235.1,1923.9,238.6L1923.9,238.6z"/>
		<path class="st20" d="M1923.9,207.1c0,3.1,0,6.3,0,9.5c-21.5,3.6-57.4,15.1-71.4,7.4c18.3-3.3,35.4-7.9,52.6-12.6
			C1911,209.7,1917.2,207.2,1923.9,207.1L1923.9,207.1z"/>
		<path class="st18" d="M1146.1,386.8c-3.8,0-7.5,0-11.3,0c0.8-1.6,3.4-2.3,5.6-3.1c1.1-0.4,2.6-0.7,3.8-1L1146.1,386.8
			L1146.1,386.8z"/>
		<path class="st22" d="M1839.4,276.4c-19.5,5.8-51.3,15.2-70.4,20c-5.4,1.3-49.2,7.9-71.4,14.7c-15.1,4.6-17.3,11.6-33.8,9.5
			c-28.2,7.7-56.4,15.4-84.5,23.1c-34.5,2.6-28.4,6.1-30.1,6.3c-4.6,0.7,2.3-3.2-7.5-2.1c-19.3,2.2-26.7,5.1-28.2,5.3
			c-31.5,2.2-23.5-6.4-36.6-18.9c61.3-11.5,121.7-25.1,182.2-37.8c1.3,11.2,100.1-5.6,121.2-9.5
			C1796.8,283.9,1820.3,274.7,1839.4,276.4L1839.4,276.4z"/>
		<path class="st22" d="M1685.3,283.8v7.4c-9.1,1.3-17.6,3.4-26.3,5.3c-60.6,12.7-120.9,26.4-182.2,37.8c-6.4,1.2-12.4,3.1-18.8,4.2
			v-3.1c14.3-2.5,27.4-6.6,41.3-9.5C1561.8,312.8,1623.4,297.8,1685.3,283.8L1685.3,283.8z"/>
		<path class="st0" d="M1458,338.4c-29.7,5.2-58.4,10-90.2,10.5c28.9-7.2,60.2-8.5,90.2-13.7V338.4z"/>
		<path class="st21" d="M1754.8,248c10.1,6.4,36-1,56.4,4.2c-16.6,5.2-96.8,24.7-104.3,25.2c-1.4,0.1-26.9,0.3-28.2,0
			c-2.3-0.5-3.5-4-7.5-5.3c-7.4-2.3-15.9,1-14.1-4.2c1-0.2-2.5-0.8,16.9-5.3c2-0.5,19.7-2.5,41.3-7.4c3.1-0.7,6.3-1.4,9.4-2.1
			C1726.2,252.9,1740.4,251.3,1754.8,248L1754.8,248z"/>
	</g>
	<path class="st17" d="M1923.9,16.8c-5.6-0.4-5,2.1,0,3.1c0,5.6,0,11.2,0,16.8c-2.5,0.4-5,0.7-7.5,1c1.7-10.9-2.3-14.2,1.9-26.3
		c0.2-0.6,2.5,3.1,5.6-11.6C1923.9,5.6,1923.9,11.2,1923.9,16.8z"/>
	<path class="st12" d="M1923.9,16.8c0,1,0,2.1,0,3.1C1918.9,18.9,1918.3,16.5,1923.9,16.8z"/>
</g>
</svg>
