<?xml version="1.0" encoding="UTF-8"?>
<svg id="Layer_2" data-name="Layer 2" xmlns="http://www.w3.org/2000/svg" viewBox="0 0 208.63 208.44">
  <defs>
    <style>
      .cls-1 {
        fill: #d4d4ca;
      }

      .cls-1, .cls-2, .cls-3, .cls-4, .cls-5, .cls-6 {
        stroke-width: 0px;
      }

      .cls-2 {
        fill: #aab4b2;
      }

      .cls-3 {
        fill: #fdfefe;
      }

      .cls-4 {
        fill: #e3e6e5;
      }

      .cls-5 {
        fill: #92a1a2;
      }

      .cls-6 {
        fill: #bbc6c6;
      }
    </style>
  </defs>
  <g id="lune">
    <g>
      <path class="cls-2" d="M8.18,176c13.06-2.01,9.47,19.47-2.18,13.6-6.15-3.1-4.11-12.64,2.18-13.6Z"/>
      <path class="cls-2" d="M204.3,163.76c.26,1.47.13,8.37.41,8.84.2.33,5.79,1.12,3.26,5.44-2.42,4.15-9.52.45-7.07-3.54,1.82-2.96,3.77,2.58,3.4-10.74Z"/>
      <path class="cls-1" d="M175.2,0c-.22,10.59,1.3,4.24,4.22,9.11-.09,9.38-11.52,3.12-6.66-1.5,1.89-1.8,2.47,1.5,2.45-7.62Z"/>
      <path class="cls-2" d="M202.67,15.23c5.62-1.01,6.56,6.42,2.18,7.34-5.61,1.18-6.62-6.55-2.18-7.34Z"/>
      <g>
        <path class="cls-3" d="M100.26,11.7c-4.84,1.86-14.83,10-18.5,14.01-25.67,27.99-21.41,67.96,2.18,95.75,1.77,2.09,2.6,2.18,2.72,2.31.07.07-.08.6,0,.68,26.6,27.93,71.81,30.49,98.47,1.09,1.3-1.44,5.59-6.6,6.26-8.02-1.84,7-7.81,17.51-12.24,23.39-4.75,6.31-11.85,12.86-18.5,17.14-1.63-2.56,1.36-3.08-1.22-4.62-54.15,22.96-112.22-22.52-108.13-79.84.34-6.27,2.57-12.3,2.31-18.36-9.02,3.15-8.55,23.27-11.02,31.69l-.82.14c.07-22.89,10.15-44.71,26.39-60.66.7-.21,5.81-5.16,11.97-8.43,5.7-3.03,13.77-5.95,20.13-6.26Z"/>
        <path class="cls-3" d="M160.64,158.04c-4.2,2.7-10.26,5.8-14.96,7.34-26.54,8.7-58.22-.05-78.48-18.77-16.48-15.23-25.5-37.2-25.43-59.57l.82-.14c2.47-8.42,1.99-28.54,11.02-31.69.25,6.06-1.97,12.09-2.31,18.36-4.1,57.31,53.98,102.8,108.13,79.84,2.58,1.55-.4,2.07,1.22,4.62Z"/>
        <path class="cls-1" d="M152.21,25.84c1.9,3.99,3.52,8.57,4.35,12.92,8.39,43.6-29.27,79.25-69.91,85.01-.12-.13-.95-.22-2.72-2.31-23.59-27.79-27.84-67.76-2.18-95.75,3.67-4,13.66-12.15,18.5-14.01,8.81-3.38,18.54-2.26,27.61-1.36,1.03.1.85-.85,3.81-.27,4,.77,6.8,3.63,10.61,4.62.16.04.03-.7.54-.54.27.08,0,.72.27.82.14.05.05-.71.54-.54.94.32.59.97.82,1.09.06.03,1.04-.25,1.36,0,.94.74,5.63,8.73,6.39,10.34Z"/>
        <path class="cls-3" d="M191.38,117.51c-.67,1.43-4.95,6.59-6.26,8.02-26.66,29.4-71.87,26.84-98.47-1.09-.08-.08.07-.61,0-.68,40.64-5.76,78.3-41.41,69.91-85.01-.84-4.35-2.45-8.93-4.35-12.92,6.94,3.6,14.93,6.25,19.99,12.24,3.04,1.02,9.15,10.03,11.02,13.19.08.13-.07,1.66.82,2.99.56.85,1.25.54,1.63,1.09.69,1-.3,1.02-.27,1.09.05.12,1.98,1.68.82,1.63,5.87,10.94,9.28,25.14,8.98,37.54-.12,5.02-1.74,17.47-3.81,21.9Z"/>
        <g>
          <path class="cls-2" d="M148.4,198.03c-11.63,5.74-21.94,7.53-22.99,8.16-.3.18.24.25.14.82-9,.27-16.78,1.77-27.61,1.36-5.03-.19-10.04-1.21-15.1-1.36.08-.31-.14-.7-.41-.82-.59-.25-9.17-2.48-12.24-3.54-.27-.09-.78-.88-2.18-.82-1.4-.66-5.74-2.71-7.21-2.99-10.78-5.43-20.69-12.03-29.38-20.4l3.94-1.63c1.27-3.42-5.8-5.8-6.12-9.66,7.4-8.24,13.34-2.74,16.05-8.57,11.82,12.82,28.67,21.96,45.43,26.39,17.31,4.57,34.97,4.77,52.36.54,21.84-5.31,45.29-19.68,55.63-40.26-9.01,22.82-28.48,41.99-50.32,52.77Z"/>
          <path class="cls-1" d="M198.73,145.26c-10.34,20.58-33.79,34.95-55.63,40.26-17.4,4.23-35.05,4.03-52.36-.54l.54-1.36c11.4,3.1,15.92,3.91,27.34-.27,9.74-3.57,19.71-10.76,27.07-17.95,4.7-1.54,10.76-4.65,14.96-7.34,6.65-4.28,13.75-10.82,18.5-17.14.79.66,8.56-5.94,8.98-6.39,4.97-5.34,11.89-21.1,14.15-28.29.38-1.21,2.89-11.42,2.99-12.24.14-1.12-.64-2.84.27-3.4,2.55,16.61.83,39.49-6.8,54.68Z"/>
          <path class="cls-3" d="M92.1,5.71c-.56,2.26-3.81-.86-5.58,5.98-2.97.96-5.75,2.21-8.57,3.54-6.21,2.93-7.12,3.4-12.78,7.34-7.72,5.37-14.34,11.31-20.13,18.77.05-.76.07-.87-.68-.82-8.3,10.19-15.07,22.44-18.09,35.36-1.91-1.46-2.3,0-3.4,0-3.6.02-3.35-.54-3.54-.54-10.06-.38-9.93-2.01-12.1,10.47-2.2,12.62-1.84,25.7.82,38.22.3,1.41.73,2.7,1.09,4.08l-5.17,4.9c-4.86-16.9-5.59-40.15-.27-56.99.78-2.47,7.1-16.46,8.16-17.95,1.1-1.56,3.16-2.46,3.81-3.26.76-.93,4.43-7.78,7.62-11.97C38.83,22.36,66.76,8.3,92.1,5.71Z"/>
          <path class="cls-1" d="M205.53,90.58c-.91.56-.13,2.28-.27,3.4-.11.82-2.61,11.03-2.99,12.24-2.25,7.19-9.18,22.95-14.15,28.29-.42.45-8.18,7.05-8.98,6.39,4.43-5.88,10.4-16.39,12.24-23.39,2.07-4.43,3.69-16.88,3.81-21.9.3-12.4-3.1-26.6-8.98-37.54,1.17.05-.76-1.51-.82-1.63-.03-.07.96-.09.27-1.09-.38-.55-1.07-.24-1.63-1.09-.89-1.33-.74-2.86-.82-2.99-1.87-3.17-7.98-12.17-11.02-13.19-5.06-6-13.05-8.64-19.99-12.24-.76-1.6-5.45-9.6-6.39-10.34-.32-.25-1.3.03-1.36,0-.23-.12.12-.77-.82-1.09-.5-.17-.4.59-.54.54-.27-.09,0-.73-.27-.82-.52-.15-.39.58-.54.54-3.81-1-6.61-3.85-10.61-4.62-2.96-.57-2.78.37-3.81.27-9.07-.9-18.8-2.02-27.61,1.36-6.36.31-14.43,3.23-20.13,6.26-2.62-.56-1.78-.61-2.18-2.72,2.82-1.33,5.6-2.58,8.57-3.54,1.77-6.84,5.02-3.72,5.58-5.98,27.03-2.76,53.47,3.04,75.49,19.31,20.24,14.96,34.17,40.94,37.95,65.56Z"/>
          <path class="cls-2" d="M31.71,138.46c.38.8.69,1.68,1.09,2.45.07.13.35-.1,1.63,2.18,3.26,5.78,6.34,10.58,10.88,15.51-2.71,5.83-8.65.33-16.05,8.57.32,3.85,7.39,6.24,6.12,9.66l-3.94,1.63c-5.72-5.51-9.23-9.71-13.6-16.32,8.79-1.05,3-5.39.27-10.74-1.19-2.33-2.21-4.81-3.26-7.21,2.09-2.46,6.91-3.19,9.93-2.18,2.49-3.2,2.81.41,4.9-.54,1.77-.81.66-3.47,2.04-2.99Z"/>
          <path class="cls-1" d="M14.84,144.17c1.06,2.4,2.08,4.88,3.26,7.21,2.72,5.35,8.52,9.7-.27,10.74-5.98-9.04-10.88-18.68-13.87-29.11l5.17-4.9c1.63,6.2,3.14,10.22,5.71,16.05Z"/>
          <path class="cls-4" d="M58.64,167.84c7.43,5.56,15.67,9.49,24.07,13.33,2.68.24,5.74,1.68,8.57,2.45l-.54,1.36c-16.75-4.42-33.61-13.57-45.43-26.39-4.54-4.92-7.62-9.72-10.88-15.51,0-.34.37-.41.54-.14,7.08,11.04,6.58,9.83,15.51,18.77.1.1-.1.72,0,.82,2.16,2.18,5.12,5.05,8.16,5.3Z"/>
          <path class="cls-1" d="M26.27,75.89c-3.27,13.98-3.58,29.2-.82,43.25-10.3,2.16-7.65-3.88-13.19-2.18-1.65.51-.93,1.75-1.22,2.31-.3.57-1.25.77-1.36,1.09-.34.99.9,3.69-1.63,3.67-2.66-12.52-3.02-25.6-.82-38.22,2.18-12.48,2.04-10.85,12.1-10.47.18,0-.07.56,3.54.54,1.1,0,1.49-1.46,3.4,0Z"/>
          <path class="cls-6" d="M25.45,119.14c1.37,6.99,3.2,12.86,6.26,19.31-1.38-.48-.27,2.18-2.04,2.99-2.08.95-2.41-2.65-4.9.54-3.02-1.02-7.84-.28-9.93,2.18-2.58-5.83-4.09-9.85-5.71-16.05-.36-1.38-.79-2.67-1.09-4.08,2.54.02,1.29-2.69,1.63-3.67.11-.32,1.06-.52,1.36-1.09.3-.56-.43-1.8,1.22-2.31,5.55-1.7,2.89,4.34,13.19,2.18Z"/>
          <path class="cls-3" d="M45.04,41.35c-21.5,27.67-26.47,65.4-10.88,97.11-1.4-.81-.35,1.83-1.36,2.45-.4-.77-.71-1.65-1.09-2.45-3.05-6.45-4.88-12.33-6.26-19.31-2.76-14.05-2.46-29.27.82-43.25,3.02-12.92,9.79-25.17,18.09-35.36.75-.05.73.05.68.82Z"/>
          <g>
            <path class="cls-5" d="M65.17,22.58c-.42,1.71,1,4.4,2.99,3.81-16.24,15.95-26.32,37.77-26.39,60.66-.07,22.37,8.95,44.35,25.43,59.57,20.26,18.72,51.94,27.46,78.48,18.77-7.36,7.2-17.33,14.38-27.07,17.95-11.42,4.18-15.94,3.37-27.34.27-2.83-.77-5.89-2.21-8.57-2.45-8.4-3.84-16.65-7.77-24.07-13.33-10.13-7.58-18.9-18.03-24.48-29.38-15.59-31.71-10.62-69.44,10.88-97.11,5.79-7.46,12.41-13.4,20.13-18.77Z"/>
            <path class="cls-2" d="M77.95,15.23c.4,2.11-.45,2.16,2.18,2.72-6.16,3.27-11.27,8.22-11.97,8.43-2,.59-3.41-2.09-2.99-3.81,5.67-3.94,6.58-4.42,12.78-7.34Z"/>
          </g>
          <path class="cls-3" d="M34.16,138.46c5.58,11.35,14.35,21.79,24.48,29.38-3.04-.26-6-3.13-8.16-5.3-.1-.1.1-.72,0-.82-8.92-8.94-8.42-7.73-15.51-18.77-.18-.28-.55-.21-.54.14-1.28-2.27-1.57-2.05-1.63-2.18,1.01-.62-.04-3.26,1.36-2.45Z"/>
        </g>
      </g>
    </g>
  </g>
</svg>