<?xml version="1.0" encoding="UTF-8"?>
<svg id="Layer_2" data-name="Layer 2" xmlns="http://www.w3.org/2000/svg" xmlns:xlink="http://www.w3.org/1999/xlink" viewBox="0 0 1362.19 516.06">
  <defs>
    <style>
      .cls-1 {
        fill: #174568;
      }

      .cls-1, .cls-2, .cls-3, .cls-4, .cls-5, .cls-6, .cls-7, .cls-8, .cls-9, .cls-10, .cls-11, .cls-12 {
        stroke-width: 0px;
      }

      .cls-2 {
        fill: url(#linear-gradient);
      }

      .cls-3 {
        fill: #397792;
      }

      .cls-4 {
        fill: #9ec8d3;
      }

      .cls-5 {
        fill: #6c344b;
      }

      .cls-6 {
        fill: #3a3b63;
      }

      .cls-7 {
        fill: #80bbc8;
      }

      .cls-8 {
        fill: url(#linear-gradient-2);
      }

      .cls-9 {
        fill: url(#linear-gradient-3);
      }

      .cls-10 {
        fill: #5d9aad;
      }

      .cls-11 {
        fill: #256390;
      }

      .cls-12 {
        fill: #2088a6;
      }
    </style>
    <linearGradient id="linear-gradient" x1="491.36" y1="220.12" x2="460.3" y2="481.52" gradientUnits="userSpaceOnUse">
      <stop offset=".14" stop-color="#192848"/>
      <stop offset=".63" stop-color="#4c8099"/>
      <stop offset="1" stop-color="#aed7e0"/>
    </linearGradient>
    <linearGradient id="linear-gradient-2" x1="860.06" y1="219.28" x2="844.88" y2="296.51" gradientUnits="userSpaceOnUse">
      <stop offset="0" stop-color="#1e7498"/>
      <stop offset="1" stop-color="#89c7d3"/>
    </linearGradient>
    <linearGradient id="linear-gradient-3" x1="615.09" y1="85.66" x2="586.98" y2="338.96" gradientUnits="userSpaceOnUse">
      <stop offset="0" stop-color="#132848"/>
      <stop offset=".64" stop-color="#12769c"/>
      <stop offset="1" stop-color="#8cc9d5"/>
    </linearGradient>
  </defs>
  <g id="jour_milieu">
    <path class="cls-4" d="M1070.98,291.14c-6.92,5.3,5.25,9.53-4.7,10.51-8.63-3.24-12.97-5.18-17.85-10.51,8.17-1.96,14.39-.88,22.55,0Z"/>
    <g>
      <g>
        <path class="cls-5" d="M118.45,17.87c31.74,29.13-24.22,39.54-43.21,47.3C59.63,54.16,23.51,46.86.09,39.94.1,26.63.08,13.31.09,0c41.63,1.45,79.67,10.11,118.36,17.87Z"/>
        <path class="cls-6" d="M75.24,65.16C49.97,75.49,24.44,85.69.09,96.69c-.01-18.92-.01-37.84,0-56.76,23.43,6.92,59.54,14.23,75.15,25.22Z"/>
      </g>
      <path class="cls-1" d="M727.17,335.28c-11.03,5.22-18.89,4.26-31.94,6.31-66.19-20.57-132.47-43.14-200.09-62.01-39.45-11.01-91.83-20.22-95.82-22.07-1.15-.54,2.12-8.86-20.67-4.2q-.47-1.58-.94-3.15c12.98-3.95,2.42-3.37,3.76-5.78,2.03-3.68,10.4-18.85,16.91-10.51-14.77,7.84,6.91,3.47.94,17.34,15.8-1.32,7.52-9.62,22.55-13.66,12.29,12.72,7.74-5.32,20.67,10.51,4.49.06,5.63-16.74,15.03,2.1,1.76.34,8.98-14.65,11.27,10.51,24.91-3.12,10.48-1.95,12.21-3.68,1.6-1.61,11.1-6.16,14.09-9.98-1.34,4.63,1.93,16.25,4.7,19.44,3.06,3.54,8.28-2.98,8.45,6.83,8.69-7.76,5.74-1.03,9.39-1.05,1.41,0,5.84-8.82,16.91-12.61,6.7,9.4,15.58,13.66,24.42,21.02,16.84-23.8,14.47,35.54,32.88-2.63l4.7-.53c7.82,12.74,6.94,18.8,26.3,27.33,2.72-8.27,11.63-4.44,20.67-13.66,1.62,3.01,8.1,4.97,8.45,5.78.68,1.54-5.64,3.96,4.7,15.24,9.2-9.07,16.01-7.68,15.03,4.2,25.96-13.3,13.02-2.99,31.94,10.51,13.09-20.62,17.58,3.29,23.48,8.41Z"/>
      <path class="cls-11" d="M807.96,358.4c3.46,8.4-8.37,5.96-16.91,9.46-12.67-3.5-40.07-6.44-53.54-10.51-12.22-3.69-26.5-10.86-42.27-15.77,13.05-2.05,20.91-1.09,31.94-6.31,9.18,7.96,13.95-11.55,17.85-10.51,26.06,33.08,21.99,12.71,26.3,12.61,23.86,28.06,5.74-22.78,36.64,21.02Z"/>
      <g>
        <path class="cls-2" d="M144.75,179.73c1,11.69-13.23,6.29-8.45,9.46,22.59,3.7,33.66,21.51,38.51,5.26,1.67-5.6-2.14-5.52-1.88-5.78,2.02-2,7.77,3.89,12.21-5.78,8.91-1.37,7.66,34.06,25.36,3.68,16.43-.43,4.9,19.68,26.3,11.56,3.04,2.62,10.9,21.81,15.97,20.5,29.83-25.34,19.97,13.59,39.45-9.46,14.21-3.15,11.02,26.07,28.18-2.1,14.39,11.14,4.75,24.02,16.91,29.43,25.16-3.95,5.14-13.07,16.91-21.02,15.51,18.52,4.46,19.32,4.7,20.5.84,4.16,6.19,8.06,3.76,11.56q7.52,1.31,15.03,2.63.47,1.58.94,3.15c22.79-4.65,19.51,3.67,20.67,4.2,3.98,1.85,56.37,11.06,95.82,22.07,67.62,18.87,133.9,41.44,200.09,62.01,15.77,4.9,30.06,12.08,42.27,15.77,13.47,4.07,40.87,7.01,53.54,10.51,9.92,2.74,43.8,16.41,60.12,22.07,8.4,2.92,20.62,8.12,30.06,11.56,26.48,9.64,55.35,18.28,79.85,29.43,1.59.72,8.5-2.45,6.58,5.26-2.95.74-5.93,1.01-8.45,2.1-8.04-9.22-18.41,4.43-20.67,5.26-2.81,1.03-52.65,11.31-62,14.71-17.85-29.55-14.16,19.25-30.06-1.05-7.05.19,12.91,8.4-41.33,18.92-2.26.44,4.7,4.93-26.3,0-8.11,10.94-16.17,4.34-33.82,11.56-2.89-1.27,3-8.29-7.52-9.46-18.56,24.34-72.85,22.97-108.03,35.21.69,1.24,8.17-.7,3.76,2.63-71.58-11.56-141.9-26.08-213.24-37.84-28.9-4.76-59.31-7.81-88.3-12.61C221.36,447.34,112.02,427,.09,412-.14,317.76.16,223.52.09,129.28c15.42-1.25,8.8,24.51,22.55,2.63l3.76,1.05c11.52,42.68,21.79,15.19,36.64,34.16,11.12,2.72,4.74-9.5,20.67-21.02,9.6,20.83,16.39,19.37,15.97,20.5-.93,2.52-12.63-4.18,6.58,9.98,15.29,4.19,7.46-2.96,20.67-14.71,20.31,13.63,6.58,13.29,6.58,14.19,15.59,1.63,10.54,3.61,11.27,3.68Z"/>
        <path class="cls-10" d="M1054.07,408.85c-8.98,2.86-59.3,20.78-62.94,21.02-6.03.39-8.44-3.27-9.39-3.15-3.63.45-.48,6.04-14.09,9.46,1.92-7.7-4.98-4.53-6.58-5.26-24.5-11.15-53.37-19.79-79.85-29.43-1.18-2.3,19.98-3.06,25.36-3.15,22.23-.4,27.73,3.06,49.79-4.2,1.41-.46.81,2.01,5.64-.53,2.13-1.12,7.43-8.72,12.21-11.04,11.95,12.34,11.25,28.22,24.42,4.2q10.33,10.51,20.67,21.02c9.2-24.14,5.76-9.27,20.67,2.1,2.5-.13,7.47-10.73,14.09-1.05Z"/>
        <path class="cls-3" d="M890.62,379.42c-7.89,3.85-2.2,8.44-39.45,10.51-16.32-5.66-50.21-19.33-60.12-22.07,8.54-3.5,20.37-1.05,16.91-9.46,6.45.59,3.32-8.47,10.33-12.61,16.39,15.4,14.74,29.89,31.94,13.66,12.59,29.18,20.36.44,28.18,1.05q6.11,9.46,12.21,18.92Z"/>
        <path class="cls-12" d="M956.38,394.14c-22.05,7.26-27.56,3.8-49.79,4.2-5.38.1-26.54.85-25.36,3.15-9.44-3.44-21.66-8.65-30.06-11.56,37.26-2.08,31.56-6.66,39.45-10.51.74-.36,1.91,4.02,12.21-7.36,9.93,17.46,3.4-.58,15.03,0,13.59,5.69.89,18.92,18.79,4.2q9.86,8.93,19.73,17.87Z"/>
      </g>
      <path class="cls-1" d="M174.81,194.44c-4.85,16.25-15.93-1.56-38.51-5.26-4.78-3.17,9.45,2.23,8.45-9.46,12.46,1.15,11.73-2.61,14.09-2.1,2.26.49-3.03,1.82,0,3.15,1.67.73,3.98-1.79,5.64-1.05,2.99,1.32,1.15,13.35,10.33,14.71Z"/>
      <path class="cls-7" d="M1157.41,318.46c9.03,17.24-39.44.11-26.3-4.2,16.06,5.65,13.62-1.28,17.85-8.41-.08,4.99,6.57,9.01,8.45,12.61Z"/>
      <g>
        <path class="cls-8" d="M556.2,151.35c8.48,6.53,14.1,1.43,17.85,3.15,7.56,3.47,1.87,10.97,9.39,4.2,13.95,12.01,24.64,4,26.3,4.2,1.77.21,7.03,19.84,13.15,0,3.42,19.37,4.1,7.52,14.09,2.1,5.74,8.17,11.16,24.59,23.48,8.41,13.33,20.4,10.52,1.7,31.94,17.87,22.32-27.79,16.95,1.22,17.85,2.63.9,1.41,15.53,9,25.36,1.58,12.88,17.9,10.17-.8,31.94,15.77,24.18-8.3.02,1.84,31.94,8.41,24.03-20.91,3.29,9.36,22.55,6.31,11.95-10.5,10.85-4.04,12.21-4.2,8.85,22.64,14.74,5.69,21.61,7.36,9.83,17.1,19.04,7.12,20.67,7.36,4.49.65-4.36,5.94,20.67,12.61,20.62-26.64,8.73-2.09,24.42,7.36,25.19-18.54-2.36,8.65,26.3,6.31,11.86-17.45,6.52,18.29,28.18-3.15,7.46,1,11.09,37.2,26.3,6.31,11.64,7.06,5,29.78,20.67,9.46,14.66,23.65,18.17,9.11,22.55,9.46,4.29.34,2.09,5.51,2.82,6.31,4.87,5.33,9.22,7.27,17.85,10.51,9.94-.98-2.22-5.21,4.7-10.51.46.05,5.52-2.13,9.39.53,7.14,4.9-7.48,16.64,31,22.6,11.59-16.43,8.61-3.91,19.73,0-13.14,4.31,35.33,21.44,26.3,4.2,70.25-4.53,143.58-20.35,204.79,10.51-.38.13.66,2.44-4.7,4.2-37.44,12.3-116.64,30.54-160.63,40.99-43.33-12.54-90.61-19.47-134.33-31.53-79.49-21.92-150.45-54.2-227.33-78.83-79.79-25.55-166.36-45.8-246.12-71.47-29.65-9.54-65.05-24.74-93.94-34.68-46.43-15.99-102.44-25.64-136.21-50.98-1.29-4.02,4.31-2.12,5.64-2.63,22.25-8.56,10.58-.2,21.61,7.36,6.64-18.85,6.18,3.94,16.91,3.15,17.74-15.81,14.55,6.14,18.79,6.31,1.34.05,6.2-8.72,16.91,6.31,3.38-7.41,3.51,5.21,22.55-7.36,2.12.33,5.47,11.17,9.39,11.56,6.3.63-2.15-8.17,22.55,7.36,6.55-3.02,22.82,4.47,24.42-3.15,28.87,20.91,24.47,6.8,33.82,9.46,2.02.57,1.97,4.21,4.7,6.31Z"/>
        <g>
          <path class="cls-9" d="M201.11,36.79c29.3,9.26,55.09,22.41,81.73,33.63,16-24.45,10.51,25.86,30.06,2.1,4.59,21.42,11.13,6.2,24.42,19.97,5.25-13.74,13.75,3.52,15.03,3.15,1.35-.38,8.18-9.19,12.21,8.41-1.32.51-6.93-1.39-5.64,2.63,33.77,25.34,89.78,34.98,136.21,50.98,28.88,9.95,64.29,25.14,93.94,34.68,79.76,25.67,166.33,45.92,246.12,71.47,76.88,24.62,147.85,56.91,227.33,78.83,43.72,12.06,91.01,18.99,134.33,31.53-16.71,3.97-26.95,6.77-45.09,10.51-3-5.44-2.03-8.68-14.09-10.51-5.03,1.04,5.55,6.18-12.21,15.77-2.65.2-4.51,6.35-14.09-4.2-7.72,2.93-2.02,5.61-7.52,9.46-2.14,1.5-41.79,11.11-49.79,13.66-6.62-9.68-11.59.92-14.09,1.05-14.91-11.37-11.46-26.24-20.67-2.1q-10.33-10.51-20.67-21.02c-13.18,24.01-12.47,8.14-24.42-4.2-4.78,2.32-10.08,9.92-12.21,11.04-4.83,2.53-4.23.06-5.64.53q-9.86-8.93-19.73-17.87c-17.9,14.72-5.2,1.48-18.79-4.2-11.63-.58-5.1,17.46-15.03,0-10.31,11.37-11.47,7-12.21,7.36q-6.11-9.46-12.21-18.92c-7.82-.61-15.59,28.13-28.18-1.05-17.19,16.23-15.55,1.73-31.94-13.66-7.01,4.14-3.88,13.21-10.33,12.61-30.9-43.8-12.77,7.04-36.64-21.02-4.32.1-.24,20.47-26.3-12.61-3.89-1.04-8.67,18.47-17.85,10.51-5.9-5.11-10.4-29.03-23.48-8.41-18.92-13.5-5.98-23.81-31.94-10.51.98-11.88-5.83-13.27-15.03-4.2-10.34-11.28-4.02-13.7-4.7-15.24-.36-.81-6.83-2.78-8.45-5.78-9.04,9.22-17.94,5.4-20.67,13.66-19.36-8.53-18.49-14.59-26.3-27.33l-4.7.53c-18.41,38.16-16.04-21.18-32.88,2.63-8.84-7.36-17.72-11.62-24.42-21.02-11.07,3.79-15.5,12.61-16.91,12.61-3.66.02-.7-6.71-9.39,1.05-.18-9.81-5.39-3.29-8.45-6.83-2.76-3.2-6.04-14.82-4.7-19.44-2.99,3.82-12.49,8.38-14.09,9.98-1.73,1.73,12.7.56-12.21,3.68-2.29-25.16-9.52-10.17-11.27-10.51-9.4-18.85-10.55-2.04-15.03-2.1-12.93-15.83-8.37,2.21-20.67-10.51-15.02,4.05-6.75,12.35-22.55,13.66,5.97-13.88-15.71-9.5-.94-17.34-6.51-8.34-14.87,6.83-16.91,10.51-1.34,2.42,9.23,1.84-3.76,5.78q-7.52-1.31-15.03-2.63c2.43-3.5-2.92-7.4-3.76-11.56-.24-1.18,10.81-1.98-4.7-20.5-11.76,7.95,8.25,17.07-16.91,21.02-12.16-5.41-2.52-18.29-16.91-29.43-17.16,28.17-13.97-1.05-28.18,2.1-19.49,23.05-9.63-15.88-39.45,9.46-5.07,1.32-12.93-17.87-15.97-20.5-21.41,8.12-9.87-11.99-26.3-11.56-17.71,30.38-16.46-5.05-25.36-3.68-4.45,9.67-10.19,3.78-12.21,5.78-.26.26,3.55.18,1.88,5.78-9.18-1.36-7.34-13.39-10.33-14.71-1.66-.73-3.97,1.78-5.64,1.05-3.03-1.33,2.26-2.66,0-3.15-2.36-.51-1.63,3.26-14.09,2.1-.73-.07,4.32-2.04-11.27-3.68,0-.9,13.73-.55-6.58-14.19-13.2,11.75-5.37,18.91-20.67,14.71-19.2-14.16-7.51-7.47-6.58-9.98.42-1.13-6.37.33-15.97-20.5-15.92,11.52-9.54,23.74-20.67,21.02-14.84-18.97-25.11,8.53-36.64-34.16l-3.76-1.05c-13.74,21.88-7.13-3.88-22.55-2.63,0-10.86,0-21.72,0-32.58,24.36-11,49.89-21.21,75.15-31.53,18.99-7.76,74.95-18.17,43.21-47.3,29.77,5.97,53.67,9.76,82.67,18.92Z"/>
          <path class="cls-7" d="M1151.77,384.68c-11.5,2.37-12.19,4.2-26.3,5.26,17.76-9.59,7.18-14.73,12.21-15.77,12.06,1.83,11.09,5.07,14.09,10.51Z"/>
          <path class="cls-1" d="M622.9,290.08c5.08-.76,3.24,10.79-.94.53l.94-.53Z"/>
          <path class="cls-1" d="M371.14,243.84c3.31,0,3.77,4.89-4.7,1.58,1.8-.2,4.42-1.58,4.7-1.58Z"/>
        </g>
      </g>
    </g>
  </g>
</svg>