<?xml version="1.0" encoding="UTF-8"?>
<svg id="Layer_2" data-name="Layer 2" xmlns="http://www.w3.org/2000/svg" viewBox="0 0 239.81 236.08">
  <defs>
    <style>
      .cls-1 {
        fill: #faa746;
      }

      .cls-1, .cls-2, .cls-3, .cls-4 {
        stroke-width: 0px;
      }

      .cls-2 {
        fill: #e56753;
      }

      .cls-3 {
        fill: #f0efeb;
      }

      .cls-4 {
        fill: #fcb31f;
      }
    </style>
  </defs>
  <g id="soleil">
    <g>
      <path class="cls-3" d="M135.97,47.81c3.31.65,4.01.91,7.1,1.87,10.66,3.33,18.06,8.14,26.15,15.69,1.22,1.14,1.41.48,2.24,1.31.2.2,2.06,3.19,3.36,4.67,6.41,7.3,7.92,8.67,12.33,17.93-1.08,4.29,1.23,12.16-4.11,10.09-7.81-24.57-32.79-43.91-58.46-45.57-66.06-4.27-98.36,82.49-42.02,121.03-1.21,1.76,1.02,2.21,1.12,2.43,1.2,2.54-2.01,4.26-5.23,3.92-3.56-2.48-5.48-4.09-8.59-7.1-1.43-1.38-3.18-3.02-4.48-4.48-7.46-8.39-11.85-16.26-15.32-26.89-.95-2.92-1.49-3.45-2.24-7.1-2.39-11.65-1.98-19.12.37-30.63.51-2.5,1.1-5.04,1.87-7.47,3.35-10.67,8.65-18.99,16.06-27.27,1.35-1.51,2.63-3.07,4.11-4.48,7.27-6.94,18.03-13.53,27.64-16.44,1.58-.48,5.73-1.61,7.1-1.87,10.34-1.98,20.71-1.64,31,.37Z"/>
      <path class="cls-1" d="M183.03,99.36c1.01,3.17,1.8,6.78,2.24,10.09-2.54-.13-1.97,5.62-4.11,5.23-1.59-22.31-16.58-43.5-37.54-51.92-47.82-19.21-96.31,24.74-83.49,74.15,5.74,22.1,28.05,41.88,50.8,44.64q-2.43,1.68-4.86,3.36c-8.1-1.57-16.71-5.42-23.53-10.09-56.34-38.54-24.04-125.3,42.02-121.03,25.67,1.66,50.65,21,58.46,45.57Z"/>
      <path class="cls-1" d="M135.97,47.81c-10.29-2.01-20.67-2.35-31-.37,1.46-16.11,7.78-31.95,14.19-46.88l1.68-.56c7.6,14.96,12.17,31.34,15.13,47.81Z"/>
      <path class="cls-1" d="M78.44,181.17c6.56,4.57,12.22,7.01,19.42,10.27-10.8,12.01-23.46,22.17-35.67,32.68-1.63-.2-2.02-.43-2.05-2.05-.03-1.19,3.19-20.62,3.74-23.53,1.53-8.22,3.87-16.38,5.98-24.47,3.11,3.01,5.03,4.62,8.59,7.1Z"/>
      <path class="cls-1" d="M66.12,70.23c-7.41,8.27-12.72,16.6-16.06,27.27-4.59-3.1-33.93-34.04-33.25-36.42l.93-.93c16.37,1.54,32.81,4.56,48.37,10.09Z"/>
      <g>
        <path class="cls-1" d="M192.19,104.59c15.92,4.2,32.14,7.87,47.07,14.94l.56,1.31c-4.59,4.64-44.5,15.8-46.88,15.13l-.56-.93c2.7-10.17,2.1-20.27-.19-30.44Z"/>
        <path class="cls-1" d="M187.14,89.28c-4.41-9.26-5.91-10.63-12.33-17.93l-.19-1.49c5.16-2.13,47.28-12.22,48.75-9.15.62,1.3-8.91,12.4-10.46,14.19-6.92,8.01-14.93,14.96-22.23,22.6-.45.04-3.07-7.21-3.55-8.22Z"/>
      </g>
      <path class="cls-1" d="M169.21,65.37c-8.09-7.55-15.49-12.36-26.15-15.69,0-.38-.52-.46-.37-.93.72-2.37,31.87-30.08,36.79-33.06l.93.93c-2.69,16.46-5.05,33.28-10.27,49.12l-.93-.37Z"/>
      <path class="cls-2" d="M190.32,142.32c12.51,10.65,23.05,23.57,33.06,36.42l-.56,1.31c-16.43-1.77-32.88-4.92-48.37-10.65,7.31-7.89,12.73-16.75,15.88-27.08Z"/>
      <g>
        <path class="cls-1" d="M48.19,104.96c-2.35,11.51-2.76,18.98-.37,30.63.07.47-1,.48-1.68.37C41.36,135.21-.02,123.59,0,120.47c.01-1.77,19.08-8.29,21.85-9.15,8.59-2.67,17.49-4.68,26.33-6.35Z"/>
        <path class="cls-1" d="M65.37,169.59c-6.78,3.09-19.53,6.43-27.08,7.84-4.94.92-23.61,4.14-21.48.93,10.07-12.76,20.99-24.93,33.25-35.67,3.47,10.64,7.85,18.5,15.32,26.89Z"/>
      </g>
      <path class="cls-1" d="M97.87,49.31c-9.61,2.91-20.37,9.5-27.64,16.44-2.31-9.24-4.95-18.46-6.72-27.83-.53-2.8-3.3-18.44-3.36-19.42-.22-3.45,1.08-2.68,3.18-1.31,3.51,2.29,29.52,26.27,34.55,32.12Z"/>
      <g>
        <path class="cls-2" d="M171.27,173.7c1.31,11.24,5.13,22.48,6.91,33.81.38,2.39,2.68,16.26.93,16.62-12.95-9.78-25.24-20.55-36.05-32.68l.19-.93c10.47-3.32,19.88-9.47,28.02-16.81Z"/>
        <path class="cls-2" d="M103.66,192.37c11.01,2.72,22.36,2.22,33.43.19-.66,5.26-14.13,43.38-16.62,43.52-3.58.2-16.89-38.14-16.81-43.7Z"/>
      </g>
      <path class="cls-2" d="M185.28,109.45c1.95,14.49-.17,29.08-7.1,42.02-14.13,26.4-42.94,39.08-72.09,33.43q2.43-1.68,4.86-3.36c40.07,4.86,73.15-25.84,70.23-66.86,2.14.39,1.57-5.36,4.11-5.23Z"/>
      <g>
        <path class="cls-3" d="M181.17,114.68c2.92,41.02-30.15,71.73-70.23,66.86-22.75-2.76-45.07-22.54-50.8-44.64-12.83-49.41,35.67-93.35,83.49-74.15,20.97,8.42,35.95,29.61,37.54,51.92Z"/>
        <path class="cls-2" d="M155.39,81.06c19.74,18.73,23.73,46.46,8.22,69.29-19.47,28.66-60.39,30.74-83.3,5.04l8.59-10.83c14.54,17.63,40.14,19.39,57.34,4.48,17.48-15.15,16.6-42.4.56-58.27,1.27-3.02,5.87-9.04,8.59-9.71Z"/>
        <path class="cls-1" d="M155.39,81.06c-2.72.67-7.32,6.69-8.59,9.71-14.82-14.67-38.81-14.26-53.98-.37-15.04,13.77-16.84,38.51-3.92,54.16l-8.59,10.83c-17.82-19.99-18.6-48.57-1.49-69.29,19.28-23.35,54.57-25.93,76.58-5.04Z"/>
        <g>
          <path class="cls-3" d="M146.8,90.77c16.04,15.87,16.92,43.12-.56,58.27-17.2,14.91-42.8,13.14-57.34-4.48-12.92-15.65-11.12-40.39,3.92-54.16,15.17-13.88,39.15-14.29,53.98.37Z"/>
          <g>
            <path class="cls-4" d="M115.98,87.41c15.85-1.61,33.75,11.33,35.3,28.58,3.3,36.8-43.42,46.5-59.02,20.17-13.09-22.09,3.8-46.72,23.72-48.75Z"/>
            <path class="cls-3" d="M116.36,88.53c1.17-.13,10.23-.18,10.27.93-28.81,10.92-27.97,26.65-31,31-2.92,4.2-4.71-2.37-2.99-10.09,2.47-11.06,12.35-20.57,23.72-21.85Z"/>
          </g>
        </g>
      </g>
    </g>
  </g>
</svg>