<?xml version="1.0" encoding="UTF-8"?>
<svg id="Layer_2" data-name="Layer 2" xmlns="http://www.w3.org/2000/svg" viewBox="0 0 361.32 467.77">
  <defs>
    <style>
      .cls-1 {
        fill: #381b27;
      }

      .cls-1, .cls-2, .cls-3, .cls-4, .cls-5, .cls-6, .cls-7, .cls-8, .cls-9, .cls-10, .cls-11, .cls-12, .cls-13, .cls-14, .cls-15, .cls-16, .cls-17, .cls-18, .cls-19, .cls-20, .cls-21, .cls-22, .cls-23, .cls-24, .cls-25, .cls-26, .cls-27, .cls-28, .cls-29, .cls-30, .cls-31, .cls-32, .cls-33, .cls-34, .cls-35, .cls-36, .cls-37 {
        stroke-width: 0px;
      }

      .cls-2 {
        fill: #09384e;
      }

      .cls-3 {
        fill: #978787;
      }

      .cls-4 {
        fill: #04818e;
      }

      .cls-5 {
        fill: #878685;
      }

      .cls-6 {
        fill: #217395;
      }

      .cls-7 {
        fill: #e27646;
      }

      .cls-8 {
        fill: #231f20;
      }

      .cls-9 {
        fill: #92223c;
      }

      .cls-10 {
        fill: #beb385;
      }

      .cls-11 {
        fill: #037181;
      }

      .cls-12 {
        fill: #1486a3;
      }

      .cls-13 {
        fill: #af333b;
      }

      .cls-14 {
        fill: #3e1a1e;
      }

      .cls-15 {
        fill: #909e87;
      }

      .cls-16 {
        fill: #6e4b53;
      }

      .cls-17 {
        fill: #567e8e;
      }

      .cls-18 {
        fill: #eed38d;
      }

      .cls-19 {
        fill: #261b25;
      }

      .cls-20 {
        fill: #4d1814;
      }

      .cls-21 {
        fill: #daebc2;
      }

      .cls-22 {
        fill: #ebefd1;
      }

      .cls-23 {
        fill: #d8543b;
      }

      .cls-24 {
        fill: #0f4d68;
      }

      .cls-25 {
        fill: #17212e;
      }

      .cls-26 {
        fill: #14141d;
      }

      .cls-27 {
        fill: #c64440;
      }

      .cls-28 {
        fill: #eaf6f1;
      }

      .cls-29 {
        fill: #00abbe;
      }

      .cls-30 {
        fill: #0b5567;
      }

      .cls-31 {
        fill: #3fc3d7;
      }

      .cls-32 {
        fill: #c6788a;
      }

      .cls-33 {
        fill: #d498a4;
      }

      .cls-34 {
        fill: #5b1829;
      }

      .cls-35 {
        fill: #6c8990;
      }

      .cls-36 {
        fill: #741f35;
      }

      .cls-38 {
        fill: #949ab8;
        stroke: #231f20;
        stroke-miterlimit: 10;
      }

      .cls-37 {
        fill: #1a6281;
      }
    </style>
  </defs>
  <g id="max_sleeping">
    <path class="cls-8" d="M221.15,423.8c-25.4-.7-50.68-.7-76.06.56l-1.11-.83c5.36-4.12,9.85-9.38,14.71-14.16.16-.16,1.25.14,1.39,0q20.27-.28,40.53-.56c1.88,1.8,13.26,12.95,14.16,13.33,3.28,1.36,6.72-.5,6.38,1.67Z"/>
    <g>
      <path class="cls-38" d="M221.15,423.8c5.74.16,11.48.27,17.21.56,11.24.56,89.44,4.3,86.06,20.82-1.88,9.18-53.31,17.45-62.46,18.6-44.36,5.58-137.37,4.87-180.44-5-5.11-1.17-23.72-6.56-26.37-10.27-12.38-17.33,61.79-22.38,70.51-23.04,6.45-.49,12.97-.79,19.43-1.11,25.39-1.26,50.66-1.26,76.06-.56Z"/>
      <path class="cls-6" d="M176.46,436.02c13.35-.27,60.3,1.69,71.07,5.55,19.92,7.14-40.6,10.43-43.86,10.55-9.94.37-80.45-.29-83-6.94q.42-1.53.83-3.05c18.04-3.58,36.58-5.73,54.97-6.11Z"/>
    </g>
    <g>
      <path class="cls-8" d="M238.37,424.36c-5.73-.28-11.47-.4-17.21-.56.34-2.16-3.1-.31-6.38-1.67-.9-.37-12.27-11.52-14.16-13.33-9.04-8.65-14.92-21.28-25.26-16.1-2.08,1.04-12.41,13.84-15.27,16.66-.14.14-1.22-.16-1.39,0-4.87,4.78-9.35,10.04-14.71,14.16l1.11.83c-6.46.32-12.99.62-19.43,1.11-12.47-8.64-6.45-12.3-6.66-14.16-.14-1.26-14.62-19.33-15.82-19.71-1.29-.4-7.67.25-10.55,0-3.85-.34-9.49-1.71-9.99-1.67-1.66.16-10.62,10.04-21.1,2.22-8.27-6.16-5.79-22.1-5.27-31.37l-1.39-1.39c-7.33,1.74-31.6,17.13-35.26,5.27-3.93-12.76,23.89-32.32,33.59-38.03,3.57-2.1,35.8-16.84,35.26-19.15-26.51-12.87-71.32-58.34-80.51-84.95-5.36-15.52-6.02-33.19,15.27-21.38,4.2-.5-9.82-20.62-12.49-26.93-15.81-37.37,3.98-56.07-2.78-74.95-.45-1.27-15.45-17.05-3.05-21.38,10.83-3.78,28.58,17.1,30.26,15.27,2.59-16.62,15.58-25.17,21.65-41.64,8.83-23.95-1.42-31.23,5.83-34.15,12.93-5.2,21.44,24.98,25.54,32.76,5.99-21.42,44.3-41.44,64.4-41.64,1.44-.01,6.44,1.83,7.22,1.67,2.21-.46,10.06-16,42.2-7.77,2.13.54,37.83,14.04,41.09,15.55,13.12,6.09,26.21,14.46,32.76,27.76,4.01-7.89,12.37-34,24.98-28.87,6.33,2.57,1.11,11.75.83,16.38-.57,9.58,4.62,23.34,9.44,31.65,6.64,11.45,13.21,11.92,14.44,30.54,1.36,1.21,16.36-20.18,30.81-16.93,11.95,2.68-1.13,15.54-3.05,20.82-8.24,22.64,15.44,40.65-6.11,80.51-5.84,10.8-13.71,14.08-8.05,21.38,4.77-3.98,15.74-6.01,17.49,1.94,6.07,27.59-58.98,94.93-85.5,105.49,15.68,6.62,77.18,34.28,69.96,56.08-3.91,11.79-27.65-3.27-35.81-4.16-2.56.97,4.41,25.38-6.11,32.76-9.29,6.51-17.1-2.52-20.54-2.78-.15-.01-2.63,1.12-2.78,1.11-2.65-.08-17.99-.31-18.88,0-1.04.37-13.44,16.39-13.6,17.49-.41,2.75,9.56,5.76-5,15.27Z"/>
      <g>
        <g>
          <path class="cls-36" d="M186.73,7.39l.56-1.11c5.24,4.46,8.07,24.18,8.88,25.26.4.53,1.05.19,1.11.28.19.26.8-.59.83-.56,1.66,1.48.93,28.07-3.05,38.59-4.17,11.02-13.77,18.27-22.21,25.82-8.5.41-28.4,4.31-37.2,6.66,1.09-9.05,7.17-9.09,11.66-19.71,8.42-19.92,4.18-37.07,4.44-49.41.07-3.12,2.59-7.04.56-9.72,5.87-6.94-2.41,5.19,4.16,19.99,1.15,0,1.71-10.21,2.5-13.33-1.29,19.2,2,35.35-5.55,54.13,3.01-.26,15.17-11.29,15.55-12.77,2.32-9.21-5.89-38.2-5-49.97.02-.21,1.9-1.74,0-3.61,8.3-16.08-1.26,2.95,1.67,13.05,3.84,13.26,2.7-17.76,12.21-25.54-5.34,14.62-.44,28.79,3.61,43.03,2.85-13.49,4.39-27.32,5.27-41.09Z"/>
          <path class="cls-36" d="M331.09,190.06c-6.8-18.82-17.69-34.02-32.2-47.75,2.92-4.1,7.09-7.01,10.55-10.55,14.85-15.18,23.17-38.13,43.86-46.36-20.56,27.41-6.71,40.33-5.55,54.41,1.96,23.78-15.67,46.54-16.66,50.25Z"/>
          <path class="cls-36" d="M152.31,23.5c2.03,2.68-.49,6.6-.56,9.72-.26,12.35,3.98,29.49-4.44,49.41-4.49,10.62-10.57,10.66-11.66,19.71-6.26,1.67-15.68,4.77-21.65,7.22-.36-9.59-2.58-19.06-3.33-28.59-1.21-15.41.29-31.16-2.22-46.36,5.23-7.97-.85,3.22,4.72,19.99,2.49-11.95,5.55-24.43,15.27-31.92-5.25,6.98-4.4,23.6-2.5,23.6,2.34-5.2,4.1-10.85,6.94-15.82,10.17-17.78,4.53-5.39,3.89-1.11-2.28,15.14,4.65,40.89,5.27,57.46,3.32-17.72-1.53-49.33,10.27-63.29Z"/>
          <path class="cls-36" d="M50.7,135.09c3.07,3.33,6.04,7.59,10.55,8.33-13.8,13.11-24.33,29.46-31.09,47.19-.71-2.31-16.46-23.99-17.21-44.69-.76-20.87,11.13-23.29,1.67-48.86-2.8-7.58-13.4-19.66,2.5-6.94,15.05,12.04,20,30.25,33.59,44.97Z"/>
          <path class="cls-19" d="M183.4,95.67c6.05.08,12.82.98,18.88,1.67,1.17.13,2.23.41,3.33.56,6.68.91,12.9,2.28,19.43,3.89,1.49.37,2.96.7,4.44,1.11,2.44.67,4.81,1.44,7.22,2.22,2.8.91,5.58,1.7,8.33,2.78,9.32,3.65,18.72,8.61,27.21,13.88.12.07.48.54,2.22,1.67,3.82,2.46,7.47,5.04,11.1,7.77,1.47,1.11,3.01,2.17,4.44,3.33,3.03,2.45,6.05,5.09,8.88,7.77,14.51,13.73,25.4,28.93,32.2,47.75-1.16,4.34,3,12.91,2.22,19.99-1.97-4.68-2.33-3.1-2.5-3.33-1.16-1.6-.39-3.76-3.05-3.33-.57-5.25-1.38-6.52-2.78-11.1-4.5-14.7-10.24-23.3-19.99-34.98-9.6-11.5-20.25-20.66-32.76-28.87-8.23-5.4-31.8-18.52-40.53-19.43-.54-.06-1.12,0-1.67,0-6.66-4.32-32.13-7.46-40.81-7.77-18.88-.68-34.4,1.69-52.47,6.66-21.03,5.79-27.07,9.34-44.97,20.54-12.45,7.79-18.78,11.38-29.43,22.21-8.86,9.01-13.46,15.56-19.43,26.65-2.27,4.2-3.91,7.09-5.55,11.66-.11.31-.99,1.09-2.22,6.11-3.3-2.14-1.2,7.77-5,.56.17-2.17.86-2.19,0-5,6.77-17.74,17.29-34.08,31.09-47.19,9.17-8.72,25.95-20,37.2-26.1,2.04-1.1,4.02-2.32,6.11-3.33,3.03-1.47,6.35-3.17,9.44-4.44,5.97-2.45,15.4-5.55,21.65-7.22,8.8-2.35,28.7-6.25,37.2-6.66,1.1-.05,8.5-.03,10.55,0Z"/>
          <path class="cls-36" d="M257.24,106.78c4.4-7.96,6.98-12.14,8.88-21.1.81-3.8,2.95-5.3.28-5-4.44,5.54-9.92,9.7-15.55,13.88-.7.52-1.59-.61-1.67-.56-4.09,2.9-5.77,12.4-12.49,11.1-2.41-.78-4.78-1.55-7.22-2.22,18.97-21.07,21.68-32.83,19.99-61.07,1.06-11.79-3.21-18.39,1.67-11.38,4.72,6.78,6.43,17.86,8.05,25.82,2.56-6.75,2.93-13.99,2.22-21.1,10.77,17.08,10.41,45.15,1.94,63.02-1.7,3.59-5.25,7.3-6.11,8.61Z"/>
          <path class="cls-36" d="M223.93,25.72l-1.11.28c6.62,10.71,2.16,9.4,2.22,9.99.23,2.13,2.16,8.67,2.22,11.1.53,22.25-10.72,34.84-24.98,50.25-6.06-.68-12.83-1.58-18.88-1.67,16.19-12.5,23.72-24.99,23.87-45.81.07-9.35-4.3-25.31,0-21.65,1.55,11.63,3.8,24.35,2.78,36.09-.08.89-3.28,8.97-1.11,8.61-.42,2.47-1.12,3.92.56,1.39,5.97-15.81,10.64-32.35,9.99-49.41-3.25-13.82-.06-8,4.44.83Z"/>
          <path class="cls-36" d="M242.25,32.93l-1.11.28c8.36,13.48,4.44,39.85-3.89,52.75-3.8,5.88-11.95,11.74-12.21,15.82-6.53-1.6-12.75-2.98-19.43-3.89,7.1-3.16,17.67-17.48,21.65-24.71.84-1.52,2.87-8.04,3.89-10.55.04-.1,1.35-.57,1.67-1.39.37-.97.79-1.74,1.11-2.78,1.62-5.31,3.2-21.9,2.78-27.48-.42-5.54-5.89-15.06,1.67-5,1.54,2.05,2.72,4.65,3.89,6.94Z"/>
          <path class="cls-36" d="M114,109.55c-3.09,1.27-6.41,2.97-9.44,4.44-3.64-17.34-7.02-34.67-6.66-52.47.12-5.9,2.88-16.25,0-17.49.73-1.58,1.51-3.2,2.78-4.44v.56c-.05,3.53-1.08,7.29-.56,10.83,2.09,14.05,2.41-7.36,8.33-16.38,2.51,15.2,1.01,30.95,2.22,46.36.75,9.53,2.97,19,3.33,28.59Z"/>
          <path class="cls-36" d="M208.94,72.91c-2.17.37,1.03-7.72,1.11-8.61,1.02-11.74-1.23-24.46-2.78-36.09-4.3-3.65.07,12.3,0,21.65-.15,20.81-7.69,33.3-23.87,45.81-2.05-.03-9.45-.05-10.55,0,8.44-7.55,18.04-14.8,22.21-25.82,3.98-10.52,4.71-37.1,3.05-38.59-.04-.03-.65.82-.83.56,3.23-9.6,2.06-19-3.05-27.76,17.95,16.93,18.55,46.19,14.71,68.85Z"/>
          <path class="cls-36" d="M158.97,30.16c1.32-5.21,2.63-7.63,5-12.21,1.9,1.87.02,3.4,0,3.61-.9,11.77,7.32,40.76,5,49.97-.37,1.48-12.53,12.51-15.55,12.77,7.55-18.78,4.26-34.93,5.55-54.13Z"/>
          <path class="cls-36" d="M104.56,114c-2.08,1.01-4.07,2.23-6.11,3.33-1.87-.35-4.79-13.75-5-15.82-1.05-10.42,1-21.2.56-31.65-.02-.52-1.65,3.05-1.11-9.16,1.27-6.47,2.18-10.6,5-16.66,2.88,1.24.12,11.59,0,17.49-.36,17.79,3.03,35.13,6.66,52.47Z"/>
          <path class="cls-36" d="M223.93,25.72c4.78,9.38,8.88,21.64,8.88,32.2v3.33c-.31.82-1.63,1.29-1.67,1.39-1.01,2.51-3.05,9.03-3.89,10.55-3.99,7.23-14.55,21.55-21.65,24.71-1.1-.15-2.16-.42-3.33-.56,14.26-15.4,25.52-27.99,24.98-50.25-.06-2.43-1.99-8.98-2.22-11.1-.06-.59,4.4.72-2.22-9.99l1.11-.28Z"/>
          <path class="cls-36" d="M242.25,32.93c4.77,9.38,6.12,21.02,7.22,8.88,1.7,28.24-1.01,40.01-19.99,61.07-1.48-.41-2.95-.74-4.44-1.11.27-4.08,8.42-9.94,12.21-15.82,8.32-12.89,12.24-39.27,3.89-52.75l1.11-.28Z"/>
          <path class="cls-33" d="M233.92,58.47c-.32,1.04-.74,1.81-1.11,2.78v-3.33q.56.28,1.11.56Z"/>
          <g>
            <path class="cls-36" d="M88.46,94.56c.15.94-.27,2.78.28,2.78.51,0,.18-1.67.28-2.78,1.02-11.22,1.71-22.8,3.89-33.87-.54,12.21,1.09,8.64,1.11,9.16.45,10.44-1.61,21.23-.56,31.65.21,2.08,3.13,15.48,5,15.82-11.25,6.09-28.03,17.38-37.2,26.1-4.51-.74-7.48-5-10.55-8.33-2.47-7.38-6.12-14.69-7.22-22.49-1.76-12.51-.38-23.9,6.38-34.7,3.32,21.47.77,11.26,4.16.28,4.33-14.02,17.78-23.49,13.33-51.91l.56-.56c2.82,3.28,15.76,39.83,17.21,45.81,1.85,7.61,2.13,15.36,3.33,23.04Z"/>
            <path class="cls-32" d="M88.46,94.56h.56c-.1,1.11.23,2.78-.28,2.78-.55,0-.13-1.84-.28-2.78Z"/>
          </g>
          <path class="cls-16" d="M187.29,6.28l-.56,1.11c.14-2.15.22-3.12.56-1.11Z"/>
          <path class="cls-3" d="M67.92,25.72l-.56.56c-.12-.76-1.28-2.89.56-.56Z"/>
          <g>
            <path class="cls-36" d="M309.99,90.12l-.83.56c-4.07-11.95-4.58-20.64-4.72-3.89-3.33.52-5.42,15.43-8.88,24.15-2.8,7.06-7.62,13.03-9.99,20.27-3.64-2.74-7.28-5.31-11.1-7.77,10.72-15.65,16.53-29.68,16.38-48.86-3.85-1.33-3.28,9.54-4.72,14.71-3.19,11.45-8.62,21.88-13.88,32.48-8.49-5.27-17.89-10.23-27.21-13.88.84-3.45,8.17-7.17,13.33-12.49,2.84-2.93,5.14-6.6,7.77-9.72-1.91,8.96-4.49,13.13-8.88,21.1-4.82,7.38,3.73-1.35,7.22-5.83,17.62-22.65,15.67-54.76,33.04-77.45-11.33,25.39,6.59,43.37,12.49,66.63Z"/>
            <path class="cls-36" d="M309.99,90.12c0-1.77,2.24-13.29,3.33-11.94,5.72,20.79,10.37,34.9-3.89,53.58-3.46,3.54-7.63,6.45-10.55,10.55-2.83-2.68-5.85-5.32-8.88-7.77-2.53-3.28,4.23-9.39,7.22-15.82,5.77-12.44,7.11-18.59,7.22-31.92.14-16.75.65-8.07,4.72,3.89l.83-.56Z"/>
            <path class="cls-36" d="M304.44,86.79c-.11,13.33-1.45,19.48-7.22,31.92-2.98,6.44-9.75,12.55-7.22,15.82-1.43-1.16-2.97-2.22-4.44-3.33,2.37-7.23,7.19-13.2,9.99-20.27,3.46-8.72,5.55-23.63,8.88-24.15Z"/>
            <path class="cls-36" d="M274.45,123.43c-1.74-1.12-2.1-1.59-2.22-1.67,5.26-10.6,10.69-21.03,13.88-32.48,1.44-5.17.87-16.04,4.72-14.71.15,19.18-5.65,33.21-16.38,48.86Z"/>
          </g>
          <path class="cls-36" d="M266.13,85.68c-2.64,3.12-4.93,6.78-7.77,9.72-5.16,5.32-12.48,9.04-13.33,12.49-2.75-1.08-5.53-1.87-8.33-2.78,6.72,1.3,8.4-8.21,12.49-11.1.07-.05.96,1.08,1.67.56,5.63-4.18,11.11-8.34,15.55-13.88,2.67-.31.53,1.19-.28,5Z"/>
        </g>
        <g>
          <path class="cls-26" d="M126.77,316.65c-2.1,10.12-5.77,33.62-5,42.47.47,5.35,2.82,11.07,3.89,16.38,1.23,6.13,3.14,12.2,4.44,18.32.28,1.31,1.74,15.59,3.33,13.6,4.98-28.12,24.47-41.32,30.54-54.41.23-.49-.23-1.98,0-2.5.03-.07.9.23,1.11-.28,2.09-4.96,3.79-12.92,7.22-20.82,1.13-2.61,1.95-5.83,3.33-5.55.58,1.64,1.05,3.36,1.67,5,13.74,36.44,30.12,33.1,43.86,57.19,3.96,6.95,7.08,14.96,6.66,23.04h1.11c2.01-11.6,15.1-50.54,15.55-55.52.78-8.82-2.01-25.36-6.66-33.04-1.02-1.69-1.04-2.12-1.11-2.22.71-1.84,1.37-.71,2.78-.56.38.48.53.52.56.56,1.73,2.15,3.28,4.46,5,6.66,12.38,22.35,35,35.69,48.03,57.74.84-.23,2.47-11.03-1.39-16.66-.28-1.35.51-1.75.56-2.22.79-7.5.04-18.87.83-19.43.93-.66,18.16.81,21.38-.28-10.36-5.08-20.35-10.55-29.98-16.93,17.67,8.65,39.01,15.38,48.3,34.15-8.61-2.09-20.37-13.05-29.15-8.61-10.51,5.32-2.02,27.65-8.33,31.65-6.93,4.39-13.67-8.98-17.77-13.33,1.31,21.38-13.79,6.7-26.65,15.55-5.79,3.98-16.89,25.58-21.1,26.65-18.02,4.59-28.45-27.73-44.97-29.98-20.77-2.83-26.29,16.73-38.31,25.54-24.19,17.74-22.32-20.53-42.75-24.98-10.9-2.38-20.12,4.39-19.43-13.33-4.17,4.51-11.5,17.03-16.66,13.88-10.28-4.33,4.93-35.78-17.21-32.76-5.89.8-23.57,13.32-21.93,8.05,14.01-19.24,24.73-20.45,40.53-29.15-3.33,3.41-12.53,8.8-16.93,11.1-4.87,2.56-13.52,4.08-2.22,3.89,6.22-.11,12.65-.8,18.88-1.11.41,6.08.41,12.23.28,18.32-.02.97.02,1.88,0,2.78-.01.55.01,1.11,0,1.67-.08,3.32-1.89,9.82-1.11,12.77.18.68,1.46,2.19,2.22,1.39,7.15-15.49,20.51-26.23,32.2-38.03,7.25-7.32,15.84-13.81,20.54-23.32.59-.42.67-.65,1.11-1.11.26-.27.16,1.32,2.78-2.78v.56Z"/>
          <path class="cls-26" d="M261.69,296.11c.51,2.88,1.06,3.61,1.11,3.89.06.31-.66.05,0,2.78l-.83.56c.34-3.56-2.68-1.2-6.94.56-4.43,1.82-4.73,2.67-5,2.78-5.29,2.02-10.73,3.52-16.1,5.27,1.88,1.93,3.88,3.7,5.55,5.83-1.41-.16-2.07-1.29-2.78.56-.52-.68-6.48-6.05-6.94-6.11-1.3-.16-10.74,3.09-25.82,3.89-19.65,1.04-44.44-.41-64.13-2.78-3.22,5.95,1.09,2.97,3.05,4.44-.05,1.29.07,2.6,0,3.89-11.4.55-2.04-2.58-6.94-9.44-11.25-2.12-6.57-.17-9.16,3.89-2.62,4.1-2.52,2.51-2.78,2.78,1.71-3.81-2.06-.87-2.78-3.89,5.48,1.17,4.9-4.65,2.5-5.55-3.04,1.39-15.27-4.56-16.1-4.44-1.01.15-1.46,2.54-1.94,3.33-1.25,2.05-3.09,6.62-3.89,7.77-9.32,13.53-23.52,23.2-39.98,25.26,14.37-6.51,29.29-15.1,36.64-29.7,5.55-11.03,3.77-8.94,1.11-10.55-1.6-.96-3.36-1.42-5-2.22l3.89-2.22c7.39,2.37,2.49.63,5.27-.56,3.4-1.45,2.13,2.61,2.78,3.33.52.58,10.21,3.93,11.94,4.44,6.97,2.06,21.7,5.51,14.44-.56.07.02.12-1.09,1.39-.56,1.68.71,9.93,10.63,26.93,7.5-10.45-20.48,3.54,5.97,16.66,1.67-7.21-16.05,2.69-.47,5.27.28,4.58,1.33,18.34,1.35,10.27-6.38l.83-.83c5.63,4.54,9.3,6.32,16.66,5.55-10.07-11.19,3.08,1.09,7.22-1.11-4.47-11.83,1.73-1.08,4.44-.56,3.71.72,31.07-7.41,33.59-10.27.34-.39,3.21-8.2,3.61-9.72,1.97-.87,1.17,2.85,1.94,7.22Z"/>
          <g>
            <path class="cls-36" d="M237.9,320.35c.08.1.09.53,1.11,2.22-.69-.06-.52.55-.56.56-2.58.44-5.28.87-7.77,1.67-1.16.37-5.85,1.37-6.11,2.5-.63,2.77,10.62,15.39,6.66,55.8.45-8.55-2.93-50.51-7.22-55.24-2.11-2.33-11.4,1.04-14.44,1.39-.06,0,.32-.19-1.11,0-.18.02-.37-.02-.56,0-3.71.51-7.43,1.17-11.1,1.67-.74.1-.67-2.88-2.22.56-.19-.56.33-.73-.56-1.11-1.79-.76-7.4.52-9.44.56-.84.02-1.95.03-2.78,0-.17,0-.45-1.46-3.33,0-.62-1.64-1.08-3.36-1.67-5-.98-2.77-3.57-5.2-1.94-6.11,10.26-.04,20.71,2.31,30.81.28l-.56-1.94c15.08-.79,24.52-4.05,25.82-3.89.46.06,6.42,5.42,6.94,6.11Z"/>
            <path class="cls-23" d="M222.35,388.08c1.54-2.16-4.03-4.88-2.22-8.33,4.4,5.98,8.04,15.27,8.88,14.99,1.82-3.79,1.82-7.56,2.22-11.66,3.96-40.41-7.29-53.03-6.66-55.8.25-1.13,4.95-2.13,6.11-2.5,7.22,11.94,10.18,25.8,8.88,39.7-.9,9.6-7.17,19.07-5.27,28.04,5.76-28.08,17.21-38.77,4.16-69.4.04,0-.14-.61.56-.56,4.65,7.68,7.45,24.22,6.66,33.04-.44,4.98-13.54,43.93-15.55,55.52h-1.11c.41-8.08-2.7-16.09-6.66-23.04Z"/>
            <path class="cls-13" d="M181.82,330.9c4.42,11.33,8.15,18.86,16.66,27.76.09.09.47-.09.56,0,6.87,7.17,15.14,13,21.1,21.1-1.8,3.45,3.76,6.17,2.22,8.33-13.74-24.09-30.12-20.75-43.86-57.19,2.88-1.46,3.16,0,3.33,0Z"/>
            <path class="cls-27" d="M231.24,383.09c-.4,4.1-.4,7.87-2.22,11.66.04-22.15-8.68-43.52-16.38-63.85l-2.5,1.11c-.15-.95.28-1.75-.56-2.78,3.04-.35,12.32-3.72,14.44-1.39,4.28,4.73,7.67,46.69,7.22,55.24Z"/>
            <path class="cls-27" d="M238.45,323.12c13.04,30.63,1.59,41.32-4.16,69.4-1.89-8.96,4.38-18.43,5.27-28.04,1.3-13.9-1.67-27.76-8.88-39.7,2.49-.8,5.19-1.22,7.77-1.67Z"/>
            <path class="cls-23" d="M217.35,368.65c-7.19-2.33-8.06-25.46-16.66-34.42,4.2-1.25,8.18,1.22,7.22-5,.18-.02.37.02.56,0,1.09,13.67,4.48,26.51,8.88,39.42Z"/>
            <path class="cls-23" d="M184.6,330.9c1.2,1.92,2.67,3.64,3.89,5.55,4.56,7.2,5.95,13.73,8.88,16.1.34,2.04.59,4.1,1.11,6.11-8.51-8.9-12.23-16.43-16.66-27.76.83.03,1.94.02,2.78,0Z"/>
            <path class="cls-20" d="M209.58,329.23c.83,1.03.4,1.82.56,2.78,2.48,15.36,6.82,30.67,10.27,45.53-.42.21-2.77-8.06-3.05-8.88-4.4-12.91-7.79-25.75-8.88-39.42,1.43-.19,1.06,0,1.11,0Z"/>
            <path class="cls-27" d="M194.59,331.45c.34,1.01,1.85,15.55,2.78,21.1-2.94-2.37-4.33-8.91-8.88-16.1,2.1-2.11,6.51-2.49,5.55-6.11.89.38.36.55.56,1.11Z"/>
            <path class="cls-27" d="M207.92,329.23c.96,6.21-3.01,3.74-7.22,5-.77-.8-2.04-1.91-3.33-1.67.02-.51-.82-.74-.56-1.67,3.68-.49,7.39-1.16,11.1-1.67Z"/>
            <path class="cls-20" d="M196.81,330.9c-.27.92.58,1.16.56,1.67-.39,8.82.39,17.31,1.67,26.1-.09-.09-.47.09-.56,0-.52-2.01-.77-4.07-1.11-6.11-.93-5.54-2.43-20.09-2.78-21.1,1.55-3.44,1.48-.46,2.22-.56Z"/>
            <path class="cls-13" d="M194.04,330.34c.95,3.62-3.45,4-5.55,6.11-1.21-1.92-2.69-3.63-3.89-5.55,2.04-.04,7.65-1.31,9.44-.56Z"/>
            <path class="cls-23" d="M229.01,394.75c-.85.28-4.48-9.01-8.88-14.99-5.96-8.1-14.23-13.93-21.1-21.1-1.28-8.79-2.06-17.28-1.67-26.1,1.29-.24,2.57.87,3.33,1.67,8.6,8.96,9.46,32.09,16.66,34.42.28.82,2.63,9.09,3.05,8.88-3.45-14.86-7.79-30.16-10.27-45.53l2.5-1.11c7.7,20.33,16.42,41.7,16.38,63.85Z"/>
          </g>
          <g>
            <path class="cls-27" d="M99.65,313.69c-7.36,14.61-22.27,23.19-36.64,29.7,16.46-2.06,30.65-11.73,39.98-25.26,1.68.02,2.94,1.25,3.89,1.67-.99,1.4-2.17,2.64-3.33,3.89-12,12.86-24.19,26.01-33.31,41.09.13-6.09.13-12.24-.28-18.32-6.23.31-12.66,1-18.88,1.11-11.3.2-2.65-1.33,2.22-3.89,4.4-2.31,13.61-7.69,16.93-11.1,25.92-14.27,20.26-15.06,27.21-21.1,4.77-4.14,2.33-1.18,2.22,2.22Z"/>
            <path class="cls-9" d="M99.65,313.69c.11-3.4,2.55-6.36-2.22-2.22l3.33-8.33c2.66,1.6,4.44-.48-1.11,10.55Z"/>
            <path class="cls-27" d="M111.86,321.46c-2.11,1.6-18.88,27.19-33.31,41.09-2.6,2.51-5.6,4.33-8.33,6.66.01-.55-.01-1.11,0-1.67,7.19-16.99,24.97-27.13,33.31-43.86,1.16-1.25,2.35-2.49,3.33-3.89,1.68.74,3.21,1.27,5,1.67Z"/>
            <path class="cls-27" d="M117.97,323.12c-3.68,7.64-15.33,18.24-14.44,22.21-11.7,11.8-25.05,22.54-32.2,38.03-.76.81-2.04-.71-2.22-1.39,2.24.46,6.06-8.1,9.44-12.49,7.5-9.76,18.87-17.32,9.99-15.82,10.4-10.51,17.33-20.13,24.98-32.76.63.11,2.1,1.41,4.44,2.22Z"/>
            <path class="cls-7" d="M69.11,381.98c-.78-2.95,1.03-9.45,1.11-12.77,2.73-2.33,5.73-4.16,8.33-6.66,3.45-2.27,7.07-5.92,9.99-8.88,8.88-1.5-2.5,6.07-9.99,15.82-3.38,4.4-7.19,12.95-9.44,12.49Z"/>
            <path class="cls-36" d="M122.41,317.02c.72,3.01,4.49.08,2.78,3.89-.44.46-.52.69-1.11,1.11-2.39,1.72-2.32,2.74-2.5,2.78-.19.04-1.03-.77-3.61-1.67-2.34-.81-3.82-2.11-4.44-2.22-.16-.03.49-1.09-1.67.56-1.79-.39-3.31-.92-5-1.67-.95-.42-2.21-1.65-3.89-1.67.8-1.16,2.63-5.72,3.89-7.77,3.98,1.95,11.61,5.82,15.55,6.66Z"/>
            <path class="cls-9" d="M103.54,345.33c-.89-3.97,10.76-14.57,14.44-22.21,2.58.89,3.41,1.71,3.61,1.67.18-.04.11-1.05,2.5-2.78-4.7,9.51-13.29,16-20.54,23.32Z"/>
            <path class="cls-20" d="M70.22,367.54c.02-.89-.02-1.8,0-2.78,9.12-15.07,21.31-28.22,33.31-41.09-8.34,16.73-26.12,26.87-33.31,43.86Z"/>
            <path class="cls-36" d="M122.41,317.02c-3.94-.84-11.56-4.72-15.55-6.66.48-.79.94-3.18,1.94-3.33.83-.12,13.06,5.83,16.1,4.44,2.4.9,2.98,6.73-2.5,5.55Z"/>
            <path class="cls-14" d="M113.53,320.9c-7.65,12.62-14.59,22.25-24.98,32.76-2.93,2.96-6.54,6.61-9.99,8.88,14.43-13.89,31.2-39.48,33.31-41.09,2.16-1.64,1.5-.58,1.67-.56Z"/>
          </g>
          <g>
            <path class="cls-27" d="M255.66,313.69c10.09,12.29,23.22,21.79,36.37,30.54q-10.41-11.1-20.82-22.21l1.67-1.11c1.83,1.63,9.75,6.32,12.77,8.33,9.63,6.39,19.63,11.85,29.98,16.93-3.21,1.08-20.45-.38-21.38.28-.79.56-.04,11.93-.83,19.43-.37-.18-1.6-1.03-1.67-1.11-4.52-5.9-9.71-16.33-16.1-24.15-5.79-7.09-13.73-12.85-19.43-19.71-4.64-5.59-6.77-9.32-.56-7.22Z"/>
            <path class="cls-34" d="M263.99,304.8c1.75,7.29,3.07,10.93,8.88,16.1l-1.67,1.11c-4.63-4.28-16.86-12.73-14.99-16.1,4.26-1.75,7.28-4.12,6.94-.56l.83-.56Z"/>
            <path class="cls-27" d="M249.56,319.79c7.17,15.83,20.74,26.47,32.76,38.31-.36.04-.82-.08-1.11,0-16.47-15.93-19.51-13.18-2.78,2.78-.15.23,1.54,1.59-.28,1.67-13.49-12.12-21.04-21.57-31.92-35.53-1.72-2.21-3.27-4.51-5-6.66,2.21-1.9,4.64,2.42,5.83,2.22,1.51-.26,1.26-2.95,1.39-3.05.59-.48.79.54,1.11.28Z"/>
            <path class="cls-7" d="M278.43,360.88c.55-.84,1.81-2.5,2.78-2.78.29-.08.75.04,1.11,0,2.49,2.45,9.45,8.4,10.55,9.99,3.86,5.62,2.22,16.43,1.39,16.66-13.03-22.05-35.64-35.39-48.03-57.74,10.89,13.97,18.43,23.41,31.92,35.53,1.82-.07.12-1.43.28-1.67Z"/>
            <path class="cls-36" d="M255.66,313.69c-6.22-2.1-4.09,1.63.56,7.22h-1.11c-6.44-5.22-4.6-1.36-5-1.11-.14.08-.45-.09-.56,0-.32.27-.52-.76-1.11-.28-.13.11.13,2.79-1.39,3.05-1.19.2-3.62-4.12-5.83-2.22-.02-.03-.18-.07-.56-.56-1.67-2.13-3.67-3.9-5.55-5.83,5.37-1.76,10.81-3.25,16.1-5.27,2.23.23,3.3,3.6,4.44,5Z"/>
            <path class="cls-20" d="M290.64,364.77c.29.08.75-.04,1.11,0,.06.08,1.3.93,1.67,1.11-.05.47-.84.87-.56,2.22-1.1-1.6-8.06-7.54-10.55-9.99-12.01-11.84-25.58-22.48-32.76-38.31.11-.09.42.08.56,0,2.35,6.79,37.61,44.15,40.53,44.97Z"/>
            <path class="cls-1" d="M256.22,305.91c-1.87,3.37,10.36,11.82,14.99,16.1q10.41,11.1,20.82,22.21c-13.15-8.75-26.28-18.24-36.37-30.54-1.14-1.39-2.21-4.76-4.44-5,.27-.1.57-.96,5-2.78Z"/>
            <path class="cls-14" d="M256.22,320.9c5.7,6.86,13.64,12.62,19.43,19.71,6.39,7.82,11.59,18.25,16.1,24.15-.36-.04-.82.08-1.11,0-5.71-10.03-28-37.75-35.53-43.86h1.11Z"/>
            <path class="cls-23" d="M281.2,358.1c-.96.27-2.22,1.94-2.78,2.78-16.74-15.96-13.69-18.7,2.78-2.78Z"/>
            <path class="cls-27" d="M255.11,320.9c7.53,6.11,29.83,33.83,35.53,43.86-2.92-.83-38.18-38.18-40.53-44.97.4-.25-1.44-4.11,5,1.11Z"/>
          </g>
          <g>
            <path class="cls-23" d="M137.96,325.35q-3.05,21.79-6.11,43.58c.87,2.07,3.07-13.09,3.33-14.71,4.09-3.08.32,11.49,3.33,16.1-.58,4-2.39,8.85-1.67,12.77-.93,4.26-2.94,10.6-3.33,13.88-2.54.83-.95.05-2.22-1.11-1.3-6.12-3.21-12.2-4.44-18.32l2.78.83c-5.52-20.49-2.06-26.4,1.67-43.31,2.01-9.11-2.03-10.76,6.66-9.72Z"/>
            <path class="cls-27" d="M165.16,352.55c-.23.52.23,2.01,0,2.5-6.07,13.09-25.55,26.29-30.54,54.41-1.59,1.99-3.05-12.3-3.33-13.6,1.27,1.16-.32,1.94,2.22,1.11-.89,7.44,5.01-11.73,9.99-17.49-.68-5.62.48-3.92.56-4.16,1.8,1,1.76-.05,2.78-1.11,8.66-9.05,14.52-35.03,12.77-47.75,1.63,1.33,6.86,5.57,7.22,6.94,1.69,6.46-5.48,24.05-1.67,19.15Z"/>
            <path class="cls-13" d="M137.96,324.79v.56c-8.69-1.05-4.66.6-6.66,9.72-3.72,16.9-7.19,22.82-1.67,43.31l-2.78-.83c-1.06-5.31-3.42-11.03-3.89-16.38-.78-8.85,2.9-32.36,5-42.47,5.85,2.79,7.94.9,9.99,6.11Z"/>
            <path class="cls-34" d="M205.14,318.13l.56,1.94c-10.11,2.03-20.55-.32-30.81-.28-1.62.91.96,3.34,1.94,6.11-1.38-.28-2.2,2.94-3.33,5.55-2.05,2.28-2.33-2.11-4.44-6.66-.47-1.01-.77-3.98-1.94-4.44-1.05-.41-18.59.16-22.49,0-.31-.47-.3-.36-.56-.56-1.96-1.48-6.28,1.51-3.05-4.44,19.69,2.37,44.47,3.81,64.13,2.78Z"/>
            <path class="cls-9" d="M169.05,324.79c2.11,4.55,2.39,8.94,4.44,6.66-3.43,7.9-5.13,15.86-7.22,20.82-.21.5-1.08.2-1.11.28-3.82,4.9,3.36-12.69,1.67-19.15-.36-1.37-5.59-5.61-7.22-6.94.36-3.63,6.35-.29,9.44-1.67Z"/>
            <path class="cls-36" d="M144.07,323.68c-.15,2.76-.54,3.16-.56,3.33l-5-.56c-.17-2.79-.25-.88-.56-1.67-2.05-5.21-4.14-3.31-9.99-6.11v-.56c2.59-4.06-2.09-6.01,9.16-3.89,4.9,6.86-4.46,9.99,6.94,9.44Z"/>
            <path class="cls-20" d="M144.62,320.35c.08.12.52,2.43.56,2.78,0,.06-.62-.31-.56,1.11.74,15.18-2.27,30.12-5,44.97-.86,4.66-1.77,9.25-2.78,13.88-.73-3.92,1.09-8.77,1.67-12.77,1.87-12.93,3.8-30.2,5-43.31.02-.17.41-.57.56-3.33.07-1.29-.05-2.6,0-3.89.26.19.24.09.56.56Z"/>
            <path class="cls-7" d="M144.07,375.31c-.07.24-1.23-1.46-.56,4.16-4.99,5.76-10.89,24.93-9.99,17.49.39-3.28,2.41-9.62,3.33-13.88,1.01-4.63,1.92-9.22,2.78-13.88,1.97-.04,5.53-10.74,6.66-14.44,3.91-.24-.29,14.22-2.22,20.54Z"/>
            <path class="cls-27" d="M143.51,327.01c-1.2,13.1-3.12,30.38-5,43.31-3.01-4.61.76-19.18-3.33-16.1,1.03-6.37,3.63-22.84,3.33-27.76l5,.56Z"/>
            <path class="cls-20" d="M138.51,326.46c.3,4.92-2.31,21.39-3.33,27.76-.26,1.62-2.46,16.78-3.33,14.71q3.05-21.79,6.11-43.58v-.56c.31.79.39-1.13.56,1.67Z"/>
            <path class="cls-23" d="M153.51,329.79c4.06,14.73.68,22.11-2.78,35.53-1.25,3-2.38,5.99-3.89,8.88-1.02,1.06-.97,2.11-2.78,1.11,1.93-6.32,6.13-20.79,2.22-20.54,2.57-8.35,4.15-16.94,5.55-25.54.56.18,1.36.5,1.67.56Z"/>
            <path class="cls-36" d="M169.05,324.79c-3.09,1.37-9.08-1.97-9.44,1.67,1.75,12.72-4.11,38.7-12.77,47.75,1.51-2.9,2.63-5.88,3.89-8.88,4.35-10.43,8.99-24.74,7.77-36.09-.73-6.8-1.68-1.54-13.33-6.11-.03-.35-.48-2.66-.56-2.78,3.89.16,21.44-.41,22.49,0,1.17.46,1.47,3.43,1.94,4.44Z"/>
            <path class="cls-27" d="M151.84,329.23c-1.4,8.6-2.98,17.19-5.55,25.54-1.14,3.7-4.69,14.39-6.66,14.44,2.73-14.85,5.73-29.79,5-44.97,1.53,1.74,4.83,4.22,7.22,5Z"/>
            <path class="cls-9" d="M158.5,329.23c-.81.64-4.75.6-5,.56-.3-.06-1.11-.38-1.67-.56-2.39-.77-5.69-3.25-7.22-5-.07-1.42.56-1.05.56-1.11,11.64,4.56,12.59-.7,13.33,6.11Z"/>
            <path class="cls-27" d="M158.5,329.23c1.22,11.35-3.42,25.66-7.77,36.09,3.46-13.42,6.84-20.8,2.78-35.53.25.05,4.19.09,5-.56Z"/>
          </g>
        </g>
        <g>
          <path class="cls-2" d="M284.45,288.33c-7.39,5.75-12.94,8.33-21.65,11.66-.05-.28-.6-1.01-1.11-3.89,8.22-4.44,16.56-9.47,23.6-15.55,3.47.74-2.46,4.66-.83,7.77Z"/>
          <path class="cls-25" d="M35.16,195.06c-2.31,9.39-2.21,11.61-1.67,21.1.12,2.08-.56,1.58-.56,1.67-1.73-1.75-4.31-6.53-5.55-7.77.64-4.73,2.4-9.71,2.78-14.44,3.8,7.21,1.69-2.7,5-.56Z"/>
          <path class="cls-37" d="M318.87,257.24c-2.8,3.77-6.57,12.29-6.38,5-1.17,2.83-3.29,4.98-5.27,7.22-2.35,2.05-2.89.94-1.67-1.67.07-.14.82-.25,2.22-2.22,10.18-14.3,15.68-24.47,11.1-8.33Z"/>
          <g>
            <path class="cls-24" d="M344.41,220.04c-7.4,7.54-12.28,17.53-21.65,23.04,1.9,4.35,5.6-2.43,8.88-3.61-1.61,1.67-5.31,6.56-7.5,6.66-5.56-4.51,1.52,3.23-5.27,11.1,4.57-16.14-.92-5.98-11.1,8.33-2.44-3.48-7.04,1.65-2.22,2.22-1.22,2.6-.68,3.72,1.67,1.67-3.99,4.49-8.15,7.92-12.77,11.66.47-6.07,16.63-12.43,5-11.66,6.88-6.88.64-1.44-3.33-2.78,1.93-1.4,12.81-11.69,13.33-13.05.8-2.11-.46-3.43,0-5,.87-2.97,5.85-3.28,1.11-6.66,2.33-1.3,4.65-.1,5.55-.28,4.65-.9,8.82-12.13,10.55-16.66,1.73-2.92-.8-9.44,1.67-9.99-.01.79-2.09,4.35,1.11,3.89-1.52,4.72-2.75,9.67-4.16,14.44,8.96-7.78,17.32-16.13,23.04-26.65,1.59,4.72-1.96,9.08-3.89,13.33Z"/>
            <path class="cls-12" d="M348.3,206.72c-5.72,10.52-14.09,18.87-23.04,26.65,1.42-4.77,2.64-9.71,4.16-14.44,1.62-5.04,3.33-5.39,3.89-8.33,6.14-3.71,12.58-11.04,14.99-3.89Z"/>
            <path class="cls-37" d="M344.41,220.04c-3.63,7.99-6.64,13.07-12.77,19.43-3.28,1.18-6.99,7.96-8.88,3.61,9.37-5.51,14.25-15.5,21.65-23.04Z"/>
          </g>
          <path class="cls-37" d="M79.57,290c-3.16-2.1-11.23-5.45-15.55-12.21.6-.21.54-1.19,2.22-1.67.35.17.78-.59.83-.56.83.55,14.43,13.61,12.49,14.44Z"/>
          <path class="cls-24" d="M294.44,281.11l-1.67-.56c-.06-.24-.51-1.07-.56-1.11.18-6.91,4.18-6.96,7.22-9.99,11.63-.77-4.52,5.59-5,11.66Z"/>
          <path class="cls-25" d="M333.31,210.05c-.02.18.03.38,0,.56-.56,2.93-2.27,3.29-3.89,8.33-3.2.46-1.12-3.09-1.11-3.89.06-4.02-.12-7.65-.56-11.66,2.66-.43,1.89,1.74,3.05,3.33.17.23.53-1.35,2.5,3.33Z"/>
          <path class="cls-2" d="M98.45,296.66l-3.89,2.22c-4.63-2.27-5.86-2.8-10.55-5.55l2.78-2.22c2.88,2.11,8.2,4.44,11.66,5.55Z"/>
          <path class="cls-17" d="M304.99,157.3c9.75,11.67,15.49,20.28,19.99,34.98q-6.11-5.69-12.21-11.38c18.67,38.6-14.29,79.65-48.03,96.33-47.87,23.67-105.27,23.86-154.9,5.55-18.47-6.81-29.9-13.3-43.58-27.21l1.11-.28c-11.92-15.46-17.17-34.91-20.54-53.86-.08-.47.32-3.52-.56-9.44-.18-1.23-2.01-5.07-2.22-6.66-.3-2.29,2.21-7.24-1.11-8.05,5.98-11.09,10.57-17.64,19.43-26.65,5.3,1.58-1.31,7.63-2.22,10.83-2.76,9.66-4.23,27.66-3.33,37.75,1.31,14.7,6.96,36.5,16.1,48.3,6.95,8.97,31.58,25.69,41.92,30.26,20.49,9.06,55.04,13.84,77.17,12.21,16.67-1.22,32.22-7.24,46.08-14.44,3.64,1.63,6.81-2.69,7.22-2.78.53-.11,4.46,1.9,10.55,0,2.4-.75,23.47-13.84,26.1-16.1,12.47-10.74,19.84-30.02,23.04-45.81,2.38-11.76,2.1-20.41,2.22-32.2,0-.16,1.67-2.61,1.67-2.78-.05-4.53-16.51-18.17-3.89-18.6Z"/>
          <path class="cls-6" d="M66.25,255.57c-11.27-11.46-17.87-19.36-22.76-35.26q.42-.69.83-1.39c9.29-1.69-.76-.34-1.39-.83-1.58-1.24-2.84-14.67-2.78-17.21.18-7.31,5.56-9.21-2.78-11.94,1.64-4.57,3.29-7.46,5.55-11.66,3.32.81.81,5.76,1.11,8.05.21,1.59,2.04,5.44,2.22,6.66.88,5.92.47,8.97.56,9.44,3.37,18.95,8.63,38.4,20.54,53.86l-1.11.28Z"/>
          <path class="cls-37" d="M299.44,269.45c-3.03,3.04-7.04,3.09-7.22,9.99-12.37-9.91-3.61-7.34,3.89-12.77,3.97,1.34,10.21-4.11,3.33,2.78Z"/>
          <path class="cls-24" d="M132.88,303.32c7.26,6.06-7.46,2.62-14.44.56-2.47-8.71,1.92-2.76,6.38-1.67,2.39.58,5.36.27,8.05,1.11Z"/>
          <path class="cls-37" d="M326.65,225.04c-1.73,4.53-5.9,15.76-10.55,16.66.32-4.18,8.21-20.83,10.55-16.66Z"/>
          <g>
            <path class="cls-24" d="M39.6,245.03c-.82,2.16-.22,1.52,0,2.78.35,2,4.33,7.53,6.11,10.55-.56.75-.86,2.79-1.94,2.78-4.73-5.46-10.46-11.03-9.16-18.88.12-.12.72-2.78,1.94-2.78.95,1.82,1.26,5.81,3.05,5.55Z"/>
            <path class="cls-2" d="M39.6,230.59c.86,2.75,3.29,7.62,3.33,8.05.27,3.07-2.34,3.79-3.33,6.38-1.8.26-2.11-3.73-3.05-5.55-1.23,0-1.82,2.66-1.94,2.78-1.58,1.57-2.61,3-2.78,1.67-.33-4.5,3.29-6,3.89-9.99.08-.53.62-.57.56-1.67l3.33-1.67Z"/>
            <g>
              <path class="cls-12" d="M27.38,210.05c1.24,1.24,3.82,6.02,5.55,7.77.36,4.27,3.24,12.82,3.33,14.44.06,1.1-.48,1.13-.56,1.67-4.88-5.07-10.12-9.92-14.99-14.99-2.91-3.03-5.59-6.26-8.33-9.44.67-10.46,10.92-3.54,14.99.56Z"/>
              <path class="cls-37" d="M20.72,218.93c4.87,5.07,10.11,9.92,14.99,14.99-.6,4-4.22,5.5-3.89,9.99-3.96-1.89-5.98-6.02-8.33-9.44,8.57,6.18-9.34-17.48-2.78-15.55Z"/>
              <path class="cls-37" d="M20.72,218.93c-6.57-1.93,11.35,21.72,2.78,15.55-7.69-11.21-4.78-9.81-6.11-13.05-1.9-4.63-5.35-6.37-5-11.94,2.74,3.18,5.42,6.41,8.33,9.44Z"/>
            </g>
            <path class="cls-24" d="M39.6,230.59l-3.33,1.67c-.09-1.62-2.97-10.17-3.33-14.44,0-.09.68.42.56-1.67l.83-1.11c1.61,5.15,3.64,10.33,5.27,15.55Z"/>
          </g>
          <g>
            <path class="cls-37" d="M324.98,192.28c1.4,4.58,2.21,5.86,2.78,11.1.43,4.01.61,7.64.56,11.66-2.46.56.06,7.07-1.67,9.99-2.33-4.17-10.22,12.48-10.55,16.66-.9.17-3.22-1.02-5.55.28,4.74,3.38-.24,3.69-1.11,6.66-.46,1.56.8,2.89,0,5-.51,1.36-11.4,11.65-13.33,13.05-7.49,5.43-16.26,2.86-3.89,12.77.05.04.5.87.56,1.11-2.35,3.01-5.34,5.45-8.33,7.77-1.62-3.11,4.31-7.03.83-7.77-7.04,6.08-15.38,11.11-23.6,15.55-.77-4.37.03-8.08-1.94-7.22-.39,1.51-3.27,9.33-3.61,9.72-2.52,2.86-29.88,10.99-33.59,10.27-2.71-.52-8.91-11.28-4.44.56-4.14,2.2-17.29-10.08-7.22,1.11-7.36.77-11.03-1.02-16.66-5.55l-.83.83c8.06,7.73-5.69,7.72-10.27,6.38-2.58-.75-12.49-16.33-5.27-.28-13.12,4.31-27.1-22.14-16.66-1.67-17,3.14-25.24-6.79-26.93-7.5-1.26-.53-1.32.58-1.39.56-2.69-.84-5.66-.53-8.05-1.11-4.46-1.09-8.86-7.04-6.38,1.67-1.73-.51-11.42-3.86-11.94-4.44-.64-.72.63-4.78-2.78-3.33-2.78,1.18,2.11,2.93-5.27.56-3.45-1.11-8.77-3.44-11.66-5.55-6.69-4.89-.69-4.62-.56-5.27.19-.94-13.42-4.2-16.1-9.99-1.34-2.9,1.43-3.11-.28-4.16-.75-.46-3.65-.25-5-.56-.5-.11-6.01-5.52-1.94,4.44.4.98.52,1.3,1.11,2.22-2.38.84-16.46-13.45-17.21-14.71-.87-1.46-.45-3.61-1.11-4.72,2.03-2.73,3.22-2.98,0-5.83,16.39-1.32,2.75-1.12-3.33-4.44,3.23-8.21.95-2.88-.56-1.11-.72.85-1.08.98-2.22.83-.22-1.26-.82-.62,0-2.78.99-2.6,3.61-3.31,3.33-6.38-.04-.43-2.47-5.3-3.33-8.05-1.63-5.21-3.67-10.4-5.27-15.55l-.83,1.11c-.55-9.49-.65-11.71,1.67-21.1,1.23-5.01,2.11-5.8,2.22-6.11,8.33,2.73,2.95,4.63,2.78,11.94-.06,2.54,1.19,15.97,2.78,17.21.63.49,10.68-.86,1.39.83q-.42.69-.83,1.39c4.9,15.89,11.49,23.8,22.76,35.26,13.68,13.91,25.12,20.39,43.58,27.21,49.64,18.31,107.03,18.12,154.9-5.55,33.74-16.68,66.69-57.73,48.03-96.33q6.11,5.69,12.21,11.38Z"/>
            <path class="cls-2" d="M86.79,291.11l-2.78,2.22c-1.63-.96-2.91-2.31-4.44-3.33,1.94-.82-11.66-13.89-12.49-14.44-.05-.03-.48.72-.83.56-.19-.09.58-2.26-3.33-.56-4.07-9.96,1.44-4.56,1.94-4.44,1.35.31,4.24.09,5,.56,1.71,1.05-1.07,1.27.28,4.16,2.69,5.79,16.29,9.05,16.1,9.99-.13.66-6.13.39.56,5.27Z"/>
            <path class="cls-24" d="M45.71,258.35c-1.78-3.01-5.75-8.55-6.11-10.55,1.14.14,1.5.01,2.22-.83,1.51-1.77,3.79-7.1.56,1.11,6.08,3.33,19.72,3.12,3.33,4.44,3.22,2.85,2.03,3.1,0,5.83Z"/>
            <path class="cls-24" d="M50.98,259.46c3.55.84,7.9,5.49,2.78,7.77-1.84.02-5.04-6.03-2.78-7.77Z"/>
          </g>
          <path class="cls-25" d="M66.25,276.12c-1.68.48-1.62,1.46-2.22,1.67-.59-.92-.71-1.24-1.11-2.22,3.91-1.71,3.14.46,3.33.56Z"/>
          <path class="cls-35" d="M91.79,128.43c-13.61,15.14-13.62,28.77-14.44,30.26-1.15,2.11-15.33,2.13-4.44,11.38-11.13,7.2-9.34,22.57-11.66,33.59l2.22-.28c-.69,4.54-.11,5.46,0,9.44.67,24.96,12.23,39.24,35.53,47.19,24.17,19.18,62.18,23.18,91.89,22.21,26.69-.87,53.35-5.68,73.57-24.43,8.86,1.94,25.09-16.29,28.87-23.04,4.86-8.66,7.01-21.01,6.66-30.81-.5-14.02-5.31-17.15-5-18.04.35-1.01,17.82-2.44-1.11-6.66,14.41-10.68-2.67-8.61-3.33-9.44q2.5-2.78,5-5.55c-5.27-6.29-8.71-13.84-13.33-20.54-3.39-4.92-11.31-12.17-9.99-15.27,12.51,8.21,23.16,17.37,32.76,28.87-12.63.42,3.84,14.07,3.89,18.6,0,.16-1.66,2.61-1.67,2.78-.12,11.79.16,20.44-2.22,32.2-3.2,15.79-10.57,35.06-23.04,45.81-2.63,2.26-23.7,15.35-26.1,16.1-6.09,1.9-10.02-.11-10.55,0-.41.09-3.58,4.4-7.22,2.78-13.86,7.19-29.42,13.21-46.08,14.44-22.14,1.62-56.68-3.16-77.17-12.21-10.34-4.57-34.97-21.29-41.92-30.26-9.15-11.8-14.79-33.61-16.1-48.3-.9-10.1.57-28.09,3.33-37.75.91-3.19,7.52-9.24,2.22-10.83,10.64-10.82,16.98-14.41,29.43-22.21Z"/>
          <path class="cls-10" d="M136.76,107.89c4.88,3.08,10.93,4.34,14.99,8.61-17.98,6.61-38.49,15.51-51.08,30.54-16.48,19.68.4,16.07,1.67,17.77.54.73-2.19,7.96.56,10.27-10.34,1.78-26.84,9.18-33.87,17.21,3.03-3.17,1.95-6.92,2.78-10.83.96-4.53,4.4-12.46,1.11-11.38-10.88-9.25,3.29-9.27,4.44-11.38.81-1.49.83-15.12,14.44-30.26,17.9-11.21,23.95-14.75,44.97-20.54Z"/>
          <path class="cls-10" d="M230.04,109c.67.44,1.23,1.34,1.67,0,8.73.92,32.3,14.03,40.53,19.43-1.32,3.09,6.61,10.35,9.99,15.27,4.61,6.71,8.05,14.26,13.33,20.54q-2.5,2.78-5,5.55c.66.83,17.74-1.25,3.33,9.44,18.93,4.23,1.46,5.66,1.11,6.66-.31.9,4.5,4.03,5,18.04-.39.24-1.09,3.16-1.11,3.33.56-15.3-23.54-28.6-36.09-31.65-3.3-14.91,3.85-8.1,12.21-16.38,1.92-4.37-9.71-16.73-13.05-19.71-19.87-17.7-48.02-20.93-48.58-23.6-.35-1.65,11.52-6.96,16.66-6.94Z"/>
          <path class="cls-24" d="M307.77,265.57c-1.4,1.97-2.15,2.08-2.22,2.22-4.82-.57-.22-5.7,2.22-2.22Z"/>
          <path class="cls-15" d="M89.57,248.36c-1.81,1.4,6.55,9.37,9.44,11.66-23.31-7.96-34.87-22.23-35.53-47.19,21.69-23.26-2.28-1.24,15.55,24.15.88,1.25,9.79,10.84,10.55,11.38Z"/>
          <path class="cls-15" d="M298.88,207.27c.02-.17.72-3.09,1.11-3.33.35,9.81-1.81,22.15-6.66,30.81-3.78,6.75-20.01,24.98-28.87,23.04,4.05-3.75,7.66-8.45,11.1-12.77,9.36-11.73,14.94-17.96,13.88-34.7-3.52-10.58-1.16-6.96,9.16,1.94.6-.47.17-3.94.28-5Z"/>
          <path class="cls-15" d="M69.03,192.28c-3.19,3.64-4.82,6.32-5.55,11.1l-2.22.28c2.32-11.02.53-26.39,11.66-33.59,3.29-1.08-.15,6.85-1.11,11.38-.82,3.9.25,7.66-2.78,10.83Z"/>
          <g>
            <path class="cls-18" d="M230.04,109c-5.14-.02-17,5.29-16.66,6.94.56,2.66,28.72,5.9,48.58,23.6,3.34,2.98,14.97,15.34,13.05,19.71-8.37,8.28-15.51,1.47-12.21,16.38-40.24-9.78-61.17,27.07-50.52,53.58,9.67,24.07,43.55,32.86,63.29,15.82-3.45,4.32-7.06,9.02-11.1,12.77-20.21,18.75-46.87,23.56-73.57,24.43-29.71.97-67.72-3.03-91.89-22.21-2.89-2.29-11.25-10.26-9.44-11.66,24.71,17.66,75.48-4.77,60.52-48.03-7.19-20.79-26.56-28.82-47.19-25.26-2.75-2.32-.01-9.54-.56-10.27-1.27-1.7-18.15,1.91-1.67-17.77,12.59-15.03,33.1-23.92,51.08-30.54-4.06-4.26-10.11-5.52-14.99-8.61,18.06-4.97,33.59-7.34,52.47-6.66,8.68.31,34.15,3.46,40.81,7.77Z"/>
            <path class="cls-18" d="M231.7,109c-.44,1.34-.99.44-1.67,0,.55,0,1.12-.06,1.67,0Z"/>
            <g>
              <path class="cls-26" d="M164.24,240.03c1.92-.77,5.78,11.83,23.32,7.77,7.32-1.69,10.74-9.34,11.94-6.94-.82,10.86-3.96,34.71-19.15,33.59-13.67-1.01-18.01-33.66-16.1-34.42Z"/>
              <path class="cls-23" d="M192.01,262.24c3.02.62-4.7,14.87-15.55,9.44-2.02-1.01-8.09-9.08-4.44-8.33,11.42,10.9,18.86-1.34,19.99-1.11Z"/>
            </g>
          </g>
          <g>
            <g>
              <path class="cls-26" d="M89.1,219.61c-.76-.03-9.67-.48-10.55-.54-17.83-1.21,6.14-2.26-15.55-1.15-.11-.19-.69-.23,0-.45.73-.23,2.37-.36,5.55-.53,7.03-.38,23.53-.73,33.87-.82,20.63-.17,40,.21,47.19,1.2,14.96,2.06-35.81,3.13-60.52,2.29Z"/>
              <g>
                <path class="cls-4" d="M101.87,216.94c2.02,0,0,.04,1.11.05-1.39.14-2.05.22-2.78.37-1.33.27-1.62.24,0,.53,3.48.63,19.05,1.14,32.2,1.19,3.58.07.32.11-1.67.16-.06-.11-8.25-.02-15.27-.03-2.31,0-8.8-.1-10.27,0-3.3-.1-6.91-.11-11.66-.48-5.5-.42-6.89-1.06-2.22-1.51,3.71-.08,7.16-.19,10.55-.29Z"/>
                <path class="cls-11" d="M100.2,217.89c-1.62-.29-1.33-.25,0-.53,10.62.08,24.29.38,29.98.83-10.05.14-23.52.15-29.98-.3Z"/>
                <path class="cls-11" d="M102.98,216.99c-1.12,0,.91-.06-1.11-.05,13.07-.4,23.73-.85,33.87.07-.46.44-18.93.09-32.76-.01Z"/>
                <path class="cls-22" d="M92.43,217.1c-.21.04-.71.09-1.11.13-4.67.45-3.28,1.09,2.22,1.51l-3.05-.13c-1.25.19-3.59.03-2.5.21-8.65-.53-8.34-1.27-3.33-1.53,1.07-.06,7.44-.17,7.77-.19Z"/>
                <path class="cls-31" d="M84.66,217.28c-5.01.27-5.32,1,3.33,1.53,3.72.23,7.03.34,12.77.45l-1.67.13c-17.51-.33-26.17-1.35-16.66-2.14l2.22.03Z"/>
                <path class="cls-29" d="M92.43,217.1c-.33.01-6.7.13-7.77.19l-2.22-.03c4.72-.39,15.16-.64,23.87-.75-5.85.13-9.12.41-13.88.59Z"/>
                <path class="cls-12" d="M109.64,219.53c-.18-.05.7-.06.56-.11,6.25.05,15.04-.04,20.54-.19,1.98-.05,5.24-.09,1.67-.16,3.43.01,6.57-.03,6.66-.01-7.27.33-19.67.5-29.43.46Z"/>
                <path class="cls-29" d="M109.09,219.34c.05,0,.99.04,1.11.08.14.05-.74.06-.56.11-2.61,0-7.99-.08-10.55-.13l1.67-.13c1.08.02,7.34.11,8.33.08Z"/>
                <path class="cls-30" d="M130.74,219.24c-5.51.15-14.29.24-20.54.19-.12-.04-1.06-.08-1.11-.08-1.78-.13-1.91-.07-3.89-.13,1.47-.1,7.96,0,10.27,0,7.01,0,15.21-.09,15.27.03Z"/>
                <path class="cls-28" d="M93.54,218.73c4.75.36,8.36.37,11.66.48,1.97.06,2.11,0,3.89.13-.98.03-7.25-.06-8.33-.08-5.74-.11-9.05-.22-12.77-.45-1.09-.18,1.25-.02,2.5-.21l3.05.13Z"/>
              </g>
            </g>
            <g>
              <path class="cls-26" d="M262.33,216.14c12.55.15,36.65.78,36.09,1.51-.11.05.33.22-.28.24-10.32-.42-12.68-.6-9.16-.09,1.06.8-4.52,1.09-13.88,1.65-19.74.81-53.63.39-63.29-.75-10.65-1.26,10.29-3.02,50.52-2.55Z"/>
              <g>
                <path class="cls-4" d="M268.99,217.15c3.86.33,4.05.8,2.22,1.16-1.23.24-4.19.51-8.88.63-19.96.54-50.82-.13-29.15.42,4.15.05,7.53.1,11.94.08l2.78.08c-9.7.01-19.26-.14-26.65-.44,14.56.09,35.94-.57,41.09-1.2.08,0,1.84-.08,1.67-.2-.04-.03-3.15-.46-4.44-.44,1.03-.1.26-.1,0-.19-.28-.09-2.69-.11-.56-.16,3.4.09,6.31.2,9.99.24Z"/>
                <path class="cls-11" d="M262.33,217.89c-7.65.38-20.45.49-30.54.29,3.44-.04,11.77-.32,13.33-.5,3.71-.04,12.74-.26,14.44-.42,1.29-.02,4.41.41,4.44.44.17.12-1.58.19-1.67.2Z"/>
                <path class="cls-11" d="M259,216.91c-2.13.04.27.07.56.16-4.19-.3-23.15.41-33.87.01,5.68-.84,21.63-.49,33.31-.17Z"/>
                <path class="cls-21" d="M280.65,217.65c3.23.69-13.9,1.68-29.43,1.69.47-.01,2.68-.09,3.89-.13,8.81.08,23.42-.68,19.71-.82-2.17-.04-2.46.06-3.61-.08,1.83-.36,1.64-.83-2.22-1.16-.35-.03-.86-.05-1.11-.08,3.64.12,10.77.16,12.77.58Z"/>
                <path class="cls-5" d="M245.12,217.68c-1.56.18-9.88.46-13.33.5-13.77.16-15.08-.62-11.94-.66,6.64.19,17.88.23,25.26.16Z"/>
                <path class="cls-31" d="M281.76,217.68c3.77,1-13.52,1.82-33.87,1.85l-2.78-.08c3.01-.01,3.71-.05,6.11-.11,15.52-.01,32.66-1.01,29.43-1.69l1.11.03Z"/>
                <path class="cls-29" d="M281.76,217.68l-1.11-.03c-2-.43-9.13-.46-12.77-.58-1.25-.04-1.33,0-1.39,0-.19,0-1.4-.15-2.5-.2-8.19-.34-15.07-.59-.28-.22,8.52.21,16.28.56,18.04,1.03Z"/>
                <path class="cls-30" d="M262.33,218.95c-1.95.11-4.73.18-7.22.26-1.21.04-3.42.12-3.89.13-2.4.06-3.09.09-6.11.11-4.4.02-7.78-.03-11.94-.08-21.67-.55,9.19.12,29.15-.42Z"/>
                <path class="cls-28" d="M255.11,219.21c2.49-.08,5.27-.15,7.22-.26,4.69-.13,7.65-.39,8.88-.63,1.15.14,1.43.04,3.61.08,3.71.14-10.9.9-19.71.82Z"/>
              </g>
            </g>
          </g>
        </g>
      </g>
    </g>
  </g>
</svg>