<?xml version="1.0" encoding="UTF-8"?>
<svg id="Layer_2" data-name="Layer 2" xmlns="http://www.w3.org/2000/svg" viewBox="0 0 104.17 168.75">
  <defs>
    <style>
      .cls-1 {
        fill: #231f20;
        stroke-width: 0px;
      }
    </style>
  </defs>
  <g id="gros_Z">
    <path class="cls-1" d="M68.4,125.25c15.75,0,22.35-1.05,25.5-5.25,1.35-1.8,2.1-5.1,2.55-7.2.3-1.5.45-2.4.75-2.4.45,0,.75.6.45,3.45-.45,4.65-2.1,10.5-3.3,15.45-.6,2.4-.75,2.7-3.15,2.7-26.1,0-51.3-.75-77.55-.75-2.25,0-2.7-.45-2.7-1.2,0-.45.3-1.5,1.5-3.3C35.4,92.1,58.05,58.35,78.9,24.45h-32.55c-7.65,0-22.05,0-26.4,3.3-2.85,2.25-3.75,5.1-4.65,8.55-.45,1.65-.3,2.7-.75,2.7-.3,0-.45-.45-.45-1.95,0-2.4,2.1-12.45,2.55-16.95.15-2.1.15-2.55.9-2.55s.6.45,6.9.75c14.25.75,21.45.45,26.1.45h41.85c2.25,0,2.85.45,3,.75.15.3.15,1.05-.6,2.25-21.6,34.5-44.4,69-67.2,103.5h40.8ZM82.2,32.7c4.05-6.3,6.6-10.35,6.9-10.5,1.95-.9,3.9-1.8,3.9-1.95s-3.6.6-4.95.6H22.2c-3.3-1.8-4.2-2.4-4.35-2.4s.9,1.2,3,3.3c-.9.6-2.85,2.25-3.75,4.8-.75,1.95-.9,3.3-.75,3.3s.45-1.2,1.2-2.7c1.35-2.7,3.3-4.05,5.1-4.5,1.35-.3,5.1-.3,8.1-.3h47.7c3.3,0,6.3,0,7.95.15-.9,1.2-2.85,4.2-6.6,10.05L24.45,117.45c-3.15,4.8-5.55,9-6.9,9.9-1.65,1.05-3.3,1.95-3.3,2.1s2.7-.45,4.2-.6c.6,0,3,.15,10.2.15,37.2,0,55.8.75,61.05,0,1.35,1.05,3,1.95,3,1.8s-1.2-1.35-1.95-2.7c1.5-1.35,2.7-2.85,3.45-4.5.6-1.35.9-2.85.75-2.85s-.45.9-1.35,2.55c-1.05,1.8-3.15,3.9-4.65,4.05-5.4.6-23.1.15-60.15.15-3.3,0-7.05,0-8.7-.15.75-.75,3.3-4.5,6.45-9.3l55.65-85.35Z"/>
  </g>
</svg>