<?xml version="1.0" encoding="UTF-8"?>
<svg id="Layer_2" data-name="Layer 2" xmlns="http://www.w3.org/2000/svg" viewBox="0 0 71.11 112.5">
  <defs>
    <style>
      .cls-1 {
        fill: #231f20;
        stroke-width: 0px;
      }
    </style>
  </defs>
  <g id="moyen_Z">
    <path class="cls-1" d="M45.6,83.5c10.5,0,14.9-.7,17-3.5.9-1.2,1.4-3.4,1.7-4.8.2-1,.3-1.6.5-1.6.3,0,.5.4.3,2.3-.3,3.1-1.4,7-2.2,10.3-.4,1.6-.5,1.8-2.1,1.8-17.4,0-34.2-.5-51.7-.5-1.5,0-1.8-.3-1.8-.8,0-.3.2-1,1-2.2,15.3-23.1,30.4-45.6,44.3-68.2h-21.7c-5.1,0-14.7,0-17.6,2.2-1.9,1.5-2.5,3.4-3.1,5.7-.3,1.1-.2,1.8-.5,1.8-.2,0-.3-.3-.3-1.3,0-1.6,1.4-8.3,1.7-11.3.1-1.4.1-1.7.6-1.7s.4.3,4.6.5c9.5.5,14.3.3,17.4.3h27.9c1.5,0,1.9.3,2,.5.1.2.1.7-.4,1.5-14.4,23-29.6,46-44.8,69h27.2ZM54.8,21.8c2.7-4.2,4.4-6.9,4.6-7,1.3-.6,2.6-1.2,2.6-1.3s-2.4.4-3.3.4H14.8c-2.2-1.2-2.8-1.6-2.9-1.6s.6.8,2,2.2c-.6.4-1.9,1.5-2.5,3.2-.5,1.3-.6,2.2-.5,2.2s.3-.8.8-1.8c.9-1.8,2.2-2.7,3.4-3,.9-.2,3.4-.2,5.4-.2h31.8c2.2,0,4.2,0,5.3.1-.6.8-1.9,2.8-4.4,6.7l-36.9,56.6c-2.1,3.2-3.7,6-4.6,6.6-1.1.7-2.2,1.3-2.2,1.4s1.8-.3,2.8-.4c.4,0,2,.1,6.8.1,24.8,0,37.2.5,40.7,0,.9.7,2,1.3,2,1.2s-.8-.9-1.3-1.8c1-.9,1.8-1.9,2.3-3,.4-.9.6-1.9.5-1.9s-.3.6-.9,1.7c-.7,1.2-2.1,2.6-3.1,2.7-3.6.4-15.4.1-40.1.1-2.2,0-4.7,0-5.8-.1.5-.5,2.2-3,4.3-6.2L54.8,21.8Z"/>
  </g>
</svg>