<?xml version="1.0" encoding="UTF-8"?>
<svg xmlns="http://www.w3.org/2000/svg" xmlns:xlink="http://www.w3.org/1999/xlink" viewBox="0 0 3348.77 1077">
  <defs>
    <style>
      .cls-1 {
        fill: #000;
      }

      .cls-1, .cls-2, .cls-3, .cls-4, .cls-5, .cls-6, .cls-7, .cls-8, .cls-9, .cls-10, .cls-11, .cls-12, .cls-13 {
        stroke-width: 0px;
      }

      .cls-2 {
        fill: #231f20;
      }

      .cls-3 {
        fill: url(#Super_Soft_Black_Vignette);
        mix-blend-mode: darken;
      }

      .cls-4 {
        fill: #28272b;
      }

      .cls-5 {
        fill: #2e2c2c;
      }

      .cls-6 {
        fill: #808285;
      }

      .cls-14 {
        isolation: isolate;
      }

      .cls-7 {
        fill: #9fa6a8;
      }

      .cls-8 {
        fill: #100d0f;
      }

      .cls-9 {
        fill: #08080a;
      }

      .cls-10 {
        fill: #e6e7e8;
      }

      .cls-11 {
        fill: #f1f2f2;
      }

      .cls-12 {
        fill: #0b0a0c;
      }

      .cls-13 {
        fill: #0d0b0d;
      }
    </style>
    <radialGradient id="Super_Soft_Black_Vignette" data-name="Super Soft Black Vignette" cx="1674.38" cy="538.5" fx="1674.38" fy="538.5" r="612" gradientTransform="translate(-957.52 64.67) scale(1.57 .88)" gradientUnits="userSpaceOnUse">
      <stop offset=".57" stop-color="#130c0e" stop-opacity="0"/>
      <stop offset=".8" stop-color="#130c0e" stop-opacity=".65"/>
      <stop offset=".82" stop-color="rgba(19, 12, 14, .7)" stop-opacity=".7"/>
      <stop offset="1" stop-color="#130c0e" stop-opacity=".95"/>
    </radialGradient>
  </defs>
  <g class="cls-14">
    <g id="Layer_2" data-name="Layer 2">
      <g id="fond">
        <rect class="cls-3" x="712.38" width="1924" height="1077"/>
        <g id="plateforme">
          <g>
            <g>
              <path class="cls-12" d="M2064.71,471.2c-4.84,1.63-1.34-4.75-3.4-6.79-13.09-12.98-61.96-4.44-66.24-5.1-.86-.13-8.29-2.17-6.79-5.1,6.99-2.35,8.75,1.73,18.68-6.79,11.75-10.08,13.45-30.75,19.53-28.87,29.8,61.48,51.04,12.53,38.22,52.65Z"/>
              <path class="cls-11" d="M2061.31,464.41c-3.9,8.92-14.48,21.9-15.29,23.78-9.85.7-35.4,3.61-42.46,1.7-7.13-1.94-20.36-33.26-8.49-30.57,4.28.66,53.15-7.88,66.24,5.1Z"/>
              <path class="cls-13" d="M2046.03,488.19c-13.97,32.46-28.24,112.62-42.46,1.7,7.06,1.92,32.61-1,42.46-1.7Z"/>
            </g>
            <g>
              <path class="cls-9" d="M1366.62,428.74c3.23,4.29,6.49,25.32,33.97,24.63,2.7,3.58-18.5,62.08-22.08,70.49-6.6,15.5-3.73,19.04-18.68,30.57-1.03.8-1.61-2.36-3.4-.85-.92.78,3.3,7.74-6.79,5.94-2.05-15.92-35.11-75.13-37.37-101.91,2.46-1.58,7.59,3.8,8.49,5.1,4.26,6.12,7.37,19.77,13.59,23.78,18.14,73.65,26.97,77.97,47.56.85q-1.7-.42-3.4-.85c16.69-19.54,16.83-26.49-10.19-28.87q4.25-2.97,8.49-5.94c-25.14-8.52-17.49-26.87-25.48-28.03,4.95-8.37-.37-15.69,15.29,5.1Z"/>
              <path class="cls-13" d="M1368.32,457.62c-12.79-1.13-34.41,2.13-47.56,5.1-.9-1.3-6.04-6.68-8.49-5.1-.91-10.76,7.76-1.02,22.93-10.19,7.33-4.43,11.97-16.73,16.14-23.78,7.99,1.15.34,19.5,25.48,28.03q-4.25,2.97-8.49,5.94Z"/>
              <path class="cls-11" d="M1368.32,457.62c27.02,2.38,26.88,9.34,10.19,28.87-8.41,4.92-36.06,5.23-44.16,0-6.22-4.01-9.33-17.66-13.59-23.78,13.15-2.97,34.77-6.22,47.56-5.1Z"/>
              <path class="cls-13" d="M1378.51,486.49q1.7.42,3.4.85c-20.59,77.12-29.42,72.8-47.56-.85,8.1,5.23,35.75,4.92,44.16,0Z"/>
            </g>
            <g>
              <g>
                <g>
                  <path class="cls-4" d="M1661.31,41.48c149.33-13.05,295.93,91.38,299.79,247.13-51.26,4.96-32.12-1.56-42.46-35.67-70.1-231.08-380.39-214.5-450.11-22.08-21.45,59.2,3.86,61.49-48.41,58.6-7.11-32.55,17.26-92.67,34.82-121.44,41.69-68.33,127-119.6,206.37-126.54Z"/>
                  <path class="cls-9" d="M1918.64,287.76c-5.02-.24-18.3.4-30.57,0-28.02-224.94-366.92-223.1-395.75,0-3.64-.1-23.34,5.43-30.57-.85,41.3-264.25,417.49-263.14,456.9.85Z"/>
                  <path class="cls-4" d="M1888.07,287.76c-5.99-.19-24.17,5.56-28.87-.85-.94-1.28-3.93-20.81-8.49-30.57-70.97-151.78-294.47-128.34-331.21,33.12-9.33.27-18.18-1.46-27.18-1.7,28.83-223.1,367.73-224.94,395.75,0Z"/>
                  <path class="cls-9" d="M1825.22,287.76c.18-5.97-11.41-28.77-15.29-34.82-43.27-67.49-141.55-79.86-204.67-34.82-41.82,29.84-46.96,69.39-50.96,71.34-1.47.72-19.07-.23-24.63,0,24.6-143.4,236.55-172.01,305.73-46.71,17.07,30.91,25.76,57.24-10.19,45.01Z"/>
                  <path class="cls-7" d="M1888.07,287.76c12.28.4,25.55-.24,30.57,0,2.12.1,15.49,6.02,41.61,3.4,5.22,5.73,3.38,7.37-2.55,8.49-16.02,3.03-107.86-2.26-139.28,0,2.97-7.78,6.55-3.51,6.79-11.89,35.95,12.23,27.26-14.1,10.19-45.01-69.18-125.3-281.13-96.69-305.73,46.71-3.39.14-6.8-.1-10.19,0,36.74-161.46,260.24-184.9,331.21-33.12,4.57,9.77,7.55,29.29,8.49,30.57,4.71,6.41,22.88.66,28.87.85Z"/>
                </g>
                <g>
                  <path class="cls-13" d="M1823.52,323.43c-11.58-3.08-10.27-11.74-6.79-22.08q68.79.42,137.58.85v15.29c-20.3,3.45-16.83,5.82-17.83,5.94-5.61.67-107.49,1.45-112.95,0Z"/>
                  <path class="cls-8" d="M1942.42,330.23c-.72,4.55-1.29,10.64-1.7,15.29h-113.8c-.24-5.07.32-10.23,0-15.29h115.5Z"/>
                  <path class="cls-12" d="M1940.72,345.51c-.07.76.32,8.11,0,15.29q-56.05-.85-112.1-1.7c-.04-3.68-1.5-9.29-1.7-13.59h113.8Z"/>
                  <g>
                    <path class="cls-4" d="M1940.72,360.8c-2.41,54.42,1.8,109.43,0,163.91-1.21,1.71-23.1.73-27.18.85l-.85-156.26q-5.52,1.27-11.04,2.55v152.02c-9.43,0-17.53.34-27.18,0q-.85-75.16-1.7-150.32-2.97-1.27-5.94-2.55-2.12,76.43-4.25,152.87c-11.31-.43-32.71,6.03-35.67-5.94-2.52-10.2,1.99-132.77,1.7-158.81q56.05.85,112.1,1.7Z"/>
                    <path class="cls-12" d="M1913.54,525.56c-9.89.29-11.29-1.7-11.89-1.7v-152.02q5.52-1.27,11.04-2.55l.85,156.26Z"/>
                    <path class="cls-12" d="M1874.48,523.86c-3.95-.14-7.94.15-11.89,0q2.12-76.43,4.25-152.87,2.97,1.27,5.94,2.55.85,75.16,1.7,150.32Z"/>
                  </g>
                  <path class="cls-12" d="M1957.71,299.65c3.64,37.4-12.15,10.76-15.29,30.57h-115.5c-.2-3.1.66-5.62-3.4-6.79,5.46,1.45,107.34.67,112.95,0,1-.12-2.47-2.49,17.83-5.94v-15.29q-68.79-.42-137.58-.85c.81-2.4,1.66-1.59,1.7-1.7,31.41-2.26,123.25,3.03,139.28,0Z"/>
                </g>
                <g>
                  <path class="cls-13" d="M1563.65,318.34c-25.47,3.62-108.26,8.31-125.69,6.79-1.04-.09-5.73-4.24-20.38-4.25q.42-10.62.85-21.23h144.37c1.02.73,1.49,16.92.85,18.68Z"/>
                  <path class="cls-8" d="M1553.46,330.23c-.72,4.53-1.3,10.66-1.7,15.29h-115.5c-.06-5.3.86-8.55,1.7-13.59l115.5-1.7Z"/>
                  <path class="cls-12" d="M1551.76,345.51c-.07.76.48,4.86,0,15.29q-56.9-.85-113.8-1.7c-.08-3.92-1.65-9-1.7-13.59h115.5Z"/>
                  <g>
                    <path class="cls-4" d="M1551.76,360.8c-2.48,53.75,2.3,108.38,1.7,162.21-3.2,4.1-15.82,2.53-27.18,2.55-.46-51.26,3.86-102.55,0-153.72l-7.64-2.55c-7.21,3.04.19,138.46-2.55,156.26-8.35.09-18.58-1.47-27.18-1.7v-148.62q-3.82-1.27-7.64-2.55-1.27,75.58-2.55,151.17c-5.34-.13-39.78,2.64-40.76.85-3.99-7.26.46-143.9,0-165.61q56.9.85,113.8,1.7Z"/>
                    <path class="cls-12" d="M1526.28,525.56c-3.4,0-6.8-.03-10.19,0,2.73-17.8-4.67-153.23,2.55-156.26l7.64,2.55c3.86,51.16-.46,102.45,0,153.72Z"/>
                    <path class="cls-12" d="M1488.92,523.86c-3.42-.09-6.74.09-10.19,0q1.27-75.58,2.55-151.17,3.82,1.27,7.64,2.55v148.62Z"/>
                  </g>
                  <path class="cls-12" d="M1563.65,318.34c-2.41,6.62-8.08-1.45-10.19,11.89l-115.5,1.7c.35-2.13-.23-4.6,0-6.79,17.43,1.51,100.22-3.18,125.69-6.79Z"/>
                </g>
                <path class="cls-2" d="M1556.86,534.05c-.43,2.41-6.41,6.57-7.64,6.79-22.75,4.18-98.14-1.85-126.54-1.7-.54-1.84,1.1-4.67,2.55-5.1,6.31-1.86,125.76-2.97,131.63,0Z"/>
              </g>
              <g>
                <path class="cls-9" d="M1988.28,454.22c-1.5,2.93,5.93,4.96,6.79,5.1-11.87-2.68,1.36,28.64,8.49,30.57,14.23,110.92,28.49,30.76,42.46-1.7.81-1.88,11.39-14.86,15.29-23.78,2.06,2.04-1.44,8.42,3.4,6.79-15.31,47.88-41.12,73.58-35.67,143.52,2.55,5.75,28.31.2,30.57,3.4,1.15,1.63-.86,33.73,0,39.92-.12,0,.51,1.7-1.7,1.7-245.11-.26-490.37-2.3-735.46-1.7.86-6.19-1.15-38.29,0-39.92,1.89-2.67,25.29.97,27.18-1.7,1.64-2.32.72-51.32,0-56.9,10.09,1.79,5.88-5.17,6.79-5.94,1.78-1.51,2.36,1.65,3.4.85l.85,62.85c115.22-.14,230.43.18,345.65,0,103.89-.16,207.79.12,311.68,0-.25-8.43,4.39-61.09,2.55-63.69-1.61-2.28-4.54,2.73-11.89-5.94-6.81-8.04-28.62-86.56-25.48-92.57.91-1.73,3.71-.38,5.1-.85Z"/>
                <path class="cls-2" d="M1961.1,549.34c-1.72,5.48-1.29,8.11-6.79,10.19-178.67-4.68-358,3.5-536.73,0,.42-1.84,2.01-1.98,1.7-5.1-.69-6.87-7.73-12.47,3.4-15.29,28.4-.15,103.79,5.88,126.54,1.7,1.23-.23,7.21-4.39,7.64-6.79,6.99,3.53,5.37,12.07,9.34,13.59,11.58,4.44,215.68-3.4,247.98,0,4.66-3.24-8.99-10.53,16.99-13.59,8.11-.95,109.8-.95,115.5,0,1.16.19,5.1,6.1,6.79,6.79,4.56,1.88,13.33-9.63,7.64,8.49Z"/>
                <path class="cls-6" d="M1706.33,617.28q145.65-.85,291.3-1.7-4.67-1.7-9.34-3.4c16.9,1.55,14.64-.37,12.74-20.38-199.51,1.7-399.23-3.6-598.73,0-1.65-5.79,9.91-2.67,22.93-3.4l-.85-3.4c185.73,4.86,372.16-3.64,557.96,0v-25.48c-9.33-.18-18.7.24-28.03,0,5.5-2.08,5.08-4.72,6.79-10.19,1.23,5.33,18.69.09,29.72,0,3.97-.03,15.26,8.2,17.83-1.7,7.35,8.68,10.28,3.66,11.89,5.94,1.84,2.6-2.79,55.26-2.55,63.69-103.89.12-207.79-.16-311.68,0Z"/>
                <path class="cls-10" d="M1419.28,554.43c.31,3.12-1.28,3.26-1.7,5.1q-11.04.42-22.08.85v23.78c1.21,1.7,24.48.73,28.87.85l.85,3.4c-13.02.73-24.58-2.39-22.93,3.4-20.92.38-27.05-10.21-22.93,20.38h608.92q4.67,1.7,9.34,3.4-145.65.85-291.3,1.7c-115.22.18-230.43-.14-345.65,0l-.85-62.85c14.95-11.53,12.08-15.07,18.68-30.57,13.66,19.61-4.9,38.12,40.76,30.57Z"/>
                <path class="cls-9" d="M1417.58,559.53c178.73,3.5,358.06-4.68,536.73,0,9.33.24,18.69-.18,28.03,0v25.48c-185.8-3.64-372.23,4.86-557.96,0-4.4-.12-27.67.86-28.87-.85v-23.78q11.04-.42,22.08-.85Z"/>
                <path class="cls-9" d="M1402.29,591.8c199.5-3.6,399.21,1.7,598.73,0,1.9,20.02,4.16,21.93-12.74,20.38h-608.92c-4.12-30.59,2.01-20,22.93-20.38Z"/>
              </g>
            </g>
          </g>
          <g>
            <path class="cls-5" d="M1090.13,626.9c13.91,0,27.93,0,41.75,0,146.56.05,291.81.13,438.43,0,68.86-.06,139.89-.05,208.77,0,146.17.11,292.31-.05,438.43,0,2.15,0-11.43,2.22,41.75,2.24,192.24.06,386.53-4.65,579.35-2.24,56.45,18.89,496.34,126.99,506.28,135.4,7.96,6.74,4.05,75.34-15.66,77.21H9.72c.32-16.09-17.91-66.76-5.22-77.21,10.28-8.47,462.49-116.1,516.72-135.4,189.64.04,379.28-.04,568.91,0Z"/>
            <path class="cls-1" d="M719.55,662.71c91.94-5.95,1664.82,4.56,1920.73,0q174.85,45.32,349.7,90.64-1317.89,1.68-2635.78,3.36c41.86-11.93,338.04-92.23,365.36-94Z"/>
          </g>
        </g>
      </g>
    </g>
  </g>
</svg>